<svg width="257" height="543" viewBox="0 0 257 543" fill="none" xmlns="http://www.w3.org/2000/svg">
<path d="M154.591 17.8809C154.591 17.8809 152.046 25.3841 144.155 27.3745C136.267 29.3648 117.743 30.6564 118.43 46.4762C119.117 62.293 97.1651 58.1773 101.968 83.2177C106.77 108.255 139.238 111.851 147.225 101.395C155.213 90.9382 154.591 17.8809 154.591 17.8809Z" fill="#6A3934"/>
<path d="M58.2131 454.311C54.8578 454.311 51.4848 453.157 48.7371 450.797C42.6488 445.563 41.9501 436.386 47.1754 430.292C48.0737 429.241 124.137 338.744 125.493 212.793C125.578 204.759 132.181 198.259 140.198 198.403C148.232 198.488 154.676 205.073 154.588 213.107C153.111 350.098 72.6767 445.264 69.2509 449.247C66.3769 452.591 62.3053 454.311 58.2131 454.311Z" fill="#6A3934"/>
<path d="M197.711 478.579C197.485 478.579 197.259 478.573 197.033 478.564C189.007 478.197 182.798 471.39 183.168 463.364C188.558 345.997 164.8 215.274 164.557 213.965C163.104 206.062 168.329 198.476 176.229 197.02C184.137 195.561 191.714 200.787 193.173 208.689C194.18 214.155 217.781 343.922 212.233 464.697C211.875 472.497 205.437 478.579 197.711 478.579Z" fill="#6A3934"/>
<path d="M54.3998 420.816L76.895 440.467L50.6951 470.46C50.6951 470.46 60.3649 488.352 61.4716 505.055C61.4716 505.055 36.7688 490.099 19.584 462.249L54.3998 420.816Z" fill="#632C29"/>
<path d="M181.108 454.244L213.701 454.023L213.995 493.847C213.995 493.847 233.102 500.819 245.012 512.585C245.012 512.585 216.604 517.781 182.543 508.343L181.108 454.244Z" fill="#632C29"/>
<path d="M187.39 168.874C184.254 168.874 181.19 167.758 178.771 165.68C142.649 134.639 158.034 82.272 158.706 80.0586C160.831 73.069 168.217 69.1294 175.207 71.2489C182.182 73.3684 186.124 80.7338 184.028 87.7087C183.884 88.1989 177.362 111.093 185.264 130.492L215.782 69.972C219.07 63.4521 227.023 60.8277 233.545 64.1184C240.065 67.4063 242.69 75.3617 239.399 81.8816L199.199 161.603C197.367 165.234 193.968 167.82 189.979 168.616C189.116 168.789 188.25 168.874 187.39 168.874Z" fill="#D8693A"/>
<path d="M187.381 171.519C183.72 171.519 180.039 170.26 177.045 167.685C139.631 135.532 155.483 81.5703 156.176 79.2894C158.724 70.9054 167.583 66.1674 175.973 68.7184C184.339 71.2606 189.072 80.0878 186.562 88.4571C186.403 88.9972 176.155 125.072 197.731 143.613C204.381 149.326 205.138 159.348 199.425 165.994C196.287 169.643 191.846 171.519 187.381 171.519Z" fill="#D28026"/>
<path d="M185.229 147.97C185.229 147.97 223.362 226.124 227.977 398.832C227.977 398.832 198.621 425.801 168.761 417.561C138.9 409.318 130.184 404.683 106.797 403.441C83.409 402.199 47.2986 401.313 42.1614 364.806C42.1614 364.806 104.83 270.686 111.071 242.915C117.309 215.145 122.214 176.95 163.488 147.228L185.229 147.97Z" fill="#E29D4C"/>
<path d="M218.639 40.8045C218.639 40.8045 219.437 36.6918 224.956 35.2533C230.475 33.8149 234.009 32.2121 232.744 26.3116C232.744 26.3116 245.285 19.7301 235.997 12.72C235.997 12.72 237.183 1.59125 228.015 3.65201C218.847 5.71278 218.222 13.2953 219.64 16.3718C219.64 16.3718 223.336 23.6784 220.107 29.8284C217.409 34.9744 218.639 40.8045 218.639 40.8045Z" fill="#C5DDE1"/>
<path d="M220.867 88.7309L236.314 85.8306L237.735 55.4534L212.721 58.2158L220.867 88.7309Z" fill="#FA9C3D"/>
<path d="M215.8 77.8867L238.891 74.1409L238.803 62.5337L213.223 65.3577L215.8 77.8867Z" fill="#AA5C66"/>
<path d="M211.256 47.5652L214.523 46.4761L220.01 48.9067L234.869 48.5368L238.193 57.006L213.792 59.7008L211.256 47.5652Z" fill="#AA5C66"/>
<path d="M210.312 60.0801L240.407 56.7556L239.818 51.4216L209.722 54.7461L210.312 60.0801Z" fill="#AA5C66"/>
<path d="M188.444 41.7817H164.434L163.703 73.5064L187.536 74.0054L188.444 41.7817Z" fill="#E97D54"/>
<path d="M198.386 58.4236C208.781 55.6994 215.683 45.8623 214.708 35.1621L213.34 20.1438C212.386 9.65503 202.238 2.53628 192.051 5.20471L186.403 6.68427C176.008 9.40847 169.107 19.2455 170.082 29.9457L170.918 39.1486C172.148 52.6845 185.241 61.8699 198.386 58.4236Z" fill="#E97D54"/>
<path d="M157.717 62.1875L198.703 65.7659L194.608 80.6257L200.823 96.9475C204.979 105.387 205.71 114.934 202.881 123.831L196.645 143.444L196.954 151.681C197.256 159.748 190.023 166.315 181.322 165.872L154.094 164.486C144.351 163.99 137.773 155.057 140.826 146.47L148.347 125.329L145.822 113.351C142.646 98.2803 145.373 82.7893 153.625 69.0156L157.717 62.1875Z" fill="#E29D4C"/>
<path d="M185.904 38.9521C185.904 38.9521 202.012 27.2334 202.825 12.8961C202.825 12.8961 208.303 13.7239 213.134 18.9874C213.134 18.9874 213.601 0.0529992 193.472 0.0529992C173.343 0.0529992 157.555 -2.33947 151.438 29.303C146.723 53.6799 147.24 55.7494 147.24 55.7494C147.24 55.7494 163.961 62.1871 177.755 59.6978C177.755 59.6978 184.824 49.5906 185.904 38.9521Z" fill="#6A3934"/>
<path d="M184.319 59.7007C184.319 59.7007 174.511 43.4817 154.567 48.6013C134.623 53.7209 108.913 77.9687 104.216 106.896C99.5165 135.823 74.0857 144.944 74.0857 144.944C74.0857 144.944 69.1099 155.171 81.8268 159.319C94.5436 163.467 94.5436 173.694 94.5436 173.694C94.5436 173.694 122.15 157.44 125.781 127.53C130.493 88.7334 149.28 66.4525 168.241 62.5364L184.319 59.7007Z" fill="#FB8C17"/>
<path d="M167.98 81.7879C185.065 82.6304 200.79 90.0045 199.748 77.8836C199.748 77.8836 212.723 58.2123 185.555 55.7494C153.601 52.852 154.185 44.5033 152.257 62.695C139.725 77.273 147.225 79.5598 167.98 81.7879Z" fill="#FB8C17"/>
<path d="M185.552 48.6012C191.439 48.6012 196.211 43.829 196.211 37.9422C196.211 32.0554 191.439 27.2832 185.552 27.2832C179.665 27.2832 174.893 32.0554 174.893 37.9422C174.893 43.829 179.665 48.6012 185.552 48.6012Z" fill="#E97D54"/>
<path d="M202.563 176.425C199.105 176.425 195.721 175.212 193.029 172.94C158.278 143.646 155.324 93.078 155.213 90.9409C154.799 82.7801 161.078 75.8287 169.236 75.4177C177.326 74.9421 184.328 81.2595 184.759 89.4057C184.792 89.937 186.397 114.487 199.149 135.074L228.731 74.9979C232.339 67.6707 241.21 64.6559 248.54 68.2637C255.87 71.8715 258.885 80.7399 255.277 88.07L215.832 168.17C213.821 172.253 210.046 175.183 205.59 176.113C204.589 176.319 203.573 176.425 202.563 176.425Z" fill="#E97D54"/>
<path d="M192.436 182.396C194.168 182.572 195.92 182.478 197.635 182.146C195.286 174.399 193.111 167.97 191.264 162.892C194.828 160.285 197.127 156.249 196.954 151.678L196.645 143.441L197.82 139.745C185.854 117.954 186.838 91.5166 186.852 91.1967C187.322 81.43 179.827 73.1635 170.029 72.6175C160.236 72.1155 151.893 79.6452 151.391 89.4382C151.279 91.6282 149.016 143.473 181.483 177.071C184.516 180.206 188.417 181.985 192.436 182.396Z" fill="#D3873E"/>
<path d="M146.151 161.861L194.306 164.483" stroke="#D78B37" stroke-miterlimit="10"/>
<path d="M202.555 179.384C198.515 179.384 194.452 178.01 191.121 175.203C155.401 145.087 152.371 93.2807 152.26 91.0907C151.761 81.2977 159.296 72.9578 169.086 72.4587C178.891 72.0037 187.184 79.4659 187.715 89.2296C187.736 89.6141 190.211 127.997 214.006 148.061C221.501 154.381 222.455 165.581 216.135 173.075C212.624 177.238 207.607 179.384 202.555 179.384Z" fill="#E29D4C"/>
<path opacity="0.2" d="M254.559 505.012C254.559 525.443 197.698 542.012 127.559 542.012C57.4191 542.012 0.558655 525.443 0.558655 505.012C0.558655 484.577 57.4191 468.012 127.559 468.012C197.698 468.012 254.559 484.577 254.559 505.012Z" fill="#569B94"/>
</svg>
