<svg width="207" height="515" viewBox="0 0 207 515" fill="none" xmlns="http://www.w3.org/2000/svg">
<path d="M100.152 514.024C145.876 514.024 182.943 504.141 182.943 491.951C182.943 479.761 145.876 469.878 100.152 469.878C54.4276 469.878 17.3607 479.761 17.3607 491.951C17.3607 504.141 54.4276 514.024 100.152 514.024Z" fill="#D6D8E5"/>
<path d="M70.2735 75.2049C70.2735 75.2049 55.6916 82.466 67.9569 89.3161C77.0793 94.2558 133.29 90.0225 133.29 90.0225C133.29 90.0225 148.494 84.5363 135.502 72.4572C125.412 65.3255 100.123 54.6226 70.2735 75.2049Z" fill="#F9BC9B"/>
<path d="M44.4872 103.636C37.0237 114.602 27.9734 153.488 27.9734 153.488C27.9734 153.488 141.517 193.194 152.927 182.155C164.337 171.119 171.288 124.099 169.568 118.831C165.788 107.256 51.9491 92.6679 44.4872 103.636Z" fill="#29282D"/>
<path d="M71.9463 473.749C71.9463 473.749 52.5655 494.771 54.0005 497.149C55.4356 499.522 87.7364 484.679 90.608 481.351C93.4796 478.025 91.5662 472.799 91.5662 472.799L71.9463 473.749Z" fill="white"/>
<path d="M61.4194 398.205C61.4194 398.205 65.2478 471.376 66.6843 475.174C73.3827 476.127 96.3527 473.751 96.3527 473.751C96.3527 473.751 95.396 400.106 95.396 397.256C87.7378 397.731 61.4194 398.205 61.4194 398.205Z" fill="#29282D"/>
<path d="M132.884 473.749C132.884 473.749 152.264 494.771 150.829 497.149C149.394 499.522 117.093 484.679 114.222 481.351C111.35 478.025 113.265 472.799 113.265 472.799L132.884 473.749Z" fill="white"/>
<path d="M143.412 398.205C143.412 398.205 139.583 471.376 138.147 475.174C131.448 476.127 108.478 473.751 108.478 473.751C108.478 473.751 109.434 400.106 109.434 397.256C117.092 397.731 143.412 398.205 143.412 398.205Z" fill="#29282D"/>
<path d="M195.848 180.362C165.699 119.071 142.969 114.555 137.466 111.229C143.209 97.212 140.617 91.7502 138.463 89.8519C107.12 78.6862 71.4464 86.8105 67.4003 89.6129C60.6069 94.3121 66.9082 106.903 69.2601 111.395C63.3006 114.719 40.8305 120.064 11.1714 180.363C-18.9753 241.655 24.0929 286.315 24.0929 286.315C24.0929 286.315 25.0496 395.118 26.9645 397.967C28.5667 400.357 85.0916 399.747 103.511 399.483C121.931 399.747 178.454 400.357 180.056 397.967C181.971 395.118 182.926 286.315 182.926 286.315C182.926 286.315 225.996 241.652 195.848 180.362Z" fill="#D69D4E"/>
<path d="M68.6146 74.6533C68.6146 74.6533 68.6161 89.4724 79.1183 99.3518C79.1183 99.3518 80.7741 76.3004 88.5136 68.068C83.5384 67.5185 68.6146 74.6533 68.6146 74.6533Z" fill="#29282D"/>
<path d="M115.497 65.7011C123.237 73.9334 124.894 96.9848 124.894 96.9848C135.396 87.1054 135.398 72.2863 135.398 72.2863C135.398 72.2863 120.473 65.1516 115.497 65.7011Z" fill="#29282D"/>
<path d="M113.389 12.0832C113.389 18.7537 108.316 24.1592 102.056 24.1592C95.7977 24.1592 90.7244 18.7552 90.7244 12.0832C90.7244 5.41723 95.7992 0.0117188 102.056 0.0117188C108.316 0.0117188 113.389 5.41723 113.389 12.0832Z" fill="#323850"/>
<path d="M68.6145 74.6536C68.6145 74.6536 60.8751 58.7354 72.4827 46.1129C84.0919 33.4904 122.233 35.1345 133.288 43.3668C144.344 51.6021 138.265 71.9089 135.501 72.457C131.631 70.8114 107.309 60.9335 68.6145 74.6536Z" fill="#4A5582"/>
<path d="M75.2486 48.8607C75.2486 48.8607 78.5649 13.7333 104.546 13.1822C124.45 12.7606 129.974 43.9195 129.974 43.9195L75.2486 48.8607Z" fill="#4A5582"/>
<path d="M131.521 39.5886C114.141 33.976 90.8088 32.915 74.41 41.9481C72.5395 42.9817 74.2122 45.8222 76.0842 44.7916C91.6581 36.2092 114.165 37.4437 130.637 42.7625C132.678 43.4216 133.546 40.2416 131.521 39.5886Z" fill="#323850"/>
<path d="M24.5651 286.976C38.1996 283.246 61.3811 267.832 57.608 251.691C53.0591 232.238 48.5592 211.018 48.8306 190.724C49.0453 190.348 49.1143 189.89 48.8766 189.402C48.9195 187.57 48.9395 185.732 49.0667 183.924C49.1955 182.086 46.3254 182.097 46.1951 183.924C46.1552 184.469 46.1629 185.026 46.1353 185.575C37.3426 176.186 17.3363 174.268 8.81183 183.388C7.55463 184.734 9.58148 186.754 10.8417 185.405C18.9553 176.721 39.8723 179.747 45.9666 190.136C45.7551 207.062 49.2231 224.47 52.3906 240.877C53.2293 245.226 54.1599 249.56 55.1703 253.871C56.4796 259.473 50.8222 265.745 47.3051 269.578C41.2307 276.204 32.5453 281.83 23.8001 284.222C22.0185 284.716 22.779 287.464 24.5651 286.976Z" fill="#C97F3D"/>
<path d="M40.9901 302.649C39.5795 301.478 37.5358 303.485 38.9601 304.664C48.4596 312.514 63.9477 300.694 67.1996 291.208C67.799 289.459 65.0255 288.719 64.4322 290.449C61.9393 297.721 48.5378 308.884 40.9901 302.649Z" fill="#C97F3D"/>
<path d="M198.873 183.391C190.348 174.272 170.343 176.19 161.551 185.579C161.522 185.029 161.529 184.472 161.489 183.927C161.361 182.101 158.491 182.09 158.619 183.927C158.747 185.736 158.765 187.573 158.808 189.406C158.572 189.893 158.641 190.351 158.855 190.727C159.127 211.022 154.628 232.24 150.08 251.695C146.305 267.835 169.488 283.248 183.121 286.979C184.91 287.468 185.667 284.72 183.884 284.228C175.139 281.837 166.454 276.209 160.379 269.584C156.862 265.751 151.205 259.478 152.514 253.878C153.523 249.567 154.454 245.233 155.294 240.884C158.463 224.477 161.929 207.068 161.718 190.143C167.814 179.753 188.729 176.727 196.844 185.411C198.105 186.757 200.13 184.736 198.873 183.391Z" fill="#C97F3D"/>
<path d="M168.726 304.664C170.15 303.485 168.108 301.478 166.696 302.649C159.148 308.885 145.747 297.721 143.254 290.449C142.66 288.719 139.887 289.459 140.485 291.208C143.737 300.694 159.225 312.514 168.726 304.664Z" fill="#C97F3D"/>
<path d="M117.886 136.176C114.183 136.176 114.183 141.876 117.886 141.876C121.589 141.876 121.589 136.176 117.886 136.176Z" fill="#C97F3D"/>
<path d="M120.758 159.694C120.758 156.018 115.015 156.018 115.015 159.694C115.015 159.93 115.015 160.168 115.015 160.407C115.015 164.082 120.758 164.082 120.758 160.407C120.758 160.168 120.758 159.93 120.758 159.694Z" fill="#C97F3D"/>
<path d="M117.167 180.362C113.465 180.362 113.465 186.064 117.167 186.064C120.871 186.063 120.871 180.362 117.167 180.362Z" fill="#C97F3D"/>
<path d="M117.886 122.635C121.589 122.635 121.589 116.933 117.886 116.933C114.183 116.933 114.183 122.635 117.886 122.635Z" fill="#C97F3D"/>
<path d="M116.451 102.678C120.154 102.678 120.154 96.9761 116.451 96.9761C112.748 96.9776 112.748 102.678 116.451 102.678Z" fill="#C97F3D"/>
<path d="M117.167 203.167C113.465 203.167 113.465 208.869 117.167 208.869C120.871 208.869 120.871 203.167 117.167 203.167Z" fill="#C97F3D"/>
<path d="M116.451 227.4C120.154 227.4 120.154 221.699 116.451 221.699C112.748 221.699 112.748 227.4 116.451 227.4Z" fill="#C97F3D"/>
<path d="M117.167 239.515C113.465 239.515 113.465 245.216 117.167 245.216C120.871 245.216 120.871 239.515 117.167 239.515Z" fill="#C97F3D"/>
<path d="M117.167 260.183C113.465 260.183 113.465 265.885 117.167 265.885C120.871 265.885 120.871 260.183 117.167 260.183Z" fill="#C97F3D"/>
<path d="M116.451 288.69C116.69 288.69 116.929 288.69 117.168 288.69C120.871 288.69 120.871 282.989 117.168 282.989C116.929 282.989 116.692 282.989 116.451 282.989C112.748 282.989 112.748 288.69 116.451 288.69Z" fill="#C97F3D"/>
<path d="M116.451 312.922C120.154 312.922 120.154 307.221 116.451 307.221C112.748 307.221 112.748 312.922 116.451 312.922Z" fill="#C97F3D"/>
<path d="M116.451 338.578C120.154 338.578 120.154 332.876 116.451 332.876C112.748 332.876 112.748 338.578 116.451 338.578Z" fill="#C97F3D"/>
<path d="M117.167 354.257C113.465 354.257 113.465 359.958 117.167 359.958C120.871 359.958 120.871 354.257 117.167 354.257Z" fill="#C97F3D"/>
<path d="M115.732 379.915C119.435 379.915 119.435 374.214 115.732 374.214C112.029 374.214 112.029 379.915 115.732 379.915Z" fill="#C97F3D"/>
<path d="M179.618 387.753C154.989 387.444 130.355 387.464 105.725 387.468C105.981 379.062 106.094 370.647 106.205 362.242C106.605 331.931 106.725 301.613 106.846 271.302C107.088 209.866 107.12 148.433 107.12 87.0007C107.12 83.3214 101.378 83.3214 101.378 87.0007C101.378 145.242 101.34 203.485 101.138 261.73C101.033 292.259 100.894 322.792 100.567 353.321C100.46 363.511 100.327 373.699 100.092 383.883C100.063 385.077 100.014 386.27 99.9802 387.464C75.0831 387.47 51.1426 387.441 26.2486 387.04C24.3965 387.009 24.3996 389.857 26.2486 389.892C51.112 390.294 75.0233 390.321 99.8897 390.315C99.856 391.316 99.8376 392.318 99.7962 393.324C99.7548 394.326 99.6981 395.326 99.6322 396.329C99.58 397.13 99.5785 397.398 99.6245 397.377C99.2734 398.106 99.1814 398.969 99.6184 399.882C99.9664 400.611 100.673 401.08 101.431 401.31C102.703 401.697 103.979 401.053 104.673 400.001C106.206 397.669 105.567 392.919 105.656 390.324C130.311 390.315 154.967 390.298 179.621 390.609C181.468 390.625 181.468 387.776 179.618 387.753Z" fill="#C97F3D"/>
<path d="M53.2983 117.322C50.2994 115.151 47.44 120.1 50.3991 122.244C59.2746 128.663 53.237 148.273 51.8172 156.587C49.5926 169.627 47.6394 182.57 47.0629 195.802C46.9034 199.479 52.6452 199.464 52.8061 195.802C53.6049 177.466 57.5728 159.673 59.8924 141.526C61.027 132.656 61.142 122.996 53.2983 117.322Z" fill="#29282D"/>
<path d="M163.708 119.666C147.029 136.607 157.799 172.922 157.125 193.902C157.005 197.581 162.75 197.57 162.868 193.902C163.21 183.346 162.147 172.768 161.655 162.233C161.12 150.763 158.937 132.668 167.769 123.697C170.359 121.07 166.301 117.033 163.708 119.666Z" fill="#29282D"/>
</svg>
