<svg width="251" height="515" viewBox="0 0 251 515" fill="none" xmlns="http://www.w3.org/2000/svg">
<path d="M116.534 514.024C180.894 514.024 233.068 504.362 233.068 492.445C233.068 480.527 180.894 470.866 116.534 470.866C52.174 470.866 0 480.527 0 492.445C0 504.362 52.174 514.024 116.534 514.024Z" fill="#D6D8E5"/>
<path d="M61.4968 223.729H72.9536C84.919 223.729 94.6195 233.702 94.6195 246.002V250.405C94.6195 262.706 84.919 272.678 72.9536 272.678H61.4968C49.5314 272.678 39.8309 262.706 39.8309 250.405V246.002C39.8309 233.702 49.5314 223.729 61.4968 223.729Z" fill="#632C29"/>
<path d="M138.904 28.7167C138.904 1.2899 119.031 -0.21807 104.368 0.0332601C89.7045 0.284591 87.4818 21.1595 87.4818 21.1595L122.957 46.7779L138.904 28.7167Z" fill="#6E324C"/>
<path d="M58.7034 173.02C58.6753 173.02 58.65 173.02 58.6219 173.02C53.6846 172.989 49.1856 170.111 46.974 165.573L20.5056 111.262C17.26 104.603 19.879 96.4974 26.3591 93.1607C32.8364 89.8212 40.7215 92.5165 43.9672 99.1782L58.8861 129.791L86.7877 74.2878C90.1148 67.6695 98.0309 65.0781 104.466 68.4985C110.904 71.9189 113.425 80.0569 110.097 86.6723L70.3598 165.723C68.1061 170.207 63.6099 173.02 58.7034 173.02Z" fill="#FFD1AA"/>
<path d="M58.7063 175.269C58.6726 175.269 58.6417 175.269 58.6108 175.269C52.8529 175.231 47.6008 171.874 45.0211 166.582L18.5527 112.271L45.9231 98.1738L58.9171 124.838L84.8459 73.2603L112.042 87.7103L72.3044 166.758C69.6742 171.987 64.4249 175.269 58.7063 175.269Z" fill="#808E70"/>
<path d="M129.979 12.0508C129.979 12.0508 138.159 18.5594 140.02 35.0374C141.88 51.5155 161.551 44.2904 160.092 63.0073C160.092 63.0073 168.913 65.2462 170.939 77.2321C172.963 89.215 158.392 92.2108 158.392 92.2108C158.392 92.2108 159.364 106.941 141.877 106.941C124.393 106.941 108.364 103.697 107.878 74.9845C107.394 46.2722 129.979 12.0508 129.979 12.0508Z" fill="#6E324C"/>
<path d="M71.7088 465.344C71.04 465.344 70.3599 465.292 69.6771 465.182C62.5169 464.038 57.6133 457.143 58.7261 449.782C75.2074 340.754 88.1367 186.737 88.2659 185.197C88.8842 177.776 95.2462 172.276 102.46 172.911C109.679 173.547 115.029 180.081 114.411 187.503C114.282 189.057 101.274 343.995 84.6549 453.927C83.6489 460.586 78.0652 465.344 71.7088 465.344Z" fill="#FFD1AA"/>
<path d="M96.6062 425.311L53.3895 418.407C69.8062 309.809 79.4448 185.819 79.5404 184.58L123.139 188.128C123.041 189.381 113.279 315.006 96.6062 425.311Z" fill="#632C29"/>
<path d="M145.704 470.409C145.612 470.409 145.519 470.406 145.423 470.406C138.179 470.25 132.43 464.085 132.581 456.638C135.338 321.347 115.917 199.503 115.721 198.29C114.532 190.941 119.363 183.993 126.511 182.774C133.658 181.541 140.419 186.518 141.605 193.867C141.804 195.107 161.621 319.432 158.814 457.204C158.667 464.556 152.822 470.409 145.704 470.409Z" fill="#FFD1AA"/>
<path d="M170.759 422.329L127.034 421.387C129.737 288.632 107.771 202.776 107.549 201.923L149.774 190.215C150.749 193.921 173.606 282.6 170.759 422.329Z" fill="#632C29"/>
<path d="M110.814 84.619C105.582 84.619 101.339 80.2568 101.339 74.8777V48.2107C101.339 42.8317 105.582 38.4695 110.814 38.4695C116.047 38.4695 120.29 42.8317 120.29 48.2107V74.8777C120.29 80.2568 116.047 84.619 110.814 84.619Z" fill="#FEB793"/>
<path d="M108.853 55.017C108.853 55.017 119.854 26.5357 144.774 55.017C169.694 83.4982 200.833 133.527 248.4 133.499C248.4 133.499 256.44 156.638 240.762 161.182C225.084 165.727 230.382 182.586 230.382 182.586C230.382 182.586 204.368 175.269 184.512 148.81C167.081 125.574 142.077 54.9043 108.853 55.017Z" fill="#FB8C17"/>
<path d="M105.135 57.7265C115.038 57.7265 123.49 50.3686 125.123 40.324L126.525 31.6864C128.588 18.9869 119.062 7.42285 106.537 7.42285C96.6342 7.42285 88.1814 14.7808 86.5487 24.8253L85.1465 33.463C83.0811 46.1624 92.6073 57.7265 105.135 57.7265Z" fill="#FFD1AA"/>
<path d="M87.4847 21.1563C87.4847 21.1563 95.4486 9.88688 109.193 7.60757C109.193 7.60757 112.009 23.8025 124.151 36.2853L128.765 38.4692C128.765 38.4692 137.266 11.8195 113.223 4.58005C89.1792 -2.66231 87.4847 21.1563 87.4847 21.1563Z" fill="#6E324C"/>
<path d="M131.814 429.687H160.621V469.169C160.621 469.169 178.996 476.221 190.399 487.973C190.399 487.973 162.967 492.918 132.817 483.333L131.814 429.687Z" fill="#40392C"/>
<path d="M57.8268 426.281L90.2892 431.406L86.5124 479.353C86.5124 479.353 70.8545 501.461 44.1556 504.512C44.1556 504.512 45.4904 491.934 55.0954 475.161L57.8268 426.281Z" fill="#40392C"/>
<path d="M131.839 70.0298C131.839 70.0298 176.377 125.687 170.383 293.991C170.383 293.991 117.376 313.009 66.2486 289.915C66.2486 289.915 54.0415 162.479 90.4099 71.6764L131.839 70.0298Z" fill="#808E70"/>
<path d="M155.416 297.927C164.748 296.006 170.386 293.993 170.386 293.993C173.496 206.582 162.978 149.567 152.151 114.941L144.35 117.302C144.35 117.302 169.408 220.7 155.416 297.927Z" fill="#69755C"/>
<path d="M98.5003 300.527C87.687 283.769 89.7131 241.314 91.3401 207.197C92.2759 187.622 93.1555 169.133 90.7304 164.866C82.4096 150.231 82.4152 133.17 90.7472 119.222C99.7058 104.226 99.8773 75.1643 99.8773 74.8726L102.794 74.8812C102.791 76.1061 102.62 105.076 93.2314 120.794C82.0499 139.514 89.5164 156.795 93.2482 163.358C95.9768 168.16 95.4401 182.468 94.2514 207.35C92.644 241.028 90.6432 282.94 100.928 298.875L98.5003 300.527Z" fill="#69755C"/>
<path d="M144.361 256.078C138.822 256.078 133.478 252.978 130.755 247.573C126.868 239.857 129.805 230.358 137.311 226.363C164.712 211.78 171.692 183.683 173.336 173.78C158.226 139.81 116.639 93.1606 116.204 92.6781C110.477 86.2851 110.879 76.3301 117.098 70.4426C123.316 64.5551 133 64.9682 138.727 71.3613C140.717 73.5828 187.617 126.209 203.236 165.578C204.129 167.829 204.503 170.261 204.326 172.688C204.16 174.959 199.751 228.573 151.384 254.315C149.136 255.511 146.733 256.078 144.361 256.078Z" fill="#808E70"/>
<path d="M138.601 221.784L136.046 223.231L154.132 256.984L156.687 255.537L138.601 221.784Z" fill="#69755C"/>
<path d="M117.1 70.4437C117.041 70.4986 117.002 70.5679 116.943 70.6257L90.4099 71.6801C89.9125 72.9252 89.4264 74.179 88.9459 75.4385L84.8431 73.2603L82.55 77.8247C88.7379 83.1113 109.625 81.5889 128.608 80.9563C136.535 80.6905 140.739 78.674 142.757 75.9701C140.492 73.3412 139.044 71.7206 138.73 71.3681C133.003 64.9693 123.319 64.5562 117.1 70.4437Z" fill="#69755C"/>
<path d="M133.195 71.4292L55.9284 238.835L59.4499 240.552L136.717 73.147L133.195 71.4292Z" fill="#632C29"/>
<path d="M104.379 50.7126C118.694 52.9197 142.594 38.4696 139.823 56.2303C139.823 56.2303 155.453 77.1688 128.605 78.0643C101.757 78.9599 71.0567 81.6523 83.5983 64.3134C83.6039 64.3134 71.6525 45.6629 104.379 50.7126Z" fill="#FB8C17"/>
<path d="M44.4759 110.997L28.107 109.723L23.15 77.469H49.4329L44.4759 110.997Z" fill="#632C29"/>
<path d="M48.4943 98.8255L24.0886 97.5515L22.8493 85.1497H49.7336L48.4943 98.8255Z" fill="#E29D4C"/>
<path d="M49.7336 65.9277L46.2182 65.1506L40.8003 68.3948L25.3278 69.7497L22.8493 79.1789H48.4943L49.7336 65.9277Z" fill="#E29D4C"/>
<path d="M52.1024 73.418H20.4803V79.1812H52.1024V73.418Z" fill="#E29D4C"/>
<path d="M125.632 46.7717C131.442 46.7717 136.153 41.9292 136.153 35.9558C136.153 29.9823 131.442 25.1399 125.632 25.1399C119.821 25.1399 115.111 29.9823 115.111 35.9558C115.111 41.9292 119.821 46.7717 125.632 46.7717Z" fill="#FFD1AA"/>
<path d="M48.7641 60.7919C48.7641 60.7919 49.8937 55.8953 44.7119 51.5909C39.5301 47.2865 36.5401 43.7794 40.7244 37.9526C40.7244 37.9526 30.5433 24.5425 43.8071 21.4688C43.8071 21.4688 47.9014 8.7029 56.6717 15.4975C65.4421 22.2892 62.4521 30.8951 59.4622 33.5615C59.4622 33.5615 52.0098 39.7292 52.4847 48.0578C52.8837 55.02 48.7641 60.7919 48.7641 60.7919Z" fill="#C5DDE1"/>
</svg>
