<svg width="252" height="515" viewBox="0 0 252 515" fill="none" xmlns="http://www.w3.org/2000/svg">
<path d="M125.946 514.012C195.121 514.012 251.199 503.628 251.199 490.819C251.199 478.009 195.121 467.625 125.946 467.625C56.7711 467.625 0.693604 478.009 0.693604 490.819C0.693604 503.628 56.7711 514.012 125.946 514.012Z" fill="#D6D8E5"/>
<path d="M68.2353 451.265L60.4556 475.322C60.4556 475.322 71.2989 492.656 71.1387 494.785C70.9815 496.908 29.8986 477.973 28.783 474.866C27.6674 471.755 42.7584 439.836 42.7584 439.836L68.2353 451.265Z" fill="#D69D4E"/>
<path d="M201.227 438.256L208.971 462.323C208.971 462.323 227.734 469.577 228.843 471.381C229.951 473.179 185.993 483.211 183.293 481.404C180.594 479.595 174.157 444.726 174.157 444.726L201.227 438.256Z" fill="#D69D4E"/>
<path d="M58.7067 240.689C58.7067 240.689 50.4043 242.244 45.8734 292.693C41.3426 343.141 33.037 434.726 25.4891 454.131C31.5293 461.891 66.2577 474.306 105.515 471.977C144.775 469.653 208.447 446.623 208.447 446.623C208.447 446.623 190.832 405.233 171.202 324.514C160.007 278.483 151.573 240.689 151.573 240.689C151.573 240.689 87.3981 250.781 58.7067 240.689Z" fill="#29282D"/>
<path d="M121.37 27.2573C121.37 27.2573 133.451 55.9706 124.39 62.9574C115.332 69.1652 88.9043 79.255 89.662 59.8543C79.8456 58.2995 74.3127 38.6412 89.662 40.4487C94.946 28.0315 113.819 16.3885 121.37 27.2573Z" fill="#F9BC9B"/>
<path d="M89.6651 4.23185C82.8252 4.36141 77.1305 5.90336 72.4549 8.34265C72.8376 5.65543 71.9087 2.45796 66.5128 0.605701C55.9418 -3.01565 46.8878 10.4396 47.3873 18.7188C47.812 25.7712 50.0837 30.5442 56.6559 28.2937C55.4921 32.6716 55.2665 37.0799 55.9418 40.9668C58.4577 55.4538 66.0102 69.9424 90.6702 64.7663C89.6635 59.8525 89.6635 59.8525 89.6635 59.8525C89.6635 59.8525 79.8518 55.7129 81.1074 47.6912C82.3491 39.7623 89.6635 40.4469 89.6635 40.4469C89.6635 40.4469 93.6903 54.4173 105.772 33.2042C103.756 47.6912 117.852 33.2042 119.864 22.8568C121.876 12.5094 116.342 3.712 89.6651 4.23185Z" fill="#29282D"/>
<path d="M152.324 142.51C152.324 142.51 153.457 137.078 158.364 137.466C163.27 137.855 177.239 147.943 166.67 156.093C162.139 149.884 152.324 142.51 152.324 142.51Z" fill="#F9BC9B"/>
<path d="M166.67 159.2C162.139 149.884 150.06 142.897 150.06 142.897L147.065 145.757C143.774 122.372 138.965 100.569 135.715 95.5573C127.409 92.451 72.2948 100.212 72.2948 100.212C72.2948 100.212 30.017 160.751 55.6852 209.647C43.6065 227.5 44.3611 239.141 52.6651 242.244C60.9707 245.347 63.9892 241.47 73.8056 245.347C83.6204 249.226 107.781 253.884 124.391 250.779C141 247.676 162.139 239.14 163.648 228.272C164.946 218.921 155.646 207.819 151.574 185.144C156.885 177.217 165.153 164.393 166.67 159.2Z" fill="#4A5582"/>
<path d="M73.5551 112.888C81.4531 112.05 86.9999 113.905 89.7913 122.285C92.3757 130.041 94.0312 138.362 94.6956 146.521C94.8574 148.501 97.8775 148.519 97.7157 146.521C96.9346 136.977 95.3413 126.189 91.0998 117.581C89.9313 115.213 88.447 113.539 86.7573 112.302C87.3252 112.269 87.8728 111.939 88.0969 111.229C89.7306 106.029 92.8207 101.533 96.2625 97.4266C97.5274 95.9198 95.402 93.7108 94.1293 95.2336C90.3344 99.7539 86.9844 104.679 85.1827 110.402C85.0722 110.759 85.1079 111.056 85.2044 111.322C81.8809 109.585 77.8822 109.322 73.5551 109.783C71.6413 109.986 71.618 113.094 73.5551 112.888Z" fill="#323850"/>
<path d="M165.705 154.486C163.259 150.674 160.076 147.54 156.559 144.792C152.292 141.459 150.574 140.472 146.592 143.598C136.202 151.755 127.985 162.477 117.692 170.772C117.496 170.812 117.292 170.894 117.084 171.054C117.023 171.098 116.981 171.161 116.919 171.212C114.331 168.645 110.678 167.767 107.316 169.859C102.424 166.882 100.678 160.29 99.6746 154.906C99.3074 152.94 96.3962 153.775 96.7618 155.73C97.935 162.021 100.221 169.379 106.015 172.701C106.451 172.952 106.877 172.955 107.238 172.815C107.616 173 108.069 173.023 108.54 172.701C110.754 171.289 112.807 171.489 114.696 173.296C112.114 176.102 110.326 179.59 109.345 183.365C108.842 185.301 111.755 186.123 112.257 184.189C113.161 180.696 114.89 177.322 117.476 174.824C117.513 174.798 117.565 174.801 117.602 174.773C125.447 168.789 132.223 161.509 139.219 154.542C139.872 153.894 141.062 152.541 142.474 151.055C142.526 151.074 142.558 151.111 142.612 151.123C146.945 152.296 150.241 155.858 153.163 159.81C153.275 160.183 153.511 160.505 153.829 160.725C156.001 163.753 157.985 166.911 160.065 169.352C160.119 169.414 160.177 169.433 160.233 169.483C159.886 170.159 159.551 170.844 159.205 171.517C154.54 180.592 149.313 189.367 143.829 197.937C133.886 213.476 123.93 228.123 105.123 231.887C85.5124 235.816 62.273 225.641 54.5027 206.131C53.7761 204.303 50.8525 205.104 51.59 206.957C59.1985 226.054 78.7504 235.798 98.1264 235.68C120.235 235.55 132.681 220.14 144.18 202.95C150.936 192.852 157.082 182.289 162.649 171.453C164.548 167.768 167.046 163.657 168.126 159.614C168.546 158.037 166.412 155.588 165.705 154.486ZM159.813 151.851C159.452 151.914 159.094 152.099 158.823 152.464C157.593 154.11 156.181 155.6 154.755 157.074C153.81 155.836 152.828 154.638 151.78 153.539C153.189 151.731 154.778 150.076 156.37 148.441C157.602 149.477 158.742 150.634 159.813 151.851ZM151.352 145.189C152.229 145.599 153.069 146.091 153.886 146.619C152.38 148.179 150.929 149.778 149.576 151.474C148.148 150.284 146.608 149.298 144.895 148.627C147.317 146.354 149.86 144.498 151.352 145.189ZM164.291 160.97C163.485 162.856 162.61 164.708 161.705 166.553C159.983 164.441 158.329 161.997 156.594 159.566C158.291 157.795 159.959 156.007 161.428 154.031C161.462 153.983 161.465 153.934 161.496 153.887C162.05 154.601 162.59 155.322 163.096 156.053C164.947 158.723 165.189 158.878 164.291 160.97Z" fill="#323850"/>
<path d="M97.0062 189.216C98.9091 185.876 101.456 183.206 104.321 180.733C105.813 179.443 103.664 177.259 102.183 178.537C99.1285 181.177 96.4243 184.089 94.3969 187.647C93.4105 189.379 96.0244 190.942 97.0062 189.216Z" fill="#323850"/>
<path d="M144.574 212.336C141.733 219.871 136.998 226.305 129.525 229.366C127.737 230.094 128.515 233.1 130.326 232.356C138.887 228.854 144.218 221.823 147.487 213.163C148.192 211.293 145.271 210.492 144.574 212.336Z" fill="#323850"/>
<path d="M137.479 60.6273C135.452 57.8505 118.354 60.1138 101.24 61.1455C84.1246 62.1772 63.9955 66.3232 63.9955 72.0112C63.9955 77.7007 64.498 96.3273 68.5248 100.47C72.55 104.608 123.384 104.093 138.486 95.2956C142.012 92.1909 136.973 80.8086 138.99 76.669C141.003 72.5278 140.499 64.7669 137.479 60.6273Z" fill="#D69D4E"/>
<path d="M73.5147 84.6671C72.8037 79.0783 72.214 72.6722 74.0064 67.2481C74.6335 65.3463 71.7161 64.5401 71.0937 66.4244C69.0165 72.7185 69.8926 79.9469 70.7141 86.3866C71.3691 91.5467 72.0911 97.8009 74.8964 102.289C75.9451 103.964 78.5591 102.411 77.5026 100.722C74.7191 96.2637 74.1636 89.7744 73.5147 84.6671Z" fill="#C97F3D"/>
<path d="M84.0733 64.6653C84.3502 62.709 81.4406 61.8645 81.1606 63.8399C79.2981 76.9497 81.4111 90.0355 83.6781 102.953C84.0282 104.921 86.9331 104.084 86.5908 102.126C84.428 89.802 82.2933 77.1864 84.0733 64.6653Z" fill="#C97F3D"/>
<path d="M95.2013 62.6968C95.1437 60.699 92.1221 60.6958 92.1812 62.6968C92.5515 75.8322 90.6579 89.3611 94.2475 102.177C94.7858 104.096 97.7017 103.279 97.1602 101.35C93.6516 88.8285 95.5622 75.5363 95.2013 62.6968Z" fill="#C97F3D"/>
<path d="M104.257 61.405C105.8 74.6763 107.467 88.0468 105.317 101.35C105.001 103.31 107.912 104.148 108.228 102.177C110.428 88.5651 108.856 74.9994 107.279 61.4066C107.05 59.4407 104.025 59.4183 104.257 61.405Z" fill="#C97F3D"/>
<path d="M115.133 60.2631C118.127 73.3489 119.054 87.0473 116.641 100.315C116.286 102.273 119.195 103.107 119.553 101.139C122.069 87.3064 121.167 73.0913 118.044 59.4393C117.596 57.4927 114.685 58.318 115.133 60.2631Z" fill="#C97F3D"/>
<path d="M129.488 59.5302C128.207 58.0171 126.08 60.2212 127.35 61.7264C130.39 65.3141 129.298 75.1817 129.298 79.566C129.298 84.8973 129.833 93.0773 126.613 97.6168C125.461 99.2387 128.081 100.784 129.219 99.1843C133.028 93.8163 132.317 84.1247 132.317 77.9137C132.317 72.8879 133.017 63.697 129.488 59.5302Z" fill="#C97F3D"/>
<path d="M136.469 272.512C136.153 271.378 131.864 270.455 125.789 269.793C126.142 255.181 125.918 240.582 125.9 225.943C125.9 225.763 125.85 225.622 125.806 225.472C125.011 226.134 124.029 226.892 122.886 227.693C122.92 241.649 123.101 255.573 122.774 269.507C114.509 268.785 103.995 268.504 95.492 268.781C97.9582 250.354 101.23 231.958 103.251 213.528C103.882 207.785 106.186 166.484 115.327 172.183C116.995 173.223 118.512 170.537 116.849 169.502C103.035 160.89 101.381 199.421 100.838 206.12C99.1251 227.151 95.2882 247.99 92.4766 268.905C86.2887 269.227 81.6458 269.892 80.6018 270.964C76.8286 274.843 73.054 336.158 73.8086 345.473C74.5632 354.786 128.167 352.46 133.452 350.907C138.736 349.349 139.489 283.378 136.469 272.512Z" fill="white"/>
</svg>
