<svg width="266" height="514" viewBox="0 0 266 514" fill="none" xmlns="http://www.w3.org/2000/svg">
<path opacity="0.2" d="M265.694 490.04C265.694 503.272 206.217 514 132.846 514C59.4764 514 -0.000671387 503.275 -0.000671387 490.04C-0.000671387 476.805 59.4764 466.078 132.846 466.078C206.217 466.078 265.694 476.805 265.694 490.04Z" fill="#569B94"/>
<path d="M85.4929 472.347C85.4929 472.347 55.6425 494.622 60.4613 499.322C63.4369 502.227 80.3528 509.239 105.066 479.307C107.154 476.868 105.066 472.347 105.066 472.347H85.4929Z" fill="#2B2E4F"/>
<path d="M173.014 472.347C173.014 472.347 202.867 494.622 198.048 499.322C195.073 502.227 178.157 509.239 153.444 479.307C151.356 476.868 153.444 472.347 153.444 472.347H173.014Z" fill="#2B2E4F"/>
<path d="M191.807 424.662L171.389 212.349H125.007H120.03H89.4032L68.985 424.662C68.985 424.662 67.8264 451.811 68.985 469.211C90.3327 480.35 117.861 471.997 117.861 471.997L129.123 282.656H131.675L142.937 471.997C142.937 471.997 170.465 480.352 191.813 469.211C192.966 451.811 191.807 424.662 191.807 424.662Z" fill="#E8A861"/>
<path opacity="0.6" d="M125.007 212.349H120.031H92.9713L92.8449 215.83V218.613C97.0581 217.918 103.199 227.319 126.245 222.092C137.434 225.573 147.403 225.499 152.859 218.576C153.489 217.773 153.957 215.58 154.292 212.349H125.007Z" fill="#D35C48"/>
<path opacity="0.6" d="M191.807 424.662L171.389 212.349H149.207C150.278 305.761 152.798 427.432 153.225 444.153C157.749 445.509 176.685 443.924 192.255 441.12C192.113 431.814 191.807 424.662 191.807 424.662Z" fill="#D35C48"/>
<path opacity="0.6" d="M98.4511 444.156C98.8803 427.432 101.398 305.761 102.469 212.352H89.4006L68.9824 424.665C68.9824 424.665 68.6454 432.567 68.5164 442.576C81.651 444.419 94.783 445.254 98.4511 444.156Z" fill="#D35C48"/>
<path d="M152.051 225.576C144.135 228.591 136.064 227.516 133.315 227.008L133.602 217.221L130.395 215.791V278.596C130.395 278.596 123.933 273.838 125.597 212.001C125.945 199.146 123.933 215.793 123.933 215.793C123.933 215.793 123.73 219.801 123.591 225.871C114.098 227.814 99.3805 224.652 99.3805 224.652C99.3805 224.652 99.3805 224.652 101.005 226.737C108.863 229.173 119.649 229.039 123.533 228.896C123.248 245.802 123.656 274.059 129.12 282.657C131.672 282.657 131.672 282.657 131.672 282.657L133.255 229.117C140.709 230.342 151.124 228.962 151.124 228.962C151.124 228.962 161.799 221.863 152.051 225.576Z" fill="#D35C48"/>
<path d="M128.847 223.837C129.194 221.167 126.529 220.659 126.527 223.369C126.527 225.404 128.47 226.716 128.847 223.837Z" fill="#2B2E4F"/>
<path d="M92.8449 213.044L97.0976 97.3079C97.0976 97.3079 154.139 102.366 152.859 100.249C151.582 98.1321 158.315 208.868 152.859 215.791C147.403 222.714 137.434 222.792 126.245 219.311C103.199 224.533 97.0581 215.132 92.8449 215.833" fill="white"/>
<path d="M152.011 178.693C152.011 178.693 139.788 199.58 117.858 206.074C127.525 207.003 143.674 202.377 152.074 185.661C154.439 180.552 152.011 178.693 152.011 178.693Z" fill="#E7E7E7"/>
<path d="M152.754 100.447C150.068 102.003 97.0975 97.3079 97.0975 97.3079L96.9027 102.601C102.325 110.445 111.989 120.12 118.042 127.203C116.857 130.187 116.27 132.201 116.547 132.759C116.797 133.262 118.419 133.628 120.894 133.607C122.24 144.78 120.025 171.478 120.025 171.974C120.025 174.412 125.594 176.152 126.985 171.974C129.073 175.802 134.524 174.759 135.106 171.974C136.383 176.152 145.112 175.802 144.578 170.931C144.267 168.121 145.712 145.012 144.364 125.173C146.787 123.406 149.18 121.342 151.45 118.837C152.019 118.211 152.556 117.616 153.104 117.01C152.783 107.946 152.59 101.663 152.754 100.447Z" fill="#E7E7E7"/>
<path d="M94.2746 88.9048C94.2746 88.9048 88.2445 90.619 80.8161 91.7381C73.3904 92.852 65.9646 93.11 65.9646 93.11L77.5667 106.31C77.5667 106.31 62.2544 108.367 56.6851 124.741C51.1158 141.114 15.6144 320.944 14.2241 326.51C19.7934 334.165 39.282 339.042 45.5491 339.737C42.7631 366.888 38.5868 425.36 39.9798 430.231C50.4206 435.8 91.4913 440.675 98.4536 438.584C99.1514 411.435 105.355 107.561 101.935 97.3074C101.234 93.3154 94.2746 88.9048 94.2746 88.9048Z" fill="#D35C48"/>
<path opacity="0.2" d="M74.8677 106.953C74.8677 106.953 87.8864 123.448 95.2016 138.91C78.5331 147.263 69.6776 154.107 69.6776 154.107C69.6776 154.107 83.6021 163.389 89.1688 175.454C94.7381 187.52 102.954 222.792 102.954 222.792V217.684C102.954 217.684 97.4478 180.558 90.9884 171.744C84.5291 162.925 77.1033 154.109 77.1033 154.109L98.9118 140.187C98.9118 140.187 95.8494 134.126 90.7935 124.743C88.1024 119.751 77.5668 106.313 77.5668 106.313L74.8677 106.953Z" fill="#18214A"/>
<path opacity="0.2" d="M50.3732 290.064C55.1499 240.791 61.8094 171.668 62.2544 165.014C57.8016 187.831 46.6024 285.25 42.2891 323.422C32.5725 320.283 16.6598 314.745 16.6598 314.745V317.534C21.5471 321.56 34.7001 325.476 41.8441 327.393C41.0304 334.595 40.5591 338.855 40.5591 338.855L45.5491 339.735C45.5491 339.735 46.0099 335.013 46.7762 327.14C46.8288 326.605 46.8973 325.889 46.9947 324.891C47.6952 317.702 48.6036 308.331 49.6359 297.711C56.585 291.354 75.5364 272.798 84.5342 251.797C84.5342 245.762 84.5342 245.762 84.5342 245.762C84.5342 245.762 65.7434 276.023 50.3732 290.064Z" fill="#18214A"/>
<path d="M157.402 88.9048C157.402 88.9048 163.432 90.619 170.857 91.7381C178.283 92.852 185.709 93.11 185.709 93.11L174.107 106.31C174.107 106.31 187.779 109.017 194.991 124.741C205.255 147.115 221.874 172.831 228.138 195.804C230.922 216.688 206.214 260.903 199.239 268.747C202.024 295.896 213.089 425.357 211.696 430.228C201.256 435.798 160.185 440.672 153.223 438.581C152.527 411.432 146.321 107.559 149.744 97.3048C150.439 93.3155 157.402 88.9048 157.402 88.9048Z" fill="#D35C48"/>
<path opacity="0.2" d="M176.806 106.953C176.806 106.953 163.79 123.448 156.472 138.91C173.14 147.263 181.996 154.107 181.996 154.107C181.996 154.107 168.071 163.389 162.505 175.454C156.938 187.52 148.722 222.792 148.722 222.792V217.684C148.722 217.684 154.228 180.558 160.688 171.744C167.147 162.925 174.573 154.109 174.573 154.109L152.762 140.187C152.762 140.187 155.824 134.126 160.883 124.743C163.574 119.751 174.109 106.313 174.109 106.313L176.806 106.953Z" fill="#18214A"/>
<path opacity="0.2" d="M211.22 202.603C205.303 198.774 193.121 200.515 193.121 200.515C193.121 200.515 188.598 175.454 186.857 173.714C186.857 173.714 190.338 200.165 190.338 201.905C190.338 203.438 173.585 241.451 169.607 250.457C168.498 247.118 168.064 245.064 168.064 245.064C168.064 245.064 165.628 247.5 165.362 252.371C177.625 287.525 201.527 300.051 201.527 300.051C201.527 300.051 201.801 296.194 201.527 293.118C197.414 290.43 193.788 287.449 190.58 284.328L196.181 276.039L199.518 271.992L199.241 268.745L194.791 274.303C180.877 268.279 174.123 259.131 171.558 254.807L193.124 203.643C193.121 203.648 200.684 202.197 211.22 202.603ZM192.073 278.238L188.977 282.719C184.158 277.745 180.374 272.489 177.433 267.525C183.263 273.695 189.638 277.084 192.073 278.238Z" fill="#18214A"/>
<path d="M158.37 74.3776C158.494 68.7056 156.414 60.6057 156.414 60.6057C156.414 60.6057 136.27 65.2402 135.574 65.938C134.879 66.6332 135.111 88.9368 135.574 89.0368C136.038 89.1369 146.774 87.0487 146.774 87.0487C146.774 87.0487 158.339 75.8575 158.37 74.3776Z" fill="#18214A"/>
<path d="M155.763 19.5296C155.763 19.5296 163.884 61.7589 151.456 72.6843C144.888 78.4563 130.927 81.0369 121.181 75.4676C121.181 75.4676 112.326 66.4803 115.433 44.7481C118.806 21.1517 141.955 16.0721 155.763 19.5296Z" fill="#FDD2AF"/>
<path d="M146.373 45.5039C146.373 45.5039 150.937 55.4101 152.63 58.0354C154.323 60.6555 146.202 61.4639 144.627 59.5601C144.256 54.5675 146.373 45.5039 146.373 45.5039Z" fill="#FB8C70"/>
<path d="M140.912 73.3344C140.912 73.3344 139.377 82.8772 139.753 86.8428C131.651 100.249 124.726 89.6025 123.214 78.6798C122.693 74.9117 129.078 68.1153 140.912 73.3344Z" fill="#FDD2AF"/>
<path d="M123.419 76.5601C123.053 76.7892 122.874 77.1236 123.214 78.6825C123.878 81.737 135.669 81.3236 139.875 81.737C139.951 80.3151 140.154 78.722 140.275 77.8504C134.806 79.009 128.681 78.7983 123.419 76.5601Z" fill="#FB8C70"/>
<path d="M135.111 90.5322C135.111 90.5322 127.427 86.211 123.032 79.1487C118.29 71.3911 114.39 74.5194 107.849 78.5588C101.308 82.5956 92.1866 80.0887 92.8818 88.444C93.5796 96.794 111.667 113.684 119.683 123.598C123.183 127.927 120.031 165.814 120.031 166.407C120.031 168.845 125.6 170.583 126.99 166.407C129.078 170.238 134.529 169.195 135.111 166.407C136.388 170.583 145.117 170.238 144.583 165.364C144.046 160.487 148.799 94.7058 135.111 90.5322Z" fill="#31686F"/>
<path opacity="0.6" d="M144.536 122.268C143.674 106.669 141.247 92.4048 135.111 90.5326C135.111 90.5326 134.914 90.4168 134.592 90.2219C134.068 91.1225 133.544 92.0678 133.023 93.0843C127.369 104.096 121.821 115.372 118.806 122.548C119.101 122.898 119.409 123.264 119.683 123.596C120.47 124.57 120.921 127.251 121.147 130.813C124.86 130.747 130.435 129.739 136.438 126.995C134.872 133.262 130.208 151.637 128.228 156.43C125.832 162.233 130.637 158.984 133.455 147.845C135.767 138.716 137.897 129.12 138.592 125.952C140.559 124.918 142.555 123.722 144.536 122.268Z" fill="#2B2E4F"/>
<path d="M151.456 72.6815C151.456 72.6815 141.844 73.1239 133.023 90.2953C124.204 107.467 115.62 125.333 116.547 127.192C117.476 129.049 136.939 129.28 151.453 113.27C165.97 97.2602 173.219 89.0129 156.98 81.7373C157.157 77.5346 155.977 71.1306 151.456 72.6815Z" fill="#31686F"/>
<path opacity="0.6" d="M156.983 81.7373C156.983 81.7373 145.552 98.4215 135.111 108.399C127.222 115.59 135.343 113.502 140.912 106.542C146.484 99.5802 157.122 84.9999 156.983 81.7373Z" fill="#2B2E4F"/>
<path opacity="0.6" d="M125.842 103.098C123.496 100.628 115.133 91.7013 110.98 85.6553C109.413 83.396 109.753 87.0483 113.237 93.1416C116.157 98.2475 122.648 103.575 124.681 105.17L116.481 119.835L118.219 121.839L133.455 89.4867L125.842 103.098Z" fill="#2B2E4F"/>
<path d="M158.376 8.35144L158.355 8.38568C154.602 3.79067 149.386 2.02638 142.763 3.28771C107.275 -8.07737 95.6993 12.0669 92.3472 32.4982V32.4851C92.3472 32.4851 92.3419 32.5325 92.3419 32.5457C92.0707 34.1993 91.8522 35.853 91.681 37.4935C90.7199 44.0055 88.6949 55.4364 85.456 63.0334C80.9189 73.6664 87.5521 71.2938 90.1932 62.8727C87.2387 79.5727 79.3363 90.3533 94.2774 88.9077C107.77 84.4496 106.343 72.9001 117.945 78.5589C129.4 84.1467 121.028 68.0602 122.698 48.5821C126.25 67.789 127.922 35.0736 133.457 28.8065C139.485 21.9811 144.351 24.2773 144.912 24.3036C163.421 26.9606 155.258 70.0562 154.647 73.145C156.556 74.7434 157.112 78.7828 156.988 81.7373C159.887 83.0355 162.01 84.3705 163.505 85.7688C163.721 83.0118 164.353 74.5196 164.817 63.9577C166.16 69.0609 167.924 68.5052 168.419 58.1645C170.149 18.1366 158.376 8.35144 158.376 8.35144Z" fill="#2B2E4F"/>
</svg>
