<svg width="278" height="514" viewBox="0 0 278 514" fill="none" xmlns="http://www.w3.org/2000/svg">
<path d="M260.025 121.721C242.102 105.054 219.397 100.624 196.083 96.2794C183.439 93.9218 171.081 91.4247 159.399 85.8418C155.725 84.085 129.182 71.1775 129.173 67.8946C129.143 58.6949 116.317 59.2502 115.258 67.8946C112.706 88.7424 143.151 109.815 159.135 117.291C183.816 128.833 214.179 128.099 235.624 146.125C252.382 160.21 276.513 137.053 260.025 121.721Z" fill="#B08FCF"/>
<path opacity="0.13" d="M28.2104 478.972C21.5595 479.433 14.6355 479.97 8.92515 483.007C3.21481 486.045 -0.817707 492.401 1.57627 497.887C3.4696 502.223 8.59136 504.702 13.4855 506.434C33.5475 513.531 55.7305 514.096 77.349 513.99C114.767 513.99 152.181 512.815 189.496 510.367C207.494 509.186 225.448 507.636 243.395 505.946C244.36 505.855 282.994 502.39 277.457 495.878C254.3 468.665 187.092 477.513 152.533 477.91C111.456 478.377 69.1233 476.129 28.2104 478.972Z" fill="black"/>
<path d="M49.0248 477.291C48.5849 478.435 48.1207 479.609 47.2681 480.489C46.4792 481.302 45.4232 481.788 44.3825 482.234C33.6901 486.788 21.2742 488.912 13.3914 497.453C13.7343 499.019 15.8369 499.271 17.4329 499.14C29.0053 498.182 40.4199 495.332 51.0851 490.736C50.3933 493.394 49.7045 496.052 49.0127 498.709C51.1275 498.746 53.2394 498.785 55.3512 498.822C55.9428 498.834 56.5678 498.834 57.0806 498.537C57.7784 498.13 58.0728 497.29 58.3094 496.516C61.6379 485.714 64.657 474.821 67.3696 463.847C64.3748 463.986 56.58 462.943 54.1283 464.602C51.698 466.25 50.102 474.503 49.0248 477.291Z" fill="#8A443E"/>
<path d="M249.806 478.074C247.709 479.36 245.786 480.935 244.111 482.74C242.099 480.911 240.506 478.738 239.062 476.46C233.003 485.832 219.44 496.446 208.781 499.516C208.034 499.732 207.209 499.923 206.502 499.604C202.19 497.647 209.655 489.325 211.193 487.732C216.345 482.401 223.688 477.534 224.492 469.869C224.689 467.997 225.602 452.514 222.759 452.353C225.153 452.486 230.542 450.047 232.347 450.715C234.577 451.537 237.645 458.619 238.95 460.63C239.729 461.826 250.92 477.388 249.806 478.074Z" fill="#8A443E"/>
<path d="M75.3585 259.37C73.62 265.587 72.024 271.889 70.4584 278.297C65.276 299.537 62.5512 321.283 60.6154 343.029C59.6505 353.858 51.607 472.971 45.6478 472.236C52.6295 473.095 59.6384 473.711 66.6626 474.081C74.5393 458.831 82.416 443.581 90.2928 428.329C99.4651 410.57 108.689 392.686 114.466 373.549C118.113 361.473 120.334 349.042 123.035 336.736C127.276 317.396 132.577 296.833 143.673 280.185C153.719 265.114 168.517 253.387 176.115 236.662C179.446 229.332 181.024 220.253 176.549 213.56C174.364 210.292 170.999 208.016 167.595 206.056C152.767 197.512 125.55 187.238 109.002 195.64C101.361 199.521 96.5189 207.237 92.4986 214.804C84.7918 229.322 79.6367 244.084 75.3585 259.37Z" fill="#4872A8"/>
<path d="M107.263 289.102C109.963 294.964 112.831 300.798 115.792 306.697C125.602 326.234 137.611 344.563 150.224 362.386C156.505 371.261 227.532 467.214 222.52 470.516C228.394 466.647 234.134 462.575 239.726 458.309C235.849 441.588 231.971 424.869 228.093 408.148C223.578 388.674 219.018 369.077 211.026 350.756C205.98 339.193 199.621 328.285 193.707 317.162C184.41 299.679 175.129 280.582 172.798 260.708C170.69 242.718 174.367 224.2 169.318 206.535C167.106 198.795 162.427 190.855 154.684 188.655C150.904 187.581 146.868 188.027 143.003 188.737C126.172 191.832 98.7794 201.635 91.6188 218.757C88.3115 226.661 89.6223 235.679 91.461 244.047C94.9837 260.101 100.621 274.683 107.263 289.102Z" fill="#4872A8"/>
<path d="M101.744 23.7927C102.718 21.505 104.113 19.4751 106.116 17.8943C109.484 15.2333 114.047 14.4323 118.307 14.9663C128.281 16.2224 134.643 22.5427 135.593 32.692C136.012 37.1553 135.356 41.6459 134.701 46.0819C132.987 57.718 131.734 69.5361 129.44 81.0296C128.466 85.8236 121.287 104.317 113.371 98.4549C111.271 96.9014 110.531 94.1403 109.979 91.5886C108.719 85.7508 108.58 79.5368 107.767 73.6201C107.293 70.1854 107.12 66.6324 106.693 63.2978C106.107 58.7132 102.83 55.4575 101.061 51.3401C99.3771 47.4199 99.4105 43.0082 99.4742 38.7452C99.547 33.7358 99.8352 28.2712 101.744 23.7927Z" fill="#F0895E"/>
<path d="M101.544 414.523C124.722 414.122 147.836 412.459 170.447 408.697C190.903 405.293 211.788 400.323 232.751 397.486C229.759 339.958 217.216 273.876 189.313 224.024C184.007 214.539 177.559 206.396 170.547 198.164C166.424 193.321 169.212 190.606 172.198 185.348C174.956 180.487 177.89 175.711 179.616 170.353C179.813 169.731 180.005 169.106 180.184 168.477C183.649 156.195 182.823 140.193 176.855 128.314C176.172 126.958 175.426 125.656 174.61 124.418C166.469 112.087 159.606 98.8551 149.374 87.8926C144.392 82.5554 138.281 76.9543 131.015 75.0792C121.718 72.6761 111.778 79.5819 105.807 86.1631C100.433 92.0828 96.7132 99.3314 93.9065 106.817C87.8109 123.083 85.8902 140.53 85.6293 157.797C85.4958 166.53 85.7992 175.259 86.1876 183.979C86.5699 192.593 87.7896 197.578 82.9531 205.531C60.2817 242.824 47.171 284.578 37.9652 327.378C32.4309 353.117 28.3196 379.22 24.3812 404.971C50.0747 408.4 75.7348 412.332 101.544 414.523Z" fill="#CC3535"/>
<path d="M116.827 4.3559C117.009 4.33162 117.191 4.30432 117.367 4.28005C128.69 2.68103 139.459 2.08025 147.715 11.8018C148.989 13.3037 150.112 14.9786 150.697 16.8598C152.169 21.5931 150.063 26.5843 148.768 31.3692C148.546 32.1854 148.349 33.0684 148.634 33.8664C148.907 34.634 149.575 35.1802 150.148 35.7597C153.213 38.8698 153.901 43.7548 152.864 47.9966C151.356 54.1651 147.126 60.9283 140.366 61.966C136.167 62.6123 131.955 60.5581 128.766 57.7515C120.204 50.2115 123.714 38.2326 116.699 31.1265C111.335 25.6923 99.9323 27.5947 97.8327 18.8502C94.9714 6.92585 108.528 5.49978 116.827 4.3559Z" fill="#2D1F30"/>
<path d="M126.136 46.2671C126.56 41.5672 120.877 36.7914 115.598 39.6375C113.319 40.8663 111.954 43.2269 111.866 45.7999C111.86 45.9455 111.872 46.1003 111.875 46.252C111.626 47.7933 111.987 49.3681 113.295 50.5757C116.044 53.1183 120.176 52.8453 123.129 50.87C125.08 49.5683 125.987 47.9238 126.136 46.2671Z" fill="#F0895E"/>
<path d="M120.073 44.5555C120.483 44.4251 120.947 44.6162 121.223 44.9469C121.499 45.2777 121.606 45.7176 121.618 46.1485C121.672 47.9538 119.931 49.5983 118.131 49.4375" fill="#2D1F30"/>
<path d="M168.232 189.774C164.646 188.703 158.832 189.877 155.919 189.962C149.019 190.163 142.12 190.363 135.217 190.563C131.021 190.685 85.1135 191.589 85.1013 192.017C84.98 196.028 84.719 200.027 84.3397 204.02C84.449 204.059 84.54 204.114 84.6644 204.138C98.3516 206.647 114.151 209.409 128.023 206.887C141.992 204.351 156.162 203.996 169.958 199.599C170.444 199.444 170.938 199.28 171.33 198.953C172.104 198.303 172.27 197.187 172.255 196.179C172.225 194.228 171.642 192.202 170.231 190.854C169.716 190.36 169.027 190.011 168.232 189.774Z" fill="#2D1F30"/>
<path d="M74.336 195.761C80.371 192.779 87.0674 190.236 88.7302 192.954C89.07 193.507 89.1793 194.171 89.1944 194.821C89.3037 199.202 85.6687 202.618 83.4811 206.414C81.9428 209.081 81.0749 212.094 79.5487 214.77C74.5757 223.503 68.6287 231.583 64.1594 240.846C62.9457 240.397 61.729 239.96 60.5244 239.496C59.1014 238.255 57.5175 237.248 55.8578 236.368C60.7732 227.829 65.7311 219.215 71.0894 210.971C69.0747 212.416 67.06 213.851 65.0605 215.323C61.4255 217.999 57.8149 220.717 54.2497 223.515C52.9511 224.534 47.0466 228.488 43.3965 232.059C41.9674 232.183 40.8113 233.109 40.1408 234.326C38.3415 230.703 36.6029 227.037 34.7733 223.478C34.5488 223.041 34.3151 222.559 34.0694 222.061C43.2538 213.912 53.3699 206.772 64.3111 201.171C65.7038 200.455 69.8363 197.985 74.336 195.761Z" fill="#2D1F30"/>
<path d="M171.351 157.512C172.613 166.548 168.584 175.492 163.656 183.172C155.27 196.24 144.116 207.27 132.89 217.992C127.947 222.714 122.968 227.398 117.959 232.047C113.768 235.936 109.985 240.979 103.61 240.175C95.8059 239.192 96.44 231.901 98.7763 226.373C105.357 210.801 111.936 195.23 118.517 179.661C119.491 177.355 120.483 174.974 120.516 172.467C120.577 167.722 117.282 163.702 114.39 159.939C110.707 155.145 107.418 150.045 104.569 144.714C102.266 140.405 102.478 134.009 102.053 129.182C100.594 112.633 104.514 89.6402 124.276 85.271C133.873 83.1501 145.785 102.265 149.793 109.032C152.445 113.51 154.639 118.237 156.829 122.956C160.143 130.092 163.456 137.228 166.769 144.368C168.72 148.594 170.708 152.9 171.351 157.512Z" fill="#DB5334"/>
<path d="M82.5769 244.657C82.5101 244.73 82.4403 244.803 82.3766 244.878C76.3962 251.541 76.7847 267.865 89.0428 266.09C93.6183 265.429 97.4262 262.289 100.661 258.984C105.476 254.063 110.44 249.239 114.739 243.847C117.333 240.594 118.599 239.751 116.924 236.377C115.525 233.561 110.928 230.609 108.637 228.406C106.981 226.813 105.288 225.19 103.221 224.185C101.155 223.178 98.6125 222.868 96.5827 223.942C94.3859 225.105 93.239 227.58 92.5806 229.974C91.9222 232.368 91.5824 234.902 90.3353 237.05C88.5057 240.197 85.0619 241.999 82.5769 244.657Z" fill="#2D1F30"/>
<path d="M71.0986 232.49C70.8103 232.79 70.5705 233.145 70.4613 233.57C69.9425 235.555 69.6876 237.509 69.6481 239.42C68.5407 243.371 68.0158 247.546 68.1462 251.784C66.4441 262.447 66.6716 274.034 73.0009 280.943C82.9318 291.79 99.6654 281.586 107.227 272.881C107.827 272.189 108.012 271.47 107.928 270.815C91.9707 263.427 77.9406 248.413 71.0986 232.49Z" fill="#DB5334"/>
<path d="M111.268 268.758C94.8411 258.721 83.2809 245.522 70.8498 231.131C70.4372 230.652 69.9608 230.527 69.5117 230.594C69.4965 230.567 69.4814 230.539 69.4632 230.512C67.8793 227.636 63.8924 229.92 64.5084 232.782C66.8204 243.541 74.1054 252.598 81.6545 260.311C88.976 267.796 97.6993 275.287 108.431 276.668C110.006 276.871 111.253 276.17 111.757 274.623C112.112 273.761 112.467 272.903 112.819 272.041C113.486 270.691 112.552 269.086 111.268 268.758Z" fill="#FFAD94"/>
<path d="M156.216 66.4988C153.131 55.2753 141.091 48.5334 129.898 51.5554C118.596 54.6078 105.388 56.8956 95.0989 62.9549C92.4804 66.875 90.3686 71.0379 89.9499 75.5103C88.9486 86.1967 96.7222 90.0744 104.978 92.6231C121.885 89.7194 138.482 86.8218 154.848 81.1964C156.893 76.4752 157.479 71.0895 156.216 66.4988Z" fill="#C3A2DC"/>
<path d="M245.073 204.897C250.716 197.6 254.737 188.865 257.519 179.847C257.37 179.595 257.264 179.331 257.097 179.082C248.714 166.776 235.703 160.21 224.079 151.204C213.359 142.9 203.574 133.369 194.162 123.63C177.435 106.326 161.284 81.5607 138.539 72.1972C133.375 70.0702 129.983 75.9687 130.566 80.1711C134.061 105.276 157.509 129.738 173.639 148.106C182.942 158.702 192.867 168.699 203.095 178.4C213.763 188.519 223.767 199.178 237.721 204.284C240.218 205.198 242.706 205.331 245.073 204.897Z" fill="#C3A2DC"/>
<path d="M158.101 19.9967C148.467 9.82919 131.691 -2.42588 116.881 0.417153C112.445 1.26673 109.168 7.05898 110.707 11.2917C114.848 22.6668 127.146 28.805 132.944 39.4095C137.562 47.8536 149.15 49.5588 156.481 43.9031C164.136 37.9955 164.73 26.9905 158.101 19.9967Z" fill="#CC3535"/>
<mask id="mask0_1595_24681" style="mask-type:luminance" maskUnits="userSpaceOnUse" x="130" y="71" width="128" height="135">
<path d="M245.073 204.897C250.716 197.6 254.737 188.865 257.519 179.847C257.37 179.595 257.264 179.331 257.097 179.082C248.714 166.776 235.703 160.21 224.079 151.204C213.359 142.9 203.574 133.369 194.162 123.63C177.435 106.326 161.284 81.5607 138.539 72.1972C133.375 70.0702 129.983 75.9687 130.566 80.1711C134.061 105.276 157.509 129.738 173.639 148.106C182.942 158.702 192.867 168.699 203.095 178.4C213.763 188.519 223.767 199.178 237.721 204.284C240.218 205.198 242.706 205.331 245.073 204.897Z" fill="white"/>
</mask>
<g mask="url(#mask0_1595_24681)">
<path d="M185.918 106.311C182.125 105.07 178.679 105.965 174.771 105.81C172.325 105.713 167.959 103.592 165.358 104.705C161.563 106.332 161.463 112.452 161.969 116.957C159.239 115.75 156.772 113.926 153.974 113.347C153.003 113.147 152.072 112.946 151.174 113.562C147.76 115.905 149.654 127.383 148.84 130.872C148.537 132.168 150.436 133.114 151.083 131.819C153.185 127.607 152.378 123.885 153.179 119.403C153.322 118.538 153.228 117.695 152.9 116.869C154.217 117.71 155.558 118.514 156.923 119.276C159.199 120.474 161.372 121.245 163.896 121.779C165.48 122.116 166.618 120.847 166.357 119.318C166.041 117.464 165.007 110.2 167.634 108.814C168.032 108.604 172.082 109.788 172.264 109.809C175.842 110.27 179.44 109.442 182.966 109.964C183.145 110.616 183.815 111.135 184.477 111.147C184.707 111.15 184.938 111.156 185.169 111.159C186.097 111.177 186.822 110.513 187.111 109.681C187.202 109.418 187.293 109.157 187.384 108.893C187.769 107.785 186.941 106.644 185.918 106.311Z" fill="#B08FCF"/>
</g>
<mask id="mask1_1595_24681" style="mask-type:luminance" maskUnits="userSpaceOnUse" x="130" y="71" width="128" height="135">
<path d="M245.073 204.897C250.716 197.6 254.737 188.865 257.519 179.847C257.37 179.595 257.264 179.331 257.097 179.082C248.714 166.776 235.703 160.21 224.079 151.204C213.359 142.9 203.574 133.369 194.162 123.63C177.435 106.326 161.284 81.5607 138.539 72.1972C133.375 70.0702 129.983 75.9687 130.566 80.1711C134.061 105.276 157.509 129.738 173.639 148.106C182.942 158.702 192.867 168.699 203.095 178.4C213.763 188.519 223.767 199.178 237.721 204.284C240.218 205.198 242.706 205.331 245.073 204.897Z" fill="white"/>
</mask>
<g mask="url(#mask1_1595_24681)">
<path d="M197.403 120.526C191.198 117.701 181.151 114.712 174.37 116.666C173.73 116.851 173.105 117.391 172.965 118.071C172.568 119.992 172.686 120.134 172.732 122.495C172.732 122.452 173.49 130.086 173.794 129.647C173.475 130.108 159.751 124.534 158.359 124.03C157.084 123.569 156.065 124.937 156.308 126.078C157.567 131.949 158.981 137.73 160.874 143.434C161.278 144.644 162.962 144.141 162.758 142.915C161.954 138.072 161.026 133.251 160.125 128.427C164.248 130.378 169.324 133.112 173.181 133.433C174.567 133.548 175.493 133.494 176.461 132.411C178.609 129.998 175.52 125.092 176.746 122.498C179.176 117.346 192.017 122.826 196.019 123.818C197.909 124.285 199.326 121.403 197.403 120.526Z" fill="#B08FCF"/>
</g>
<mask id="mask2_1595_24681" style="mask-type:luminance" maskUnits="userSpaceOnUse" x="130" y="71" width="128" height="135">
<path d="M245.073 204.897C250.716 197.6 254.737 188.865 257.519 179.847C257.37 179.595 257.264 179.331 257.097 179.082C248.714 166.776 235.703 160.21 224.079 151.204C213.359 142.9 203.574 133.369 194.162 123.63C177.435 106.326 161.284 81.5607 138.539 72.1972C133.375 70.0702 129.983 75.9687 130.566 80.1711C134.061 105.276 157.509 129.738 173.639 148.106C182.942 158.702 192.867 168.699 203.095 178.4C213.763 188.519 223.767 199.178 237.721 204.284C240.218 205.198 242.706 205.331 245.073 204.897Z" fill="white"/>
</mask>
<g mask="url(#mask2_1595_24681)">
<path d="M219.777 135.494C215.92 133.333 207.576 132.702 203.274 132.493C194.384 132.056 193.88 143.364 194.056 150.886C189.371 149.551 181.907 146.271 178.955 149.921C175.432 154.278 180.332 162.977 182.851 166.497C183.451 167.337 184.893 166.864 184.592 165.763C183.764 162.725 178.836 153.256 183.916 152.376C184.935 152.2 187.45 153.611 188.509 153.905C190.855 154.557 193.209 154.967 195.612 155.328C196.872 155.516 198.188 154.818 198.17 153.38C198.091 147.269 197.251 137.942 205.68 137.187C208.171 136.962 216.63 140.843 218.05 138.983C217.192 140.106 218.602 141.407 219.731 141.171C220.022 141.11 220.311 141.049 220.602 140.985C221.154 140.87 221.782 140.294 221.87 139.717C222.201 137.52 221.773 136.61 219.777 135.494Z" fill="#B08FCF"/>
</g>
<mask id="mask3_1595_24681" style="mask-type:luminance" maskUnits="userSpaceOnUse" x="130" y="71" width="128" height="135">
<path d="M245.073 204.897C250.716 197.6 254.737 188.865 257.519 179.847C257.37 179.595 257.264 179.331 257.097 179.082C248.714 166.776 235.703 160.21 224.079 151.204C213.359 142.9 203.574 133.369 194.162 123.63C177.435 106.326 161.284 81.5607 138.539 72.1972C133.375 70.0702 129.983 75.9687 130.566 80.1711C134.061 105.276 157.509 129.738 173.639 148.106C182.942 158.702 192.867 168.699 203.095 178.4C213.763 188.519 223.767 199.178 237.721 204.284C240.218 205.198 242.706 205.331 245.073 204.897Z" fill="white"/>
</mask>
<g mask="url(#mask3_1595_24681)">
<path d="M231.525 147.478C228.014 145.654 222.526 146.125 218.666 145.779C215.392 145.488 208.89 143.558 206.02 145.02C201.305 147.423 201.62 156.42 202.555 162.109C198.149 160.819 191.571 158.789 188.867 161.517C185.936 164.479 190.124 170.784 190.218 174.009C190.248 175.007 191.735 175.265 191.996 174.249C192.63 171.776 191.44 170.086 191.841 167.807C192.772 162.515 200.434 165.474 204.421 166.345C205.786 166.642 206.972 165.501 206.648 164.117C205.737 160.252 205.504 156.584 206.372 152.703C207.33 148.431 207.652 148.573 211.797 149.019C214.546 149.317 217.292 149.632 220.041 149.942C221.415 150.096 222.79 150.251 224.161 150.409C225.979 151.201 227.38 150.897 228.4 149.565C228.373 149.857 228.406 150.151 228.6 150.424C228.643 150.482 228.682 150.542 228.724 150.6C229.313 151.422 230.302 151.774 231.237 151.259L231.525 151.098C232.863 150.363 232.918 148.203 231.525 147.478Z" fill="#B08FCF"/>
</g>
<mask id="mask4_1595_24681" style="mask-type:luminance" maskUnits="userSpaceOnUse" x="130" y="71" width="128" height="135">
<path d="M245.073 204.897C250.716 197.6 254.737 188.865 257.519 179.847C257.37 179.595 257.264 179.331 257.097 179.082C248.714 166.776 235.703 160.21 224.079 151.204C213.359 142.9 203.574 133.369 194.162 123.63C177.435 106.326 161.284 81.5607 138.539 72.1972C133.375 70.0702 129.983 75.9687 130.566 80.1711C134.061 105.276 157.509 129.738 173.639 148.106C182.942 158.702 192.867 168.699 203.095 178.4C213.763 188.519 223.767 199.178 237.721 204.284C240.218 205.198 242.706 205.331 245.073 204.897Z" fill="white"/>
</mask>
<g mask="url(#mask4_1595_24681)">
<path d="M242.943 153.28C237.059 155.243 231.085 156.345 224.847 156.023C221.764 155.865 216.991 154.151 213.924 155.899C208.553 158.957 212.792 167.659 214.967 172.935C210.55 173.342 206.132 173.755 201.717 174.207C200.649 174.316 199.851 175.169 200.13 176.288C201.053 179.987 202.051 182.721 204.724 185.458C205.225 185.97 206.068 185.442 205.898 184.775C205.264 182.266 204.424 179.847 203.771 177.356C208.371 177.065 212.968 176.755 217.565 176.416C218.73 176.331 219.737 175.29 219.364 174.055C218.381 170.802 216.406 166.867 216.136 163.496C215.929 160.923 215.128 159.7 218.954 159.227C220.271 159.063 222.134 159.664 223.497 159.776C229.635 160.28 235.621 159.43 241.477 157.743C241.808 158.314 242.673 158.575 243.301 158.283C244.781 157.595 245.012 157.267 245.331 155.671C245.601 154.309 244.445 152.776 242.943 153.28Z" fill="#B08FCF"/>
</g>
<mask id="mask5_1595_24681" style="mask-type:luminance" maskUnits="userSpaceOnUse" x="130" y="71" width="128" height="135">
<path d="M245.073 204.897C250.716 197.6 254.737 188.865 257.519 179.847C257.37 179.595 257.264 179.331 257.097 179.082C248.714 166.776 235.703 160.21 224.079 151.204C213.359 142.9 203.574 133.369 194.162 123.63C177.435 106.326 161.284 81.5607 138.539 72.1972C133.375 70.0702 129.983 75.9687 130.566 80.1711C134.061 105.276 157.509 129.738 173.639 148.106C182.942 158.702 192.867 168.699 203.095 178.4C213.763 188.519 223.767 199.178 237.721 204.284C240.218 205.198 242.706 205.331 245.073 204.897Z" fill="white"/>
</mask>
<g mask="url(#mask5_1595_24681)">
<path d="M254.069 169.285C254.858 166.621 255.14 164.837 254.166 162.173C253.65 160.762 251.463 160.902 251.451 162.54C251.429 166.242 249.946 169.121 249.135 172.601C248.68 174.555 249.029 177.077 247.706 178.554C245.476 181.049 240.603 179.61 237.593 182.135C237.144 182.511 237.029 183.212 237.166 183.752C237.439 184.823 237.936 185.512 238.303 186.543C238.968 187.46 239.314 188.491 239.341 189.641C240.388 191.629 239.748 192.305 237.417 191.668C235.388 192.739 232.96 192.375 230.958 193.871C230.311 194.353 230.12 194.894 230.223 195.673C230.76 199.66 233.094 203.811 235.297 207.082C235.818 207.856 236.95 207.367 236.777 206.457C236.371 204.318 235.239 202.209 234.938 200.128C234.283 195.628 235.3 195.646 239.717 194.787C240.898 194.557 241.929 194.884 242.94 193.935C247.257 189.869 237.387 186 245.206 183.13C248.171 182.041 250.489 183.546 252.112 179.965C252.537 179.025 252.164 176.446 252.294 175.46C252.6 173.154 253.411 171.506 254.069 169.285Z" fill="#B08FCF"/>
</g>
<mask id="mask6_1595_24681" style="mask-type:luminance" maskUnits="userSpaceOnUse" x="89" y="50" width="68" height="43">
<path d="M156.216 66.4988C153.131 55.2753 141.091 48.5334 129.898 51.5554C118.596 54.6078 105.388 56.8956 95.0989 62.9549C92.4804 66.875 90.3686 71.0379 89.9499 75.5103C88.9486 86.1967 96.7222 90.0744 104.978 92.6231C121.885 89.7194 138.482 86.8218 154.848 81.1964C156.893 76.4752 157.479 71.0895 156.216 66.4988Z" fill="white"/>
</mask>
<g mask="url(#mask6_1595_24681)">
<path d="M115.677 93.1939C114.894 91.0973 113.183 90.0141 111.393 88.8611C109.915 87.9084 107.682 87.2318 106.495 85.8724C103.689 82.6562 105.488 81.1816 107.739 78.554C108.513 77.6498 108.443 76.3026 107.366 75.6503C103.024 73.0227 100.336 71.2932 102.017 65.1823C102.845 62.1664 104.86 59.0472 106.134 56.1769C106.583 55.1665 105.264 54.3473 104.632 55.3C102.09 59.1352 95.8484 66.1563 96.4674 71.0353C96.8831 74.294 100.415 76.0963 103.403 77.6741C101.459 79.5613 99.1374 81.9159 99.6108 84.234C100.178 87.0163 115.64 95.4514 109.645 98.8375C107.403 100.106 109.372 103.34 111.641 102.254C114.964 100.658 117.054 96.8805 115.677 93.1939Z" fill="#B08FCF"/>
<path d="M128.618 93.1876C124.033 88.342 114.396 83.8697 121.687 77.3704C122.498 76.6483 122.355 75.0007 121.32 74.5274C117.655 72.8465 114.063 71.0472 110.479 69.2115C112.858 63.6802 115.149 58.1489 117.133 52.4537C117.336 51.8711 116.454 51.5222 116.153 52.041C112.91 57.6391 110.036 63.3434 107.214 69.1629C106.844 69.9245 107.017 70.7862 107.764 71.2535C110.825 73.1742 113.987 74.8733 117.203 76.4875C115.082 78.4142 112.621 81.0903 113.086 83.5056C113.356 84.9074 115.213 86.1726 116.095 87.0282C119.272 90.1049 122.479 93.2392 125.975 95.9457C128.187 97.6631 130.295 94.4195 128.618 93.1876Z" fill="#B08FCF"/>
<path d="M143.173 93.94C138.876 89.3917 133.906 85.781 129.689 81.1266C131.655 77.792 133.933 74.8064 136.667 72.0119C137.544 71.1168 137.447 69.4116 136.255 68.8017C131.74 66.5018 127.152 64.3991 122.452 62.5331C125.392 57.7603 128.357 52.9997 131.315 48.2391C131.785 47.4836 130.657 46.5733 130.062 47.2712C125.896 52.1592 122.082 57.1808 118.429 62.4663C117.934 63.1824 118.247 64.4568 119.048 64.83C123.374 66.8356 127.644 68.9079 131.855 71.1259C129.273 73.9325 127.113 76.9303 125.207 80.3438C124.706 81.2419 124.922 82.1704 125.541 82.9228C129.819 88.1447 134.704 93.9794 140.936 96.8437C142.778 97.6902 144.687 95.545 143.173 93.94Z" fill="#B08FCF"/>
</g>
</svg>
