<svg width="277" height="514" viewBox="0 0 277 514" fill="none" xmlns="http://www.w3.org/2000/svg">
<path d="M247.54 152.708C251.324 164.953 253.428 177.863 249.954 190.052C247.167 199.833 241.025 208.261 234.882 216.366C231.59 220.711 227.991 225.235 222.88 227.127C220.704 227.931 218.234 228.195 216.08 227.323C207.649 223.915 205.684 203.089 203.689 195.415C199.585 179.632 196.593 163.556 194.747 147.354C193.395 135.488 190.567 119.45 196.798 108.608C213.405 79.718 240.373 132.361 245.085 145.412C245.947 147.809 246.777 150.244 247.54 152.708Z" fill="#44334F"/>
<path opacity="0.13" d="M62.7663 512.102C44.8539 514.085 26.6952 512.753 8.95296 508.153C5.3388 507.217 1.06753 505.316 0.152258 500.488C-0.545931 496.803 1.24939 492.984 3.65198 491.109C6.05751 489.235 8.93827 488.859 11.7252 488.539C85.6716 480.088 160.205 483.065 234.544 486.052C246.226 486.521 258.001 487.005 269.43 490.59C271.41 491.212 273.455 491.978 274.998 493.791C276.541 495.601 277.421 498.751 276.494 501.163C275.89 502.738 274.675 503.68 273.493 504.454C266.344 509.139 258.277 510.67 250.324 511.682C234.45 513.704 218.457 513.883 202.486 513.959C147.089 514.22 91.6707 513.237 36.2586 511.008" fill="black"/>
<path d="M162.229 96.8379C167.682 89.7944 177.24 87.3008 185.762 88.8673C192.574 90.12 202.298 90.8358 206.796 96.5386C218.589 111.491 221.337 131.41 224.162 150.246C227.715 173.941 232.045 197.518 237.14 220.928C241.198 239.571 248.056 258.562 252.102 277.449C252.993 281.617 253.75 285.78 254.308 289.931C258.165 318.624 261.7 347.4 263.082 376.333C263.786 391.092 264.003 405.913 263.308 420.674C262.971 427.85 263.604 429.551 257.238 431.904C250.928 434.236 242.679 433.462 236.084 433.377C194.809 432.854 153.537 432.039 112.27 430.933C110.883 430.895 109.293 430.757 108.471 429.639C107.726 428.618 107.94 427.213 108.196 425.975C116.782 384.128 131.564 343.85 143.686 302.889C150.63 279.423 158.738 254.277 159.864 229.684C161.026 204.312 153.892 179.251 155.241 153.943C156.197 136.127 150.233 112.336 162.229 96.8379Z" fill="#2D1F30"/>
<path d="M243.26 505.777C244.639 505.613 246.006 505.399 247.358 505.129C248.039 504.994 248.798 504.765 249.101 504.141C249.271 503.786 249.25 503.375 249.23 502.985C249.086 500.456 249.191 499.558 246.862 498.317C239.294 494.07 231.572 490.095 223.716 486.404C223.523 481.854 223.106 474.796 221.006 470.704C219.023 466.84 212.721 465.441 209.917 469.442C208.603 471.32 208.65 473.796 208.752 476.084C209.022 481.975 209.348 487.859 209.732 493.744C209.973 497.44 208.952 503.155 213.062 505C214.71 505.739 216.573 505.798 218.38 505.845C226.497 506.05 235.087 506.754 243.26 505.777Z" fill="#2D1F30"/>
<mask id="mask0_1595_24735" style="mask-type:luminance" maskUnits="userSpaceOnUse" x="151" y="200" width="79" height="285">
<path d="M195.24 213.03C205.558 226.621 216.033 240.509 221.604 256.632C227.008 272.274 227.483 289.121 227.906 305.666C229.378 363.425 230.851 421.226 228.965 478.973C221.927 480.437 214.878 482.27 207.987 484.579C207.963 484.514 207.937 484.441 207.913 484.376C195.097 449.138 171.613 416.306 171.549 378.809C171.54 373.584 171.992 368.298 170.974 363.173C170.126 358.911 168.29 354.924 166.603 350.92C159.797 334.764 155.291 317.671 153.123 300.277C150.747 281.203 151.187 261.774 154.496 242.844C158.406 220.44 170.774 180.796 195.24 213.03Z" fill="white"/>
</mask>
<g mask="url(#mask0_1595_24735)">
<path d="M197.391 208.228C208.834 223.981 214.989 254.54 216.303 264.409C222.194 308.67 229.334 352.691 229.745 397.27C229.994 424.505 229.853 451.749 228.965 478.973C221.927 480.437 214.878 482.27 207.987 484.579C207.963 484.514 207.937 484.441 207.913 484.376C195.097 449.138 171.613 416.306 171.549 378.809C171.54 373.584 171.992 368.298 170.974 363.173C170.126 358.911 168.29 354.924 166.603 350.92C159.797 334.764 155.291 317.671 153.123 300.277C150.747 281.203 151.187 261.774 154.496 242.844C156.608 230.746 159.706 214.113 169.044 205.25C180.705 194.179 190.115 198.213 197.391 208.228Z" fill="#8A443E"/>
</g>
<path d="M59.8649 475.72C55.9808 481.414 57.2892 481.731 60.349 487.56C63.0713 492.743 65.3155 498.182 67.0375 503.779C67.3631 504.836 67.6388 506.085 66.9641 506.962C66.04 508.165 64.145 507.728 62.7662 507.094C54.3879 503.234 47.7668 496.431 41.5976 489.572C39.5499 487.296 37.3938 484.6 37.7341 481.555C38.1888 477.471 42.4571 472.596 44.3375 468.891C46.1651 465.294 48.6029 458.629 52.487 456.801C56.0307 455.132 61.7394 460.829 63.9161 463.569C64.6701 464.517 65.38 465.628 65.3008 466.837C65.2362 467.817 64.6642 468.679 64.1127 469.492C62.6958 471.566 61.2789 473.643 59.8649 475.72Z" fill="#2D1F30"/>
<path d="M69.9037 365.875C57.6003 398.904 53.7104 434.48 43.0059 468.06C50.067 471.944 57.131 475.831 64.1921 479.715C61.2585 478.102 117.119 403.798 122.086 397.253C136.493 378.275 151.184 358.057 161.366 336.458C165.292 328.132 170.672 322.013 175.407 314.447C181.42 304.84 185.835 293.12 190.635 282.82C196.335 270.581 201.063 257.512 200.987 244.012C200.89 227.182 192.888 212.737 177.246 206.313C163.669 200.739 146.27 200.774 134.627 210.748C123.993 219.857 120.065 234.331 116.345 247.829C110.343 269.604 103.49 291.149 95.8042 312.388C89.0306 331.121 76.9795 346.88 69.9037 365.875Z" fill="#A85C56"/>
<path d="M163.326 103.893C161.604 103.148 176.228 62.9261 177.404 59.0919C179.314 52.8639 181.148 46.6125 182.899 40.3376C184.298 35.3182 184.973 29.3015 187.695 24.8249C196.481 10.38 217.524 19.6911 222.112 32.7778C224.427 39.3812 224.576 69.4591 212.29 67.6315C211.108 67.4555 209.867 66.9773 208.761 67.4379C208.051 67.7342 207.55 68.3649 207.101 68.9897C199.007 80.2429 198.825 96.002 189.854 106.569C183.409 114.164 170.795 107.135 163.326 103.893Z" fill="#F0895E"/>
<path d="M211.891 245.453C194.621 246.978 177.768 240.879 160.882 237.702C144.85 234.686 128.61 227.458 112.44 228.552C117.914 206.143 125.002 184.126 133.618 162.729C142.322 141.117 149.286 118.561 157.063 96.4978C159.225 90.3637 161.692 83.8219 167.052 80.1373C173.238 75.8866 181.549 76.6611 188.807 78.5884C201.876 82.0588 212.006 101.271 213.827 113.885C215.752 127.215 208.303 140.182 209.802 153.732C211.554 169.594 217.028 184.343 220.334 199.9C223.306 213.882 222.924 228.564 219.231 242.372C219.04 243.082 218.808 243.842 218.228 244.291C217.799 244.622 217.245 244.731 216.711 244.825C215.098 245.104 213.493 245.312 211.891 245.453Z" fill="#C7402C"/>
<path d="M186.654 154.497C181.015 171.174 181.69 191.469 180.159 208.85C178.968 222.374 176.859 236.675 179.009 250.029C181.274 264.101 180.977 278.467 180.391 292.771C179.103 324.23 174.685 355.452 170.276 386.595C168.92 396.167 167.565 405.74 166.21 415.312C164.775 425.438 162.012 437.337 152.489 441.068C144.759 444.099 132.133 441.743 123.647 442.339C112.831 443.096 101.941 442.817 91.1749 441.532C85.8505 440.895 30.3943 428.8 32.1456 423.356C48.9491 371.059 65.7732 318.706 86.2759 267.745C94.437 247.462 103.205 227.317 108.647 206.143C113.532 187.13 115.676 167.493 120.619 148.495C126.724 125.021 137.071 101.904 151.507 82.3314C157.154 74.6777 162.273 68.4116 172.35 70.4886C182.03 72.4834 191.887 80.7971 195.164 90.0261C197.399 96.3216 197.253 103.192 196.769 109.857C195.616 125.754 192.013 139.19 186.883 153.837C186.803 154.057 186.727 154.277 186.654 154.497Z" fill="#2D1F30"/>
<path d="M155.306 232.542C158.662 238.282 155.781 246.171 148.864 248.861C141.069 251.891 134.307 244.909 130.831 238.658C129.021 235.405 127.267 232.043 126.574 228.382C125.882 224.724 126.384 220.672 128.716 217.771C132.436 213.148 135.962 215.057 140.254 216.492C145.654 218.296 152.164 220.452 157.644 222.858C158.923 223.418 160.422 224.65 159.785 225.891C159.477 226.492 158.773 226.759 158.131 226.974C156.083 227.657 154.035 228.338 151.991 229.021C153.443 230.025 154.537 231.227 155.306 232.542Z" fill="#4872A8"/>
<path d="M202.064 38.1639C200.025 38.6919 198.329 39.8155 197.22 41.9893C195.812 44.7586 196.255 48.3639 198.294 50.7078C204.123 57.414 217.078 51.2652 223.139 57.7631C225.309 60.0923 225.905 63.6683 224.916 66.6958C223.928 69.7232 221.499 72.1727 218.612 73.5192C211.959 76.623 204.129 74.0121 197.449 70.9583C194.821 69.7555 192.21 68.4794 189.854 66.8043C176.369 57.2086 175.591 37.8353 187.466 26.9283C196.478 18.6498 209.706 19.1485 219.803 25.3207C222.995 27.2716 227.911 33.0654 224.186 36.1808C218.618 40.8364 208.582 36.4742 202.064 38.1639Z" fill="#CC3535"/>
<path d="M155.966 132.766C153.616 134.171 151.21 135.488 148.825 136.791C143.043 139.947 137.261 143.104 131.479 146.26C127.152 148.622 122.652 151.139 119.947 155.257C114.001 164.302 121.238 176.309 126.126 184.262C129.253 189.351 133.107 193.907 137.165 198.272C139.981 201.3 148.283 206.876 148.849 211.098C149.796 218.162 128.83 232.422 123.655 237.186C114.734 226.402 103.549 217.757 93.604 207.909C79.8896 194.33 63.9955 171.647 66.5271 151.356C68.5865 134.843 85.5983 117.928 97.6406 107.657C111.554 95.791 128.736 86.5151 147.235 85.104C151.436 84.7843 155.634 85.5646 159.774 86.3449C161.358 86.6441 162.965 86.9522 164.517 87.401C179.481 91.7515 178.023 111.468 169.762 121.586C165.987 126.203 161.114 129.688 155.966 132.766Z" fill="#44334F"/>
<path d="M236.521 31.4634C218.069 33.5638 185.457 39.2109 167.627 42.3968C164.626 42.9336 162.997 39.0261 165.476 37.2484L180.951 26.1712C181.561 25.7341 181.975 25.0741 182.104 24.3348L185.122 6.9857C185.407 5.34877 187.023 4.29562 188.637 4.70046L197.264 6.85663C198.438 7.14999 199.67 6.67474 200.339 5.66853L203.269 1.27404C204.49 -0.553571 207.227 -0.383414 208.21 1.58208L215.693 16.5521C216.007 17.1798 216.538 17.6698 217.189 17.9279L237.272 25.96C240.039 27.0689 239.481 31.126 236.521 31.4634Z" fill="#2D1F30"/>
<path d="M163.64 223.301C159.225 229.828 152.862 233.879 146.285 238.494C143.348 240.553 140.459 242.879 137.135 244.434C133.016 246.359 128.408 246.913 124.257 248.805C118.211 251.56 121.587 259.172 127.492 259.507C146.561 260.581 166.641 241.477 169.284 225.434C169.768 222.494 165.585 220.426 163.64 223.301Z" fill="#C56E5F"/>
<path d="M207.943 171.169C208.303 172.515 208.664 173.859 209.034 175.202C220.407 170.456 231.282 165.827 243.01 161.799C241.872 156.163 239.091 150.719 236.771 145.4C231.487 133.285 227.134 120.447 219.36 109.616C213.83 101.91 196.481 83.2408 194.255 103.171C193.771 107.493 194.551 111.846 195.363 116.12C198.884 134.613 203.079 152.98 207.943 171.169Z" fill="#6A8BC4"/>
<path d="M218.433 91.2524C213.07 77.9399 195.498 79.2717 184.307 73.0438C177.422 69.2125 172.713 63.5185 164.083 63.8001C154.824 64.0993 147.772 71.7442 147.567 80.9028C147.182 98.2842 170.648 107.061 184.726 109.182C192.321 110.326 200.039 110.473 207.4 107.865C213.273 105.782 221.334 98.4514 218.433 91.2524Z" fill="#6A8BC4"/>
<path d="M174.468 344.234C172.467 358.803 171.302 373.456 169.041 388C166.77 402.592 163.505 416.958 160.533 431.411C160.351 432.294 161.633 432.664 161.894 431.787C170.097 404.22 175.471 373.162 175.137 344.325C175.134 343.956 174.524 343.841 174.468 344.234Z" fill="#44334F"/>
<path d="M143.366 204.159C139.341 209.314 135.178 214.21 130.411 218.701C126.366 222.512 121.584 226.252 117.979 230.43C116.849 231.738 117.058 234.346 119.105 234.698C125.14 235.739 130.843 231.269 135.334 227.719C141.603 222.767 147.194 217.214 151.735 210.613C155.121 205.694 147.106 199.372 143.366 204.159Z" fill="#C56E5F"/>
<path d="M157.922 365.538C152.193 365.538 152.184 374.441 157.922 374.441C163.655 374.441 163.663 365.538 157.922 365.538Z" fill="#C56E5F"/>
<path d="M170.549 331.447C169.921 329.837 169.123 328.449 167.454 327.783C165.82 327.129 164.238 327.414 162.719 328.264C158.929 330.385 159.486 336.103 163.355 337.734C165.127 338.482 167.113 338.224 168.636 337.047C170.188 335.853 171.314 333.413 170.549 331.447Z" fill="#C56E5F"/>
<path d="M169.404 287.027C164.332 287.027 164.323 294.909 169.404 294.909C174.476 294.912 174.485 287.027 169.404 287.027Z" fill="#C56E5F"/>
<path opacity="0.1091" d="M203.053 285.232C203.331 285.232 203.152 283.046 202.703 283.046C202.425 283.046 202.604 285.232 203.053 285.232Z" fill="#A85C56"/>
<path opacity="0.1091" d="M182.418 286.93C183.879 286.93 188.725 286.185 189.631 284.967C190.186 284.219 190.905 283.278 189.171 283.278C187.71 283.278 182.864 284.023 181.957 285.24C181.403 285.988 180.687 286.93 182.418 286.93Z" fill="#A85C56"/>
<path opacity="0.1091" d="M197.446 287.056C198.834 287.056 198.5 284.859 197.171 284.859C195.783 284.859 196.118 287.056 197.446 287.056Z" fill="#A85C56"/>
<path opacity="0.1091" d="M202.915 282.04C202.75 282.04 202.566 279.896 202.36 279.896C202.527 279.899 202.712 282.04 202.915 282.04Z" fill="#A85C56"/>
<path opacity="0.1091" d="M191.676 282.41C192.495 282.41 194.786 281.911 195.211 281.11C195.493 280.579 195.525 279.467 194.607 279.467C193.788 279.467 191.497 279.966 191.072 280.767C190.79 281.298 190.758 282.41 191.676 282.41Z" fill="#A85C56"/>
<path opacity="0.1091" d="M198.494 290.984C199.905 290.984 199.961 288.77 198.538 288.77C197.124 288.772 197.071 290.984 198.494 290.984Z" fill="#A85C56"/>
<path opacity="0.1091" d="M200.104 277.231C200.005 277.231 199.647 275.21 199.198 275.21C199.301 275.21 199.658 277.231 200.104 277.231Z" fill="#A85C56"/>
<path opacity="0.1091" d="M182.582 288.669C184.172 288.669 188.704 288.945 189.884 287.742C190.382 287.235 191.471 286.006 189.664 286.006C188.074 286.006 183.541 285.73 182.362 286.933C181.863 287.44 180.772 288.669 182.582 288.669Z" fill="#A85C56"/>
<path opacity="0.1091" d="M198.312 281.436C199.426 281.436 198.728 279.288 198.144 279.288C197.03 279.288 197.728 281.436 198.312 281.436Z" fill="#A85C56"/>
<path opacity="0.1091" d="M201.351 276.545C201.128 276.545 200.811 274.53 200.436 274.53C200.662 274.53 200.979 276.545 201.351 276.545Z" fill="#A85C56"/>
<path opacity="0.1091" d="M193.181 289.192C195.815 289.192 195.601 286.98 193.058 286.98C190.423 286.98 190.638 289.192 193.181 289.192Z" fill="#A85C56"/>
<path d="M184.263 138.814C181.546 136.098 176.066 136.353 174.283 140.099C174.224 140.225 174.163 140.349 174.104 140.475C172.945 142.904 172.939 146.051 175.078 148.014C177.178 149.941 180.085 150.332 182.617 148.988C182.737 148.923 182.858 148.859 182.978 148.797C186.622 146.861 187.062 141.613 184.263 138.814Z" fill="#A85C56"/>
<path d="M171.557 178.153C168.207 178.153 165.001 181.099 165.156 184.557C165.312 188.028 167.97 190.961 171.557 190.961C174.908 190.961 178.114 188.016 177.959 184.557C177.803 181.087 175.145 178.153 171.557 178.153Z" fill="#A85C56"/>
<path d="M170.669 247.046C168.222 247.046 166.142 249.126 166.142 251.572C166.142 254.028 168.213 256.099 170.669 256.099C173.115 256.099 175.195 254.019 175.195 251.572C175.192 249.117 173.121 247.046 170.669 247.046Z" fill="#C56E5F"/>
</svg>
