<svg width="278" height="530" viewBox="0 0 278 530" fill="none" xmlns="http://www.w3.org/2000/svg">
<path d="M107.386 49.1431C106.634 52.5041 108.912 56.2524 112.241 57.1328L107.386 49.1431Z" fill="#DDAA10"/>
<path d="M120.144 54.646C121.652 56.5536 124.419 57.3516 126.711 56.5397L120.144 54.646Z" fill="#DDAA10"/>
<path d="M155.937 445.091C155.093 456.699 159.355 479.363 159.962 490.986C160.11 493.824 157.883 496.757 159.762 498.891C161.081 500.39 163.003 501.198 164.889 501.849C169.247 503.351 174.749 504 177.87 500.608C179.332 499.019 180.276 496.903 180.473 494.754C181.823 480.057 186.968 450.981 183.003 439.529C181.928 436.422 178.876 452.77 176.254 450.787C171.634 447.293 167.603 427.845 164.233 432.556C161.738 433.571 156.132 442.406 155.937 445.091Z" fill="#F09F92"/>
<path d="M64.8256 446.736C64.5489 458.371 69.9141 480.801 71.0866 492.38C71.3731 495.207 69.2936 498.244 71.2725 500.284C72.663 501.717 74.6224 502.431 76.5384 502.989C80.9644 504.276 86.4903 504.656 89.4419 501.116C90.824 499.457 91.3272 497.257 91.7576 495.141C94.174 483.265 98.4253 462.426 93.9084 451.18C92.6828 448.13 88.1142 453.287 85.3974 451.433C80.6122 448.169 75.637 428.941 72.4995 433.812C70.058 434.945 64.8899 444.043 64.8256 446.736Z" fill="#F09F92"/>
<path d="M194.977 306.776C194.99 301.171 194.917 295.566 194.721 289.962C193.764 262.399 189.95 235.662 183.436 208.869C180.483 196.724 174.154 185.869 160.911 183.066C157.54 182.352 154.084 181.865 150.65 182.167C125.881 184.343 116.706 220.822 121.666 240.784C124.309 251.424 125.901 259.694 125.553 270.893C125.101 285.405 125.934 300.248 131.265 313.912C132.721 317.645 134.517 321.326 134.965 325.307C135.745 332.223 132.383 338.897 131.603 345.812C130.718 353.658 133.195 361.504 136.407 368.715C138.086 372.483 140.062 376.383 140.449 380.551C140.764 383.937 139.878 387.663 139.443 391.045C138.343 399.599 139.163 407.748 144.302 414.997C146.322 417.846 148.934 420.568 149.335 424.037C149.582 426.176 148.935 428.302 148.597 430.429C148.003 434.159 148.373 438.04 149.66 441.591C150.215 443.121 150.939 444.601 151.282 446.192C151.657 447.94 151.558 449.75 151.529 451.537C151.441 456.805 151.976 462.082 153.118 467.225C154.272 472.422 162.487 471.057 166.769 470.96C173.075 470.818 179.362 469.856 185.418 468.091C186.101 467.893 186.815 467.662 187.295 467.135C187.858 466.518 187.977 465.627 188.069 464.797C191.076 437.867 190.966 410.39 193.328 383.336C194.605 368.704 193.728 353.346 194.254 338.514C194.63 327.939 194.955 317.358 194.977 306.776Z" fill="#754C66"/>
<path d="M135.756 242.172C129.664 230.753 119.362 228.444 108.812 222.992C97.5992 217.198 88.1057 211.819 74.8221 214.865C70.5498 215.845 66.3083 217.663 63.4014 220.946C59.2954 225.582 58.5463 232.209 58.053 238.38C56.1859 261.77 53.0889 285.35 52.1861 308.756C51.2344 333.423 53.5976 358.061 55.9511 382.587C57.8294 402.144 59.7063 421.703 61.5846 441.26C62.465 450.422 62.1562 460.757 64.3377 469.688C66.4243 478.23 73.5336 476.548 81.3081 476.42C86.7934 476.331 92.4716 476.015 98.0073 475.079C97.9975 473.595 97.9625 472.112 97.9248 470.636C97.8284 466.858 97.2386 461.822 97.1673 456.799C97.7082 455.091 98.4545 453.441 99.4216 451.887C101.939 447.838 105.096 444.585 106.226 439.801C108.039 432.134 107.228 423.584 105.077 415.819C105.118 415.683 105.142 415.545 105.189 415.411C106.014 413.108 107.773 411.287 109.196 409.295C112.768 404.295 114.287 397.87 113.33 391.799C112.34 385.522 108.902 378.886 111.767 373.214C112.494 371.776 113.577 370.555 114.535 369.26C125.012 355.085 115.752 337.874 117.873 322.363C118.566 317.297 124.417 299.657 127.031 295.263C133.035 285.17 135.675 287.864 138.579 276.486C141.481 265.107 141.283 252.535 135.756 242.172Z" fill="#754C66"/>
<path d="M95.1131 502.775C94.6435 499.409 95.0404 492.528 92.8336 489.845C91.4179 488.124 79.4955 490.476 77.3126 490.609C71.6176 490.956 65.9785 491.118 60.8859 493.946C57.8337 495.643 54.9953 497.731 51.8159 499.177C49.7 500.14 47.4597 500.804 45.3425 501.764C41.3441 503.578 37.8349 506.453 35.269 510.015C35.0356 510.338 34.8036 510.759 34.9895 511.111C35.1404 511.396 35.4954 511.49 35.8112 511.548C42.7458 512.827 51.5336 510.995 58.7183 510.886C70.8001 510.701 82.8594 507.874 94.93 507.489C95.3157 505.983 95.3283 504.319 95.1131 502.775Z" fill="#1A2732"/>
<path d="M46.3054 202.081C45.9323 206.338 45.8764 210.606 46.3431 214.856C48.6868 236.194 65.3259 248.48 85.1207 252.871C102.734 256.764 121.056 257.431 138.905 254.826C145.775 253.824 154.081 252.187 162.226 249.662C171.533 246.777 180.622 242.727 187.134 237.146C188.066 233.751 188.745 230.265 189.107 226.677C190.628 211.564 187.358 196.873 184.6 182.116C181.01 162.907 177.601 143.526 173.332 124.459C171.504 116.296 168.39 108.464 166.477 100.406C164.718 92.9936 164.073 87.5096 156.819 83.0612C151.019 79.5045 144.094 78.3711 137.35 77.4823C123.343 75.6389 110.367 75.6724 96.438 77.1371C84.9795 78.3417 73.3143 80.2983 69.404 93.213C67.9295 98.0806 68.1252 103.288 67.1916 108.287C65.488 117.404 60.0991 125.507 58.3424 134.615C57.332 139.85 57.5584 145.245 56.9267 150.539C56.3076 155.73 54.8695 160.783 53.5433 165.84C51.7335 172.74 50.1207 179.693 48.7092 186.685C47.6792 191.77 46.7582 196.917 46.3054 202.081Z" fill="#2A69BD"/>
<path d="M185.608 447.008C185.766 450.925 183.629 454.851 180.254 456.845L185.608 447.008Z" fill="#1A2732"/>
<path d="M162.796 463.094C165.24 465.312 169.454 465.168 171.742 462.788L162.796 463.094Z" fill="#1A2732"/>
<path d="M92.0706 237.441C96.6391 241.477 103.097 243.277 109.094 242.184L92.0706 237.441Z" fill="#1A2732"/>
<path d="M83.4939 190.33C88.922 194.243 92.673 200.409 93.6513 207.029L83.4939 190.33Z" fill="#1A2732"/>
<path d="M163.606 157.416C169.114 162.551 172.992 169.408 174.556 176.774L163.606 157.416Z" fill="#1A2732"/>
<path d="M185.271 216.718C182.824 225.204 177.21 232.735 169.776 237.504L185.271 216.718Z" fill="#1A2732"/>
<path d="M153.724 208.755C161.477 212.232 171.424 209.887 176.808 203.314L153.724 208.755Z" fill="#1A2732"/>
<path d="M127.831 229.688C133.079 231.035 137.601 234.954 139.682 239.957L127.831 229.688Z" fill="#1A2732"/>
<path d="M157.499 502.368C157.969 499.003 157.572 492.122 159.779 489.438C161.194 487.718 173.117 490.07 175.3 490.203C180.995 490.549 186.634 490.712 191.726 493.54C194.779 495.237 197.617 497.326 200.796 498.771C202.912 499.734 205.153 500.398 207.268 501.358C211.267 503.172 214.776 506.047 217.342 509.609C217.575 509.932 217.807 510.353 217.621 510.705C217.47 510.99 217.116 511.083 216.8 511.142C209.865 512.421 201.077 510.589 193.893 510.48C181.811 510.295 169.751 507.468 157.681 507.082C157.297 505.577 157.284 503.913 157.499 502.368Z" fill="#1A2732"/>
<path d="M69.9042 267.293C67.1692 271.588 63.7899 275.668 61.0214 278.8C60.8341 279.013 60.6148 279.241 60.3325 279.253C60.0222 279.266 59.7707 279.016 59.568 278.781C53.9625 272.316 50.0731 264.817 51.9276 256.022C52.168 254.88 52.4965 253.708 52.2561 252.567C51.9752 251.238 50.9773 250.198 50.0354 249.22C30.4475 228.868 18.6299 202.211 19.4433 173.704C19.836 159.91 23.6177 146.035 31.4872 134.7C36.5156 127.457 43.9659 120.986 52.7774 120.673C56.4277 120.543 60.2248 121.581 62.9067 124.061C71.1606 131.693 63.6209 144.047 61.2772 152.499C58.0838 164.012 56.0993 175.888 55.8645 187.847C55.4941 206.781 59.6449 226.017 69.3452 242.281C71.7629 246.335 75.6131 252.262 74.5524 257.148C73.7977 260.427 72.0494 263.926 69.9042 267.293Z" fill="#F09F92"/>
<path d="M96.3707 77.4624C60.3352 77.8593 38.9891 108.604 24.0536 140.525C38.6831 148.376 84.5363 170.353 70.8586 153.983C70.0578 153.025 86.9639 135.885 88.6968 132.998C94.2115 123.806 91.0279 104.107 95.8536 94.6536C99.4872 87.5345 100.431 81.1323 96.3707 77.4624Z" fill="#2A69BD"/>
<path d="M77.6634 253.211C74.9005 260.698 71.9153 268.157 67.699 274.932C63.484 281.707 57.9511 287.817 50.9928 291.725" fill="#1A2732"/>
<path d="M216.161 144.059C214.311 139.737 212.105 135.499 209.535 131.378C206.113 125.891 202.142 119.977 195.919 118.219C187.987 115.978 179.489 121.982 176.517 129.669C172.187 140.863 177.318 151.036 180.014 161.698C182.906 173.138 186.877 184.392 187.798 196.235C189.049 212.333 184.085 228.486 175.859 242.281C173.441 246.335 169.591 252.262 170.651 257.148C171.401 260.428 173.15 263.928 175.295 267.296C178.03 271.59 181.41 275.671 184.178 278.803C184.366 279.015 184.585 279.243 184.867 279.256C185.177 279.268 185.429 279.018 185.632 278.783C191.237 272.318 195.127 264.819 193.272 256.024C193.032 254.883 192.703 253.71 192.944 252.57C193.225 251.241 194.222 250.201 195.164 249.223C222.615 220.7 231.352 179.543 216.161 144.059Z" fill="#F09F92"/>
<path d="M167.536 253.211C170.299 260.698 173.284 268.157 177.499 274.932C181.714 281.707 187.247 287.817 194.206 291.725" fill="#1A2732"/>
<path d="M202.378 109.202C193.178 94.43 177.138 84.787 160.866 80.1611C150.823 77.3059 140.375 76.2801 129.938 76.691C133.459 85.1573 136.338 93.9311 140.648 102.038C145.254 110.703 150.091 119.213 154.395 128.039C158.492 136.441 162.42 145.017 165.731 153.764C167.119 157.432 168.316 161.164 169.564 164.88C185.78 157.37 201.994 149.858 218.208 142.347C221.251 140.94 204.102 111.968 202.378 109.202Z" fill="#2A69BD"/>
<path d="M145.921 32.3125C142.488 29.8291 139.057 27.3443 135.625 24.8608C135.373 25.0453 135.101 25.2172 134.784 25.3682C125.902 29.5817 117.134 34.1168 108.465 38.7468C108.345 38.8111 108.222 38.8768 108.102 38.9425C108.319 39.0766 108.537 39.2136 108.753 39.3477C115.07 43.2636 121.072 48.2431 128.546 50.1465C136.062 52.0612 144.914 51.2087 151.98 48.2738C154.288 47.3151 156.775 45.6786 156.754 43.3279C156.714 38.9257 149.125 34.6324 145.921 32.3125Z" fill="#4E8A84"/>
<path d="M139.785 28.3701C139.827 28.3743 139.869 28.3799 139.913 28.3855C142.694 23.9874 144.246 18.08 141.633 13.1663C140.884 11.724 139.812 10.4732 138.649 9.33843C136.089 6.84103 133.052 4.85931 129.827 3.31084C121.527 -0.670752 111.267 -1.4366 103.022 3.09562C99.226 5.18214 96.0103 8.48313 94.5136 12.5472C93.3969 15.5812 93.2684 18.8766 93.151 22.1078C93.0461 25.0244 94.378 25.0622 96.0983 26.8636C97.8914 28.7419 98.9004 30.3504 101.599 31.2141C105.066 32.3224 108.495 33.3188 112.097 33.8638C114.009 34.1531 116.776 35.0923 118.657 34.817C120.898 34.4899 123.401 31.5719 125.162 30.1799C126.241 29.326 127.353 28.4554 128.668 28.0473C129.842 27.6825 131.1 27.7147 132.328 27.7706C134.819 27.8824 137.306 28.0836 139.785 28.3701Z" fill="#E86B6F"/>
<path d="M134.781 41.3241C134.807 41.5225 134.835 41.721 134.862 41.9208C134.888 41.5365 134.911 41.1396 134.941 40.7665C135.088 38.9888 135.221 37.1566 134.684 35.4558C134.504 34.8856 134.243 34.3713 133.946 33.8794C134.164 36.3656 134.457 38.849 134.781 41.3241Z" fill="#F09F92"/>
<path d="M139.757 50.2096C141.258 50.2865 142.801 49.8351 143.819 48.6905C145.908 46.344 145.177 42.8851 143.655 40.4632C142.283 38.2788 140.533 36.3223 138.62 34.5362C138.908 34.3196 139.186 34.089 139.436 33.8193C141.869 31.2003 141.671 27.4759 139.39 24.8485C137.621 22.8095 134.87 21.5182 132.464 20.3987C131.126 19.7768 129.765 19.215 128.381 18.7091C127.632 18.3793 126.874 18.0844 126.094 17.8622C117.683 15.4654 109.379 14.6702 100.727 13.8792C98.094 13.6388 95.3297 13.6724 92.9511 14.8295C90.4942 16.0244 88.6578 18.4198 88.1393 21.1017C87.6208 23.7836 88.4342 26.6904 90.2678 28.7155C88.8507 29.6644 87.516 30.802 86.6565 32.2736C85.797 33.7452 85.4686 35.5998 86.1031 37.1818C86.7376 38.7638 88.4663 39.9321 90.1434 39.6289C89.1469 41.3646 88.1309 43.1619 87.8906 45.1492C87.5579 47.9107 89.6389 51.1097 92.0566 52.387C93.8021 53.3094 95.6623 53.5064 97.5867 53.0746C98.5552 52.858 99.5111 52.4723 100.424 51.9789C99.9765 53.5288 99.7291 55.1276 99.5964 56.7487C99.1981 61.5786 103.352 64.7552 107.866 64.2871C113.02 63.7518 114.061 58.3936 115.477 54.0682C115.657 57.0799 116.644 60.0399 118.308 62.5555C118.864 63.3968 119.524 64.213 120.418 64.6798C121.313 65.1465 122.492 65.1871 123.273 64.5484C124.05 63.9139 124.245 62.821 124.354 61.8246C124.559 59.9379 124.646 58.0387 124.618 56.1408C124.83 57.8584 125.424 59.5298 126.39 60.9665C127.113 62.0426 128.081 63.0223 129.316 63.4122C130.552 63.8021 132.081 63.4527 132.771 62.3571C133.255 61.5884 133.26 60.6213 133.232 59.7143C133.168 57.59 133.007 55.4686 132.75 53.3583C133.544 54.8942 134.396 56.4986 135.842 57.4475C136.897 58.1421 138.762 58.4901 139.85 57.6376C142.224 55.7774 138.381 52.2808 138.41 50.0908C138.41 50.0573 138.416 50.0322 138.417 50C138.848 50.1076 139.289 50.1845 139.757 50.2096Z" fill="#1A2732"/>
<path d="M93.6372 42.6415C96.934 42.5716 100.242 43.1418 103.325 44.3115L93.6372 42.6415Z" fill="#DDAA10"/>
<path d="M129.699 61.004C129.287 50.1465 128.92 39.2876 128.558 28.4273C125.142 27.449 121.747 26.3338 118.305 25.2577C110.452 22.8008 103.466 22.9182 95.9041 23.0622C94.0594 26.4149 92.7596 30.2246 91.9239 33.9672C91.2713 36.888 90.6703 39.8354 90.4006 42.8206C91.4278 46.0489 92.1112 49.3611 92.6017 52.7222C93.0755 53.0324 93.5702 53.3147 94.0705 53.576C96.2116 54.6997 98.4476 55.643 100.745 56.3935C100.659 60.5316 100.327 64.6641 99.7544 68.7631C99.3225 71.8545 98.7341 74.855 99.0192 77.9939C99.5182 83.4764 103.044 86.9185 108.186 88.5117C113.242 90.0798 118.773 89.3461 123.77 87.5922C134.539 83.8118 130.04 69.9874 129.699 61.004Z" fill="#F09F92"/>
<path d="M130.988 32.5426C130.331 32.2896 129.642 32.2183 128.942 32.2421C127.723 32.2826 126.47 32.6068 125.296 32.7508C123.416 32.9814 121.279 33.3406 119.678 34.3594C116.597 36.3201 113.883 38.3102 111.072 40.7C110.693 41.0228 110.272 41.361 109.775 41.3764C109.343 41.389 108.947 41.1528 108.581 40.9236C106.474 39.6015 104.363 38.2222 101.997 37.4549C99.6313 36.6877 96.9257 36.5996 94.7553 37.8127C94.2494 38.095 93.7603 38.4514 93.1873 38.5422C91.787 38.7658 90.6535 35.49 91.4236 34.9896C89.8877 35.9847 89.741 41.2073 89.6264 42.9668C89.2113 49.2907 90.6312 55.2833 95.531 59.6059C100.123 63.6588 106.117 62.4457 111.053 59.7806C114.676 57.8254 118.314 56.0478 122.006 54.2463C126.71 51.9516 132.142 48.9902 134.584 44.1002C136.61 40.0404 135.598 34.3202 130.988 32.5426ZM130.974 45.6026C130.254 46.3475 129.46 46.9847 128.579 47.4948C127.465 48.406 126.178 49.0307 124.828 49.1467C122.97 49.8483 120.741 49.7365 119.59 47.8917C118.671 46.4215 118.845 44.5279 119.162 42.9081C119.419 41.6 119.875 40.3073 120.466 39.1138C121.254 37.522 122.735 36.1957 124.133 35.1448C125.803 33.8884 128.096 32.9255 130.196 33.6173C132.609 34.4139 134.269 36.9336 134.046 39.4744C133.84 41.832 132.595 43.9241 130.974 45.6026Z" fill="white"/>
<path d="M94.2996 26.8479C93.5016 29.3523 98.3218 30.7275 99.8479 30.3194C102.176 29.6975 103.177 27.0128 103.808 24.6873C106.056 26.9639 108.566 28.9805 111.274 30.6841C112.398 31.3913 113.588 32.0565 114.901 32.2522C117.314 32.6127 119.88 31.1327 120.776 28.8631C121.714 30.4717 122.833 32.5512 123.046 34.4309C123.24 36.1513 123.11 37.9779 123.273 39.7416C124.295 39.5264 125.315 39.3055 126.314 39.0023C126.386 38.9813 126.437 38.9604 126.505 38.9394C126.855 38.3776 127.199 37.8116 127.543 37.2456C128.21 36.1471 128.866 35.0347 129.641 34.0075C130.015 33.5086 130.401 33.032 130.841 32.6197C130.882 32.3598 130.924 32.1012 130.964 31.8413C131.323 29.5409 131.367 28.1965 134.043 27.8667C134.976 27.7521 135.91 27.6375 136.845 27.5229C137.509 27.4404 138.256 27.3105 138.625 26.7528C139.099 26.0359 138.659 25.0702 138.115 24.4036C137.243 23.3359 136.125 22.5169 134.894 21.8866C133.925 21.3905 132.887 21.0118 131.842 20.7183C129.469 20.0516 127.005 19.7693 124.615 19.1726C121.665 18.4361 118.878 17.0679 115.92 16.3384C112.736 15.553 109.048 16.1246 105.75 15.6368C102.84 15.2078 99.9541 14.5146 97.0136 14.4601C94.0732 14.4056 90.9847 15.0722 88.7863 17.0274C87.0129 18.6052 85.9633 20.9656 85.9801 23.3387C85.9955 25.4979 87.0045 27.7675 88.9303 28.7457C90.8547 29.7268 93.6442 28.9065 94.2996 26.8479Z" fill="#1A2732"/>
<path d="M135.44 37.4627C135.394 37.2558 135.344 37.049 135.292 36.8436C135.016 35.7591 134.655 34.6732 133.994 33.769C132.58 31.8306 129.263 31.3582 127.604 33.2882C125.641 35.5718 126.108 39.9042 126.379 42.6182C126.488 43.7013 126.601 44.804 127.025 45.8074C127.448 46.8108 128.236 47.7178 129.286 48.0099C129.842 48.165 130.436 48.1399 131 48.0155C133.179 47.5333 134.834 45.5963 135.466 43.4553C136.036 41.5183 135.885 39.4416 135.44 37.4627Z" fill="#F09F92"/>
<path d="M129.288 37.0073C130.557 37.2267 131.62 38.3378 131.783 39.6151C131.947 40.8925 131.197 42.2341 130.024 42.7652" fill="#1A2732"/>
<path d="M126.751 299.051C126.362 294.296 125.7 289.564 124.767 284.887" stroke="#1A2732" stroke-miterlimit="10"/>
<path d="M113.851 51.9574C113.64 51.2055 113.26 50.5529 112.709 49.998L112.543 49.8317C112.141 49.3985 111.664 49.0924 111.115 48.9135C110.585 48.6354 110.016 48.5083 109.404 48.5306C108.793 48.5069 108.223 48.6354 107.694 48.9135C107.143 49.0924 106.668 49.3985 106.265 49.8317C106.033 50.1308 105.803 50.4299 105.571 50.7303C105.17 51.4221 104.967 52.1698 104.964 52.9706C105.017 53.3633 105.07 53.7574 105.122 54.1501C105.333 54.902 105.713 55.5546 106.264 56.1095C106.32 56.1654 106.374 56.2213 106.43 56.2758C106.833 56.709 107.308 57.0151 107.858 57.194C108.388 57.4721 108.957 57.5992 109.569 57.5769C110.18 57.5992 110.75 57.4721 111.28 57.194C111.83 57.0151 112.307 56.709 112.708 56.2758C112.939 55.9767 113.171 55.6762 113.403 55.3772C113.804 54.6854 114.006 53.9377 114.009 53.1369C113.956 52.7442 113.903 52.3501 113.851 51.9574Z" fill="#1A2732"/>
<path d="M179.638 159.938C177.777 160.834 175.934 158.731 174.942 156.921C171.009 149.759 167.265 142.493 163.714 135.133C163.275 134.225 162.885 133.015 163.612 132.314" stroke="#1A2732" stroke-miterlimit="10"/>
<path d="M61.178 158.569C61.4561 147.938 72.4128 140.171 73.6706 129.611" stroke="#1A2732" stroke-miterlimit="10"/>
<path opacity="0.13" d="M27.7614 494.746C21.1105 495.207 14.1865 495.744 8.47617 498.781C2.76583 501.819 -1.26668 508.175 1.12729 513.661C3.02062 517.997 8.14238 520.476 13.0365 522.208C33.0986 529.305 55.2815 529.87 76.9001 529.763C114.318 529.763 151.732 528.589 189.047 526.141C207.045 524.96 224.999 523.41 242.946 521.72C243.911 521.629 282.545 518.164 277.008 511.652C253.851 484.439 186.643 493.286 152.084 493.684C111.007 494.151 68.6744 491.903 27.7614 494.746Z" fill="black"/>
</svg>
