<svg width="316" height="500" viewBox="0 0 316 500" fill="none" xmlns="http://www.w3.org/2000/svg">
<path d="M158 500C245.261 500 316 493.284 316 485C316 476.716 245.261 470 158 470C70.739 470 0 476.716 0 485C0 493.284 70.739 500 158 500Z" fill="#E8CCCD"/>
<path d="M194.058 92.4531C194.058 92.4531 223.944 93.5209 232.48 103.125C238.884 112.732 235.684 118.068 243.155 120.203C250.626 122.339 251.694 138.346 251.694 163.964C251.694 189.578 251.694 241.878 239.954 249.349C228.215 256.821 197.262 247.214 197.262 247.214L194.058 92.4531Z" fill="#666D88"/>
<path d="M146.299 104.459C146.299 104.459 133.492 108.461 127.088 129.275C120.685 150.089 121.486 178.904 118.283 193.314C115.08 207.722 103.074 262.154 100.672 274.964C99.0722 281.368 95.869 290.975 99.8709 294.977C103.873 298.979 107.875 288.573 111.078 282.169C114.278 275.766 129.487 222.934 135.894 197.319C142.297 171.705 160.71 122.073 160.71 122.073L146.299 104.459Z" fill="#E38271"/>
<path d="M156.702 246.679H76.6554V296.843H156.702V246.679Z" fill="#666D88"/>
<path d="M84.127 249.347H79.8588V293.64H84.127V249.347Z" fill="#D9DAE6"/>
<path d="M146.299 104.459C146.299 104.459 132.69 110.062 127.887 122.869C123.083 135.676 119.348 150.619 119.348 150.619L140.161 153.287L146.299 104.459Z" fill="#664756"/>
<path d="M71.483 449.636L59.1194 480.542L71.96 486.25L84.7978 454.867L71.483 449.636Z" fill="#E38271"/>
<path d="M72.9109 483.157C72.9109 483.157 29.0451 463.899 25.1236 467.823C22.2698 472.103 69.7022 489.932 71.8405 489.577C73.9787 489.22 72.9109 483.157 72.9109 483.157Z" fill="black"/>
<path d="M61.4987 480.661C61.4987 480.661 68.274 473.886 75.407 479.236C77.903 483.16 72.5532 487.439 72.5532 487.439L61.4987 480.661Z" fill="black"/>
<path d="M127.593 231.383C127.593 231.383 118.083 254.208 112.379 277.981C106.674 301.757 99.0639 314.117 89.5541 348.354C80.0443 382.591 60.0735 452.013 59.1223 460.572C60.0735 465.325 73.3883 469.13 84.7978 469.13C84.7978 469.13 91.4538 452.965 106.671 417.777C121.888 382.588 144.71 328.384 159.928 296.049C175.145 263.715 181.801 259.913 184.655 241.841C187.508 223.773 187.508 217.117 187.508 217.117L127.593 231.383Z" fill="#4690B7"/>
<path d="M174.848 233.336L140.694 241.876C140.694 241.876 148.165 268.558 150.301 284.568C151.726 295.268 149.818 311.65 148.396 321.368C152.514 312.116 156.427 303.491 159.927 296.053C169.528 275.652 175.716 266.608 179.696 258.174L174.848 233.336Z" fill="#467A9C"/>
<path d="M262.175 437.878L290.696 455.042L298.389 443.286L269.477 425.576L262.175 437.878Z" fill="#E38271"/>
<path d="M295.491 441.851C295.491 441.851 269.441 482.054 272.683 486.558C276.449 490.06 301.665 446.109 301.656 443.94C301.648 441.768 295.491 441.851 295.491 441.851Z" fill="black"/>
<path d="M291.196 452.716C291.196 452.716 285.596 444.939 292.022 438.758C296.296 436.925 299.66 442.89 299.66 442.89L291.196 452.716Z" fill="black"/>
<path d="M149.835 240.389C151.738 244.194 166.756 327.43 179.119 355.011C191.483 382.589 262.053 445.804 267.758 448.658C273.462 452.463 283.924 436.295 285.826 429.639C285.826 429.639 236.375 364.97 229.719 350.707C223.063 336.443 212.602 242.294 212.602 242.294L149.835 240.389Z" fill="#4690B7"/>
<path d="M194.059 92.4531C194.059 92.4531 197.794 96.7213 205.266 101.525C212.737 106.328 221.276 108.996 224.477 112.732C227.68 116.467 229.813 123.406 228.745 135.678C227.677 147.953 219.138 166.632 218.073 171.968C217.005 177.303 215.405 210.925 215.938 221.064C216.47 231.203 217.272 253.082 216.739 258.953C216.739 258.953 198.862 262.689 172.712 260.554C146.562 258.418 125.751 260.287 119.88 253.348C115.077 246.945 121.48 234.936 121.48 229.6C121.48 224.264 131.62 186.908 131.087 180.504C130.555 174.1 131.62 153.286 131.087 143.682C130.555 134.075 138.559 110.596 141.227 107.928C143.895 105.26 151.302 102.498 151.302 102.498L194.059 92.4531Z" fill="#664756"/>
<path d="M171.276 59.7025L160.934 91.7983C160.934 91.7983 158.438 98.9313 151.305 102.498C144.926 105.687 169.85 123.181 198.38 99.6441C199.092 96.0776 194.813 93.2238 192.675 83.2398C190.534 73.253 193.387 54.7104 193.387 54.7104L171.276 59.7025Z" fill="#E38271"/>
<path d="M192.267 80.7275C190.975 70.4412 193.388 54.708 193.388 54.708L171.276 59.7L160.934 91.7959C160.934 91.7959 159.464 95.9365 155.615 99.4864C159.603 98.8707 166.37 97.4202 173.783 94.0506C180.056 91.1996 187.076 85.4616 192.267 80.7275Z" fill="#E36E62"/>
<path d="M151.965 13.4936C151.965 13.4936 133.656 15.2491 136.612 41.7401C139.568 68.231 140.791 82.9047 144.849 91.5936C148.909 100.282 169.412 94.4917 182.489 82.3612C195.565 70.2306 194.608 57.3761 193.385 42.6996C192.159 28.0231 184.657 2.20057 151.965 13.4936Z" fill="#E38271"/>
<path d="M129.756 27.6125C129.756 27.6125 130.957 32.4159 137.361 36.4178C143.764 40.4198 148.568 40.4198 155.371 42.4221C162.174 44.4245 166.578 43.623 170.979 43.623C175.38 43.623 177.782 47.2256 177.782 47.2256L180.184 58.4326V64.0375L184.585 62.4373V53.632L184.186 47.6277C184.186 47.6277 186.588 43.2264 189.791 47.2283C192.991 51.2303 190.592 58.4354 190.592 58.4354L188.59 62.8394L192.592 67.2435C192.592 67.2435 196.594 58.8375 197.795 56.0365C198.995 53.2354 199.797 38.4258 199.797 38.4258C199.797 38.4258 202.598 36.4234 202.997 34.0217C203.397 31.62 201.397 27.618 201.397 27.618C201.397 27.618 201.397 24.817 200.596 21.6138C199.794 18.4133 197.395 14.4086 194.591 12.0069C191.79 9.60522 186.185 5.60329 184.985 4.00307C183.784 2.40285 179.38 3.20156 174.177 1.60134C168.974 0.00112721 162.171 -0.401003 157.767 0.400492C153.363 1.20199 148.562 3.20157 144.56 4.00307C140.558 4.80456 138.157 10.0073 136.154 11.6076C134.152 13.2078 132.152 20.0135 130.552 20.8123C128.955 21.6082 127.754 24.4121 129.756 27.6125Z" fill="#B9623B"/>
<path d="M210.002 371.019C200.378 371.019 193.106 369.463 187.588 367.305C209.672 397.945 263.788 446.171 268.758 448.655C274.462 452.46 284.923 436.292 286.826 429.636C286.826 429.636 242.491 371.659 232.144 353.402C227.904 363.389 221.051 371.019 210.002 371.019Z" fill="#467A9C"/>
<path d="M215.94 106.861C215.94 106.861 195.928 158.093 202.332 188.51C205.532 210.123 221.543 222.132 221.543 224.531C221.543 226.93 221.543 229.334 216.739 228.533C211.936 227.731 197.528 202.116 194.325 186.907C191.125 171.699 194.325 149.284 199.128 132.475C203.932 115.666 209.534 100.457 215.139 101.256C220.741 102.057 215.94 106.861 215.94 106.861Z" fill="#666D88"/>
<path d="M134.826 165.029C134.826 165.029 131.09 143.15 127.355 142.615C123.619 142.079 115.08 142.079 115.08 145.283C115.08 148.486 125.219 170.897 128.955 171.965C132.691 173.033 134.826 169.297 134.826 165.029Z" fill="#322E47"/>
<path d="M224.477 112.732C224.477 112.732 238.352 122.871 236.752 140.482C235.152 158.093 219.943 209.322 191.924 215.725C163.907 222.129 122.282 165.295 122.282 165.295C122.282 165.295 118.28 161.293 117.479 154.088C116.677 146.883 123.882 153.286 127.884 158.09C131.886 162.893 131.085 165.295 131.085 165.295C131.085 165.295 128.683 157.291 132.685 158.09C136.687 158.891 137.488 166.094 137.488 166.094C137.488 166.094 163.904 186.106 177.513 188.508C191.122 190.91 205.53 132.475 213.533 122.868C221.543 113.264 224.477 112.732 224.477 112.732Z" fill="#E38271"/>
<path d="M224.477 112.732C224.477 112.732 238.352 120.203 237.819 137.814C237.287 155.425 229.28 178.371 229.28 178.371C229.28 178.371 213.27 167.164 194.594 164.496C194.594 164.496 199.93 138.346 206.333 129.275C212.737 120.201 217.008 113.264 224.477 112.732Z" fill="#664756"/>
</svg>
