<svg width="240" height="507" viewBox="0 0 240 507" fill="none" xmlns="http://www.w3.org/2000/svg">
<path d="M117.5 507.006C182.393 507.006 235 501.409 235 494.506C235 487.602 182.393 482.006 117.5 482.006C52.6065 482.006 0 487.602 0 494.506C0 501.409 52.6065 507.006 117.5 507.006Z" fill="#E8CCCD"/>
<path d="M148.994 372.655V322.054C148.994 317.615 152.536 313.986 156.973 313.876L224.68 312.205C229.076 312.096 232.771 315.484 233.047 319.871L236.159 369.645C236.446 374.241 232.886 378.168 228.284 378.33L157.466 380.83C152.834 380.995 148.994 377.286 148.994 372.655Z" fill="#664756"/>
<path d="M148.994 322.053C148.994 322.053 149.443 315.521 156.291 315.066C160.856 316.893 168.158 352.953 168.158 352.953L239.369 350.214C239.369 350.214 237.542 319.629 229.783 313.24C221.566 309.589 153.094 312.327 153.094 312.327C153.094 312.327 149.457 318.085 148.994 322.053Z" fill="#845C68"/>
<path d="M172.267 314.61C172.267 314.61 172.267 287.221 184.134 275.353C196.459 264.398 203.764 312.328 203.764 312.328L209.699 312.786C209.699 312.786 196.916 271.245 189.157 269.876C181.398 268.506 170.443 285.397 168.158 313.698C169.985 315.524 172.267 314.61 172.267 314.61Z" fill="#845C68"/>
<path d="M57.2334 192.702C57.2334 192.702 51.7557 218.264 51.7557 221.918C51.7557 225.571 59.9723 243.829 59.9723 241.09C59.9723 238.351 66.362 196.356 66.362 196.356L57.2334 192.702Z" fill="#E38271"/>
<path d="M89.1878 96.8418C89.1878 96.8418 72.7546 101.407 68.1889 116.014C63.6232 130.62 50.8437 204.57 50.8437 204.57L75.4935 205.482L89.1878 96.8418Z" fill="#724564"/>
<path d="M58.2195 460.659L46.9901 488.73L58.6495 493.912L70.3116 465.408L58.2195 460.659Z" fill="#E38271"/>
<path d="M59.5151 491.104C59.5151 491.104 19.6756 473.613 16.1123 477.177C13.5213 481.063 56.601 497.258 58.5428 496.935C60.4874 496.609 59.5151 491.104 59.5151 491.104Z" fill="black"/>
<path d="M49.1512 488.836C49.1512 488.836 55.3055 482.682 61.7829 487.54C64.0507 491.104 59.192 494.99 59.192 494.99L49.1512 488.836Z" fill="black"/>
<path d="M168.889 438.345L194.793 453.935L201.78 443.259L175.52 427.173L168.889 438.345Z" fill="#E38271"/>
<path d="M199.148 441.955C199.148 441.955 175.487 478.47 178.431 482.559C181.852 485.742 204.754 445.823 204.746 443.851C204.738 441.879 199.148 441.955 199.148 441.955Z" fill="black"/>
<path d="M195.245 451.821C195.245 451.821 190.159 444.757 195.996 439.145C199.877 437.48 202.933 442.9 202.933 442.9L195.245 451.821Z" fill="black"/>
<path d="M66.8556 258.977C68.5838 262.433 74.6285 327.21 85.8578 352.26C97.0872 377.309 168.777 445.543 173.959 448.134C179.141 451.59 188.642 436.904 190.37 430.86C190.37 430.86 145.456 372.127 139.411 359.17C133.363 346.215 123.862 260.705 123.862 260.705L66.8556 258.977Z" fill="#B37564"/>
<path d="M173.959 448.134C179.141 451.59 188.642 436.904 190.37 430.86C190.37 430.86 145.455 372.128 139.411 359.17C133.963 347.494 125.711 276.922 124.133 263.085L119.762 261.138L103.567 264.378C103.567 264.378 88.0214 312.963 86.726 322.68C85.4305 332.398 111.343 371.911 111.343 371.911L108.993 383.661C134.237 412.449 170.335 446.323 173.959 448.134Z" fill="#AA595C"/>
<path d="M109.179 262.433C109.179 262.433 100.54 283.164 95.3585 304.757C90.1766 326.35 83.2664 337.58 74.628 368.674C65.9897 399.768 47.8529 462.82 46.9875 470.595C47.8502 474.915 59.9423 478.368 70.3089 478.368C70.3089 478.368 76.3563 463.685 90.1738 431.725C103.994 399.768 124.722 350.535 138.542 321.168C152.363 291.802 158.407 288.346 160.998 271.934C163.589 255.523 163.589 249.479 163.589 249.479L109.179 262.433Z" fill="#B37564"/>
<path d="M125.59 51.2499L116.196 80.3996C116.196 80.3996 113.928 86.8771 107.451 90.1171C101.658 93.0149 124.295 108.903 150.205 87.5262C150.854 84.2861 146.964 81.6952 145.023 72.6268C143.078 63.5584 145.672 46.7144 145.672 46.7144L125.59 51.2499Z" fill="#E38271"/>
<path d="M119.844 6.2618C119.844 6.2618 103.239 4.43229 100.96 28.5343C98.6812 52.6363 97.0516 65.9089 99.0509 74.3884C101.05 82.8652 120.354 81.515 134.226 73.1505C148.099 64.7887 149.63 53.1786 151.259 39.9034C152.892 26.6281 151.007 2.27675 119.844 6.2618Z" fill="#E38271"/>
<path d="M148.531 83.1475C148.531 83.1475 147.515 84.1636 145.743 85.659C141.005 89.6577 130.86 97.091 120.231 97.7538C112.926 95.927 107.454 90.1152 107.454 90.1152L89.1882 96.8418C89.1882 96.8418 71.843 134.274 70.0161 147.968C68.1893 161.663 70.9282 193.617 67.2773 218.267C63.6264 242.916 64.5384 261.177 65.4505 266.654C69.1014 271.22 137.573 268.481 165.876 258.438C164.964 258.438 165.876 170.794 165.876 170.794C165.876 170.794 175.005 119.668 175.005 106.888C175.005 94.1084 155.833 84.9743 148.531 83.1475Z" fill="#231E3C"/>
<path d="M148.416 81.2083C148.416 81.2083 137.575 126.057 133.922 153.446C130.271 180.835 125.705 281.261 125.705 281.261C125.705 281.261 167.64 275.323 173.178 267.566C177.744 261.176 173.178 176.272 173.178 176.272C173.178 176.272 180.482 103.234 178.656 96.8446C176.832 90.452 152.067 80.2963 148.416 81.2083Z" fill="#724564"/>
<path d="M107.451 90.1177C107.451 90.1177 83.7101 143.86 81.6559 156.869C79.6018 169.879 61.7991 274.641 61.7991 278.064C61.7991 278.064 57.6908 274.641 55.6367 267.793C53.5825 260.946 62.4838 166.455 63.8533 157.554C65.2227 148.653 79.6018 101.407 79.6018 101.407L107.451 90.1177Z" fill="#724564"/>
<path d="M191.896 205.484C191.896 205.484 195.319 247.252 193.265 265.054C193.265 265.054 195.319 270.532 193.95 276.695C192.58 282.857 186.418 282.172 184.364 280.803C182.31 279.433 180.94 275.325 180.94 275.325C180.94 275.325 178.886 271.901 180.255 268.478C181.625 265.054 183.679 264.37 183.679 264.37C183.679 264.37 176.832 213.701 175.462 202.745C174.093 191.79 191.896 205.484 191.896 205.484Z" fill="#E38271"/>
<path d="M178.659 96.8414C178.659 96.8414 189.614 114.187 192.81 145.229C195.549 173.075 196.461 196.81 197.376 207.766C197.376 207.766 181.855 212.786 174.096 212.331C168.618 211.874 172.269 212.331 172.269 212.331C172.269 212.331 169.073 173.987 163.595 152.988C158.117 131.992 166.334 95.0173 178.659 96.8414Z" fill="#724564"/>
<path d="M150.355 15.5901C150.355 15.5901 148.073 7.83089 142.596 4.63463C137.118 1.43837 123.424 -0.385689 117.034 0.0689624C110.644 0.526353 104.709 4.63468 98.3192 14.6754C93.2989 23.3494 100.962 28.5313 100.962 28.5313C100.962 28.5313 108.817 29.7391 120.688 27.0003C132.555 24.2614 137.121 20.1531 137.121 20.1531C137.121 20.1531 133.924 28.8271 134.382 32.478C134.839 36.1289 138.948 41.6066 138.948 41.6066L134.839 53.9315C134.839 53.9315 138.036 55.7583 139.86 53.9315C141.686 52.1047 143.968 42.5186 143.968 42.5186C143.968 42.5186 146.249 40.2372 148.534 43.4307C150.815 46.627 145.337 54.3862 145.337 54.3862L147.164 59.8639C147.164 59.8639 153.554 47.0816 156.75 40.2345C159.946 33.3873 159.946 24.7133 158.12 21.0624C156.29 17.4142 150.355 15.5901 150.355 15.5901Z" fill="#FFA200"/>
</svg>
