<svg width="207" height="527" viewBox="0 0 207 527" fill="none" xmlns="http://www.w3.org/2000/svg">
<path d="M101.369 527C157.149 527 202.369 519.613 202.369 510.5C202.369 501.387 157.149 494 101.369 494C45.5878 494 0.368591 501.387 0.368591 510.5C0.368591 519.613 45.5878 527 101.369 527Z" fill="#E8CCCD"/>
<path d="M106.087 119.688L106.045 119.815L105.623 121.095L105.187 122.441L104.309 125.162C103.731 126.986 103.155 128.818 102.591 130.657C101.443 134.328 100.316 138.016 99.2295 141.718C97.05 149.118 94.9477 156.548 92.9693 164.005L92.5746 165.495C92.045 167.731 90.9589 169.858 89.7527 171.41C89.1521 172.199 88.522 172.881 87.914 173.447L87.6811 173.665L87.4555 173.864C87.306 173.994 87.1516 174.126 87.002 174.249C86.7103 174.484 86.4063 174.719 86.1243 174.92C84.9671 175.752 83.9227 176.311 82.9593 176.767C81.9909 177.22 81.1156 177.549 80.287 177.823C79.4608 178.095 78.6885 178.306 77.9481 178.485C76.4722 178.836 75.1263 179.056 73.838 179.223C71.2736 179.542 68.9359 179.64 66.6682 179.667C64.4053 179.689 62.2197 179.623 60.0745 179.498C55.7891 179.248 51.647 178.811 47.5479 178.277C45.5008 177.997 43.4659 177.691 41.4348 177.357C40.4222 177.191 39.4073 177.019 38.3923 176.84L36.8649 176.556L35.2738 176.249C30.6218 175.357 27.1945 171.173 27.393 166.299C27.6137 160.929 32.1431 156.754 37.5122 156.974L37.8554 156.989L40.5939 157.1C41.5328 157.139 42.4743 157.171 43.4181 157.195C45.301 157.249 47.1875 157.276 49.063 157.281C52.8091 157.31 56.5319 157.239 60.1088 157.006C61.8961 156.886 63.6465 156.737 65.3124 156.531C66.6314 156.366 67.9038 156.161 69.0315 155.915C70.3628 148.9 71.8068 141.909 73.4212 134.959C73.6835 133.826 73.9458 132.696 74.2155 131.566C74.5637 130.085 74.9167 128.607 75.282 127.125C75.5933 125.833 75.9145 124.538 76.2406 123.246C76.7383 121.297 77.2482 119.347 77.7679 117.395L78.5672 114.461L78.9839 112.982L79.4277 111.445C79.4718 111.298 79.5331 111.095 79.5821 110.948C81.9945 103.628 89.8851 99.6517 97.2045 102.064C104.521 104.475 108.499 112.366 106.087 119.688Z" fill="#B8544E"/>
<path d="M95.3485 135.102L90.4453 152.756L74.213 131.564C74.5612 130.083 74.9142 128.605 75.2795 127.123L95.3485 135.102Z" fill="#933432"/>
<path d="M76.0874 161.083C76.2456 161.108 76.4135 161.066 76.5459 160.956C76.7923 160.751 76.8266 160.385 76.6207 160.137C74.7648 157.905 69.973 155.768 69.7696 155.679C69.4741 155.549 69.1321 155.681 69.0022 155.975C68.8723 156.27 69.0047 156.613 69.2989 156.743C69.3467 156.764 74.044 158.86 75.727 160.881C75.8226 160.994 75.9526 161.063 76.0874 161.083Z" fill="#933432"/>
<path d="M71.2674 157.575C71.3593 157.589 71.4562 157.581 71.5493 157.548C72.5116 157.205 74.7119 157.371 75.4781 157.464C75.7968 157.502 76.0861 157.275 76.1253 156.956C76.1633 156.638 75.9365 156.343 75.6178 156.309C75.3077 156.272 72.5496 155.957 71.1595 156.454C70.8568 156.562 70.6986 156.894 70.8065 157.197C70.8813 157.405 71.0627 157.545 71.2674 157.575Z" fill="#933432"/>
<path d="M35.9186 176.211C35.9186 176.211 26.1072 181.298 19.7758 178.635C12.6771 175.647 13.1319 159.187 15.1006 154.901C17.5645 149.536 26.5779 152.52 26.5779 152.52C26.5779 152.52 26.0692 142.287 28.9744 142.186C32.7572 142.054 34.0529 152.128 38.548 156.315C40.0815 157.743 40.9702 159.74 41.3723 161.798C42.131 165.686 42.1225 171.969 35.9186 176.211Z" fill="#B8544E"/>
<path d="M28.3222 170.527C28.2584 170.32 28.093 170.15 27.8674 170.09C27.6394 170.028 22.2495 168.613 18.5022 169.625C18.1553 169.718 17.9506 170.076 18.0437 170.423C18.1369 170.764 18.4948 170.976 18.8417 170.881C22.2544 169.958 27.4788 171.333 27.5315 171.347C27.8784 171.44 28.2352 171.235 28.3283 170.886C28.3614 170.765 28.3565 170.641 28.3222 170.527Z" fill="#933432"/>
<path d="M29.3311 164.647C29.2722 164.457 29.1264 164.295 28.9241 164.225C28.7243 164.155 23.9792 162.536 18.626 164.148C18.2816 164.252 18.0867 164.615 18.1909 164.96L18.1921 164.963C18.2975 165.305 18.6591 165.498 19.0011 165.395C23.9363 163.909 28.4509 165.439 28.4951 165.455C28.8346 165.572 29.2048 165.393 29.3237 165.054C29.3703 164.917 29.3703 164.776 29.3311 164.647Z" fill="#933432"/>
<path d="M28.4938 158.564C28.4362 158.376 28.2928 158.216 28.093 158.144C27.9202 158.081 23.7916 156.629 18.7498 158.124C18.4054 158.226 18.208 158.589 18.311 158.933C18.4091 159.288 18.7756 159.474 19.12 159.372C23.7352 158.003 27.6137 159.355 27.6517 159.368C27.99 159.49 28.3627 159.313 28.484 158.976C28.5343 158.839 28.5343 158.694 28.4938 158.564Z" fill="#933432"/>
<path d="M37.3994 166.713C37.3185 166.45 37.0745 166.258 36.7852 166.254C32.2902 166.199 29.4132 162.374 29.385 162.336C29.1717 162.047 28.7647 161.986 28.4754 162.198C28.1861 162.411 28.1236 162.817 28.3369 163.108C28.4681 163.286 31.6135 167.491 36.7705 167.555C37.1297 167.56 37.4251 167.272 37.43 166.912C37.4288 166.844 37.419 166.776 37.3994 166.713Z" fill="#933432"/>
<path d="M28.8641 159.453C28.3566 157.809 27.6039 156.173 26.5289 154.614C26.3254 154.318 25.9197 154.243 25.6242 154.448C25.3276 154.652 25.254 155.057 25.4575 155.353C31.252 163.754 26.8341 175.082 26.7888 175.196C26.6564 175.53 26.8182 175.908 27.1516 176.042C27.485 176.176 27.8638 176.014 27.9974 175.68C28.1592 175.276 31.2838 167.285 28.8641 159.453Z" fill="#933432"/>
<path d="M96.8624 110.337L89.9488 141.718L88.6985 140.676L87.4849 139.658L73.5229 127.989C73.5229 127.989 79.0268 108.596 81.6133 99.0349C84.1998 89.4735 89.0466 83.3003 89.0466 83.3003L96.8624 110.337Z" fill="#D36C17"/>
<path d="M87.9937 132.651L75.9169 123.079C75.6644 122.882 75.2991 122.926 75.1005 123.179C74.9032 123.431 74.9473 123.796 75.1998 123.995L87.9937 133.876V132.651Z" fill="#A74500"/>
<path d="M140.25 473.425L138.639 486.22H122.32L121.371 472.753L140.25 473.425Z" fill="#B8544E"/>
<path d="M96.6197 471.345L94.6363 486.215H78.3171L78.9471 470.901L96.6197 471.345Z" fill="#B8544E"/>
<path d="M38.044 511.992H99.7688C100.228 511.158 100.477 509.974 100.581 508.563C100.968 503.343 99.3029 495.009 98.4865 489.756C98.3873 489.141 98.3027 488.569 98.2365 488.051C98.1225 487.173 98.0538 486.441 98.0538 485.905C98.0538 481.617 94.2587 482.353 94.2587 482.353C88.0132 488.477 80.9402 479.292 76.8105 482.305C76.8105 482.305 75.0318 483.58 70.131 487.989C65.2339 492.398 56.8971 495.307 49.8021 498.276C40.6428 502.104 38.0453 505.929 37.5378 508.563C37.1369 510.651 38.044 511.992 38.044 511.992Z" fill="#371C0E"/>
<path d="M38.0441 511.995H99.7688C100.228 511.162 100.477 509.978 100.582 508.567H37.5366C37.137 510.654 38.0441 511.995 38.0441 511.995Z" fill="#714C38"/>
<path d="M93.4718 512H95.3056C93.4755 509.909 91.7642 506.702 91.9873 502.117C92.2852 496.018 95.9443 491.907 98.4866 489.764C98.3873 489.15 98.3028 488.578 98.2366 488.059C95.4956 490.154 90.878 494.739 90.5176 502.043C90.3043 506.423 91.741 509.69 93.4718 512Z" fill="#714C38"/>
<path d="M71.1758 491.628C71.6318 491.628 72.0474 491.318 72.1626 490.856C72.2987 490.312 71.9653 489.759 71.421 489.624L67.5646 488.667C67.0203 488.531 66.4675 488.864 66.3326 489.408C66.1966 489.954 66.5288 490.505 67.0743 490.64L70.9307 491.598C71.0128 491.617 71.0949 491.628 71.1758 491.628Z" fill="white"/>
<path d="M75.0084 488.419C75.4644 488.419 75.88 488.11 75.9952 487.646C76.13 487.101 75.7991 486.549 75.2536 486.415L71.3984 485.457C70.8541 485.32 70.3013 485.653 70.1665 486.199C70.0316 486.744 70.3638 487.296 70.9093 487.431L74.7645 488.388C74.8442 488.409 74.9275 488.419 75.0084 488.419Z" fill="white"/>
<path d="M67.3215 493.874C67.7775 493.874 68.1931 493.564 68.3083 493.102C68.4444 492.557 68.1122 492.005 67.5667 491.87L63.7103 490.913C63.1648 490.777 62.6132 491.109 62.4783 491.654C62.3435 492.199 62.6757 492.752 63.2212 492.886L67.0776 493.844C67.1572 493.865 67.2394 493.874 67.3215 493.874Z" fill="white"/>
<path d="M63.4646 496.026C63.9206 496.026 64.3362 495.716 64.4514 495.254C64.5862 494.71 64.254 494.157 63.7085 494.022L59.8521 493.065C59.3066 492.929 58.755 493.262 58.6202 493.806C58.4853 494.352 58.8175 494.903 59.363 495.038L63.2194 495.996C63.3016 496.016 63.3837 496.026 63.4646 496.026Z" fill="white"/>
<path d="M59.2599 498.028C59.7159 498.028 60.1314 497.718 60.2466 497.256C60.3827 496.712 60.0493 496.159 59.5038 496.024L55.6486 495.067C55.1031 494.931 54.5515 495.263 54.4167 495.808C54.2818 496.354 54.614 496.905 55.1595 497.04L59.0147 497.998C59.0968 498.018 59.179 498.028 59.2599 498.028Z" fill="white"/>
<path d="M54.7017 499.722C55.1577 499.722 55.5733 499.412 55.6885 498.95C55.8246 498.405 55.4912 497.853 54.9457 497.718L51.0893 496.76C50.5438 496.624 49.9922 496.957 49.8573 497.502C49.7213 498.046 50.0534 498.599 50.5989 498.734L54.4554 499.691C54.5375 499.711 54.6208 499.722 54.7017 499.722Z" fill="white"/>
<path d="M165.609 253.481C165.449 254.123 165.276 254.753 165.086 255.367C165.08 255.389 165.073 255.416 165.067 255.44C164.808 256.272 164.525 257.071 164.215 257.835C161.451 264.604 140.081 265.597 119.046 263.243C102.729 261.419 86.6133 257.577 79.5367 252.851C72.8916 248.414 87.0436 207.482 87.0436 207.482L166.853 224.233C166.853 224.233 168.647 241.254 165.609 253.481Z" fill="#371C0E"/>
<path d="M117.532 263.067L104.458 375.926C107.467 394.915 99.3631 472.675 99.3631 472.675L75.863 471.964L69.0377 368.965C69.1946 339.146 72.3339 297.923 76.9626 252.95C77.0349 252.261 77.1023 251.573 77.1783 250.881C77.4137 248.586 77.6552 246.279 77.9028 243.965C77.9678 243.348 78.034 242.732 78.0989 242.111L85.7823 245.649L87.6652 246.517L117.84 260.414L117.532 263.067Z" fill="#371C0E"/>
<path d="M76.3817 464.78H99.1328C99.6795 464.78 100.122 464.338 100.122 463.791C100.122 463.244 99.6795 462.802 99.1328 462.802H76.3817C75.835 462.802 75.3925 463.244 75.3925 463.791C75.3925 464.336 75.835 464.78 76.3817 464.78Z" fill="#714C38"/>
<path d="M97.1529 463.856H95.1817C102.762 399.191 97.5831 372.492 97.528 372.223C97.5059 372.118 97.5022 372.009 97.5169 371.901L111.617 264.266C111.687 263.729 112.18 263.35 112.716 263.422C113.251 263.492 113.629 263.984 113.559 264.521L99.4782 372.002C99.9097 374.371 104.428 401.633 97.1529 463.856Z" fill="#714C38"/>
<path d="M96.1466 228.92C96.0522 229.426 94.1228 239.43 87.6639 246.515C86.3585 247.948 84.8703 249.26 83.1726 250.351C81.8475 251.203 80.4598 251.878 79.0085 252.371C78.3392 252.606 77.6576 252.799 76.9613 252.948C77.0337 252.26 77.1011 251.572 77.1771 250.879C77.5068 250.795 77.8329 250.699 78.1565 250.592C79.5405 250.139 80.8619 249.513 82.1147 248.706C83.4729 247.831 84.6938 246.79 85.7799 245.648C92.2264 238.912 94.1975 228.682 94.2196 228.561C94.3177 228.033 94.8264 227.68 95.3621 227.778C95.8953 227.879 96.2447 228.388 96.1466 228.92Z" fill="#714C38"/>
<path d="M112.281 258.998C112.26 259.429 112.606 259.798 113.052 259.824C113.055 259.824 113.055 259.824 113.058 259.824C113.508 259.846 113.889 259.512 113.911 259.078C114.055 256.126 114.229 253.104 114.419 250.086C114.452 249.554 114.485 249.024 114.522 248.493C115.163 238.629 115.978 228.945 116.593 222.107C116.643 221.554 116.691 221.017 116.739 220.502C116.876 219.002 117 217.672 117.106 216.544C116.565 216.461 116.023 216.373 115.489 216.283C115.382 217.41 115.258 218.753 115.12 220.27C115.071 220.784 115.024 221.321 114.974 221.874C114.366 228.652 113.556 238.251 112.915 248.055C112.878 248.596 112.843 249.14 112.805 249.679C112.611 252.808 112.43 255.943 112.281 258.998Z" fill="#714C38"/>
<path d="M109.955 248.588C110.21 248.71 111.354 249.242 112.807 249.681C113.314 249.835 113.86 249.977 114.419 250.088C114.93 250.186 115.448 250.259 115.963 250.287C116.951 250.344 117.905 250.24 118.7 249.858C119.692 249.384 120.336 248.522 120.557 247.366C121.151 244.324 122.396 231.758 123.235 222.871C123.289 222.325 123.338 221.791 123.387 221.274C123.519 219.852 123.638 218.558 123.74 217.46C123.2 217.395 122.659 217.329 122.117 217.258C122.015 218.362 121.896 219.671 121.759 221.112C121.71 221.627 121.661 222.16 121.61 222.709C120.77 231.574 119.529 244.122 118.953 247.071C118.823 247.751 118.51 248.188 117.97 248.447C117.107 248.859 115.81 248.774 114.522 248.493C113.972 248.373 113.426 248.219 112.915 248.055C111.98 247.754 111.167 247.41 110.675 247.178C110.27 246.984 109.781 247.143 109.583 247.532C109.384 247.922 109.551 248.395 109.955 248.588Z" fill="#714C38"/>
<path d="M166.73 237.402C166.73 237.402 166.164 243.752 165.263 253.482C165.207 254.089 165.148 254.708 165.09 255.347C165.088 255.353 165.088 255.362 165.088 255.369C165.088 255.391 165.084 255.415 165.078 255.441C165.019 256.076 164.959 256.723 164.9 257.38C162.624 281.893 158.713 322.603 156.148 342.181C156.148 342.181 156.529 379.021 155.166 407.451C153.902 433.866 144.794 465.554 143.508 473.386H119.283L119.045 469.907V250.277C119.045 250.277 129.936 245.078 141.634 241.096C142.265 240.881 142.9 240.671 143.539 240.461C144.747 240.07 145.958 239.692 147.161 239.339C147.802 239.151 148.441 238.97 149.076 238.794C156.283 236.82 162.977 235.841 166.73 237.402Z" fill="#371C0E"/>
<path d="M120.169 464.78H144.881C145.428 464.78 145.871 464.338 145.871 463.791C145.871 463.244 145.428 462.802 144.881 462.802H120.169C119.622 462.802 119.18 463.244 119.18 463.791C119.18 464.336 119.622 464.78 120.169 464.78Z" fill="#714C38"/>
<path d="M141.387 463.342C143.526 451.975 147.437 430.749 149.467 416.978C152.327 397.57 150.917 342.977 150.903 342.429C150.901 342.382 150.904 342.334 150.909 342.288C153.058 324.027 157.45 260.982 157.494 260.347C157.532 259.808 157.999 259.401 158.539 259.437C159.079 259.475 159.486 259.942 159.448 260.482C159.404 261.115 155.019 324.049 152.863 342.446C152.921 344.715 154.243 398.008 151.405 417.262C149.392 430.92 145.537 451.874 143.381 463.342H141.387Z" fill="#714C38"/>
<path d="M115.506 508.035C115.506 508.182 115.509 508.325 115.513 508.465C115.526 509.118 115.556 509.705 115.583 510.208C115.649 511.316 115.73 511.998 115.73 511.998H152.497C152.497 511.998 152.679 510.576 152.539 508.465C152.297 504.708 151.049 498.775 145.972 494.853C139.02 489.479 141.705 490.601 140.279 488.151C140.119 487.878 138.867 483.716 138.735 483.429C137.54 480.885 136.439 479.683 129.851 479.683C121.115 479.683 120.346 483.921 119.414 486.155C119.029 487.08 118.502 489.027 117.96 491.345C117.74 492.274 117.52 493.267 117.303 494.277C116.765 496.811 116.261 499.456 115.919 501.567C115.555 503.827 115.477 506.154 115.506 508.035Z" fill="#371C0E"/>
<path d="M115.506 508.037C115.506 508.184 115.509 508.328 115.513 508.468C115.527 509.121 115.556 509.708 115.583 510.211C117.376 508.953 118.655 507.293 119.403 505.258C121.678 499.062 118.179 491.626 118.033 491.311L117.96 491.347C117.74 492.276 117.52 493.269 117.303 494.279C118.131 496.809 119.085 501.062 117.76 504.661C117.277 505.972 116.523 507.101 115.506 508.037Z" fill="#714C38"/>
<path d="M115.512 508.466C115.561 510.56 115.729 511.999 115.729 511.999H152.496C152.496 511.999 152.677 510.577 152.538 508.466H115.512Z" fill="#714C38"/>
<path d="M128.638 491.147C128.725 491.147 128.813 491.136 128.902 491.112C133.578 489.901 137.388 490.926 137.425 490.937C137.984 491.091 138.56 490.764 138.714 490.206C138.869 489.649 138.541 489.07 137.982 488.916C137.806 488.868 133.588 487.733 128.375 489.082C127.813 489.227 127.477 489.799 127.622 490.36C127.747 490.833 128.172 491.147 128.638 491.147Z" fill="white"/>
<path d="M128.064 487.185C128.151 487.185 128.24 487.174 128.328 487.151C133.004 485.94 136.814 486.965 136.852 486.976C137.411 487.131 137.987 486.803 138.142 486.246C138.296 485.688 137.969 485.11 137.411 484.956C137.235 484.907 133.017 483.773 127.803 485.123C127.242 485.267 126.906 485.84 127.051 486.4C127.173 486.871 127.599 487.185 128.064 487.185Z" fill="white"/>
<path d="M130.21 494.462C130.297 494.462 130.385 494.451 130.474 494.428C135.121 493.224 138.961 494.243 138.999 494.253C139.557 494.406 140.133 494.076 140.286 493.52C140.44 492.962 140.113 492.386 139.556 492.231C139.379 492.182 135.161 491.048 129.948 492.398C129.388 492.544 129.05 493.115 129.196 493.675C129.318 494.15 129.743 494.462 130.21 494.462Z" fill="white"/>
<path d="M132.057 498.248C132.144 498.248 132.233 498.237 132.321 498.215C136.967 497.012 140.808 498.03 140.846 498.039C141.404 498.193 141.982 497.864 142.135 497.306C142.288 496.749 141.962 496.172 141.404 496.018C141.228 495.969 137.01 494.835 131.795 496.185C131.235 496.329 130.898 496.902 131.044 497.463C131.166 497.934 131.592 498.248 132.057 498.248Z" fill="white"/>
<path d="M165.091 255.347C165.089 255.353 165.089 255.363 165.089 255.369C165.089 255.391 165.085 255.415 165.079 255.441C165.02 256.076 164.96 256.723 164.901 257.38C162.124 257.85 159.409 257.608 156.772 256.651C151.758 254.834 147.823 250.734 144.967 246.648C143.613 244.713 142.502 242.78 141.637 241.096C140.167 238.244 139.391 236.105 139.303 235.866C139.121 235.354 139.39 234.797 139.897 234.616C140.413 234.432 140.967 234.7 141.149 235.21C141.171 235.266 141.977 237.496 143.542 240.461C144.368 242.032 145.402 243.808 146.648 245.579C149.319 249.392 152.935 253.183 157.446 254.812C159.903 255.703 162.461 255.881 165.091 255.347Z" fill="#714C38"/>
<path d="M77.5117 215.944C79.2401 217.559 81.2541 219.087 83.4189 220.535C83.4851 220.583 83.5513 220.626 83.6236 220.669C85.1387 221.675 86.7531 222.635 88.4472 223.542C89.0552 223.864 89.6681 224.183 90.2945 224.492C95.2419 226.947 100.84 228.993 106.853 230.503C107.4 230.646 107.95 230.779 108.505 230.902C110.105 231.277 111.729 231.614 113.377 231.905C113.927 232.009 114.482 232.099 115.039 232.189C121.412 233.215 128.093 233.646 134.821 233.357C135.614 233.324 136.407 233.281 137.2 233.225C139.314 233.087 141.426 232.869 143.539 232.574C143.592 232.569 143.638 232.559 143.691 232.555C144.327 232.465 144.963 232.37 145.6 232.266C149.018 231.711 152.419 230.951 155.765 229.973C158.685 229.123 161.563 228.102 164.379 226.896C164.858 226.696 165.334 226.483 165.808 226.274C166.402 226.003 166.991 225.728 167.575 225.443C167.626 225.42 167.684 225.395 167.742 225.367C171.217 215.87 175.035 181.971 176.061 171.838C176.266 169.821 176.431 167.802 176.565 165.784C176.93 160.285 177.044 154.768 176.988 149.155C176.95 145.389 176.836 141.59 176.67 137.72C176.651 137.155 176.623 136.59 176.599 136.025C176.599 135.982 176.594 135.939 176.594 135.897C176.571 135.385 176.547 134.871 176.518 134.354C176.386 131.652 176.234 128.918 176.067 126.149C175.711 120.27 175.297 114.215 174.904 107.91C174.263 97.7624 172.107 89.7713 168.508 84.3617C167.601 82.9986 166.604 81.8022 165.517 80.7713C163.104 78.4925 160.251 77.0534 156.964 76.5312C154.946 76.2137 153.104 75.7908 151.432 75.3103C151.118 75.2245 150.819 75.135 150.52 75.0394C149.575 74.7501 148.687 74.4363 147.856 74.1188C146.898 73.7486 146.014 73.3637 145.207 72.9837C145.084 72.9273 144.956 72.8648 144.832 72.8084C144.619 72.6993 144.404 72.5988 144.201 72.4897C140.764 70.738 138.816 69.1616 138.816 69.1616H115.065C114.879 69.4325 114.689 69.6936 114.499 69.9449C114.48 69.9645 114.471 69.9829 114.457 69.9976C112.827 72.1011 110.909 73.6015 108.853 74.7317C108.464 74.9499 108.065 75.1497 107.672 75.3397C107.363 75.4917 107.054 75.629 106.741 75.7663C106.419 75.9036 106.09 76.0372 105.763 76.1659C104.985 76.4699 104.201 76.7396 103.412 76.997C103.402 76.997 103.394 77.0019 103.384 77.0019C97.6286 78.8394 91.779 79.6276 88.5686 83.8775C88.0795 84.5284 87.6517 85.2541 87.2962 86.0767C86.9395 86.9029 86.6551 87.8198 86.4516 88.8494C86.3327 89.4244 86.2665 90.0556 86.242 90.7446C86.0091 97.7109 90.0175 110.768 89.5517 134.995C89.5235 136.505 89.4757 138.054 89.4095 139.644C89.3899 140.118 89.3715 140.598 89.3482 141.078C89.3004 142.061 89.2489 143.057 89.1815 144.074C89.1815 144.074 89.1815 144.074 89.1815 144.079C89.1202 145.095 89.0528 146.129 88.9731 147.18C88.8309 149.136 88.6544 151.159 88.446 153.229C88.2707 155.048 88.066 156.914 87.8282 158.828C87.5904 160.784 87.3293 162.792 87.0302 164.854C85.862 173.049 83.2314 189.319 80.4684 202.984C80.0357 205.135 79.5944 207.219 79.158 209.2C79.1102 209.41 79.0673 209.613 79.0207 209.818C78.5291 212.017 77.991 214.084 77.5117 215.944Z" fill="#D36C17"/>
<path d="M162.876 224.8C163.184 224.796 163.462 224.586 163.539 224.273C169.778 198.823 171.935 174.624 172.646 158.805C173.417 141.662 172.701 130.378 172.694 130.266C172.669 129.885 172.342 129.602 171.958 129.622C171.577 129.646 171.288 129.976 171.314 130.357C171.321 130.469 172.031 141.692 171.263 158.765C170.555 174.517 168.406 198.61 162.196 223.943C162.105 224.315 162.332 224.688 162.703 224.78C162.761 224.794 162.819 224.8 162.876 224.8Z" fill="#A74500"/>
<path d="M111.643 103.891C115.463 105.148 119.9 105.459 124.836 104.816C133.323 103.71 140.468 100.1 140.539 100.064C140.803 99.9309 140.926 99.5974 140.813 99.3216C140.7 99.0458 140.394 98.9318 140.131 99.0667C140.061 99.1022 133.053 102.639 124.735 103.717C113.679 105.152 105.676 101.799 100.946 93.7515C100.796 93.4978 100.477 93.4316 100.232 93.6032C99.987 93.776 99.9098 94.1205 100.058 94.3742C102.784 99.0127 106.626 102.195 111.474 103.834C111.531 103.853 111.587 103.872 111.643 103.891Z" fill="#A74500"/>
<path d="M115.002 94.5984C120.318 96.3477 128.008 93.809 128.432 93.6668C128.709 93.5737 128.875 93.2611 128.801 92.9693C128.727 92.6776 128.443 92.5158 128.166 92.6089C128.037 92.6531 115.188 96.8932 111.859 90.8082C111.717 90.5496 111.401 90.4724 111.151 90.6366C110.902 90.8009 110.813 91.1441 110.956 91.4028C111.854 93.0478 113.308 94.0407 115.002 94.5984Z" fill="#A74500"/>
<path d="M105.815 217.048C107.84 217.601 109.958 217.983 112.163 218.192C117.597 218.708 123.568 218.177 129.908 216.616C140.684 213.965 148.926 209.179 149.009 209.13C149.264 208.981 149.367 208.643 149.238 208.374C149.109 208.106 148.798 208.009 148.542 208.16C148.461 208.206 140.329 212.926 129.691 215.539C119.924 217.939 105.976 219.002 95.0028 210.444C94.7761 210.268 94.4512 210.328 94.2759 210.579C94.1019 210.831 94.1448 211.178 94.3715 211.354C97.7462 213.987 101.578 215.891 105.815 217.048Z" fill="#A74500"/>
<path d="M110.257 209.147C112.342 208.896 114.447 208.452 116.569 207.815C121.797 206.244 127.126 203.503 132.411 199.668C141.393 193.151 147.223 185.611 147.281 185.536C147.462 185.3 147.428 184.949 147.209 184.749C146.988 184.549 146.664 184.577 146.483 184.813C146.427 184.886 140.673 192.323 131.805 198.753C123.662 204.657 111.146 210.899 97.7547 207.109C97.4777 207.03 97.1994 207.209 97.132 207.507C97.0658 207.805 97.235 208.112 97.512 208.19C101.63 209.353 105.897 209.673 110.257 209.147Z" fill="#A74500"/>
<path d="M109.345 37.5444C109.345 37.5444 100.792 40.2989 100.188 32.4291C100.188 32.4291 94.9698 30.8613 95.6133 25.1331C96.0779 21.0008 100.388 21.4814 100.388 21.4814C100.388 21.4814 96.0203 14.1951 102.056 11.7484C102.056 11.7484 98.9427 5.90248 102.949 3.35523C106.955 0.806761 111.815 5.31163 111.815 5.31163C111.815 5.31163 111.494 0.104368 116.282 0.00139986C121.07 -0.101569 122.774 5.51021 122.774 5.51021C122.774 5.51021 125.784 0.376501 129.913 2.02522C134.041 3.67394 134.37 9.48308 134.37 9.48308C134.37 9.48308 140.13 7.45436 144.532 11.7043C148.933 15.9542 144.706 19.8106 144.706 19.8106C144.706 19.8106 150.19 20.5522 151.276 23.9367C152.362 27.3211 146.175 29.1721 146.175 29.1721C146.175 29.1721 149.254 34.3696 145.07 36.7624C140.886 39.1552 136.004 37.3692 136.004 37.3692L109.345 37.5444Z" fill="#371C0E"/>
<path d="M111.67 42.6834C111.67 42.6834 109.562 36.7443 104.72 38.2815C99.8779 39.8186 100.255 56.0889 109.541 55.2602L111.67 42.6834Z" fill="#933432"/>
<path d="M137.477 70.6744C137.477 70.6744 138.802 72.6247 129.953 75.8682C125.284 77.5795 119.395 76.7986 116.38 75.3362C115.153 74.7441 114.442 74.271 114.442 74.271C115.355 67.2814 113.799 62.9199 113.37 61.8841C113.304 61.726 113.265 61.6463 113.265 61.6463L135.895 47.9907L137.477 70.6744Z" fill="#B8544E"/>
<path d="M133.305 57.5195C133.305 57.5195 128.905 73.5655 116.38 75.3368C115.153 74.7447 114.442 74.2715 114.442 74.2715C115.355 67.2819 113.8 62.9205 113.371 61.8847L133.305 57.5195Z" fill="#371C0E"/>
<path d="M124.818 66.401C115.24 68.99 107.197 65.3689 105.671 57.1057C105.301 55.1137 104.985 52.2135 104.73 49.1869C104.727 49.155 104.724 49.1256 104.721 49.095C104.668 48.4527 104.617 47.8005 104.565 47.1521C104.529 46.6826 104.494 46.2119 104.464 45.746C104.081 40.3402 103.886 35.432 103.886 35.432C104.324 21.9101 117.255 15.9612 128.263 20.2957C139.267 24.6326 136.342 41.2596 136.879 49.2384C137.42 57.2172 133.033 64.1823 124.818 66.401Z" fill="#B8544E"/>
<path d="M122.233 40.5669C122.265 41.4728 121.822 42.223 121.244 42.2438C120.665 42.2647 120.17 41.5476 120.138 40.6417C120.106 39.7358 120.549 38.9856 121.127 38.9648C121.706 38.944 122.201 39.6623 122.233 40.5669Z" fill="#371C0E"/>
<path d="M112.191 41.4253C112.223 42.3299 111.781 43.0814 111.202 43.1022C110.623 43.123 110.128 42.4059 110.096 41.5001C110.064 40.5942 110.507 39.844 111.086 39.8231C111.664 39.8035 112.159 40.5206 112.191 41.4253Z" fill="#371C0E"/>
<path d="M123.135 37.2367C125.933 37.5959 126.472 34.5902 123.866 33.259C122.676 32.6522 121.386 32.1545 120.109 32.2501C116.482 32.521 116.58 35.0854 118.48 35.9741C119.388 36.3995 121.528 37.0308 123.135 37.2367Z" fill="#371C0E"/>
<path d="M107.392 37.0489C104.612 37.5233 103.949 34.5421 106.499 33.1055C107.662 32.4497 108.931 31.9005 110.21 31.9422C113.846 32.0635 113.853 34.6304 111.991 35.5963C111.101 36.0585 108.989 36.7756 107.392 37.0489Z" fill="#371C0E"/>
<path d="M105.842 49.2378C105.459 49.2402 105.085 49.2231 104.73 49.1875C104.727 49.1557 104.724 49.1262 104.721 49.0956C104.668 48.4533 104.617 47.8011 104.566 47.1527C104.529 46.6832 104.494 46.2125 104.464 45.7467C104.892 45.6915 105.349 45.6584 105.821 45.656C108.277 45.6413 110.272 46.4307 110.278 47.4199C110.285 48.4091 108.298 49.2243 105.842 49.2378Z" fill="#933432"/>
<path d="M114.099 49.4031C114.024 49.4031 113.948 49.3847 113.879 49.3443C111.564 48.0131 111.081 47.2518 111.007 47.1133C110.939 46.9834 110.94 46.8277 111.011 46.6978L113.795 41.6609C113.803 41.6462 113.812 41.6315 113.822 41.618C114.437 40.7611 114.428 39.0928 114.359 37.1609C114.35 36.9194 114.539 36.7172 114.779 36.7086C115.023 36.7037 115.223 36.8888 115.231 37.129C115.307 39.2105 115.307 41.0222 114.546 42.1059L111.913 46.8682C112.162 47.1354 112.812 47.725 114.312 48.588C114.522 48.7081 114.594 48.9753 114.474 49.1849C114.395 49.3247 114.249 49.4031 114.099 49.4031Z" fill="#371C0E"/>
<path d="M131.189 45.3369C131.195 46.3261 129.208 47.1401 126.751 47.1535C124.295 47.1683 122.299 46.3776 122.293 45.3871C122.287 44.3979 124.274 43.584 126.731 43.5705C129.187 43.557 131.184 44.3464 131.189 45.3369Z" fill="#933432"/>
<path d="M136.838 35.3085C136.782 35.6187 136.728 35.7964 136.728 35.7964C136.728 35.7964 134.583 36.7771 133.864 41.1765L130.944 41.2893C130.944 41.2893 129.55 37.781 130.218 31.8113C130.27 31.3332 130.25 30.8662 130.172 30.4102C129.191 25.084 119.501 20.9665 113.114 22.7194C106.187 24.6243 104.478 31.2033 104.478 31.2033C104.478 31.2033 103.89 33.6169 103.96 36.3517C103.44 33.585 102.766 28.4354 106.834 22.9106C112.916 14.6327 126.641 13.9536 132.747 21.3575C137.895 27.5982 137.194 33.585 136.838 35.3085Z" fill="#371C0E"/>
<path d="M136.837 35.3085C136.782 35.6186 136.728 35.7964 136.728 35.7964C136.728 35.7964 134.583 36.777 133.864 41.1765L130.944 41.2893C130.944 41.2893 129.55 37.781 130.218 31.8113C130.27 31.3332 130.25 30.8662 130.171 30.4102L136.837 35.3085Z" fill="#933432"/>
<path d="M125.891 25.0888C125.891 25.0888 120.834 23.57 118.545 24.6966C116.255 25.8231 112.922 27.3235 110.187 25.6723C107.452 24.0211 104.938 29.78 104.938 29.78C104.938 29.78 107.419 19.6903 115.693 21.0718C123.966 22.4509 123.872 21.686 125.891 25.0888Z" fill="#371C0E"/>
<path d="M134.14 38.4223C134.14 38.4223 136.592 33.736 141.324 35.582C146.056 37.4293 144.629 53.6408 135.417 52.2139L134.14 38.4223Z" fill="#B8544E"/>
<path d="M137.745 48.8699C137.72 49.6116 138.301 50.233 139.044 50.2576C139.786 50.2821 140.407 49.6998 140.432 48.9582C140.456 48.2166 139.875 47.5951 139.132 47.5706C138.391 47.5461 137.769 48.1283 137.745 48.8699Z" fill="white"/>
<path d="M136.807 46.408C136.776 46.408 136.744 46.4056 136.712 46.3982C136.476 46.3479 136.326 46.1163 136.377 45.8797C136.419 45.6787 137.475 40.9458 141.65 39.9566C141.884 39.9014 142.12 40.046 142.176 40.2814C142.231 40.5155 142.086 40.7509 141.851 40.8073C138.208 41.6715 137.241 46.0194 137.231 46.0636C137.188 46.2658 137.008 46.4068 136.807 46.408Z" fill="#371C0E"/>
<path d="M140.611 44.6711C140.5 44.6723 140.391 44.6306 140.305 44.5497C140.297 44.5412 139.403 43.6868 138.353 42.8459C138.164 42.6951 138.134 42.4205 138.285 42.2317C138.436 42.0429 138.711 42.0135 138.899 42.1631C139.982 43.0297 140.873 43.8841 140.911 43.9197C141.085 44.0864 141.091 44.3634 140.923 44.5375C140.839 44.6245 140.725 44.6699 140.611 44.6711Z" fill="#371C0E"/>
<path d="M206.414 166.961L206.355 168.552L206.35 168.65L206.342 168.77L206.328 169.013L206.291 169.499C206.266 169.822 206.242 170.153 206.208 170.45C205.94 172.911 205.489 175.038 204.982 177.024C204.467 179 203.879 180.831 203.251 182.588C202.623 184.343 201.959 186.025 201.27 187.659C200.576 189.289 199.853 190.876 199.115 192.431C197.644 195.542 196.07 198.522 194.463 201.442C191.229 207.268 187.779 212.824 184.17 218.238C182.368 220.942 180.517 223.609 178.623 226.239C177.669 227.553 176.711 228.86 175.74 230.163C175.255 230.815 174.757 231.46 174.259 232.11L173.507 233.085L172.717 234.09C169.783 237.829 164.51 239.078 160.141 236.804C155.203 234.235 153.283 228.149 155.852 223.21L155.968 222.987L158.054 218.976C158.765 217.618 159.471 216.255 160.167 214.886C161.57 212.159 162.955 209.422 164.315 206.689C167.032 201.218 169.649 195.736 172.022 190.29C172.613 188.929 173.194 187.573 173.748 186.222C174.023 185.546 174.297 184.869 174.559 184.197L174.957 183.19C175.089 182.856 175.217 182.52 175.342 182.187C175.849 180.853 176.325 179.527 176.764 178.223C177.205 176.921 177.604 175.639 177.948 174.401C178.288 173.163 178.573 171.969 178.784 170.88C178.987 169.804 179.095 168.823 179.107 168.151C179.115 168.056 179.107 167.992 179.105 167.923L179.1 167.693L179.078 166.923C179.048 166.396 179.026 165.866 178.968 165.307C178.862 164.202 178.715 163.05 178.489 161.853C178.266 160.657 178.021 159.436 177.707 158.186C177.394 156.935 177.058 155.673 176.661 154.39C176.266 153.113 175.854 151.821 175.393 150.522C175.172 149.872 174.927 149.22 174.692 148.568C174.483 148.024 174.282 147.477 174.067 146.93C174.025 146.822 173.983 146.717 173.939 146.609C173.432 145.302 172.89 143.988 172.333 142.674C172.025 141.948 171.708 141.223 171.385 140.499C171.125 139.911 170.858 139.323 170.59 138.734C169.394 136.101 168.109 133.479 166.778 130.856C164.108 125.616 161.214 120.406 158.189 115.249C156.683 112.667 155.109 110.116 153.544 107.572C152.76 106.299 151.958 105.044 151.164 103.791L149.975 101.933L148.849 100.204L148.616 99.849C144.473 93.4539 146.027 84.8646 152.269 80.3487C158.716 75.6857 167.724 77.1321 172.387 83.5775L173.199 84.6979L173.934 85.7423L175.364 87.8065C176.303 89.1819 177.212 90.5671 178.114 91.9523C179.926 94.7177 181.647 97.5334 183.342 100.37C184.191 101.789 185.027 103.216 185.841 104.658C186.655 106.099 187.469 107.543 188.256 109.008C189.043 110.472 189.822 111.94 190.587 113.421C191.347 114.907 192.097 116.4 192.83 117.911C193.2 118.662 193.558 119.424 193.921 120.182C194.274 120.946 194.632 121.706 194.98 122.476C195.314 123.207 195.645 123.945 195.968 124.683C196.326 125.494 196.679 126.311 197.03 127.129C197.074 127.232 197.116 127.335 197.16 127.438C198.432 130.474 199.643 133.571 200.754 136.756C201.046 137.572 201.315 138.411 201.595 139.239C201.862 140.08 202.137 140.911 202.389 141.762C202.909 143.454 203.394 145.18 203.836 146.934C204.718 150.448 205.466 154.084 205.932 157.928C206.17 159.843 206.322 161.829 206.39 163.865C206.433 164.872 206.428 165.917 206.414 166.961Z" fill="#B8544E"/>
<path d="M197.162 127.434L174.067 146.924C174.025 146.816 173.983 146.711 173.939 146.603C173.432 145.296 172.89 143.982 172.333 142.668C172.025 141.943 171.708 141.217 171.385 140.494L195.971 124.678C196.329 125.49 196.682 126.306 197.032 127.125C197.077 127.228 197.118 127.331 197.162 127.434Z" fill="#933432"/>
<path d="M187.987 168.497C188.126 168.417 188.231 168.279 188.265 168.11C188.329 167.795 188.126 167.489 187.812 167.425C184.967 166.847 179.893 168.182 179.679 168.239C179.367 168.322 179.183 168.64 179.267 168.95C179.349 169.26 179.668 169.445 179.978 169.362C180.028 169.348 185.002 168.04 187.58 168.562C187.725 168.594 187.868 168.567 187.987 168.497Z" fill="#933432"/>
<path d="M182.032 168.781C182.113 168.735 182.183 168.669 182.234 168.584C182.77 167.714 184.589 166.465 185.245 166.056C185.517 165.887 185.6 165.528 185.431 165.256C185.262 164.984 184.9 164.896 184.631 165.07C184.366 165.235 182.019 166.717 181.245 167.975C181.077 168.248 181.162 168.606 181.435 168.774C181.624 168.891 181.853 168.886 182.032 168.781Z" fill="#933432"/>
<path d="M172.335 142.668L198.822 123.333C198.822 123.333 181.658 90.7218 174.302 83.6108C166.946 76.4998 159.345 74.5385 153.46 78.216C147.574 81.8934 143.897 89.0044 146.349 96.8508C148.803 104.699 172.335 142.668 172.335 142.668Z" fill="#D36C17"/>
<path d="M169.276 137.555C169.081 137.555 168.89 137.463 168.771 137.29C168.579 137.012 168.649 136.63 168.927 136.437L195.163 118.293C195.441 118.1 195.824 118.17 196.016 118.448C196.209 118.727 196.139 119.109 195.86 119.302L169.624 137.446C169.519 137.52 169.396 137.555 169.276 137.555Z" fill="#A74500"/>
<path d="M172.364 144.799C172.447 144.799 172.531 144.781 172.612 144.747C172.926 144.61 173.069 144.244 172.933 143.931C167.507 131.497 153.537 107.935 153.397 107.698C153.222 107.404 152.842 107.307 152.546 107.481C152.252 107.656 152.154 108.036 152.329 108.332C152.469 108.567 166.402 132.064 171.795 144.426C171.897 144.66 172.125 144.799 172.364 144.799Z" fill="#A74500"/>
<path d="M158.123 117.702C158.379 117.702 158.618 117.543 158.707 117.288C158.821 116.964 158.651 116.61 158.327 116.496C156.697 115.922 152.67 116.063 152.218 116.082C151.876 116.095 151.609 116.383 151.622 116.726C151.636 117.068 151.929 117.332 152.267 117.322C153.434 117.276 156.725 117.249 157.917 117.668C157.984 117.691 158.054 117.702 158.123 117.702Z" fill="#A74500"/>
<path d="M161.435 252.383C157.723 247.916 153.864 243.436 150.61 238.586C150.633 238.556 150.645 238.539 150.645 238.539C150.645 238.539 150.626 238.546 150.591 238.558C149.367 236.733 148.23 234.854 147.218 232.905C147.707 232.275 148.142 231.734 148.488 231.321C150.069 229.43 153.515 226.982 156.041 225.87C157.957 225.026 159.92 223.097 161.497 223.274C166.488 223.835 172.097 229.113 171.63 231.707C170.942 235.524 167.601 242.819 166.589 245.609C166.181 246.737 164.529 250.201 162.62 253.816C162.227 253.339 161.831 252.861 161.435 252.383Z" fill="#B8544E"/>
<path d="M88.6985 140.676L87.485 139.659C88.1959 119.739 87.8772 103.852 87.865 103.681C87.865 103.338 88.1346 103.056 88.4779 103.056H88.4901C88.8334 103.056 89.103 103.325 89.1153 103.656C89.1153 103.828 89.4463 120.266 88.6985 140.676Z" fill="#A74500"/>
<path d="M115.428 153.697L125.165 170.811L136.058 154.41L126.378 135.727L115.428 153.697Z" fill="#A74500"/>
<path d="M135.698 154.093L145.436 171.207L156.328 154.806L146.649 136.123L135.698 154.093Z" fill="#A74500"/>
<path d="M95.4414 153.126L105.178 170.24L116.071 153.84L106.392 135.156L95.4414 153.126Z" fill="#A74500"/>
<path d="M87.6268 153.907C87.9161 148.473 88.6381 143.067 88.7754 137.625L96.1474 151.965L96.639 152.912L95.9268 153.983L86.4929 168.187C87.7641 163.573 87.3743 158.657 87.6268 153.907Z" fill="#A74500"/>
<path d="M154.958 154.659L155.635 155.85L164.695 171.775L171.736 161.173C171.675 157.149 171.833 153.521 172.038 149.804C172.06 149.42 172.082 149.037 172.106 148.653L165.907 136.691L155.655 153.513L154.958 154.659Z" fill="#A74500"/>
</svg>
