<svg width="278" height="526" viewBox="0 0 278 526" fill="none" xmlns="http://www.w3.org/2000/svg">
<path d="M178.703 373.137C180.915 371.175 182.984 369.019 184.867 366.619C192.337 357.106 194.785 344.708 197.009 332.817C199.883 317.455 202.769 301.878 201.556 286.296C200.521 273.02 196.53 260.143 191.738 247.719C187.902 237.776 181.648 226.596 171.034 225.65C162.673 224.905 155.036 231.418 151.715 239.126C148.394 246.834 148.432 255.513 148.523 263.907C148.523 284.566 148.935 305.022 148.136 325.671C148.086 326.968 148.03 328.297 147.534 329.497C147.004 330.781 146.017 331.812 145.053 332.811C138.937 339.136 132.821 345.462 126.707 351.788C116.24 362.614 105.618 368.25 92.6835 375.338C81.2121 381.623 73.6412 390.039 63.9577 398.406C56.5033 404.845 47.6049 410.334 48.1834 421.581C48.2763 423.394 48.6786 425.294 49.9062 426.633C52.6443 429.619 57.5325 428.278 61.2722 426.717C87.8591 415.631 114.18 403.626 140.746 392.837C153.835 387.519 167.972 382.644 178.703 373.137Z" fill="#94625A"/>
<mask id="mask0_1648_9419" style="mask-type:luminance" maskUnits="userSpaceOnUse" x="48" y="225" width="154" height="204">
<path d="M178.703 373.137C180.915 371.176 182.983 369.019 184.867 366.619C192.337 357.106 194.785 344.708 197.009 332.818C199.883 317.456 202.769 301.878 201.556 286.297C200.521 273.021 196.53 260.144 191.738 247.72C187.902 237.777 181.648 226.596 171.033 225.65C162.673 224.906 155.036 231.418 151.715 239.126C148.394 246.835 148.432 255.514 148.523 263.907C148.523 284.567 148.935 305.023 148.136 325.672C148.086 326.968 148.029 328.297 147.534 329.497C147.004 330.782 146.017 331.812 145.053 332.811C138.937 339.136 132.821 345.463 126.707 351.788C116.24 362.615 105.618 368.251 92.6834 375.339C81.2119 381.624 73.6411 390.039 63.9576 398.407C56.5032 404.846 47.6048 410.334 48.1832 421.581C48.2762 423.394 48.6784 425.294 49.906 426.633C52.6442 429.619 57.5324 428.278 61.2721 426.718C87.859 415.632 114.18 403.626 140.746 392.837C153.835 387.519 167.972 382.645 178.703 373.137Z" fill="white"/>
</mask>
<g mask="url(#mask0_1648_9419)">
<path d="M165.89 401.194C155.326 399.478 147.491 377.423 143.534 368.659C137.116 354.447 132.655 339.256 132.431 323.568C132.387 320.455 132.767 316.847 135.361 315.127C137.553 313.675 140.614 314.228 142.743 315.772C144.872 317.315 146.264 319.652 147.536 321.953C158.839 342.415 171.52 377.039 165.89 401.194Z" fill="#1A2732"/>
</g>
<path d="M143.394 353.401C131.336 316.662 121.415 282.599 123.025 242.639C123.528 230.166 126.869 215.144 138.737 211.273C147.666 208.36 157.605 213.814 162.869 221.592C168.133 229.369 169.795 238.957 171.333 248.222C175.196 271.493 178.442 294.97 182.938 318.127C186.519 336.574 195.057 352.697 195.057 372.392C196.534 394.756 198.569 416.121 198.259 438.571C198.085 451.136 200.375 474.526 198.773 486.991C197.906 493.739 193.164 490.841 186.682 492.911C185.951 493.144 185.124 493.281 184.437 492.937C183.679 492.557 183.304 491.704 182.991 490.916C180.764 485.316 178.743 479.638 176.724 473.959C170.142 455.463 163.484 436.968 158.143 418.066C152.928 399.605 152.032 379.485 146.145 361.726C145.217 358.935 144.3 356.16 143.394 353.401Z" fill="#94625A"/>
<path d="M31.5573 423.222C31.5615 423.152 31.5713 423.089 31.5879 423.035C32.3245 420.648 38.9091 417.245 40.9371 415.739C42.929 414.26 47.4052 409.552 49.7883 409.249C52.6832 408.881 53.754 412.275 55.8361 414.94C57.9348 417.625 60.3401 420.354 61.5316 423.6C62.744 426.905 61.8424 430.089 62.0185 433.508C62.4721 442.29 63.4195 451.048 64.851 459.725C65.2089 461.897 65.6001 464.091 65.4239 466.286C65.3185 467.603 64.9245 469.029 63.8315 469.771C62.6996 470.539 61.1211 470.322 59.9559 469.606C55.1023 466.625 52.3086 458.459 50.3167 453.434C49.619 451.675 44.2509 435.614 46.2983 434.81C44.1857 435.64 42.166 436.901 40.2157 438.102C39.0936 438.794 31.4256 425.732 31.5573 423.222Z" fill="#1A2732"/>
<path d="M192.718 502.653C193.133 505.852 193.548 509.052 193.963 512.252C191.018 512.522 188.058 512.681 185.092 512.774C183.146 509.32 181.362 505.788 180.119 502.022C179.143 499.063 178.596 496.021 178.242 492.943C178.342 488.725 178.442 484.508 178.542 480.29C184.862 481.064 191.308 480.799 197.541 479.506C198.006 479.409 198.496 479.309 198.948 479.456C199.468 479.626 199.829 480.086 200.171 480.513C208.753 491.175 220.325 488.78 232.322 489.846C234.558 490.044 236.958 490.549 238.441 492.234C239.335 493.251 239.706 494.208 239.682 495.103C239.554 499.798 228.542 502.75 225.527 503.386C214.653 505.674 202.975 506.925 192.718 502.653Z" fill="#1A2732"/>
<path d="M227.654 188.203C224.994 200.266 220.262 212.839 210.041 219.774C203.624 212.04 202.02 201.495 200.979 191.499C198.081 163.704 197.665 135.218 203.9 107.827C204.696 104.327 205.786 92.3506 210.836 92.3062C214.912 92.2702 219.065 103.934 220.494 107.101C225.728 118.709 228.899 131.204 230.234 143.853C231.794 158.637 230.854 173.69 227.654 188.203Z" fill="#94625A"/>
<path d="M229.028 124.266C229.245 125.828 229.366 127.586 228.374 128.812C227.778 129.548 226.878 129.956 226.012 130.339C222.797 131.761 219.58 133.181 216.365 134.603C212.719 136.213 208.76 137.861 204.87 137.004C200.481 136.039 197.296 131.997 196.036 127.683C194.777 123.369 195.092 118.775 195.418 114.293C196.007 106.185 190.388 66.9504 203.832 75.5255C220.133 85.9248 227.455 113.011 229.028 124.266Z" fill="#E86B6F"/>
<path d="M173.741 68.7278C169.602 69.6946 165.613 71.1233 161.418 71.8113C154.41 72.9613 147.285 72.8434 140.212 72.5049C136.404 72.3232 132.493 72.1179 129.012 70.5629C109.744 61.9489 125.302 48.6686 130.867 39.35C133.461 34.9889 131.591 29.2143 133.428 24.4842C136.492 16.5957 144.849 20.2299 149.629 15.2058C153.681 10.9473 153.996 4.91473 160.356 2.94918C169.877 0.00709933 182.17 -0.256453 191.308 4.06581C206.551 11.2733 200.366 28.855 202.975 42.0715C203.509 44.7805 204.528 47.4729 204.225 50.2167C203.788 54.1658 200.754 57.2577 197.894 60.0139C195.171 62.6369 192.332 65.3349 188.765 66.5888C185.748 67.65 182.475 67.5834 179.286 67.8275C177.391 67.9718 175.552 68.3061 173.741 68.7278Z" fill="#1A2732"/>
<path d="M130.548 88.1973C134.296 82.3519 147.662 73.9377 154.908 71.0247C166.772 66.2558 181.996 66.192 193.881 70.9651C195.519 71.6226 197.003 72.2509 198.364 72.8696C207.705 77.1183 205.828 90.8564 195.692 92.4571C174.071 95.8694 154.428 101.729 131.09 104.703C132.633 97.4286 126.769 94.0898 130.548 88.1973Z" fill="#94625A"/>
<path d="M157.3 40.1286C156.674 33.168 156.091 24.7413 160.265 18.6879C166.441 9.73128 182.691 8.92258 190.375 16.524C192.137 18.2662 192.936 15.4018 193.942 17.667C199.47 30.1247 196.163 47.1266 193.262 52.0953C191.292 55.4688 185.147 58.2735 185.077 57.9129C185.303 61.2073 186.241 68.0042 186.26 70.3567C186.296 74.9925 184.866 75.8816 180.108 78.0525C173.819 80.9224 159.93 81.3455 158.196 72.325C157.984 71.2237 157.997 70.0918 158.01 68.9696C158.099 61.6276 158.144 54.4437 157.788 47.2085C157.67 44.8559 157.512 42.4992 157.3 40.1286Z" fill="#94625A"/>
<mask id="mask1_1648_9419" style="mask-type:luminance" maskUnits="userSpaceOnUse" x="156" y="9" width="40" height="71">
<path d="M157.787 47.2085C157.672 44.8559 157.512 42.4992 157.3 40.1286C156.617 32.5341 156.239 24.7413 159.695 17.7266C163.19 10.6371 170.029 8.49118 177.826 9.26519C184.519 9.92962 187.292 12.0838 189.746 17.8251C192.853 25.1006 194.588 31.8128 195.005 39.7721C195.207 43.6325 195.239 47.6329 193.746 51.2006C192.254 54.7669 188.862 57.8061 184.998 57.7325C185.54 64.3477 188.828 75.2935 180.108 78.0538C173.518 80.1401 159.93 81.3469 158.196 72.3264C157.984 71.2251 157.998 70.0932 158.01 68.971C158.099 61.6276 158.143 54.4437 157.787 47.2085Z" fill="white"/>
</mask>
<g mask="url(#mask1_1648_9419)">
<path d="M190.173 63.2762C188.198 64.1251 185.913 63.4648 183.948 62.5909C180.896 61.2343 177.969 59.2688 176.312 56.3711C179.065 57.5404 182.088 58.0717 185.075 57.9108C186.196 57.8498 187.31 57.6944 188.423 57.539C189.965 57.3227 191.508 57.1063 193.051 56.8913" fill="#1A2732"/>
</g>
<path d="M159.544 31.9036C159.053 31.6566 158.502 31.7995 158.12 32.1241C157.841 32.0326 157.559 31.9521 157.272 31.8994C157.063 31.8605 156.879 31.8814 156.709 31.9257C156.7 31.7676 156.689 31.6081 156.681 31.45C157.866 31.3154 159.06 31.3196 160.214 31.5984C164.481 32.6304 167.068 36.9568 170.899 39.0999C171.009 39.161 171.12 39.2178 171.232 39.2747C175.536 37.9181 179.956 36.9305 184.435 36.3729C188.237 35.8985 192.485 35.8305 195.594 38.3439C196.533 37.9112 197.27 37.0192 197.102 36.0247C199.562 45.8413 193.221 57.3863 182.744 58.1409C176.319 58.6042 172.908 54.3707 167.132 52.4177C164.047 51.3745 157.785 49.2398 155.297 45.2851C155.14 44.1352 157.759 45.1658 157.633 44.0145C158.239 44.4251 158.894 44.7594 159.586 44.973C160.016 45.1062 160.446 45.1519 160.87 45.1519C162.329 45.8732 163.857 46.4406 165.518 46.693C166.245 46.8026 166.839 46.4087 167.041 45.7123C168.637 40.2554 164.241 34.2617 159.544 31.9036Z" fill="white"/>
<path d="M163.608 37.8647C163.815 41.5891 161.68 45.7532 157.956 45.9585C154.233 46.1652 150.329 42.3354 150.123 38.6123C149.916 34.8893 152.768 31.7031 156.491 31.4964C160.215 31.2897 163.402 34.1416 163.608 37.8647Z" fill="#94625A"/>
<path d="M157.839 35.124C156.348 35.3584 155.046 36.5278 154.65 37.9856C154.255 39.4435 154.791 41.1094 155.959 42.0652" fill="#1A2732"/>
<path d="M158.301 13.7832C162.635 9.04899 164.792 6.6257 171.655 7.23048C175.956 7.60916 180.257 7.98923 184.558 8.36792C187.23 8.60373 190.044 8.88947 192.225 10.4528C194.276 11.9231 195.447 14.2979 196.536 16.5741C197.693 18.9905 198.623 21.3042 199.299 23.7039C193.031 26.2867 186.13 26.234 179.424 26.0579C176.798 25.9885 173.886 25.6833 171.326 26.4601C170.631 26.671 170.058 26.9942 169.577 27.3923C169.473 27.1856 169.357 26.9858 169.222 26.7972C168.822 26.2382 168.307 25.7749 167.877 25.2395C166.721 23.8038 166.234 21.8507 166.584 20.0405C166.287 21.3361 165.765 22.4749 165.785 23.8093C165.806 25.3171 166.575 26.1549 167.091 27.5074C167.539 28.6823 167.993 31.0182 167.324 32.1861C166.768 33.1585 165.922 33.0767 164.909 33.2737C161.572 33.9228 158.741 33.2168 155.968 31.1846C155.29 30.6881 154.623 30.1249 154.254 29.3689C153.961 28.7683 153.878 28.0886 153.833 27.4214C153.507 22.4611 154.95 17.4438 158.301 13.7832Z" fill="#1A2732"/>
<path d="M164.969 28.2764C165.525 29.4513 166.187 30.597 166.462 31.8676C166.736 33.1382 166.548 34.603 165.603 35.4963C164.701 36.348 163.253 36.5658 162.58 37.6089C161.521 39.2513 163.178 41.3736 162.942 43.3141C162.678 45.4919 160.253 46.6044 158.176 47.3104C155.87 48.0955 153.19 48.846 151.121 47.5573" stroke="#1A2732" stroke-miterlimit="10"/>
<path d="M116.143 50.2658C118.266 49.6236 119.963 47.7371 120.376 45.5566C120.892 42.8364 120.111 41.9251 122.734 40.4853C124.094 39.739 125.454 38.9913 126.814 38.2451C127.416 37.9149 128.023 37.5792 128.521 37.1062C129.942 35.7524 130.166 33.5677 129.979 31.6146C129.488 26.4906 128.833 22.5193 133.096 18.7103C135.483 16.5755 138.604 15.3631 141.779 14.9498C143.018 14.7889 144.298 14.7375 145.445 14.241C147.555 13.3282 148.758 11.1491 150.27 9.41793C155.244 3.72103 163.632 2.84299 171.179 2.35889" stroke="#1A2732" stroke-miterlimit="10"/>
<path d="M104.014 314.457C104.391 312.106 171.921 311.953 178.483 311.79C191.201 311.472 203.924 311.268 216.648 311.254C224.583 311.244 240.327 315.495 239.24 303.097C237.686 285.466 235.825 267.864 233.657 250.299C232.931 244.423 232.161 238.503 230.244 232.9C228.433 227.604 225.621 222.67 224.123 217.277C220.232 203.268 225.547 187.624 220.245 174.086C218.973 170.839 217.126 167.839 215.895 164.576C207.448 142.198 224.257 118.076 216.567 94.4391C214.824 89.0806 211.714 83.5974 207.903 79.4013C206.032 77.3414 203.897 75.5202 201.563 74.004C200.785 73.4977 194.407 70.8969 194.341 70.5293C194.83 73.2494 195.522 76.3386 193.681 78.5954C192.183 80.432 190.412 82.1922 188.481 83.5724C174.45 93.6096 152.402 88.3718 137.836 82.2616C133.723 80.536 130.931 84.0482 127.357 86.6504C121.154 92.8245 116.746 100.766 112.805 108.481C110.655 112.691 108.426 116.956 106.623 121.328C105.527 123.988 104.786 126.774 104.152 129.587C104.251 129.754 104.346 129.92 104.446 130.085C105.408 131.658 106.465 133.154 107.508 134.53C110.539 138.525 115.126 141.657 120.139 141.69C123.536 141.712 126.997 140.342 130.256 141.303C136.001 142.997 137.403 150.351 137.77 156.33C138.023 160.417 137.93 165.264 134.572 167.61C133.014 168.697 131.032 168.993 129.383 169.934C126.049 171.839 124.703 175.989 124.467 179.822C124.231 183.653 124.815 187.545 124.077 191.313C123.221 195.682 120.672 199.493 118.699 203.483C110.602 219.857 112.474 238.417 110.483 256.032C109.509 264.647 106.547 272.438 106.123 280.966C105.569 292.199 105.806 303.294 104.014 314.457Z" fill="#E86B6F"/>
<path d="M178.914 91.7793C176.97 92.0054 175.094 92.2232 173.704 92.3855" stroke="#1A2732" stroke-miterlimit="10"/>
<path d="M125.787 132.3C127.295 134.407 128.255 136.998 128.541 139.57C129.133 144.887 127.503 150.167 125.988 155.298C117.718 183.293 112.489 211.797 110.299 240.864C110.247 241.538 110.131 242.25 110.415 242.863C110.646 243.361 111.102 243.706 111.523 244.057C114.543 246.575 115.191 249.462 116.491 252.915C117.757 256.283 119.329 258.936 119.438 262.708C119.511 265.197 115.645 265.105 115.572 262.624C115.532 261.234 114.481 252.54 111.701 254.807C110.153 256.07 112.164 260.694 112.575 262.179C113.524 265.612 114.26 269.098 114.8 272.618C114.958 273.649 114.478 274.695 113.397 274.966C112.458 275.202 111.209 274.602 111.049 273.564C110.648 270.951 110.134 268.357 109.509 265.788C109.321 265.99 109.117 266.179 108.882 266.337C108.651 266.493 108.401 266.612 108.151 266.728C108.834 270.353 109.674 273.947 110.657 277.503C110.731 277.645 110.794 277.793 110.822 277.958C110.847 278.104 110.87 278.248 110.895 278.394C111.067 279.423 110.562 280.473 109.493 280.742C108.452 281.003 107.43 280.348 107.144 279.34C106.04 275.442 105.115 271.499 104.372 267.519C103.711 267.566 103.029 267.595 102.33 267.591C102.461 268.269 102.589 268.949 102.731 269.626C103.227 272.017 103.778 274.398 104.376 276.766C104.986 279.182 101.234 280.125 100.625 277.712C99.9327 274.972 99.3058 272.216 98.7495 269.446C98.5955 268.681 98.461 267.914 98.3182 267.149C97.6856 266.999 97.0697 266.812 96.4885 266.569C96.8824 268.855 97.3985 271.124 98.0726 273.363C98.7912 275.752 95.0376 276.685 94.3218 274.309C92.9943 269.899 92.1968 265.343 91.9082 260.754C91.1217 256.917 91.8111 252.463 91.721 248.667C91.5961 243.459 91.3035 238.258 91.0191 233.057C90.166 217.501 91.431 202.301 92.0677 186.735C92.7322 170.49 95.3566 154.028 102.955 139.47C106.272 133.114 112.196 126.463 119.235 127.828C121.941 128.353 124.177 130.05 125.787 132.3Z" fill="#94625A"/>
<path d="M124.017 148.867C119.978 146.774 115.972 144.634 111.885 142.629C107.807 140.629 103.717 138.653 99.6995 136.53C99.1904 136.261 98.6855 135.982 98.1792 135.708C100.784 127.662 103.626 119.705 107.451 112.125C112.827 101.474 120.187 91.5751 130.057 84.8684C131.164 84.1166 132.426 83.3759 133.751 83.5576C134.864 83.7102 135.781 84.4869 136.591 85.2665C142.369 90.8275 146.143 98.3554 147.408 106.256C148.762 114.721 146.018 120.492 142.691 128.052C139.14 136.118 136.73 144.782 135.335 153.528C131.387 152.492 127.653 150.751 124.017 148.867Z" fill="#E86B6F"/>
<path d="M135.927 152.287C134.865 141.78 140.614 131.856 142.209 121.417" stroke="#1A2732" stroke-miterlimit="10"/>
<path d="M218.266 134.673C218.536 124.584 217.53 114.461 215.28 104.624" stroke="#1A2732" stroke-miterlimit="10"/>
<path d="M192.762 354.165C188.907 340.773 186.435 327.698 182.58 314.305" stroke="#1A2732" stroke-miterlimit="10"/>
<path d="M149.41 264.206C149.41 266.794 147.311 268.893 144.723 268.893C142.134 268.893 140.036 266.794 140.036 264.206C140.036 261.618 142.134 259.519 144.723 259.519C147.311 259.519 149.41 261.618 149.41 264.206Z" fill="#1A2732"/>
<path d="M182.217 210.309C182.217 213.76 179.419 216.558 175.968 216.558C172.517 216.558 169.719 213.76 169.719 210.309C169.719 206.858 172.517 204.06 175.968 204.06C179.419 204.06 182.217 206.858 182.217 210.309Z" fill="#1A2732"/>
<path d="M190.028 264.988C192.185 264.988 193.934 263.239 193.934 261.082C193.934 258.925 192.185 257.176 190.028 257.176C187.87 257.176 186.121 258.925 186.121 261.082C186.121 263.239 187.87 264.988 190.028 264.988Z" fill="#1A2732"/>
<path d="M195.496 152.898C195.496 155.272 193.572 157.194 191.2 157.194C188.826 157.194 186.904 155.27 186.904 152.898C186.904 150.525 188.828 148.603 191.2 148.603C193.572 148.601 195.496 150.525 195.496 152.898Z" fill="#1A2732"/>
<path d="M150.191 209.137C150.191 212.804 147.218 215.777 143.552 215.777C139.884 215.777 136.913 212.804 136.913 209.137C136.913 205.469 139.886 202.498 143.552 202.498C147.218 202.498 150.191 205.471 150.191 209.137Z" fill="#1A2732"/>
<path d="M216.585 235.306C219.174 235.306 221.272 233.207 221.272 230.619C221.272 228.03 219.174 225.932 216.585 225.932C213.997 225.932 211.898 228.03 211.898 230.619C211.898 233.207 213.997 235.306 216.585 235.306Z" fill="#1A2732"/>
<path d="M227.521 288.421C227.521 291.872 224.724 294.67 221.272 294.67C217.821 294.67 215.023 291.872 215.023 288.421C215.023 284.97 217.821 282.172 221.272 282.172C224.724 282.172 227.521 284.97 227.521 288.421Z" fill="#1A2732"/>
<path d="M174.404 291.545C174.404 294.996 171.607 297.794 168.155 297.794C164.704 297.794 161.906 294.996 161.906 291.545C161.906 288.094 164.704 285.296 168.155 285.296C171.607 285.296 174.404 288.094 174.404 291.545Z" fill="#1A2732"/>
<path d="M159.174 176.721C162.409 176.721 165.032 174.098 165.032 170.863C165.032 167.628 162.409 165.005 159.174 165.005C155.939 165.005 153.316 167.628 153.316 170.863C153.316 174.098 155.939 176.721 159.174 176.721Z" fill="#1A2732"/>
<path d="M212.289 194.687C215.956 194.687 218.928 191.715 218.928 188.048C218.928 184.382 215.956 181.41 212.289 181.41C208.623 181.41 205.651 184.382 205.651 188.048C205.651 191.715 208.623 194.687 212.289 194.687Z" fill="#1A2732"/>
<path d="M166.594 132.198C168.751 132.198 170.5 130.45 170.5 128.292C170.5 126.135 168.751 124.386 166.594 124.386C164.436 124.386 162.687 126.135 162.687 128.292C162.687 130.45 164.436 132.198 166.594 132.198Z" fill="#1A2732"/>
<path d="M203.929 104.781C203.929 106.462 202.566 107.825 200.884 107.825C199.203 107.825 197.84 106.462 197.84 104.781C197.84 103.099 199.203 101.736 200.884 101.736C202.566 101.736 203.929 103.098 203.929 104.781Z" fill="#1A2732"/>
<path d="M116.353 128.575C117.942 128.575 119.229 127.288 119.229 125.7C119.229 124.112 117.942 122.824 116.353 122.824C114.765 122.824 113.478 124.112 113.478 125.7C113.478 127.288 114.765 128.575 116.353 128.575Z" fill="#1A2732"/>
<path d="M147.847 95.8767C147.847 98.68 145.573 100.954 142.77 100.954C139.966 100.954 137.693 98.68 137.693 95.8767C137.693 93.0719 139.966 90.7998 142.77 90.7998C145.574 90.7998 147.847 93.0719 147.847 95.8767Z" fill="#1A2732"/>
<path d="M118.165 306.386C122.479 306.386 125.976 302.889 125.976 298.576C125.976 294.262 122.479 290.765 118.165 290.765C113.851 290.765 110.354 294.262 110.354 298.576C110.354 302.889 113.851 306.386 118.165 306.386Z" fill="#1A2732"/>
<path opacity="0.13" d="M27.3373 490.52C20.6864 490.981 13.7624 491.518 8.0521 494.555C2.34176 497.593 -1.69075 503.949 0.703218 509.435C2.59655 513.771 7.71831 516.25 12.6125 517.982C32.6745 525.079 54.8574 525.644 76.476 525.537C113.894 525.537 151.308 524.363 188.623 521.915C206.621 520.734 224.574 519.184 242.522 517.494C243.487 517.403 282.121 513.938 276.583 507.426C253.427 480.213 186.219 489.06 151.66 489.458C110.583 489.925 68.2503 487.677 27.3373 490.52Z" fill="black"/>
</svg>
