<svg width="278" height="527" viewBox="0 0 278 527" fill="none" xmlns="http://www.w3.org/2000/svg">
<path d="M70.1703 284.441C70.1449 284.329 70.1181 284.216 70.0914 284.104C69.642 282.201 68.9973 280.244 68.7406 278.31C68.6951 277.964 68.7272 277.52 69.0522 277.391C69.3678 277.266 69.6928 277.549 69.8801 277.831C70.4177 278.64 70.5876 279.609 70.8176 280.536C71.029 281.385 71.485 282.054 71.7137 282.875C72.2247 284.713 72.6192 286.653 73.7841 288.214C74.4422 289.095 75.7729 289.708 76.3708 288.772C76.76 288.162 76.5366 287.31 76.2999 286.605C75.3851 283.891 74.4716 281.178 73.5568 278.464C73.3909 277.972 73.3709 277.573 73.7641 277.255C76.114 278.203 76.1795 281.364 76.9339 283.399C77.6909 285.442 78.4479 287.484 79.2049 289.527C79.4202 290.108 79.7359 290.777 80.3457 290.881C82.0457 291.171 81.8932 288.591 81.6752 287.644C81.286 285.952 80.7711 284.305 80.1973 282.669C79.7064 281.269 79.1246 279.848 78.7274 278.406C78.6004 277.948 78.5201 277.451 78.6739 277.001C78.7729 276.709 79.0845 276.419 79.3574 276.562C79.5072 276.64 79.574 276.815 79.6262 276.975C80.113 278.453 80.3016 280.041 80.8767 281.471C81.4933 283.001 82.1085 284.532 82.7238 286.062C82.915 286.537 83.2574 287.104 83.763 287.021C83.9502 286.99 84.1121 286.867 84.2378 286.724C84.841 286.034 84.7019 284.991 84.5267 284.091C84.3635 283.252 84.2017 282.415 84.0385 281.576C83.8245 280.471 83.6092 279.365 83.3283 278.274C83.0488 277.188 82.5673 276.192 82.269 275.135C81.9066 273.85 81.5896 272.548 81.2499 271.256C80.8741 269.827 80.5076 268.263 81.1148 266.916C81.5963 265.848 82.5124 266.837 82.8455 267.419C83.4487 268.47 83.9516 269.562 84.302 270.724C84.4705 271.282 84.6216 271.878 85.0376 272.285C87.1227 274.324 86.6599 268.742 86.5957 267.856C86.4005 265.176 85.9537 262.037 85.0269 259.509C84.1736 257.183 82.3172 255.176 80.5785 253.697C80.1853 253.362 79.7613 253.036 79.5299 252.541C79.2463 251.931 79.3146 251.197 79.3253 250.507C79.3948 246.283 79.1233 242.067 79.3507 237.773C80.4287 217.366 82.1527 195.996 93.0958 179.208C91.8667 178.116 90.6295 177.038 89.4071 175.939C83.5008 170.628 77.6655 165.214 71.8916 159.718C71.5532 160.21 71.2095 160.699 70.8751 161.193C61.8566 174.54 61.3283 187.82 60.15 204.14C59.1991 217.311 60.4697 230.563 61.7443 243.648C62.2605 248.942 62.7821 254.236 63.1566 259.545C63.4255 263.359 63.372 267.149 63.7344 270.958C64.2186 274.834 65.651 278.31 66.5966 282.05C66.6902 282.42 66.7838 282.791 66.9149 283.15C67.054 283.533 67.2319 283.899 67.4111 284.266C67.6371 284.727 67.8618 285.19 68.0879 285.651C68.3166 286.121 68.556 286.604 68.9479 286.949C69.1739 287.148 69.4815 287.299 69.7717 287.215C70.1436 287.107 70.3094 286.675 70.3522 286.289C70.4191 285.67 70.3081 285.051 70.1703 284.441Z" fill="#F09F92"/>
<path d="M73.7039 194.61C83.3417 197.307 92.062 195.406 97.2928 183.645C102.14 172.749 109.41 162.521 118.54 155.851C127.324 149.436 138.036 145.903 143.668 135.977C150.5 123.935 149.927 108.884 151.387 95.3363C151.807 91.4349 152.197 87.3209 150.61 83.7325C149.988 82.3255 148.982 80.9773 147.528 80.4717C146.453 80.0972 145.274 80.227 144.147 80.3821C130.661 82.2305 117.605 86.9865 106.009 94.1005C92.6157 102.317 83.5035 113.586 77.5986 128.179C71.9933 142.033 69.1043 157.059 61.3002 169.971C59.2312 173.396 56.7341 176.933 56.8852 180.932C57.0417 185.07 60.1366 188.639 63.8093 190.552C67.1463 192.288 70.4766 193.707 73.7039 194.61Z" fill="#C49D58"/>
<path d="M196.57 267.707C196.934 266.805 197.613 265.976 198.292 265.281C199.358 264.189 200.575 263.06 200.893 261.534C198.987 261.926 197.452 263.649 196.21 265.38C194.969 267.11 193.799 269.015 192.084 270.122C191.16 270.719 189.7 270.83 189.466 269.744C189.313 269.036 189.819 268.315 190.287 267.738C192.09 265.512 193.891 263.286 195.693 261.061C195.98 260.705 196.264 260.115 195.942 259.861C195.76 259.718 195.494 259.804 195.273 259.909C192.71 261.14 191.207 264.274 188.759 265.833C187.699 266.508 186.443 266.883 185.329 266.562C184.679 266.375 184.048 265.845 184.049 265.084C184.05 264.402 184.565 263.789 185.13 263.456C185.693 263.125 186.319 262.99 186.907 262.731C188.315 262.114 189.308 260.981 190.322 259.768C190.617 259.414 192.982 256.183 191.212 257.181C189.379 258.215 187.899 259.917 186.208 261.241C185.881 261.497 185.536 261.743 185.155 261.837C184.774 261.93 184.348 261.838 184.132 261.509C183.776 260.967 184.136 260.157 184.522 259.567C185.883 257.487 187.875 256.011 189.21 253.964C190.978 251.255 192.658 248.919 192.911 245.863C191.33 247.244 187.494 248.197 186.257 248.996C188.989 238.753 198.765 234.881 199.747 223.352C201.028 208.313 199.214 194.677 202.874 179.43C203.987 174.794 205.246 170.068 207.991 166.169C213.907 157.764 229.62 154.185 238.612 150.332C238.758 150.911 238.91 151.489 239.052 152.069C242.859 167.722 238.727 180.354 234.148 196.061C230.451 208.739 224.645 220.719 218.893 232.541C216.565 237.324 214.232 242.104 212.031 246.951C210.452 250.432 209.18 254.003 207.515 257.447C205.951 260.68 203.637 263.51 201.36 266.236C199.983 267.882 198.201 269.623 196.312 269.309C196.256 268.762 196.362 268.223 196.57 267.707Z" fill="#F09F92"/>
<path d="M238.12 195.126C237.949 195.497 237.756 195.856 237.537 196.204C233.771 202.197 216.868 205.201 211.451 200.734C210.029 199.561 209.094 197.911 208.269 196.262C205.521 190.773 203.617 184.861 202.648 178.798C200.841 167.499 199.376 160.133 190.125 152.565C183.459 147.161 175.151 143.063 171.748 134.675C168.209 125.952 165.937 116.321 163.46 107.213C162.72 104.495 161.977 101.657 162.526 98.894C163.188 95.5664 165.635 92.8768 168.292 90.7676C177.724 83.2804 191.001 81.2207 202.494 84.8158C230.76 93.6552 239.857 126.363 240.872 152.496C241.343 164.624 240.899 176.787 239.544 188.848C239.305 190.989 239.015 193.191 238.12 195.126Z" fill="#C49D58"/>
<path d="M174.641 481.515C175.038 475.272 173.197 462.029 182.927 461.078C187.351 460.646 190.838 465.09 191.777 469.434C192.714 473.779 192.058 478.351 193.015 482.691C195.171 492.457 202.791 494.3 210.591 497.811C215.889 500.195 223.671 504.731 217.535 510.816C212.611 515.701 200.545 510.091 195.193 508.561C188.911 506.766 175.89 508.143 172.614 500.886C171.863 499.223 172.143 497.3 172.438 495.5C173.197 490.864 174.343 486.183 174.641 481.515Z" fill="#171616"/>
<path d="M164.268 358.398C164.523 340.069 162.691 321.755 160.863 303.504C160.185 296.735 159.492 289.898 157.306 283.457C154.946 276.499 150.931 270.248 147.497 263.752C138.31 246.37 130.243 223.564 133.435 203.661C137.676 177.218 165.922 165.043 186.749 183.329C198.681 193.804 205.959 208.763 209.826 224.163C220.784 267.803 216.218 313.936 212.946 358.272C210.715 388.515 211.908 420.419 206.452 450.172C205.15 457.263 203.23 464.484 198.797 470.17C186.571 485.856 169.457 475.441 163.314 460.584C155.861 442.558 160.052 417.054 161.522 398.012C162.411 386.499 163.728 375.013 164.142 363.475C164.204 361.78 164.245 360.088 164.268 358.398Z" fill="#2A69BD"/>
<path d="M62.3836 442.516C58.1371 450.091 52.2563 458.277 51.3334 467.005C51.205 468.225 51.1261 469.467 51.3776 470.667C52.0169 473.732 54.2866 475.426 56.484 477.258C58.5491 478.978 60.1901 481.103 62.1455 482.99C65.3247 486.06 68.6162 489.452 69.2461 494.031C69.3732 494.962 69.3719 495.957 68.9292 496.785C68.4985 497.59 67.704 498.136 66.8935 498.556C62.4933 500.834 57.0163 500.141 52.5973 497.903C48.177 495.664 44.6167 492.065 41.2503 488.429C37.8839 484.793 34.5763 481.016 30.4529 478.27C28.2541 476.806 25.8199 475.633 23.9648 473.751C21.0773 470.822 21.4504 468.115 22.9818 464.769C23.6492 463.311 24.4945 461.951 25.3986 460.625C26.2733 459.343 27.2042 458.091 28.0802 456.811C30.2416 453.656 32.0967 450.304 33.9477 446.956C37.4626 440.599 40.9788 434.244 44.4936 427.887C50.0856 433.192 56.0707 438.086 62.3836 442.516Z" fill="#171616"/>
<path d="M120.204 381.042C105.988 404.021 89.2773 425.734 70.6371 446.257C66.0522 451.305 60.6997 456.583 53.9013 457.107C44.3411 457.845 36.5076 448.207 35.7426 438.65C34.9762 429.092 39.3069 419.925 43.8369 411.474C55.3806 389.935 68.9505 369.485 79.4282 347.377C89.7669 325.558 100.517 311.355 101.685 285.546C102.557 266.272 101.083 246.632 105.95 227.963C110.927 208.87 136.53 172.325 159.144 189.889C175.862 202.874 171.39 229.598 168.968 247.729C162.472 296.345 145.193 340.648 120.204 381.042Z" fill="#2A69BD"/>
<path d="M171.919 60.0749C178.801 59.5319 186.103 55.2922 190.346 50.9106C193.506 47.6445 195.61 43.4141 196.462 38.9604C196.877 36.7937 196.656 34.9854 196.545 32.8642C196.406 30.1959 196.998 27.2923 197.218 24.6267C197.31 23.5153 197.4 22.3798 197.135 21.2964C196.87 20.2131 196.182 19.1699 195.139 18.7726C193.843 18.2791 192.335 18.8703 191.024 18.4195C189.218 17.799 188.622 15.6242 187.799 13.9016C186.482 11.1464 184.18 9.46253 181.441 8.30696C180.259 7.80808 179.301 7.18616 177.986 7.21692C176.306 7.2557 174.59 7.89501 173.009 8.40593C167.594 10.1567 162.084 11.9542 157.448 15.2551C152.812 18.556 149.105 23.6597 148.914 29.348C148.843 31.4465 149.248 33.5396 149.182 35.6394C149.137 37.1053 148.864 38.5952 149.197 40.0236C149.439 41.0588 149.985 41.9951 150.539 42.9032C152.352 45.8804 154.318 48.7653 156.428 51.5419C158.371 54.1005 160.491 56.6176 163.249 58.268C165.847 59.8208 168.841 60.3184 171.919 60.0749Z" fill="#1A2732"/>
<path d="M214.716 175.502C215.796 163.853 215.451 152.07 213.684 140.505C211.409 125.612 211.91 108.541 203.954 95.2207C198.516 86.1153 188.458 78.1319 177.863 76.0642C165.976 73.7437 153.437 81.5839 142.166 84.4073C135.79 86.0043 129.159 86.3975 122.789 88.0171C116.419 89.6382 110.044 92.7651 106.548 98.3317C100.897 107.33 104.507 119.033 108.255 128.977C109.255 131.632 109.959 135.176 111.486 137.556C112.904 139.764 114.201 139.527 115.579 141.101C118.441 144.224 110.926 170.374 110.217 174.634C108.178 186.88 100.673 206.432 111.054 216.32C116.654 221.654 124.538 223.786 132.169 225.057C150.034 228.031 168.507 227.308 186.086 222.947C191.124 221.697 196.222 220.084 200.279 216.846C206.54 211.849 209.395 203.775 211.292 195.992C212.935 189.255 214.076 182.402 214.716 175.502Z" fill="#C49D58"/>
<path d="M153.778 43.4949C153.674 40.4535 153.603 37.4027 153.827 34.3653C154.007 31.9418 153.734 28.7292 155.239 26.6682C155.806 25.8911 156.608 25.3254 157.396 24.7743C158.642 23.901 159.782 24.1965 160.904 23.0142C161.99 21.8694 162.66 20.4075 163.663 19.1984C165.689 16.7549 168.812 15.5605 171.792 14.4638C172.81 14.0893 173.84 13.7121 174.918 13.5958C176.119 13.466 177.332 13.668 178.505 13.9569C183.133 15.0964 187.43 17.6724 190.45 21.3584C192.474 23.8287 193.899 26.7926 194.543 29.9222C195.206 33.1496 194.636 36.3127 194.595 39.5667C194.511 46.2046 195.286 52.6685 190.965 58.2016C189.777 59.7223 188.231 61.6055 186.512 62.5484C185.931 62.8681 181.534 64.0825 181.481 63.6973C181.823 66.1328 182.027 69.4618 182.033 71.9454C182.049 78.6127 178.43 90.0655 173.292 92.0743C166.499 94.7305 154.142 87.0695 152.842 77.4652C152.683 76.2922 152.763 75.1005 152.843 73.9196C153.366 66.1903 153.833 58.6256 153.881 50.9807C153.893 48.497 153.864 46.004 153.778 43.4949Z" fill="#F09F92"/>
<path d="M183.938 50.128C181.873 50.3353 179.662 50.453 177.569 50.0932C178.288 52.6786 180.856 54.7276 183.57 54.642C186.412 54.5524 188.944 52.1369 189.334 49.3496C187.542 49.6479 185.749 49.9461 183.938 50.128Z" fill="white"/>
<mask id="mask0_1648_9469" style="mask-type:luminance" maskUnits="userSpaceOnUse" x="152" y="11" width="42" height="76">
<path d="M153.877 50.9801C153.893 48.4951 153.864 46.0034 153.778 43.493C153.502 35.4521 153.559 27.2214 157.61 20.0325C161.704 12.7687 169.036 10.9069 177.204 12.1775C184.216 13.2689 187.011 15.7004 189.26 21.8916C192.108 29.7371 193.543 36.91 193.518 45.3186C193.506 49.3979 193.305 53.6136 191.525 57.2836C189.745 60.9536 185.547 63.9977 181.48 63.6941C182.35 70.7559 183.146 81.8208 175.589 84.7752C168.796 87.4315 154.139 87.0663 152.839 77.4606C152.68 76.2877 152.76 75.096 152.84 73.915C153.363 66.1898 153.83 58.6251 153.877 50.9801Z" fill="white"/>
</mask>
<g mask="url(#mask0_1648_9469)">
<path d="M187.057 68.3854C184.926 69.1638 182.558 68.3346 180.539 67.3007C177.404 65.6931 174.436 63.4528 172.858 60.3018C175.691 61.6954 178.845 62.431 182.001 62.4364C183.186 62.439 184.368 62.3387 185.549 62.2397C187.188 62.102 188.825 61.9642 190.463 61.8265" fill="#1A2732"/>
</g>
<path d="M161.496 15.4803C167.032 14.4157 169.753 13.965 173.722 10.1438C177.514 6.49521 184.952 2.4788 190.042 1.22827C193.754 0.316113 197.912 0.72404 201.025 2.93888C204.14 5.15507 205.922 9.35071 204.747 12.9886C203.575 16.6212 199.876 18.9216 196.149 19.7428C192.421 20.564 188.552 20.2149 184.736 20.2979C178.449 20.4343 172.191 21.7651 166.393 24.2006C164.264 25.094 162.655 26.9411 162.216 29.2442C161.886 30.9762 162.237 32.7537 162.484 34.4991C162.874 37.2717 162.994 40.0803 162.846 42.8757C162.822 43.3371 162.771 43.8426 162.443 44.169C162.052 44.5609 161.38 44.5381 160.9 44.2613C160.42 43.9857 160.088 43.5136 159.789 43.0468C158.914 41.6893 158.048 40.1539 156.544 39.5654C155.622 39.2056 154.599 39.2658 153.616 39.1628C152.632 39.0599 151.568 38.7148 151.08 37.8535C150.347 36.5628 151.154 35.0274 150.948 33.6552C150.773 32.4956 150.347 31.4069 150.355 30.1791C150.366 28.5875 150.682 27.0066 151.174 25.4966C152.665 20.9225 154.879 17.4237 159.363 16.0046C160.043 15.7906 160.761 15.6234 161.496 15.4803Z" fill="#1A2732"/>
<path d="M186.339 76.6148C186.04 76.4182 185.737 76.2296 185.443 76.0263C184.802 75.5836 184.172 75.1262 183.554 74.6541C183.331 74.4842 181.929 73.6189 181.977 73.334C181.754 74.6541 181.497 75.9862 180.971 77.2233C180.438 78.4792 179.531 79.5626 178.7 80.6366C175.63 84.6062 170.395 89.294 168.433 93.8775C166.945 97.3549 170.936 104.204 171.74 108.115C176.384 102.769 181.45 97.7949 186.854 93.2181C185.887 87.8054 186.254 82.0877 186.339 76.6148Z" fill="#C49D58"/>
<path d="M161.53 107.218C159.458 104.074 157.385 100.93 155.313 97.7852C150.848 91.0096 146.224 84.0681 139.577 79.4138C144.589 77.2537 149.189 74.1415 153.056 70.2896C153.803 73.6051 155.394 77.0892 157.853 79.4352C162.197 83.5773 166.931 87.3115 171.973 90.5696C167.498 95.664 164.074 101.679 161.982 108.129C161.218 108.647 159.99 108.07 159.901 107.153C159.811 106.235 160.904 105.433 161.753 105.793C162.603 106.152 162.252 106.645 161.53 107.218Z" fill="#C49D58"/>
<path d="M146.625 77.5501C146.89 81.1358 148.225 84.6119 150.279 87.5623C151.163 88.8316 152.174 90.0059 153.132 91.2216C156.568 95.5885 159.278 100.472 161.973 105.332C164.518 100.706 167.369 96.2478 170.5 91.9974C169.981 93.0072 170.298 92.967 171.014 93.8471C174.181 97.7418 178.349 100.676 182.459 103.56C183.854 98.5911 185.254 93.5956 185.828 88.4678C186.241 84.7737 186.224 81.0449 186.496 77.3374" stroke="#1A2732" stroke-miterlimit="10"/>
<path d="M156.203 36.4155L163.873 39.4476" stroke="#1A2732" stroke-miterlimit="10"/>
<path d="M190.561 159.349C184.771 159.349 180.077 154.654 180.077 148.865V133.979H201.045V148.865C201.045 154.656 196.351 159.349 190.561 159.349Z" fill="white"/>
<path d="M195.872 47.1158C195.764 45.7168 195.916 42.7009 194.302 41.9733C193.728 41.7151 192.692 41.7646 192.043 41.5774C190.885 41.243 189.757 40.8431 188.578 40.5676C186.284 40.0339 183.874 39.7865 181.546 40.2948C179.077 40.8338 176.798 42.1899 174.261 42.21C171.091 42.2354 168.422 40.2078 165.607 38.8744C163.289 37.7763 160.757 37.1223 158.245 36.4763C158.103 36.4402 157.964 36.4081 157.825 36.376C157.908 36.4535 157.991 36.5325 158.075 36.6087C158.574 36.9471 159.032 37.3523 159.441 37.7843C161.767 38.4169 163.98 39.9082 165.687 41.3487C167.519 42.8948 169.408 45.2394 168.657 47.6602C167.942 49.9686 165.197 51.0306 162.875 51.5482C160.758 52.0203 158.335 52.0217 157.233 49.9258C156.859 49.217 156.485 48.5068 156.112 47.7979C155.915 47.4234 155.712 47.0409 155.396 46.7601C155.081 46.4779 154.626 46.3147 154.227 46.4551C154.007 46.5327 153.825 46.6959 153.686 46.8844C153.315 47.3847 153.231 48.0547 153.341 48.6673C153.45 49.2799 153.734 49.8469 154.045 50.3859C154.689 51.5001 158.299 54.3382 159.173 54.7434C160.369 55.2971 161.609 55.7452 162.811 56.2828C166.596 57.9747 170.328 59.6452 174.042 61.4816C179.104 63.9853 185.25 65.1248 189.959 61.3184C192.611 59.1744 194.445 56.3537 195.342 53.2267C195.91 51.2259 196.033 49.1702 195.872 47.1158Z" fill="white"/>
<path d="M164.74 43.5412C164.74 47.476 161.55 50.6659 157.615 50.6659C153.68 50.6659 150.49 47.476 150.49 43.5412C150.49 39.6064 153.68 36.4165 157.615 36.4165C161.55 36.4165 164.74 39.6064 164.74 43.5412Z" fill="#F09F92"/>
<path d="M158.823 40.3169C157.238 40.4774 155.797 41.633 155.296 43.1443C154.794 44.657 155.261 46.4425 156.437 47.5178" fill="#1A2732"/>
<path d="M179.901 38.9302C179.901 43.4013 176.277 47.0258 171.806 47.0258C167.335 47.0258 163.71 43.4013 163.71 38.9302C163.71 34.459 167.335 30.8345 171.806 30.8345C176.277 30.8345 179.901 34.459 179.901 38.9302Z" stroke="#1A2732" stroke-miterlimit="10"/>
<path d="M201.162 38.9302C201.162 43.4013 197.537 47.0258 193.066 47.0258C188.595 47.0258 184.97 43.4013 184.97 38.9302C184.97 34.459 188.595 30.8345 193.066 30.8345C197.537 30.8345 201.162 34.459 201.162 38.9302Z" stroke="#1A2732" stroke-miterlimit="10"/>
<path d="M179.901 38.9297H184.972" stroke="#1A2732" stroke-miterlimit="10"/>
<path d="M210.435 199.015C211.888 193.221 211.143 187.139 210.727 181.181C209.299 160.74 211.852 140.253 214.4 119.921" stroke="#1A2732" stroke-miterlimit="10"/>
<path d="M111.731 160.436C112.416 161.287 113.59 159.975 113.861 158.917C116.469 148.766 119.909 138.828 124.136 129.237" stroke="#1A2732" stroke-miterlimit="10"/>
<path d="M160.016 294.813C160.039 293.964 160.06 293.116 160.108 292.268C161.008 276.571 170.793 262.674 173.284 247.15" stroke="#C49D58" stroke-miterlimit="10"/>
<path opacity="0.13" d="M27.4636 491.746C20.8127 492.207 13.8887 492.744 8.17838 495.781C2.46804 498.819 -1.56447 505.175 0.8295 510.661C2.72283 514.997 7.84459 517.476 12.7387 519.208C32.8008 526.305 54.9837 526.87 76.6023 526.763C114.02 526.763 151.434 525.589 188.749 523.141C206.748 521.96 224.701 520.41 242.648 518.72C243.613 518.629 282.247 515.164 276.71 508.652C253.553 481.439 186.346 490.286 151.786 490.684C110.71 491.151 68.3766 488.903 27.4636 491.746Z" fill="black"/>
</svg>
