<svg width="264" height="514" viewBox="0 0 264 514" fill="none" xmlns="http://www.w3.org/2000/svg">
<path opacity="0.13" d="M24.2392 482.037C19.7018 482.457 14.9763 482.947 11.078 485.719C7.18251 488.492 4.4296 494.293 6.06472 499.298C7.35678 503.255 10.8512 505.518 14.1906 507.098C27.8803 513.572 43.0169 514.089 57.769 513.99C83.3002 513.99 108.831 512.919 134.291 510.686C144.204 509.817 154.576 507.479 164.5 507.471C173.606 507.463 189.871 512.271 192.157 498.255C193.814 488.088 182.614 485.65 174.477 483.243C153.043 476.902 130.957 480.734 109.067 481.068C81.0426 481.495 52.1554 479.444 24.2392 482.037Z" fill="black"/>
<path d="M13.7036 219.567C13.3826 223.681 13.1862 227.804 13.1143 231.926C16.5892 233.855 20.0615 235.783 23.5365 237.711C28.0158 228.869 32.4951 220.024 36.9716 211.181C42.4082 200.446 47.878 189.659 54.9857 179.951C65.6541 165.384 76.0874 150.405 86.9827 136.118C90.1035 132.023 94.2564 128.844 97.7231 125.037C104.82 117.24 108.873 106.741 108.851 96.1968C108.804 71.5149 83.6958 91.2749 74.2254 98.8058C58.3361 111.444 45.1307 127.391 35.3337 145.151C22.7618 167.946 15.7316 193.585 13.7036 219.567Z" fill="#B08FCF"/>
<path d="M59.4484 476.042C60.9341 478.812 63.7229 479.736 69.1263 476.889C89.3482 466.231 95.3187 404.099 94.2536 383.869C94.0156 379.332 93.4955 374.808 93.9354 370.213C94.3006 366.364 95.3326 362.543 96.3258 358.736C101.154 340.241 105.185 321.624 108.405 302.957C111.178 286.896 116.097 259.215 109.697 243.594C103.223 227.788 82.4204 237.518 73.3954 248.621C64.3067 259.802 61.1471 274.565 58.9946 288.81C53.2786 326.609 52.6948 364.956 54.1031 403.095C54.8086 422.235 56.0536 441.35 57.3899 460.457C57.7745 465.98 57.5532 472.512 59.4484 476.042Z" fill="#6A8BC4"/>
<path d="M36.3849 479.024C38.2497 478.321 40.1698 477.798 42.1037 477.475C43.4871 468.101 44.8705 458.73 46.2566 449.357C46.4004 448.383 46.6107 447.295 47.4241 446.656C48.0632 446.153 48.9043 446.073 49.6845 446.014C62.0351 445.085 74.383 444.155 86.7336 443.228C85.8178 450.231 84.3653 493.939 77.2161 495.799C65.6955 498.798 54.103 501.891 42.4274 503.645C35.4387 504.696 19.0017 508.628 18.855 497.65C18.808 494.186 20.8416 490.78 23.2957 488.01C26.8426 484.007 31.4297 480.886 36.3849 479.024Z" fill="#8A443E"/>
<path d="M171.279 349.879C178.613 322.348 184.014 283.866 168.667 257.764C156.023 236.264 133.887 239.825 131.297 264.991C124.867 327.458 132.406 390.425 139.94 452.77C140.668 458.794 141.526 465.146 145.258 469.932C155.556 483.135 164.11 470.35 165.745 459.82C169.898 433.099 172.524 407.372 169.45 380.255C168.792 374.439 167.928 368.579 168.498 362.756C168.924 358.379 170.147 354.129 171.279 349.879Z" fill="#6A8BC4"/>
<path d="M112.459 64.3192C115.211 58.9767 119.099 54.2125 123.783 50.447C130.86 44.7558 140.037 38.9457 149.253 38.1074C158.906 37.2275 167.79 41.0982 173.946 48.4576C179.842 55.5072 176.915 66.7844 172.195 73.9474C167.502 81.0689 160.226 86.1818 152.429 89.6347C144.633 93.0875 136.261 95.0159 127.944 96.9055C125.069 97.5585 122.078 98.2115 119.207 97.553C112.317 95.976 108.831 87.8196 108.264 81.4673C108.021 78.7559 108.414 76.0196 109.061 73.3719C109.83 70.2317 110.981 67.191 112.459 64.3192Z" fill="#C3A2DC"/>
<path d="M116.99 28.1912C117.17 27.6711 117.372 27.1592 117.63 26.6723C119.01 24.0301 121.766 22.3009 124.663 21.5954C128.102 20.7571 132.26 20.284 135.793 19.8192C140.109 19.252 144.594 21.2662 147.903 23.878C157.484 31.4366 155.973 45.0599 152.908 55.6785C152.028 58.7247 150.852 61.7321 148.943 64.2636C145.432 68.9172 139.68 71.5318 133.884 72.1847C128.091 72.8349 122.228 71.7033 116.653 69.9907C110.555 68.1204 104.034 64.8917 102.031 58.8381C97.5765 45.3725 112.744 41.3276 116.086 31.1766C116.409 30.1888 116.653 29.1707 116.99 28.1912Z" fill="#2D1F30"/>
<path d="M119.511 72.9649C120.476 70.6022 121.342 68.184 121.149 65.5944C121.019 63.8541 120.435 62.1886 119.97 60.5065C118.756 56.1019 118.349 51.4759 118.775 46.9275C119.137 43.0707 120.117 39.2221 122.078 35.88C124.037 32.5378 127.034 29.7268 130.677 28.4071C135.347 26.7194 140.613 27.8759 144.265 31.2042C153.345 39.485 147.139 56.0881 141.537 64.4352C140.748 65.6083 139.896 66.7537 139.329 68.0485C138.709 69.4623 138.452 71.0033 138.283 72.5361C138.089 74.2847 138.015 76.1135 137.984 77.8731C137.959 79.3229 138.211 80.864 139.168 81.954C140.513 83.484 143.086 84.0152 144.918 84.765C147.225 85.7057 149.549 86.6048 152.009 87.0724C153.292 87.3159 154.737 87.6064 155.445 88.702C156.518 90.3621 155.76 94.1608 155.503 96.0394C155.052 99.3373 154.551 102.613 153.862 105.872C152.484 112.377 150.542 118.76 148.058 124.927C146.107 129.768 143.786 134.541 140.344 138.467C136.905 142.393 132.218 145.428 127.033 146.023C119.331 146.905 111.789 142.188 107.42 135.783C103.052 129.378 101.35 121.54 100.387 113.849C99.7095 108.434 99.3526 102.978 99.3194 97.5223C99.3 94.5066 98.9182 91.5075 99.1423 88.4862C99.3028 86.3144 99.6707 81.9318 102.283 81.1931C103.265 80.9165 104.283 81.3841 105.262 81.6746C107.752 82.4133 110.436 81.9983 112.948 81.3398C116.246 80.4766 117.311 78.4901 118.487 75.4744C118.808 74.6471 119.165 73.8088 119.511 72.9649Z" fill="#F0895E"/>
<path d="M122.018 45.4089C122.084 45.1212 122.037 44.8086 121.76 44.5458C117.533 40.5451 112.005 49.6033 117.123 51.717C119.107 52.536 121.456 51.5593 122.292 49.5977C122.845 48.2974 122.745 46.6512 122.018 45.4089Z" fill="#F0895E"/>
<path d="M149.815 47.3066C147.784 44.93 144.505 46.7339 143.814 49.2959C143.465 49.8852 143.216 50.5215 143.136 51.1302C142.804 53.6064 144.854 55.9305 147.341 54.6329C149.859 53.3187 152.009 49.8714 149.815 47.3066Z" fill="#F0895E"/>
<path d="M125.908 55.3992C125.368 58.3651 127.562 61.5552 130.522 62.1113C133.483 62.6674 136.687 60.4928 137.259 57.5324L125.908 55.3992Z" fill="white"/>
<mask id="mask0_1622_1123" style="mask-type:luminance" maskUnits="userSpaceOnUse" x="99" y="27" width="58" height="120">
<path d="M119.511 72.9649C120.476 70.6022 121.342 68.184 121.149 65.5944C121.019 63.8541 120.435 62.1886 119.97 60.5065C118.756 56.1019 118.349 51.4759 118.775 46.9275C119.137 43.0707 120.117 39.2221 122.078 35.88C124.037 32.5378 127.034 29.7268 130.677 28.4071C135.347 26.7194 140.613 27.8759 144.265 31.2042C153.345 39.485 147.139 56.0881 141.537 64.4352C140.748 65.6083 139.896 66.7537 139.329 68.0485C138.709 69.4623 138.452 71.0033 138.283 72.5361C138.089 74.2847 138.015 76.1135 137.984 77.8731C137.959 79.3229 138.211 80.864 139.168 81.954C140.513 83.484 143.086 84.0152 144.918 84.765C147.225 85.7057 149.549 86.6048 152.009 87.0724C153.292 87.3159 154.737 87.6064 155.445 88.702C156.518 90.3621 155.76 94.1608 155.503 96.0394C155.052 99.3373 154.551 102.613 153.862 105.872C152.484 112.377 150.542 118.76 148.058 124.927C146.107 129.768 143.786 134.541 140.344 138.467C136.905 142.393 132.218 145.428 127.033 146.023C119.331 146.905 111.789 142.188 107.42 135.783C103.052 129.378 101.35 121.54 100.387 113.849C99.7095 108.434 99.3526 102.978 99.3194 97.5223C99.3 94.5066 98.9182 91.5075 99.1423 88.4862C99.3028 86.3144 99.6707 81.9318 102.283 81.1931C103.265 80.9165 104.283 81.3841 105.262 81.6746C107.752 82.4133 110.436 81.9983 112.948 81.3398C116.246 80.4766 117.311 78.4901 118.487 75.4744C118.808 74.6471 119.165 73.8088 119.511 72.9649Z" fill="white"/>
</mask>
<g mask="url(#mask0_1622_1123)">
<path d="M137.351 67.8908C138.529 67.0165 139.608 65.8296 141.061 65.6304C140.438 69.5093 139.819 73.3855 139.196 77.2644C139.022 78.3573 125.675 73.5792 125.318 70.4694C125.033 67.996 128.262 69.4263 129.85 69.5951C132.523 69.8801 135.129 69.537 137.351 67.8908Z" fill="#2D1F30"/>
</g>
<path d="M136.98 8.85476C132.617 10.299 128.254 11.9812 124.588 14.7534C120.922 17.5257 117.984 21.5346 117.403 26.0942C124.187 23.1615 132.169 23.1365 138.972 26.0277C145.582 28.8387 150.39 34.2311 153.743 40.4147C154.042 40.968 154.726 41.455 155.265 41.1313C155.55 40.9597 155.68 40.6221 155.791 40.3123C158.292 33.2433 160.821 25.5878 158.693 18.3944C158.217 16.7897 157.509 15.1601 157.766 13.5056C157.927 12.4681 158.455 11.5302 158.975 10.6172C160.165 8.52835 161.678 6.38411 162.508 4.15415C159.65 3.4182 153.746 4.53318 150.75 5.28019C146.055 5.92483 141.479 7.36627 136.98 8.85476Z" fill="#6A8BC4"/>
<path d="M189.226 289.715C184.664 241.82 178.032 194.122 169.348 146.8C166.205 129.677 160.671 116.831 152.689 101.692C142.721 82.7812 146.124 94.0307 128.688 99.2431C121.234 101.47 114.719 97.7657 109.072 93.1425C109.006 93.0872 108.967 93.0291 108.903 92.9738C108.112 93.6406 107.34 94.3267 106.615 95.0543C98.3676 103.33 93.952 114.665 90.9999 125.97C87.5028 139.36 85.4831 151.011 78.5607 162.908C71.4365 175.156 65.1228 188.918 59.2851 201.858C37.9122 249.238 37.9122 303.772 30.373 354.793C29.6868 359.427 33.2227 363.605 37.9095 363.589C68.003 363.489 158.021 362.44 186.18 364.073C190.704 364.336 194.461 360.573 194.212 356.049C192.992 333.905 191.329 311.79 189.226 289.715Z" fill="#2D1F30"/>
<path d="M116.661 23.7809C126.754 16.8282 144.655 23.673 152.827 33.6276C154.878 36.126 158.27 38.071 158.549 41.6207C158.638 42.7523 158.239 43.9945 157.282 44.6032C156.225 45.2755 154.786 44.9961 153.752 44.2906C152.717 43.5851 151.986 42.5309 151.223 41.5377C147.219 36.3307 141.68 32.3578 135.53 30.078C132.556 28.9741 129.15 28.0057 125.952 27.9725C122.969 27.942 120.28 28.5784 117.22 28.0665C115.051 27.7069 115.173 24.8046 116.661 23.7809Z" fill="#C7402C"/>
<path d="M155.865 2.49411C155.957 2.31704 156.056 2.14828 156.17 1.98228C160.635 -4.644 172.673 7.18926 163.402 10.5204C163.222 10.584 163.04 10.6034 162.86 10.6504C159.47 11.5053 156.2 10.5204 155.379 6.58613C155.091 5.21661 155.226 3.7336 155.865 2.49411Z" fill="#C7402C"/>
<path d="M230.951 235.031C231.555 235.753 232.147 236.491 232.722 237.252C234.65 239.806 235.403 243.591 238.944 244.266C243.493 245.132 245.554 240.965 245.798 237.18C246.149 231.697 244.694 226.277 243.252 220.973C232.526 181.536 206.308 150.372 188.189 114.136C184.96 108.517 181.665 102.812 176.976 98.3414C172.535 94.1083 160.259 85.8275 153.954 90.2127C149.214 93.5106 150.753 102.312 150.224 107.203C149.643 112.568 149.062 117.993 149.782 123.341C151.101 133.169 159.078 146.477 166.116 153.355C171.758 158.866 179.258 162.618 183.464 169.291C187.093 175.048 187.802 182.316 191.656 187.927C196.312 194.709 204.847 198.043 209.46 204.854C211.346 207.64 212.467 210.861 213.919 213.893C218.064 222.55 225.08 227.998 230.951 235.031Z" fill="#C3A2DC"/>
<path d="M108.607 162.144C110.248 153.382 111.927 144.637 113.518 135.877C114.899 123.184 116.512 110.518 118.579 97.9098C117.854 97.6469 117.12 97.3454 116.365 96.9525C107 92.0831 113.073 80.4518 101.525 80.3135C81.9971 80.0838 73.661 100.336 69.3283 115.808C68.36 119.263 67.4137 122.796 67.588 126.379C67.7623 129.962 69.237 133.667 72.2167 135.667C69.0848 135.623 65.6403 135.686 63.2858 137.75C61.4653 139.347 60.71 141.806 60.0349 144.13C59.0278 147.6 58.0208 151.072 57.0137 154.542C56.2113 157.306 55.4007 160.139 55.5916 163.01C55.7797 165.882 57.1741 168.848 59.7527 170.126C57.5532 169.75 55.3674 171.222 54.2193 173.137C53.0683 175.048 52.7308 177.325 52.4154 179.536C51.1565 188.356 49.1092 201.874 57.9903 207.109C67.8426 212.914 78.5995 210.969 89.3842 210.072C89.4506 210.067 89.5197 210.061 89.5861 210.056C90.6126 209.973 91.6446 209.909 92.6793 209.859C95.7338 209.718 98.2653 207.499 98.9238 204.511C102.014 190.384 105.935 176.429 108.607 162.144Z" fill="#C3A2DC"/>
<path d="M178.37 180.432C188.062 167.952 182.193 146.775 167.461 141.065C174.342 131.564 176.217 118.986 173.517 107.682C169.907 92.5697 163.128 90.5168 150.642 84.6542C148.844 83.8103 147.048 82.7147 145.062 82.7202C141.733 82.7313 139.274 85.7498 137.575 88.6106C134.836 93.2227 131.22 96.9661 126.796 98.2858C121.445 132.693 119.085 167.387 116.163 202.037C115.781 206.555 119.397 210.351 123.932 210.304C125.147 210.291 126.359 210.26 127.568 210.21C141.739 209.613 155.946 208.246 169.691 204.74C176.179 203.086 183.17 200.452 186.258 194.512C189.348 188.572 184.952 179.204 178.37 180.432Z" fill="#C3A2DC"/>
<path d="M128.655 479.209C128.647 479.268 128.638 479.323 128.63 479.381C125.949 479.998 123.13 480.336 120.515 481.207C117.436 482.245 114.431 483.642 111.783 485.537C107.42 488.661 101.624 496.037 105.113 501.636C105.924 502.937 107.282 503.819 108.726 504.328C114.196 506.26 121.342 505.062 126.987 504.583C133.433 504.038 139.841 503.13 146.246 502.223C151.583 501.468 157.752 501.299 162.143 497.758C167.284 493.61 167.699 486.345 168.249 480.181C169.115 470.497 169.705 460.8 170.388 451.102C157.501 451.822 144.063 450.773 131.034 451.003C130.788 460.44 129.994 469.861 128.655 479.209Z" fill="#8A443E"/>
<path d="M263.264 260.407C263.253 260.238 263.241 260.072 263.225 259.903C262.328 249.799 254.684 246.202 252.238 237.639C251.372 234.607 252.025 230.745 249.521 228.827C247.349 227.165 244.24 228.155 241.716 229.209C238.734 230.454 230.235 232.64 229.526 236.577C229.128 238.796 231.524 240.373 232.766 242.254C233.798 243.82 234.05 245.757 234.274 247.619C234.811 252.087 235.807 255.49 234.28 259.662C233.826 260.907 233.58 263.492 234.913 264.319C236.189 265.107 238.081 264.194 238.54 262.864C238.587 262.722 238.637 262.584 238.684 262.443C239.426 260.293 238.621 257.604 240.33 255.667C240.563 255.404 240.895 255.158 241.235 255.244C241.636 255.346 241.783 255.831 241.86 256.24C242.867 261.524 241.968 269.102 246.614 272.364C250.553 275.131 256.922 274.116 260.087 270.685C262.586 267.974 263.488 264.097 263.264 260.407Z" fill="#C7402C"/>
<path d="M30.7188 250.397C30.4062 251.653 29.5927 252.704 28.3367 252.812C26.9229 252.934 25.7166 251.788 24.953 250.59C24.1921 249.39 23.6222 248.012 22.5044 247.135C22.2969 246.972 22.0369 246.822 21.7796 246.894C21.4891 246.974 21.348 247.295 21.2484 247.577C19.58 252.25 18.7749 257.704 15.5434 261.649C11.9135 266.087 5.37296 265.777 1.862 261.267C0.428845 259.427 0.0055688 256.99 3.53763e-05 254.658C-0.00826476 250.106 1.44425 245.563 4.08923 241.859C4.8888 240.738 5.79628 239.69 6.47966 238.494C7.05514 237.485 7.45908 236.389 7.85748 235.296C8.65153 233.127 9.46215 230.844 9.60048 228.518C9.70562 226.758 8.35271 223.9 9.11909 222.683C11.2439 219.302 18.4346 222.53 20.8582 223.347C23.5558 224.727 26.4692 225.662 29.2054 227.082C29.9884 227.488 30.8018 227.92 31.3053 228.645C31.8089 229.367 31.8808 230.474 31.2251 231.06C30.6939 231.533 29.8694 231.542 29.3327 232.006C28.9204 232.366 28.7572 232.925 28.6161 233.451C27.822 236.378 27.0335 239.515 28.0157 242.384C28.6853 244.335 30.1212 245.964 30.6939 247.948C30.9125 248.72 30.9153 249.6 30.7188 250.397Z" fill="#C7402C"/>
<path d="M210.375 163.271C210.649 164.51 211.031 165.705 211.545 166.867C212.016 167.924 212.702 168.918 212.832 170.077C212.921 170.874 211.905 171.316 211.294 170.959C209.183 169.728 208.389 166.143 208.023 163.918C207.772 162.399 210.032 161.713 210.375 163.271Z" fill="#2D1F30"/>
<path d="M176.923 56.1875C175.473 51.6169 172.297 46.0614 167.815 50.715C164.191 54.4749 163.626 60.4262 161.581 65.0328C155.343 79.0876 140.994 79.6078 131.02 88.9869C127.238 92.5421 125.246 97.6357 124.236 102.726C122.264 112.676 122.762 123.28 122.452 133.382C123.271 132.397 123.683 131.146 124.098 129.934C126.624 122.569 129.883 115.345 133.737 108.592C137.196 102.533 143.717 97.5886 149.71 94.2354C155.899 90.7715 162.317 88.7489 167.737 83.7218C174.66 77.2975 179.917 65.622 176.923 56.1875Z" fill="#B08FCF"/>
<path d="M120.449 81.7519C119.793 79.0378 118.816 76.4343 117.477 73.6011C116.855 72.2842 112.81 63.5939 111.128 68.1479C110.87 68.8451 110.685 69.5341 110.472 70.2257C110.087 70.9506 109.78 71.7142 109.556 72.5249C109.31 72.9399 109.097 73.449 108.909 74.0189C105.539 80.7005 110.347 88.9093 112.453 95.1593C116.846 108.204 114.26 123.156 113.07 136.497C113.731 136.53 114.077 135.739 114.237 135.097C117.948 120.228 121.973 105.211 121.475 89.7338C121.381 86.8039 121.049 84.2309 120.449 81.7519Z" fill="#C3A2DC"/>
<path d="M37.4806 154.018C35.9976 156.873 34.7443 159.925 34.4538 163.154C34.3791 163.973 35.5771 164.039 35.8178 163.339C36.8028 160.476 37.6051 157.607 38.9304 154.865C39.3952 153.902 37.9841 153.05 37.4806 154.018Z" fill="#2D1F30"/>
<path d="M179.443 179.038C167.937 181.293 157.18 184.203 145.335 184.469C135.619 184.688 124.895 183.456 115.372 185.426C114.76 185.554 114.744 186.566 115.372 186.677C125.609 188.511 137.503 187.097 147.886 186.763C158.776 186.411 169.655 184.491 179.927 180.806C181.045 180.408 180.608 178.808 179.443 179.038Z" fill="#2D1F30"/>
<path d="M168.1 140.249C160.057 141.48 152.105 142.941 143.971 143.522C136.714 144.039 129.319 143.375 122.12 144.175C121.525 144.241 121.265 145.182 121.965 145.318C136.316 148.084 154.435 145.384 168.518 141.76C169.516 141.502 169.071 140.099 168.1 140.249Z" fill="#2D1F30"/>
<path d="M111.54 143.337C103.486 142.573 95.6341 142.307 87.7794 140.055C81.9555 138.384 76.3501 135.02 70.2219 134.987C69.295 134.981 69.248 136.198 70.0171 136.503C82.7578 141.56 97.64 146.538 111.543 144.858C112.506 144.742 112.53 143.431 111.54 143.337Z" fill="#2D1F30"/>
<path d="M105.022 175.967C89.1683 175.278 73.8269 171.975 58.1452 170.19C56.8421 170.041 56.6705 172.055 57.8436 172.409C72.7756 176.913 89.5556 177.298 105.019 177.398C105.948 177.406 105.94 176.009 105.022 175.967Z" fill="#2D1F30"/>
<path d="M88.5569 80.723C84.9546 96.1972 85.6767 112.828 94.1345 126.376C95.8028 129.049 98.102 131.76 101.234 132.106C105.94 132.624 109.31 127.685 110.901 123.225C116.135 108.575 114.705 92.4317 117.676 77.1594C118.634 72.2319 120.606 65.4563 117.289 60.952C114.312 56.9099 109.899 55.8309 110.738 49.5062C111.263 45.5415 113.922 42.2518 116.158 38.9373C116.913 37.814 117.297 35.7888 115.967 35.5453C115.474 35.4568 114.993 35.7252 114.572 35.9936C106.197 41.3333 101.209 50.5133 96.5748 59.2976C93.1302 65.8325 90.3248 73.1394 88.5569 80.723Z" fill="#2D1F30"/>
</svg>
