<svg width="297" height="514" viewBox="0 0 297 514" fill="none" xmlns="http://www.w3.org/2000/svg">
<path d="M74.0592 490.536C76.1054 489.361 78.4059 488.496 80.6376 487.841C85.9505 486.283 91.76 485.167 95.6639 481.242C101.366 475.513 98.3293 465.462 108.055 464.959C111.372 464.789 115.061 464.947 117.466 467.242C122.049 471.609 118.908 478.561 119.087 483.907C119.273 489.424 121.591 494.087 115.375 497.037C109.73 499.714 100.127 500.48 93.9647 501.04C90.2582 501.375 86.5518 501.713 82.8453 502.048C78.8307 502.413 74.7203 502.769 70.8254 501.731C69.4672 501.369 67.9715 500.639 67.6783 499.266C67.5467 498.652 67.6873 498.015 67.8818 497.42C68.8899 494.366 71.2322 492.158 74.0592 490.536Z" fill="#2D1F30"/>
<path d="M224.134 493.273C224.942 491.972 225.828 490.719 226.701 489.528C227.969 487.799 229.238 486.067 230.506 484.338C232.292 481.903 234.12 479.378 234.808 476.434C235.568 473.176 234.847 469.784 234.291 466.487C233.106 459.457 237.393 448.703 246.227 450.51C256.117 452.532 256.79 471.878 259.38 479.309C259.56 479.824 259.742 480.374 259.608 480.901C259.524 481.23 259.321 481.517 259.12 481.792C252.072 491.529 243.468 500.139 233.737 507.193C231.093 509.111 227.724 510.989 224.733 509.676C223.069 508.946 221.924 507.328 221.367 505.601C220.018 501.413 221.729 497.141 224.134 493.273Z" fill="#2D1F30"/>
<path d="M289.029 246.881C288.718 249.145 288.048 251.41 286.441 252.995C279.055 260.283 274.852 244.072 273.677 239.746C273.575 239.366 273.434 238.941 273.081 238.771C272.692 238.585 272.205 238.813 271.969 239.172C271.732 239.531 271.69 239.982 271.684 240.413C271.672 241.37 271.798 242.328 272.055 243.246C272.283 244.048 272.612 244.841 272.591 245.672C272.57 246.504 272.061 247.407 271.239 247.527C270.353 247.659 269.614 246.872 269.133 246.118C266.354 241.753 266.41 236.396 265.887 231.43C265.764 230.275 262.237 217.863 261.812 218.126C265.914 215.611 270.957 214.181 275.331 212.093C274.801 212.344 288.209 236.123 288.739 238.19C289.373 240.676 289.394 243.288 289.149 245.843C289.116 246.19 289.077 246.537 289.029 246.881Z" fill="#F0895E"/>
<path d="M280.922 223.209C281.066 223.17 281.209 223.131 281.35 223.09C282.146 222.868 282.989 222.617 283.516 221.98C284.012 221.378 284.12 220.553 284.192 219.775C285.2 208.593 284.362 190.596 271.888 185.764C262.931 182.294 249.06 189.719 252.174 200.222C254.734 208.856 257.549 217.415 260.619 225.884C260.885 226.619 261.223 227.433 261.941 227.747C262.524 228.002 263.197 227.855 263.814 227.699C269.533 226.275 275.238 224.78 280.922 223.209Z" fill="#C7402C"/>
<path d="M173.129 64.5097C163.969 62.7627 154.22 61.3447 144.847 61.5691C143.196 61.608 141.515 61.7037 139.971 62.284C134.491 64.3422 128.221 72.4253 132.962 78.1091C134.123 79.5002 135.93 80.1463 137.662 80.6698C147.964 83.79 182.531 91.6098 182.101 72.0364C182.068 70.5645 181.706 69.0628 180.823 67.8871C179.315 65.8828 176.656 65.2037 174.197 64.7161C173.838 64.6443 173.482 64.5755 173.129 64.5097Z" fill="#4872A8"/>
<path d="M180.195 177.092C176.695 174.747 172.836 172.701 168.582 170.995C153.074 164.779 141.389 180.146 138.266 193.755C136.833 200.004 138.293 204.77 139.57 210.839C141.443 219.76 141.141 228.92 142.909 237.886C147.803 262.73 160.565 285.175 171.621 307.956C197.504 361.288 214.672 409.47 231.736 466.242C238.039 466.461 244.354 466.239 250.627 465.575C252.189 465.411 253.906 465.136 254.914 463.93C255.841 462.82 255.889 461.244 255.886 459.799C255.773 414.959 247.884 379.516 239.149 335.684C234.808 313.906 230.231 292.175 226.24 270.331C222.779 251.392 213.769 235.971 207.98 217.681C202.691 200.976 194.36 186.581 180.195 177.092Z" fill="#C7402C"/>
<path d="M100.014 221.63C101.378 218.584 103.008 215.67 104.965 212.954C110.643 205.066 119.39 199.005 129.076 198.248C138.44 197.521 148.557 202.777 153.325 210.869C161.971 225.539 163.179 243.339 161.307 259.93C159.042 279.994 152.862 299.582 152.252 319.763C152.006 327.879 152.667 336.007 152.359 344.123C151.519 366.484 143.4 378.693 139.529 400.549C135.487 423.362 130.593 445.957 125.406 468.549C125.107 469.847 124.739 471.259 123.659 472.04C122.743 472.707 121.529 472.752 120.395 472.767C112.055 472.871 103.711 472.605 95.3949 471.977C93.1214 471.89 92.5111 383.742 93.4654 375.746C97.2526 344.024 93.1124 318.444 92.538 286.411C92.2598 270.891 91.9876 255.254 94.6739 239.964C95.7778 233.691 97.4142 227.424 100.014 221.63Z" fill="#C7402C"/>
<path d="M131.29 69.3233C134.395 68.8686 137.425 68.2912 139.068 68.3062C145.473 68.36 151.854 69.1139 158.216 69.772C173.976 71.4054 185.771 72.8353 188.769 90.2788C193.777 119.431 196.645 148.951 197.339 178.522C197.645 191.467 197.498 204.662 193.549 216.993C192.816 219.282 191.82 221.699 189.756 222.928C188.075 223.93 186.011 223.945 184.054 223.921C160.2 223.622 136.366 221.462 112.85 217.463C111.402 217.218 109.904 216.942 108.713 216.084C105.736 213.942 106.068 209.49 106.718 205.88C110.879 182.734 113.505 158.303 117.161 134.676C120.616 112.35 128.744 91.4814 131.29 69.3233Z" fill="#2D1F30"/>
<path d="M291.557 187.79C290.681 186.958 289.071 187.051 287.916 186.766C297.328 183.404 296.837 172.679 295.261 163.495C294.255 157.641 292.359 151.835 288.892 146.955C287.527 145.038 285.966 143.04 284.027 141.672C291.44 129.946 274.425 113.839 262.393 111.976C262.904 105.927 258.935 99.8212 253.969 95.9861C246.81 90.4578 237.871 86.6735 229.761 82.8025C217.912 77.1486 200.394 70.0976 187.019 70.9501C182.391 71.2463 177.628 73.7053 175.863 77.9922C174.532 81.229 175.095 84.9983 176.578 88.1693C179.343 94.0775 181.897 98.2896 184.195 104.473C186.507 110.701 190.414 116.403 195.428 120.765C201.408 125.967 208.947 128.97 215.321 133.667C222.555 138.89 229.268 144.487 234.889 151.341C235.559 152.158 236.238 152.995 236.585 153.988C238.045 158.18 233.626 162.682 234.081 167.295C234.533 171.89 236.786 176.227 238.898 180.251C239.702 181.786 240.543 183.365 241.883 184.466C245.099 187.11 250.72 186.701 252.515 190.458C248.12 192.142 245.916 197.356 246.269 202.05C246.622 206.741 248.97 211.025 251.351 215.081C252.006 216.2 252.712 217.355 253.813 218.037C255.491 219.072 257.639 218.755 259.566 218.351C268.119 216.559 285.508 213.696 290.935 205.936C293.753 201.903 293.131 194.434 292.389 189.878C292.263 189.124 292.11 188.313 291.557 187.79Z" fill="#C3A2DC"/>
<path d="M124.095 69.323C118.564 70.1935 113.251 72.5688 109.003 76.2334C102.377 81.9472 99.6547 89.8208 96.1576 97.5838C91.9366 106.956 87.7156 116.329 83.4945 125.701C80.1919 133.036 76.8355 140.569 76.3179 148.595C75.7974 156.621 78.7081 165.374 85.5228 169.646C79.4052 173.475 75.2589 179.931 73.0602 186.803C71.9772 190.183 71.3221 193.824 72.1478 197.276C72.9734 200.728 75.5581 203.929 79.0372 204.638C76.8624 204.195 72.9734 225.181 72.779 227.302C72.2166 233.401 74.2239 239.794 75.0495 245.864C76.7667 258.473 85.6933 263.227 96.1427 255.018C105.892 247.36 118.86 240.087 125.385 229.27C128.385 224.292 129.034 218.294 129.615 212.512C131.499 193.731 133.384 174.774 131.176 156.029C128.687 134.879 126.186 116.813 129.851 95.5855C131.206 87.7268 132.654 80.5501 135.693 73.188C138.03 67.5281 127.305 68.8534 124.445 69.2722C124.329 69.2871 124.212 69.3021 124.095 69.323Z" fill="#C3A2DC"/>
<path d="M235.598 149.346C231.176 136.602 224.377 124.777 217.864 113.005C209.353 97.6227 198.551 78.1659 180.59 72.9457C180.237 72.844 179.926 72.7064 179.645 72.5479C177.859 72.7722 176.172 73.2389 174.736 74.3428C174.571 74.4684 174.416 74.6 174.269 74.7376C169.276 79.4044 173.18 90.7931 172.435 97.162C171.316 106.744 170.063 116.373 169.27 125.991C167.867 142.995 164.559 160.738 165.175 177.765C165.653 191.03 168.017 204.847 171.834 217.57C174.502 226.461 177.736 238.726 182.894 246.334C184.081 248.087 185.469 249.66 187.004 251.081C191.614 255.344 197.564 258.234 203.511 260.465C213.921 264.372 229.848 271.723 240.833 266.149C247.253 262.895 247.986 256.475 247.755 250.04C247.618 246.232 247.98 242.316 247.043 238.574C246.816 237.664 242.167 227.981 241.539 228.711C245.254 224.382 246.675 218.315 245.772 212.682C244.869 207.049 241.772 201.886 237.575 198.024C236.732 197.249 235.789 196.426 235.598 195.295C235.427 194.287 235.903 193.297 236.328 192.37C240.941 182.306 240.989 170.627 238.589 159.819C237.797 156.253 236.783 152.765 235.598 149.346Z" fill="#C3A2DC"/>
<path d="M167.745 60.0555C167.825 59.3076 167.924 58.5538 168.235 57.8687C168.51 57.2645 168.944 56.7439 169.342 56.2114C169.375 56.1666 169.408 56.1217 169.441 56.0768C172.432 52.0173 174.392 46.3634 174.655 41.3377C174.912 36.4166 173.662 31.337 170.631 27.3912C166.506 22.0185 158.902 19.2603 152.554 21.6236C150.914 22.2339 149.398 23.1493 148.007 24.2083C146.038 25.707 144.288 27.5288 143.035 29.6618C139.083 36.3957 139.723 46.6177 144.1 53.0315C144.39 53.4592 144.704 53.8781 144.886 54.3627C145.057 54.8204 145.102 55.317 145.135 55.8076C145.338 58.817 145.198 61.8474 144.725 64.824C144.48 66.3736 144.144 67.9082 143.72 69.416C143.334 70.7861 142.661 72.2459 143.295 73.5951C144.207 75.5366 146.334 76.5208 147.995 77.6606C150.092 79.1025 152.228 80.4427 154.522 81.5585C155.545 82.0581 156.093 81.2982 156.945 80.8256C158.046 80.2153 159.353 79.8474 160.589 79.6469C162.153 79.3926 163.844 79.5931 165.271 78.7704C166.048 78.3217 166.647 77.6277 167.23 76.9456C168.498 75.4618 169.42 74.9413 168.714 73.0895C167.9 70.9596 167.242 69.2754 167.242 66.9719C167.245 64.7043 167.487 62.4457 167.727 60.1931C167.733 60.1513 167.739 60.1034 167.745 60.0555Z" fill="#F0895E"/>
<path d="M176.043 34.3731C175.794 36.53 175.681 38.7796 175.334 41.4929C175.026 43.9161 174.4 46.2973 173.476 48.5589C173.413 48.7085 173.045 49.5132 172.791 49.2918C172.671 49.1871 172.994 48.3525 173.021 48.1819C173.177 47.1738 173.231 46.1507 173.18 45.1336C173.03 42.0404 171.46 40.5805 170.769 37.8433C169.967 34.6813 170.054 30.8491 169.15 27.4717C168.923 26.6221 168.603 25.6738 167.804 25.3089C167.119 24.9978 166.323 25.2281 165.599 25.4345C158.868 27.364 146.98 29.4072 141.147 24.214C135.953 19.5891 135.58 10.4022 140.366 5.38543C142.711 2.92641 147.001 1.5892 149.376 4.0183C150.088 4.74524 150.803 5.84014 151.794 5.61278C152.332 5.49013 152.688 4.99952 153.023 4.55977C155.467 1.36184 159.67 -0.723236 163.58 0.234047C167.49 1.19133 170.377 5.79227 168.764 9.4808C172.136 6.8034 177.631 8.87352 179.567 12.7176C181.502 16.5617 180.629 21.2793 178.714 25.1354C176.964 28.6654 176.381 31.4325 176.043 34.3731Z" fill="#2D1F30"/>
<path d="M145.634 30.5378C145.927 29.3532 146.403 28.1895 146.828 27.0198C147.629 25.7813 148.428 24.5009 148.557 23.0441C148.641 22.0958 148.252 21.2043 147.576 20.6838C144.802 17.1717 142.023 23.439 141.308 25.4313C139.615 30.1549 139.932 33.9421 141.859 38.4982C142.014 38.8692 142.194 39.2461 142.499 39.5063C142.804 39.7666 143.271 39.8833 143.615 39.6769C144.222 39.3149 144.937 36.8529 145.138 36.093C145.61 34.2981 145.182 32.3537 145.634 30.5378Z" fill="#2D1F30"/>
<path d="M137.722 39.3629C137.973 38.4565 138.502 37.6996 139.525 37.3406C141.168 36.7633 142.906 37.565 143.66 39.0907C144.722 41.2445 143.573 43.6497 142.675 45.6421C142.403 46.2434 142.059 46.8895 141.443 47.1259C141.156 47.2365 140.836 47.2455 140.531 47.2006C140.049 47.1318 139.588 46.9344 139.208 46.6353C138.125 45.7827 137.826 44.2899 137.659 42.9198C137.524 41.8249 137.41 40.4817 137.722 39.3629Z" fill="#F0895E"/>
<path d="M171.535 41.3282C172.471 40.709 173.635 40.4936 174.652 41.1667C175.636 41.8158 176.154 43.0244 176.19 44.206C176.225 45.3847 175.836 46.5394 175.322 47.6014C175.056 48.1488 174.751 48.6873 174.311 49.1091C173.874 49.5309 173.285 49.8301 172.677 49.8091C171.69 49.7762 170.915 48.9386 170.458 48.0651C169.611 46.4437 169.24 44.1313 170.311 42.5428C170.628 42.0731 171.053 41.6483 171.535 41.3282Z" fill="#F0895E"/>
<path d="M163.506 48.2507C162.473 51.2003 159.216 53.1926 156.119 52.7708C153.023 52.346 150.421 49.552 150.22 46.4348L163.506 48.2507Z" fill="white"/>
<path d="M271.224 153.297C251.635 152.648 232.16 148.52 214.065 140.984C206.197 137.709 198.473 133.73 192.266 127.891C184.075 120.187 179.175 109.882 174.741 99.7345C171.771 92.9348 167.074 74.4264 156.17 79.3504C146.633 83.6582 153.05 99.4772 154.797 106.699C157.4 117.453 160.708 128.088 165.345 138.148C170.374 149.056 177.009 159.272 185.663 167.654C198.796 180.371 216.015 188.343 233.836 192.435C243.43 194.637 253.215 195.747 263.051 196.181C265.597 181.854 268.391 167.573 271.224 153.297Z" fill="#4872A8"/>
<mask id="mask0_1595_24539" style="mask-type:luminance" maskUnits="userSpaceOnUse" x="140" y="20" width="35" height="60">
<path d="M167.745 60.0555C167.825 59.3076 167.924 58.5538 168.235 57.8687C168.51 57.2645 168.944 56.7439 169.342 56.2114C169.375 56.1666 169.408 56.1217 169.441 56.0768C172.432 52.0173 174.392 46.3634 174.655 41.3377C174.912 36.4166 173.662 31.337 170.631 27.3912C166.506 22.0185 158.902 19.2603 152.554 21.6236C150.914 22.2339 149.398 23.1493 148.007 24.2083C146.038 25.707 144.288 27.5288 143.035 29.6618C139.083 36.3957 139.723 46.6177 144.1 53.0315C144.39 53.4592 144.704 53.8781 144.886 54.3627C145.057 54.8204 145.102 55.317 145.135 55.8076C145.338 58.817 145.198 61.8474 144.725 64.824C144.48 66.3736 144.144 67.9082 143.72 69.416C143.328 70.813 142.783 72.0216 143.121 73.5053C143.765 76.3144 146.945 77.6486 149.751 78.2947C153.672 79.1952 157.708 79.602 161.735 79.5033C162.949 79.4734 164.215 79.3837 165.268 78.7764C166.045 78.3277 166.644 77.6336 167.227 76.9516C168.495 75.4678 169.417 74.9473 168.711 73.0955C167.897 70.9656 167.239 69.2813 167.239 66.9779C167.242 64.7103 167.484 62.4517 167.724 60.1991C167.733 60.1513 167.739 60.1034 167.745 60.0555Z" fill="white"/>
</mask>
<g mask="url(#mask0_1595_24539)">
<path d="M154.785 59.038C153.643 58.7149 152.446 58.5174 151.294 58.1794C148.734 57.4285 146.11 56.2349 144.686 53.9763C144.698 53.9973 142.048 59.379 142.042 60.1089C142.006 64.0308 145.518 63.4205 148.446 62.7654C150.627 62.2777 153.768 61.15 154.785 59.038Z" fill="#2D1F30"/>
</g>
<path d="M199.422 101.88C200.322 102.651 201.246 103.399 202.186 104.12C208.528 108.985 216.674 114.585 224.296 117.172C231.676 119.676 241.321 118.21 248.713 116.514C252.76 115.587 257.205 114.396 260.879 116.326C257.22 128.705 254.74 141.433 253.481 154.279C246.936 157.474 239.197 156.292 232.023 155.042C223.85 153.615 215.567 152.155 208.037 148.67C181.419 136.351 170.114 104.41 169.818 77.0471C169.782 73.5949 170.078 68.6261 173.437 66.6217C176.97 64.5127 179.977 67.2081 181.493 70.4269C183.495 74.6749 184.311 79.3805 185.993 83.7631C188.709 90.859 193.63 96.9168 199.422 101.88Z" fill="#6A8BC4"/>
<path d="M180.65 66.8369C180.333 66.6035 180.015 66.4001 179.698 66.2206C175.367 63.7885 170.903 66.11 166.338 66.8399C161.764 67.5728 157.109 67.6925 152.485 67.5489C148.799 67.4352 144.787 68.6228 142.305 65.2035C142.125 64.9552 141.943 64.683 141.652 64.5843C141.428 64.5095 141.186 64.5574 140.955 64.6052C138.61 65.0898 136.217 65.5924 134.147 66.798C132.591 67.7044 131.263 68.9938 130.309 70.5194C129.546 71.74 129.019 73.146 129.028 74.5849C129.04 76.5234 130.006 78.3153 130.949 80.0115C134.622 86.6377 145.422 86.9907 151.97 88.3309C162.725 90.5296 180.042 88.9531 183.904 75.955C184.88 72.6584 183.42 68.8711 180.65 66.8369Z" fill="#6A8BC4"/>
<path d="M172.567 43.1529C173.823 43.0602 175.041 44.1611 175.074 45.4205C175.106 46.6799 173.949 47.8436 172.689 47.8167" fill="#2D1F30"/>
<path d="M141.88 39.9193C141.162 39.7369 140.501 40.3322 139.998 40.8766C139.801 41.089 139.6 41.3104 139.502 41.5826C139.173 42.492 140.097 43.3356 140.908 43.8651" fill="#2D1F30"/>
<mask id="mask1_1595_24539" style="mask-type:luminance" maskUnits="userSpaceOnUse" x="169" y="65" width="92" height="92">
<path d="M199.422 101.88C200.322 102.651 201.246 103.399 202.186 104.12C208.528 108.985 216.674 114.585 224.296 117.172C231.676 119.676 241.321 118.21 248.713 116.514C252.76 115.587 257.205 114.396 260.879 116.326C257.22 128.705 254.74 141.433 253.481 154.279C246.936 157.474 239.197 156.292 232.023 155.042C223.85 153.615 215.567 152.155 208.037 148.67C181.419 136.351 170.114 104.41 169.818 77.0471C169.782 73.5949 170.078 68.6261 173.437 66.6217C176.97 64.5127 179.977 67.2081 181.493 70.4269C183.495 74.6749 184.311 79.3805 185.993 83.7631C188.709 90.859 193.63 96.9168 199.422 101.88Z" fill="white"/>
</mask>
<g mask="url(#mask1_1595_24539)">
<path d="M250.926 112.515C250.944 112.078 250.777 111.764 250.531 111.552C250.516 110.43 250.457 109.311 250.343 108.198C250.217 106.972 248.243 106.819 247.911 107.998C245.703 115.883 245.105 124.23 243.436 132.256C241.53 141.422 239.349 150.537 237.264 159.664C236.708 162.099 240.175 163.553 241.027 161.043C246.328 145.451 250.265 129.016 250.926 112.515Z" fill="#2D1F30"/>
</g>
<mask id="mask2_1595_24539" style="mask-type:luminance" maskUnits="userSpaceOnUse" x="169" y="65" width="92" height="92">
<path d="M199.422 101.88C200.322 102.651 201.246 103.399 202.186 104.12C208.528 108.985 216.674 114.585 224.296 117.172C231.676 119.676 241.321 118.21 248.713 116.514C252.76 115.587 257.205 114.396 260.879 116.326C257.22 128.705 254.74 141.433 253.481 154.279C246.936 157.474 239.197 156.292 232.023 155.042C223.85 153.615 215.567 152.155 208.037 148.67C181.419 136.351 170.114 104.41 169.818 77.0471C169.782 73.5949 170.078 68.6261 173.437 66.6217C176.97 64.5127 179.977 67.2081 181.493 70.4269C183.495 74.6749 184.311 79.3805 185.993 83.7631C188.709 90.859 193.63 96.9168 199.422 101.88Z" fill="white"/>
</mask>
<g mask="url(#mask2_1595_24539)">
<path d="M243.097 111.557C243.088 110.579 241.635 110.42 241.557 111.431C240.893 119.957 238.592 128.36 236.806 136.703C235.903 140.921 235.026 145.142 234.147 149.363C233.782 151.122 233.414 152.881 233.049 154.64L232.391 157.805C231.643 159.197 231.831 160.411 232.843 161.47C232.454 161.228 231.936 161.234 231.544 161.542C231.475 161.596 231.41 161.65 231.341 161.703C230.796 162.131 230.731 163.035 231.188 163.549C231.269 163.639 231.35 163.732 231.431 163.821C232.035 164.497 233.208 164.521 233.734 163.714C235.451 161.087 235.547 156.842 236.148 153.824C237.061 149.247 237.982 144.673 238.879 140.096C240.716 130.69 243.196 121.183 243.097 111.557Z" fill="#2D1F30"/>
</g>
<mask id="mask3_1595_24539" style="mask-type:luminance" maskUnits="userSpaceOnUse" x="169" y="65" width="92" height="92">
<path d="M199.422 101.88C200.322 102.651 201.246 103.399 202.186 104.12C208.528 108.985 216.674 114.585 224.296 117.172C231.676 119.676 241.321 118.21 248.713 116.514C252.76 115.587 257.205 114.396 260.879 116.326C257.22 128.705 254.74 141.433 253.481 154.279C246.936 157.474 239.197 156.292 232.023 155.042C223.85 153.615 215.567 152.155 208.037 148.67C181.419 136.351 170.114 104.41 169.818 77.0471C169.782 73.5949 170.078 68.6261 173.437 66.6217C176.97 64.5127 179.977 67.2081 181.493 70.4269C183.495 74.6749 184.311 79.3805 185.993 83.7631C188.709 90.859 193.63 96.9168 199.422 101.88Z" fill="white"/>
</mask>
<g mask="url(#mask3_1595_24539)">
<path d="M237.001 111.375C236.968 110.208 235.221 109.999 235.146 111.222C234.075 128.732 228.915 145.75 226.626 163.095C226.447 164.462 228.636 164.974 229.022 163.622C231.341 155.539 232.244 146.902 233.65 138.622C235.176 129.626 237.255 120.541 237.001 111.375Z" fill="#2D1F30"/>
</g>
<path d="M150.014 259.61C148.802 252.254 148.156 244.82 146.959 237.467C146.849 236.788 145.754 236.955 145.772 237.628C146.131 251.303 148.395 266.745 152.805 279.686C152.948 280.105 153.699 280.072 153.633 279.572C152.754 272.88 151.112 266.278 150.014 259.61Z" fill="#2D1F30"/>
<path d="M215.567 207.145C207.744 207.36 200.624 206.307 193.403 203.758C191.907 203.232 190.402 204.524 190.689 206.083C191.087 208.257 191.5 210.681 191.677 211.195C192.846 214.653 194.189 218.07 195.706 221.393C197.567 225.465 200.262 229.847 204.66 230.691C206.479 231.041 208.363 230.715 210.134 230.173C211.495 229.757 212.841 229.204 213.939 228.301C216.745 225.997 217.392 221.938 217.068 218.321C216.748 214.755 216.398 210.54 215.567 207.145Z" fill="#2D1F30"/>
<path d="M91.9486 205.556C91.8199 205.909 91.7571 206.295 91.6973 206.669C90.8058 212.248 90.8567 217.573 93.4713 222.701C94.5392 224.795 96.6751 226.524 99.0235 226.389C99.7803 226.344 100.513 226.114 101.21 225.821C104.411 224.463 106.897 221.722 108.432 218.602C111.055 213.271 111.6 206.175 110.888 200.085C110.786 199.205 109.85 198.688 109.054 199.074C104.905 201.093 93.4054 203.241 92.1969 205.057C92.0922 205.212 92.0114 205.38 91.9486 205.556Z" fill="#2D1F30"/>
<path d="M19.569 244.703C18.0553 245.227 17.472 242.603 17.8579 240.461C18.0224 239.546 18.3365 238.439 17.6514 237.808C15.4557 235.782 13.2061 243.258 12.6885 244.371C11.3872 247.162 9.58335 250.336 6.52304 250.674C3.72897 250.982 1.21311 248.523 0.548993 245.795C-0.115122 243.064 0.635744 240.198 1.59303 237.556C4.1388 230.541 10.0201 216.682 19.1592 217.438C22.725 217.735 24.6516 219.841 24.7473 223.167C24.873 227.58 23.452 232.423 22.6114 236.722C22.2195 238.72 22.1716 242.22 20.7626 243.794C20.3169 244.296 19.919 244.583 19.569 244.703Z" fill="#F0895E"/>
<path d="M6.4962 219.467C6.49022 219.404 6.48423 219.338 6.47825 219.275C6.17013 215.458 8.11461 211.827 8.52744 208.018C9.59541 198.158 16.6494 185.304 28.0381 184.691C35.4271 184.296 43.0734 190.132 43.7195 197.683C44.6439 208.5 34.7959 214.348 29.2825 221.815C27.8287 223.784 26.303 226.111 23.8829 226.473C22.9286 226.617 21.9593 226.419 21.02 226.201C16.4938 225.142 12.0993 223.523 7.96803 221.399C7.54622 221.181 7.10947 220.945 6.84023 220.556C6.62484 220.236 6.54107 219.853 6.4962 219.467Z" fill="#C7402C"/>
<path d="M12.7004 208.533C17.3492 210.256 21.9322 212.569 26.3178 214.767C29.052 216.138 31.7055 218.528 34.8765 218.474C37.8979 218.423 40.9732 217.792 43.5399 216.197C47.6592 213.64 50.558 209.822 52.9003 205.673C53.5136 204.584 58.5962 191.664 55.3294 191.49C61.2227 191.802 66.8707 188.092 69.8801 183.019C72.8896 177.942 73.5328 171.735 72.761 165.886C80.9397 166.897 88.0685 160.564 93.4203 154.297C98.0123 148.915 101.608 142.334 106.613 137.377C110.55 133.476 113.55 130.859 116.123 125.674C122.303 113.209 125.495 99.4208 127.185 85.6748C127.688 81.5914 128.229 74.7319 125.214 71.2797C120.434 65.8052 97.5247 77.4303 92.469 79.8055C82.618 84.4304 72.4678 91.5382 70.5263 102.245C70.3438 103.253 70.2092 104.339 69.5331 105.108C68.7194 106.029 67.3762 106.212 66.1587 106.391C51.0965 108.62 37.8889 120.409 33.9731 135.121C33.4735 136.997 33.0756 138.99 31.8461 140.494C31.1132 141.392 30.132 142.047 29.1836 142.717C24.1041 146.31 19.3895 151.186 17.0082 157.019C14.7436 162.563 16.4279 168.938 16.4907 174.846C16.4937 175.193 16.4967 175.552 16.362 175.875C16.1556 176.371 15.665 176.683 15.2193 176.985C9.69697 180.745 7.28282 187.557 5.20671 193.908C4.38105 196.426 3.54642 199.032 3.77378 201.674C4.21054 206.762 6.9358 206.595 10.6094 207.8C11.3034 208.031 12.0034 208.276 12.7004 208.533Z" fill="#C3A2DC"/>
<path opacity="0.13" d="M78.8577 479.71C73.5358 480.018 67.9956 480.389 63.4275 483.144C58.8595 485.896 55.6347 491.811 57.5492 497.025C59.0629 501.147 63.1613 503.582 67.0772 505.305C83.1296 512.377 100.875 513.338 118.172 513.652C148.108 514.373 178.041 513.984 207.893 512.395C219.515 511.776 231.679 509.655 243.316 509.924C253.99 510.173 273.063 515.596 275.741 501.186C277.682 490.734 264.553 487.901 255.013 485.184C229.881 478.032 203.984 481.367 178.319 481.095C145.461 480.751 111.591 477.819 78.8577 479.71Z" fill="black"/>
</svg>
