<svg width="259" height="514" viewBox="0 0 259 514" fill="none" xmlns="http://www.w3.org/2000/svg">
<path opacity="0.13" d="M64.6093 482.912C60.1936 483.321 55.5981 483.797 51.8077 486.495C48.0173 489.192 45.3418 494.834 46.9299 499.7C48.186 503.549 51.5863 505.748 54.8345 507.287C68.1507 513.587 82.8724 514.087 97.2233 513.991C122.057 513.991 146.891 512.948 171.656 510.776C181.298 509.929 191.389 507.658 201.042 507.646C209.898 507.638 225.721 512.317 227.942 498.682C229.553 488.791 218.66 486.42 210.747 484.08C189.9 477.913 168.414 481.639 147.124 481.963C119.863 482.386 91.7674 480.391 64.6093 482.912Z" fill="black"/>
<path d="M113.126 50.554C110.379 48.1055 107.125 46.3099 103.905 44.5309C93.7511 38.9338 82.0368 33.1624 71.0502 36.8726C61.8094 39.9934 55.9301 49.0351 52.1369 58.0214C48.3438 67.0049 45.7845 76.7217 39.8555 84.4657C46.9881 88.4775 53.6531 93.322 59.6707 98.8692C62.8773 90.4888 66.2085 81.9037 72.2012 75.2248C78.1939 68.5459 87.5288 64.0944 96.2024 66.3852C113.486 70.9503 119.863 101.21 140.686 95.8176C155.192 92.0603 145.768 83.6467 138.677 77.9141C128.562 69.7412 122.569 58.9648 113.126 50.554Z" fill="#B08FCF"/>
<path d="M120.555 79.3634C113.287 77.8942 106.827 73.8216 100.87 69.406C90.7132 61.8805 81.3534 53.063 69.9988 47.5074C58.6442 41.9519 44.3652 40.195 33.7493 47.0592C32.9773 47.5572 32.2082 48.1244 31.7517 48.9212C31.3422 49.6378 31.2177 50.4789 31.107 51.295C30.1719 58.0846 29.4415 65.256 32.092 71.5751C32.2248 71.8905 32.3853 72.2225 32.6868 72.383C33.0852 72.596 33.5694 72.43 33.9872 72.2585C43.0039 68.6009 52.2392 64.1907 61.9421 64.9239C69.9435 65.527 77.2891 69.6163 83.6442 74.5079C90.0022 79.4022 95.6546 85.1707 102.104 89.9433C105.208 92.2397 108.556 94.3286 112.288 95.3274C117.752 96.7882 123.41 95.734 128.606 93.7807C132.167 92.4444 140.392 89.7939 142.514 86.4628C148.029 77.8251 123.524 79.9637 120.555 79.3634Z" fill="#C3A2DC"/>
<path d="M144.307 92.1625C144.75 93.7423 145.566 95.1893 146.994 96.3984C150.474 99.3449 155.089 101.464 159.574 102.28C162.709 102.626 166.081 101.879 168.035 99.8042C170.978 96.6806 167.191 92.3645 165.459 89.6504C163.002 85.7991 163.425 79.9032 163.099 75.4128C163.08 75.1389 163.068 74.8401 163.237 74.6243C163.398 74.4224 163.674 74.3587 163.926 74.295C174.163 71.7718 171.25 57.5758 168.754 50.623C167.993 48.5065 167.141 46.3983 165.846 44.5584C164.551 42.7185 162.772 41.1525 160.628 40.4747C156.204 39.0747 151.943 41.4265 148.28 43.5817C144.468 45.8283 141.471 49.7543 141.159 54.2668C141.023 56.245 141.369 58.2205 141.715 60.1738C143.167 68.4075 144.601 76.7491 143.978 85.088C143.798 87.5033 143.69 89.9602 144.307 92.1625Z" fill="#FF7A5C"/>
<path d="M140.677 61.9082C140.672 60.4419 140.805 58.9617 140.943 57.5092C141.347 53.2761 141.873 48.8244 144.379 45.3909C146.2 42.8981 148.886 41.2021 151.562 39.6638C157.07 36.4959 161.395 36.7726 167.426 37.9623C168.746 38.2224 170.093 38.5101 171.222 39.2405C172.348 39.9709 173.22 41.2519 173.084 42.5882C172.937 44.0131 171.72 45.1005 170.447 45.7562C168.168 46.9293 165.525 46.5917 163.204 47.4937C166.737 51.3947 160.767 49.1287 159.331 48.8576C153.974 47.8533 152.148 52.5125 152.718 56.9863C152.978 59.017 153.061 61.1501 152.273 63.0398C151.274 65.4413 148.715 67.4666 146.828 69.0685C144.697 70.8807 142.487 69.597 141.524 67.0765C140.888 65.4275 140.683 63.6789 140.677 61.9082Z" fill="#2D1F30"/>
<path d="M150.339 57.1522C150.51 57 150.696 56.8672 150.898 56.7565C152.029 56.1451 153.592 56.5103 154.337 57.5589C155.535 59.2466 155.255 62.4864 153.407 63.6124C151.775 64.6057 149.077 63.0259 148.742 61.2358C148.546 60.1789 148.925 59.0861 149.501 58.1758C149.736 57.7996 150.01 57.4427 150.339 57.1522Z" fill="#FF7A5C"/>
<path d="M169.46 61.3521C169.698 62.7077 169.009 64.3428 167.913 65.2918C166.817 66.2436 165.401 66.5258 164.242 66.1717C163.082 65.8175 162.178 64.874 161.63 63.6954L169.46 61.3521Z" fill="white"/>
<mask id="mask0_1648_11329" style="mask-type:luminance" maskUnits="userSpaceOnUse" x="141" y="41" width="31" height="62">
<path d="M144.307 92.1627C144.75 93.7425 145.566 95.1895 146.994 96.3986C150.474 99.3452 155.089 101.464 159.574 102.281C162.709 102.627 166.081 101.879 168.035 99.8044C170.979 96.6808 167.191 92.3647 165.459 89.6506C163.002 85.7993 163.425 79.9035 163.099 75.4131C163.08 75.1392 163.068 74.8403 163.237 74.6245C163.398 74.4226 163.674 74.3589 163.926 74.2952C170.245 72.7376 171.88 65.3643 170.981 59.7977C170.251 55.263 168.605 50.8529 166.721 46.6807C166.281 45.7068 165.783 44.7163 164.953 44.0468C163.575 42.9373 159.306 41.8693 157.516 41.3962C154.176 40.5109 151.133 41.9081 148.283 43.5875C144.471 45.834 141.474 49.76 141.162 54.2725C141.026 56.2507 141.372 58.2262 141.718 60.1795C143.17 68.4132 144.603 76.7549 143.981 85.0938C143.798 87.5036 143.69 89.9604 144.307 92.1627Z" fill="white"/>
</mask>
<g mask="url(#mask0_1648_11329)">
<path d="M158.932 72.5244C159.984 75.3603 161.079 78.174 162.155 80.9988C162.786 81.0431 163.412 81.1261 164.037 81.2313C164.233 80.0997 164.181 78.8491 164.444 77.7894C164.654 76.9401 165.033 76.1682 165.464 75.4184C163.146 74.6271 160.93 73.7777 158.932 72.5244Z" fill="#2D1F30"/>
</g>
<path d="M152.361 58.4558C151.304 58.5305 150.436 59.6205 150.599 60.6664C150.759 61.7122 151.916 62.4897 152.948 62.2434" fill="#2D1F30"/>
<path d="M3.81895 222.738C2.78143 223.673 1.71624 224.639 1.09926 225.889C0.164113 227.787 0.390992 230.025 0.662131 232.125C0.972003 234.541 1.56961 237.335 3.76638 238.392C6.14023 239.535 8.95951 237.891 10.6306 235.858C12.3017 233.824 13.4693 231.304 15.6052 229.765C14.9329 232.463 15.0546 235.351 15.9455 237.982C16.034 238.24 16.1419 238.514 16.3715 238.66C16.6565 238.84 17.03 238.768 17.3399 238.641C19.1632 237.894 19.9185 235.766 20.4691 233.874C21.3765 230.753 22.2868 227.629 23.1943 224.508C24.0824 221.46 24.9733 218.234 24.1958 215.154C21.0252 202.607 7.80579 219.155 3.81895 222.738Z" fill="#FF7A5C"/>
<path d="M252.414 0.523259C249.65 1.74338 246.906 4.86422 246.139 7.20486C245.569 8.94513 245.437 10.9676 244.111 12.232C244.23 10.5056 243.472 8.73764 242.139 7.63649C241.89 7.42898 241.547 7.23807 241.256 7.37918C241.09 7.45941 240.988 7.63095 240.905 7.79695C240.061 9.49295 240.243 11.5182 240.722 13.3498C241.198 15.1813 241.95 16.9493 242.197 18.8279C242.75 22.9946 239.618 25.8996 239.557 29.773C239.483 34.5899 246.33 34.0282 249.078 32.5536C253.078 30.4094 253.546 25.9272 254.661 22.0151C256.196 16.6421 257.856 11.6621 258.028 5.98754C258.067 4.68995 258.042 3.34806 257.513 2.16114C256.988 0.974221 255.839 -0.0217718 254.542 0.000361955C253.856 0.0169623 253.134 0.205086 252.414 0.523259Z" fill="#FF7A5C"/>
<path d="M162.609 482.748C162.474 481.093 162.214 479.461 161.746 477.865C160.227 472.677 160.069 466.217 161.187 460.941C161.657 458.713 162.474 456.486 164.04 454.835C165.647 453.139 168.704 452.225 170.912 451.885C174.144 451.384 177.273 453.747 178.728 456.677C180.186 459.604 180.347 462.985 180.482 466.253C180.698 471.485 180.914 476.716 181.127 481.946C181.16 482.731 181.196 483.539 181.52 484.259C181.899 485.105 182.632 485.733 183.36 486.309C185.094 487.678 186.965 488.923 189.056 489.64C191.425 490.453 193.97 490.558 196.441 490.99C198.909 491.422 201.454 492.277 203.07 494.191C207.845 499.855 200.79 503.631 196.1 503.739C191.596 503.844 187.144 503.072 182.701 502.475C177.334 501.753 166.82 504.439 163.265 498.878C162.451 497.605 162.451 495.992 162.476 494.482C162.543 490.589 162.925 486.61 162.609 482.748Z" fill="#2D1F30"/>
<path d="M250.881 25.7637C246.975 25.0527 242.941 25.133 238.957 25.2187C235.512 33.9809 227.926 37.5832 225.051 46.8517C222.852 53.9511 221.078 61.3437 216.961 67.5328C210.13 77.8029 192.349 81.953 180.748 83.7513C174.976 84.6478 168.859 84.6616 163.735 87.4643C158.777 90.1729 155.441 95.1779 153.343 100.424C145.168 120.859 158.633 145.314 181.528 146.174C183.066 146.232 184.743 146.13 185.924 145.142C189.048 142.528 190.498 137.132 194.045 134.031C197.735 130.802 202.013 128.326 206.334 126.049C215.24 121.354 224.846 117.768 232.817 111.474C242.144 104.112 248.388 93.4127 252.292 82.1909C256.517 70.0423 261.588 53.94 256.976 41.9296C256.357 40.3139 256.196 38.5681 256.041 36.8445C255.814 34.3295 255.59 31.8173 255.363 29.3024C255.302 28.6217 255.228 27.9052 254.835 27.3463C254.337 26.638 253.443 26.3448 252.602 26.1345C252.035 25.9906 251.459 25.8689 250.881 25.7637Z" fill="#DB5334"/>
<path d="M140.42 342.398C139.059 305.424 141.386 267.445 157.281 233.531C160.897 225.817 169.379 220.087 178.056 219.6C181.517 219.407 184.892 220.569 188.165 221.717C193.638 223.637 199.509 225.861 202.649 230.736C203.936 232.734 204.658 235.041 205.236 237.346C213.19 269.144 214.953 298.042 209.868 330.903C205.557 358.755 198.488 386.132 194.379 414.018C191.845 431.218 190.611 448.784 186.223 465.658C184.486 472.34 183.835 475.184 177.265 476.908C173.25 477.959 160.172 479.716 158.73 475.395C145.431 435.468 143.084 394.1 140.874 352.411C140.697 349.083 140.545 345.743 140.42 342.398Z" fill="#4872A8"/>
<path d="M91.3081 465.537C90.882 472.417 89.4931 480.294 91.842 486.854C92.1685 487.77 92.542 488.686 93.1341 489.458C94.6475 491.428 96.8526 491.859 99.0549 492.413C101.124 492.933 103.031 493.887 105.078 494.562C108.409 495.661 111.931 496.955 113.959 500.013C114.371 500.635 114.712 501.346 114.681 502.091C114.651 502.815 114.272 503.479 113.835 504.058C111.472 507.201 107.319 508.592 103.388 508.515C99.4561 508.437 95.6712 507.087 92.0108 505.649C88.3505 504.21 84.6846 502.647 80.7918 502.104C78.714 501.814 76.5698 501.814 74.5971 501.108C71.5233 500.007 70.8593 497.943 70.8012 495.024C70.7763 493.752 70.9118 492.487 71.1027 491.228C71.2853 490.008 71.5205 488.794 71.7059 487.576C72.1651 484.574 72.3367 481.539 72.5082 478.51C72.8319 472.752 73.1584 466.997 73.4821 461.243C79.3033 463.105 85.2683 464.543 91.3081 465.537Z" fill="#2D1F30"/>
<path d="M138.428 233.561C136.303 231.171 133.816 229.137 130.969 227.629C102.491 212.52 83.4008 244.246 77.1535 267.771C71.6533 288.489 71.0363 310.147 70.4525 331.572C69.6391 361.436 68.8229 391.303 68.6486 421.178C68.5573 436.403 68.632 451.631 68.9557 466.853C69.036 470.613 67.3842 483.205 70.9201 484.992C73.0256 486.054 85.0608 483.202 88.1789 483.224C89.7836 483.235 91.4409 483.235 92.9155 482.604C95.732 481.401 97.132 478.28 98.1612 475.397C119.816 414.645 134.516 351.932 147.699 288.76C151.739 269.409 152.428 249.317 138.428 233.561Z" fill="#6A8BC4"/>
<path d="M92.0081 287.1C132.895 293.671 174.276 298.684 215.119 292.827C232.635 290.315 229.511 279.132 229.946 264.203C230.538 243.754 232.115 223.847 228.839 203.595C225.541 183.191 219.548 163.229 211.107 144.362C204.957 130.617 197.569 117.179 188.727 104.967C184.854 99.6163 179.862 97.4915 175.715 92.7825C172.644 89.2965 172.575 83.503 169.283 80.4956C164.798 76.3981 148.599 77.8312 142.556 77.2751C141.773 77.2032 140.957 77.1367 140.235 77.4466C139.181 77.9003 138.605 79.0264 138.016 80.0224C134.48 86.0013 128.103 89.4818 122.376 93.3303C113.533 99.2732 105.67 106.721 99.2486 115.29C93.2061 123.355 86.3474 133.957 83.5254 143.718C77.8425 163.367 76.6916 183.664 72.2427 203.343C66.6733 228.075 64.3409 253.435 66.0259 278.557C66.0923 279.536 66.1697 280.557 66.6733 281.398C67.5973 282.947 69.6005 283.393 71.3822 283.692C78.2382 284.843 85.1162 285.994 92.0081 287.1Z" fill="#C7402C"/>
<path d="M144.045 91.2408C143.867 90.6183 143.613 90.0705 143.262 89.6084C138.882 83.8509 120.135 89.6112 114.715 91.4373C88.6217 100.235 66.6263 118.684 49.4117 140.176C32.1972 161.668 19.3154 186.242 6.76831 210.755C15.121 215.862 23.4738 220.972 31.8292 226.08C45.9174 208.337 61.3252 191.648 77.8813 176.182C85.4482 169.116 93.3804 160.597 102.422 155.47C111.359 150.402 114.015 143.833 120.259 135.923C122.478 133.112 125.69 131.118 128.061 128.334C130.969 124.926 133.642 121.307 135.894 117.431C138.431 113.067 145.931 97.9252 144.045 91.2408Z" fill="#DB5334"/>
<path d="M170.124 78.8047C169.877 78.1629 169.584 77.5376 169.108 77.0479C168.076 75.9827 166.46 75.7974 164.983 75.6756C158.877 75.1693 152.771 74.663 146.665 74.1567C143.848 73.9215 140.796 73.7417 138.417 75.2717C136.66 76.4005 131.224 85.5029 135.241 86.5183C141.275 88.0428 147.395 89.2574 153.576 90.0044C157.557 90.4858 166.187 92.3257 169.648 89.5756C171.075 88.4412 171.67 86.5018 171.615 84.6785C171.559 82.8553 170.943 81.1011 170.331 79.3802C170.265 79.1893 170.195 78.9984 170.124 78.8047Z" fill="#C3A2DC"/>
<path d="M166.292 37.4034C161.627 30.6166 150.51 26.1539 143.704 32.3901C137.537 38.0397 135.371 51.0489 140.478 57.9408C141.214 58.934 142.75 59.4459 143.715 58.3585C149.949 51.356 156.257 44.4669 164.634 40.0069C165.132 39.7413 165.398 39.376 165.55 38.9859C166.209 38.8393 166.74 38.0591 166.292 37.4034Z" fill="#C7402C"/>
<path d="M168.964 35.6605C169.188 34.5926 168.32 33.2618 167.144 33.3448C160.719 33.7985 154.804 41.1055 150.292 45.2306C146.305 48.8744 138.613 53.8351 138.243 59.7061C138.154 61.1116 139.811 62.47 141.178 61.9443C146.227 60.0021 150.164 55.2987 154.179 51.7767C159.295 47.2835 164.867 42.9868 169.094 37.6166C169.601 36.9719 169.446 36.1226 168.964 35.6605Z" fill="#D9A809"/>
<path d="M130.905 135.279C122.558 144.312 112.985 151.765 102.815 158.632C93.9531 164.614 83.6167 169.708 75.7896 176.998C75.2861 177.465 75.9252 178.226 76.5007 177.922C86.8869 172.43 96.8969 164.882 106.564 158.181C115.788 151.788 124.512 144.738 131.675 136.05C132.112 135.517 131.39 134.756 130.905 135.279Z" fill="#2D1F30"/>
</svg>
