<svg width="202" height="526" viewBox="0 0 202 526" fill="none" xmlns="http://www.w3.org/2000/svg">
<path d="M109.495 525.528C160.266 525.528 201.425 514.167 201.425 500.152C201.425 486.137 160.266 474.775 109.495 474.775C58.7236 474.775 17.5652 486.137 17.5652 500.152C17.5652 514.167 58.7236 525.528 109.495 525.528Z" fill="#D6D8E5"/>
<path d="M79.9038 470.509V484.537C79.9038 484.537 100.556 496.813 100.556 498.566C100.556 500.322 57.2516 499.268 54.9193 496.463C52.5887 493.657 54.2537 472.262 54.2537 472.262L79.9038 470.509Z" fill="#29282D"/>
<path d="M155.644 470.509V484.537C155.644 484.537 176.296 496.813 176.296 498.566C176.296 500.322 132.993 499.268 130.661 496.463C128.33 493.657 129.995 472.262 129.995 472.262L155.644 470.509Z" fill="#29282D"/>
<path d="M27.7711 235.276C21.4024 234.341 4.11621 236.212 4.11621 251.177C4.11621 266.141 8.66503 318.518 16.8536 324.129C25.0422 329.742 45.0573 327.871 51.426 321.324C57.7947 314.78 54.1567 239.95 46.8772 235.276C39.5994 230.601 27.7711 235.276 27.7711 235.276Z" fill="#29282D"/>
<path d="M49.378 300.048C49.378 300.048 41.1895 461.389 43.9184 469.803C43.9184 469.803 66.4378 478.923 89.6365 469.103C91.0001 436.135 97.1424 313.378 97.1424 313.378L49.378 300.048Z" fill="#D63D36"/>
<path d="M152.414 301.449C152.414 301.449 161.572 461.388 158.844 469.803C158.844 469.803 136.327 478.923 113.126 469.103C111.761 436.134 105.62 313.378 105.62 313.378L152.414 301.449Z" fill="#D63D36"/>
<path d="M144.171 377.384C142.654 378.945 141.138 380.503 139.621 382.064C138.375 383.341 140.305 385.326 141.551 384.045C143.068 382.489 144.585 380.93 146.102 379.369C147.348 378.089 145.419 376.105 144.171 377.384Z" fill="#29282D"/>
<path d="M80.7617 383.713C77.2565 386.413 73.7478 389.129 69.8425 391.193C68.278 392.022 69.6587 394.443 71.2215 393.619C75.1251 391.55 78.6337 388.839 82.139 386.138C83.5298 385.066 82.1713 382.628 80.7617 383.713Z" fill="#29282D"/>
<path d="M78.6662 392.349C77.8406 393.102 76.7732 393.459 75.9373 394.218C74.6162 395.419 76.5535 397.397 77.8661 396.203C78.6901 395.452 79.7575 395.093 80.5968 394.336C81.9161 393.137 79.9771 391.157 78.6662 392.349Z" fill="#29282D"/>
<path d="M58.9319 308.465C55.1696 362.414 53.7498 416.479 51.426 470.508C51.3477 472.312 54.0766 472.311 54.1566 470.508C56.4787 416.479 57.8985 362.414 61.6625 308.465C61.7868 306.659 59.0578 306.67 58.9319 308.465Z" fill="#29282D"/>
<path d="M119.662 33.4863C119.662 33.4863 111.475 56.635 82.134 52.426C76.6744 48.217 58.251 56.6333 75.9917 70.6657C82.815 79.082 114.206 81.8892 121.027 70.6657C127.849 59.4422 119.662 33.4863 119.662 33.4863Z" fill="#F9BC9B"/>
<path d="M124.439 69.9643C124.439 69.9643 93.0497 68.5625 75.309 69.9643C70.532 80.4878 65.7568 92.4113 65.7568 92.4113C65.7568 92.4113 2.29966 118.371 0.478083 181.035C-1.34349 243.7 44.1499 257.727 44.1499 257.727C44.1499 257.727 42.3283 296.543 44.1499 306.83C52.3368 313.379 129.668 318.99 159.581 304.611C162.31 296.191 160.603 253.052 160.603 253.052C160.603 253.052 199.726 233.411 199.726 185.71C199.726 138.01 166.975 106.213 136.95 91.2457C137.855 80.0222 124.439 69.9643 124.439 69.9643Z" fill="#4A5582"/>
<path d="M119.662 6.83051C119.662 6.83051 98.1245 -7.81092 70.8742 5.7787C47.9002 17.2349 46.3084 44.7117 47.6737 74.8731C46.5365 88.202 43.239 94.0456 43.239 94.0456C43.239 94.0456 71.1414 100.519 77.3569 94.5146C78.38 90.3056 79.4032 51.0226 79.4032 51.0226C79.4032 51.0226 105.334 62.9496 119.662 33.4865C124.439 48.919 121.708 84.6947 121.708 94.5146C134.673 95.9182 146.956 91.0074 146.956 91.0074C146.956 91.0074 142.864 86.0983 141.498 64.3515C140.133 42.6063 143.543 13.1432 119.662 6.83051Z" fill="#29282D"/>
<path d="M72.4167 35.7391C81.6778 36.2939 83.2695 46.3465 81.4513 60.8445C79.8136 73.9021 75.7653 75.8079 69.7354 75.7029C67.7249 75.6662 48.2885 76.389 49.63 56.4097C50.9698 36.4304 61.0208 35.0583 72.4167 35.7391Z" fill="#D63D36"/>
<path d="M68.4858 37.6958C69.8238 23.4516 76.2538 11.0118 89.7743 5.80698C99.9053 1.90773 111.524 3.41459 121.347 7.4836C122.983 8.16089 123.685 5.44472 122.072 4.77618C110.911 0.157636 97.362 -1.09895 86.1942 4.2739C73.0874 10.5865 67.1017 23.3834 65.7568 37.6958C65.5849 39.4967 68.3172 39.4791 68.4858 37.6958Z" fill="#D63D36"/>
<path d="M70.2768 35.5048C76.271 36.2084 75.808 51.4361 75.6939 55.4543C75.5305 61.2105 74.3337 74.8018 66.7801 75.5771C65.0454 75.7556 65.0283 78.5663 66.7801 78.3843C76.523 77.3833 78.0296 63.2196 78.4228 55.4543C78.7327 49.3097 78.7276 33.69 70.2768 32.7011C68.5285 32.4911 68.5472 35.3018 70.2768 35.5048Z" fill="#29282D"/>
<path d="M161.732 178.884C157.797 181.25 153.783 183.551 149.876 186.017C151.539 182.118 154.644 178.957 158.689 177.709C160.371 177.188 159.655 174.479 157.964 175.002C152.348 176.738 148.194 181.488 146.55 187.207C146.446 187.57 146.5 187.883 146.621 188.142C142.025 191.255 137.682 194.715 133.965 198.965C131.88 201.348 130.341 204.008 129.144 206.819C113.581 199.043 91.5176 200.566 76.2283 208.359C73.5214 203.676 69.96 199.507 66.1381 195.79C61.8821 191.653 57.0183 188.231 51.8634 185.328C51.8651 185.293 51.8822 185.275 51.8805 185.24C51.7834 180.457 49.0937 176.631 44.5091 175.468C42.8016 175.037 42.0763 177.743 43.7855 178.177C46.6983 178.917 48.491 180.956 48.9966 183.761C45.3109 181.862 41.5077 180.207 37.6858 178.742C36.0328 178.11 35.328 180.821 36.9606 181.449C44.6555 184.393 51.877 188.17 58.5845 193.047C63.6883 196.756 70.7737 203.09 74.6399 209.966C74.6603 210.419 74.897 210.86 75.2698 211.131C76.5364 213.65 77.3434 216.221 77.4268 218.753C77.7213 227.672 74.7523 236.391 70.2511 243.888C68.8126 246.289 67.0846 248.496 65.2409 250.577C64.6638 251.226 64.0441 251.834 63.4211 252.434C62.4915 253.334 62.1851 253.262 62.3962 253.349C62.2737 253.444 62.1392 253.517 62.0132 253.607C61.6489 253.677 61.3288 253.873 61.1433 254.193C56.1586 257.345 49.6214 258.192 43.92 257.719C42.1666 257.574 42.1785 260.383 43.92 260.527C49.635 260.999 56.2659 260.173 61.4753 257.264C63.1589 262.058 68.6713 264.407 73.1469 266.046C82.2395 269.38 92.4335 270.32 102.02 270.602C111.415 270.877 121.347 269.853 130.545 267.938C137.363 266.515 143.691 262.989 144.205 255.637C149.883 256.239 155.926 255.378 160.969 254.398C162.695 254.062 161.961 251.358 160.244 251.692C150.906 253.503 140.05 254.375 132.459 247.38C126.456 241.849 127.554 229.193 128.32 221.816C129.348 211.964 132.51 203.905 139.624 197.038C146.41 190.487 155.143 186.091 163.114 181.306C164.629 180.394 163.255 177.97 161.732 178.884ZM131.865 250.598C134.568 253.089 137.891 254.499 141.459 255.218C140.903 264.421 129.267 265.616 122.067 266.472C115.431 267.254 108.705 267.908 102.02 267.802C94.4423 267.683 86.8462 266.713 79.4594 264.981C74.8153 263.892 65.2018 261.652 63.8688 255.838C66.0904 254.55 68.5607 250.962 69.3182 250.015C74.914 243.034 78.8874 234.019 79.8084 224.994C80.394 219.248 79.9838 215.706 77.5851 210.792C92.1219 203.401 113.46 201.931 128.148 209.429C126.466 214.385 125.719 219.726 125.298 225.005C124.607 233.689 125.145 244.405 131.865 250.598Z" fill="#323850"/>
<path d="M162.024 115.269C152.212 126.57 150.797 142.181 151.051 156.714C151.078 158.523 153.81 158.527 153.78 156.714C153.543 142.989 154.655 127.965 163.955 117.256C165.126 115.908 163.201 113.916 162.024 115.269Z" fill="#323850"/>
<path d="M50.0606 159.05C50.0725 160.86 52.8015 160.862 52.7896 159.05C52.6993 144.426 51.3885 123.521 37.5582 115.287C36.0328 114.377 34.6589 116.801 36.1809 117.709C49.0255 125.359 49.9789 145.527 50.0606 159.05Z" fill="#323850"/>
<path d="M100.193 177.241C102.546 177.922 104.951 177.984 107.381 177.99C108.193 177.99 108.652 177.344 108.744 176.59C109.384 171.299 108.722 165.989 106.509 161.148C106.306 160.704 105.985 160.499 105.637 160.452C106.47 130.395 106.019 100.26 106.019 70.1986C106.019 68.3925 103.288 68.3925 103.288 70.1986C103.288 101.508 103.817 132.903 102.83 164.199C102.828 164.304 102.864 164.383 102.876 164.474C102.779 164.615 102.697 164.785 102.653 164.992C101.875 168.627 100.578 172.066 99.2414 175.515C98.9622 176.229 99.5376 177.048 100.193 177.241Z" fill="#323850"/>
<path d="M139.141 92.6298C117.57 128.439 93.8516 165.364 69.6724 199.443C70.321 200.237 71.8464 202.11 73.2509 203.855C73.29 203.807 73.336 203.765 73.3751 203.713C97.9068 169.236 121.982 131.771 143.851 95.4632C145.712 92.3795 140.989 89.5601 139.141 92.6298Z" fill="#29282D"/>
</svg>
