<svg width="227" height="514" viewBox="0 0 227 514" fill="none" xmlns="http://www.w3.org/2000/svg">
<path opacity="0.13" d="M21.5975 481.16C16.3427 481.593 10.8715 482.097 6.36009 484.945C1.84868 487.793 -1.33549 493.755 0.555655 498.895C2.05091 502.96 6.09812 505.284 9.96586 506.907C25.8184 513.56 43.3428 514.09 60.4258 513.99C89.9863 513.99 119.55 512.888 149.031 510.595C163.251 509.488 177.435 508.035 191.615 506.449C192.379 506.363 222.902 503.113 218.527 497.01C200.231 471.494 147.131 479.79 119.826 480.16C87.3718 480.605 53.9236 478.497 21.5975 481.16Z" fill="black"/>
<path d="M140.25 3.05606C142.349 5.34595 143.05 8.66681 145.197 10.9083C148.259 14.1067 153.326 14.2178 157.677 13.4118C162.029 12.6029 166.418 11.0963 170.782 11.8453C175.145 12.5944 179.36 16.8067 178.067 21.039C177.611 22.5286 176.526 23.9726 176.914 25.4821C177.253 26.8007 178.591 27.5754 179.841 28.108C183.843 29.8055 188.189 30.5118 192.291 31.9472C196.392 33.3827 200.453 35.7723 202.387 39.6657C204.478 43.8723 203.657 48.9562 202.008 53.3565C198.704 62.1742 192.362 69.5993 185.042 75.5177C176.364 82.5382 165.721 87.7816 154.556 87.6877C143.394 87.5937 131.888 81.2054 128.046 70.7243C124.941 62.254 126.761 51.8385 120.962 44.929C118.983 42.5707 116.243 40.8419 114.694 38.179C112.7 34.7527 113.065 30.5033 113.489 26.5615C114.247 19.5238 115.158 8.93735 120.951 3.88195C125.665 -0.225021 135.69 -1.91674 140.25 3.05606Z" fill="#2D1F30"/>
<path d="M186.466 338.014C186.591 355.812 186.58 373.61 186.429 391.405C186.392 395.887 182.24 463.559 183.037 463.715C176.811 462.491 170.329 462.587 164.143 463.997C148.188 415.762 136.787 366.022 130.142 315.653C127.949 299.026 126.491 280.388 136.18 265.697C145.829 251.067 166.714 252.417 176.654 265.979C185.244 277.699 185.896 293.253 186.127 307.784C186.281 317.861 186.395 327.937 186.466 338.014Z" fill="#8A443E"/>
<path d="M108.661 276.52C100.946 254.817 81.6899 250.172 67.2955 268.448C42.7391 299.629 46.772 344.818 47.2903 381.971C47.6577 408.444 48.122 434.915 48.5919 461.388C55.1796 462.234 61.6363 463.732 68.0901 465.373C68.3863 464.925 68.711 464.495 68.9844 464.034C71.9835 458.964 73.6183 453.114 75.1905 447.392L102.828 346.794C108.829 324.944 116.616 298.892 108.661 276.52Z" fill="#8A443E"/>
<path d="M117.115 46.6607C114.181 47.2901 111.253 48.3296 108.986 50.292C106.261 52.6531 104.745 56.1306 103.82 59.6167C103.071 62.4306 102.669 65.5123 103.817 68.1924C104.896 70.7187 107.243 72.5386 109.804 73.5326C112.364 74.5266 115.144 74.7915 117.887 74.9367C124.879 75.3098 132.477 74.7801 137.866 70.3086C142.397 66.5491 149.159 55.4926 143.292 51.0382C136.428 45.829 125.229 44.9205 117.115 46.6607Z" fill="#C7402C"/>
<path d="M145.28 499.254C150.537 498.975 157.524 496.702 159.247 495.859C165.105 492.994 170.101 488.639 174.72 484.039C175.512 487.206 175.421 490.339 175.302 493.543C179.021 494.748 182.775 492.959 186.537 493.825C187.192 490.086 188.403 451.089 185.481 450.899C175.791 450.263 166.173 450.446 156.55 450.392C159.831 457.099 159.771 465.17 157.19 472.174C154.61 479.18 149.677 485.164 143.81 489.784C142.073 491.154 140.147 492.546 139.432 494.643C138.128 498.476 141.178 499.47 145.28 499.254Z" fill="#2D1F30"/>
<path d="M27.4617 497.591C38.1535 497.95 49.3039 490.385 57.5007 484.008C57.7343 487.645 58.0361 491.052 58.6456 494.675C62.6301 493.786 66.6773 493.182 70.7473 492.866C72.1343 486.073 73.3362 479.243 74.3558 472.388C75.2843 466.134 77.6311 457.868 76.5602 451.668C65.5722 451.591 55.1254 452.816 44.0633 450.876C47.8684 451.543 45.9858 465.427 45.1057 467.606C43.4481 471.707 40.9788 475.478 37.8345 478.594C33.4171 482.969 27.8604 486.09 21.9933 488.141C20.5037 488.662 18.8034 489.286 18.2395 490.758C17.7753 491.969 18.2965 493.379 19.188 494.319C20.7202 495.936 23.3206 497.246 25.5222 497.466C26.163 497.525 26.8123 497.568 27.4617 497.591Z" fill="#2D1F30"/>
<path d="M42.1267 56.0564C40.6457 55.6348 39.3612 54.7064 38.3615 53.4703C36.8776 51.6333 37.2051 50.2633 37.6694 48.019C39.233 40.4573 42.8131 34.0519 44.1659 26.4446C45.4476 19.2389 45.8919 11.66 49.4549 5.10083C50.3776 3.40336 51.7618 1.6518 53.6871 1.52079C56.2533 1.34705 58.0078 4.08975 58.6799 6.5733C59.5372 9.74894 59.1897 12.9616 59.1413 16.1885C59.1441 16.0746 63.1315 13.1753 63.5388 12.9902C65.5211 12.093 66.5037 13.3319 65.6293 15.3882C63.5388 20.3126 60.4913 24.4595 58.9476 29.6972C57.4154 34.895 56.5552 40.275 54.8691 45.4272C54.0147 48.0361 52.9096 50.6165 51.1125 52.69C49.3153 54.7634 46.7378 56.2871 43.9922 56.307C43.3428 56.3127 42.7191 56.2244 42.1267 56.0564Z" fill="#4872A8"/>
<path d="M200.393 264.205C201.256 226.682 196.264 187.625 156.399 176.133C149.008 174.003 141.312 172.943 133.619 172.929C97.8643 172.858 63.4107 197.642 52.1123 231.566C48.3015 243.004 46.9486 255.094 45.6499 267.082C45.1486 271.71 39.2359 339.034 40.1388 339.142C70.9012 342.91 101.661 346.678 132.423 350.446C152.992 352.964 177.668 353.858 190.135 337.305C197.101 328.054 198.061 315.739 198.485 304.167C198.924 292.077 200.069 278.249 200.393 264.205Z" fill="#6A8BC4"/>
<path d="M176.637 140.024C177.899 146.299 178.93 152.619 179.733 158.967C180.992 168.933 181.65 179.274 178.551 188.83C178.002 190.527 177.278 192.264 175.885 193.378C174.071 194.828 171.556 194.902 169.235 194.899C132.241 194.831 95.2555 191.176 58.962 184.005C58.25 183.865 57.5095 183.709 56.937 183.264C55.4218 182.085 55.8803 179.724 56.4927 177.904C65.4129 151.371 76.0051 125.399 88.1779 100.191C97.6963 80.4789 102.33 53.439 129.598 54.2393C144.568 54.6779 148.737 63.1994 154.613 75.1587C164.712 95.7049 172.129 117.576 176.637 140.024Z" fill="#2D1F30"/>
<path d="M83.8716 117.553C82.0147 119.171 79.9697 120.612 77.6941 121.834C67.5747 127.262 53.6589 128.447 44.2914 120.814C35.0721 113.301 33.218 100.157 32.3237 88.3C30.8085 68.1895 32.4974 49.1955 40.5176 30.4919C40.7113 30.0391 40.9221 29.572 41.2952 29.253C44.3057 26.6811 57.3842 30.153 61.1921 30.5289C61.3487 34.9093 61.6563 39.284 62.1092 43.6444C62.4794 47.2131 62.1547 50.6195 62.5392 54.1626C63.3652 61.73 65.9769 69.1038 70.1323 75.4864C70.5453 76.1215 71.0153 76.7822 71.7187 77.0671C72.8324 77.5199 74.0684 76.8819 75.0851 76.2411C78.0358 74.3756 80.844 72.2851 83.4814 69.9981C87.9842 66.0905 92.0571 61.8155 96.9302 58.3493C101.664 54.98 105.859 50.9243 111.456 48.9306C111.769 48.8195 112.099 48.7113 112.43 48.7483C113.019 48.8138 113.472 49.3379 113.643 49.9047C113.814 50.4714 113.754 51.0809 113.686 51.6676C112.005 66.3354 105.497 80.1373 99.485 93.4551C95.509 102.264 91.1201 111.242 83.8716 117.553Z" fill="#DB5334"/>
<path d="M111.333 20.8971C111.005 20.8658 110.689 20.9086 110.379 20.9826C109.935 20.9 109.45 20.9227 108.961 21.0965C106.907 21.8228 105.529 24.1839 105.004 26.1747C104.452 28.2766 104.643 30.9083 105.922 32.7311C107.337 34.7504 109.747 34.0867 111.319 32.6456C113.546 30.5978 116.255 21.3784 111.333 20.8971Z" fill="#C7402C"/>
<path d="M118.274 49.6797C118.237 49.019 118.137 48.3724 117.952 47.7402C116.904 44.1259 113.119 42.0525 111.734 38.5864C110.347 35.1088 109.65 30.8822 110.43 27.1768C111.609 21.5689 114.511 13.4603 120.757 12.0818C130.384 9.96284 135.852 20.7628 135.522 28.7546C135.354 32.8302 134.314 36.8291 134.098 40.9047C133.753 47.3955 136.815 55.242 133.238 61.2373C130.842 65.256 125.585 66.7314 120.934 66.2301C119.04 66.025 116.864 65.2759 116.334 63.4474C116.18 62.9205 116.189 62.3595 116.223 61.8127C116.468 57.9934 118.499 53.6187 118.274 49.6797Z" fill="#FF7A5C"/>
<path d="M111.997 0.817262C113.478 0.361564 115.064 0.199251 116.608 0.330264C121.432 0.737543 125.995 2.98755 130.828 3.42331C132.406 3.56571 134.055 3.59702 135.454 4.34037C137.268 5.30588 138.293 7.2768 139.037 9.19358C140.566 13.1525 144.818 31.3747 137.143 32.1892C133.244 32.6022 132.067 26.137 130.828 23.6278C127.975 17.8404 125.471 17.9515 119.373 17.6838C116.32 17.5499 112.259 17.8803 109.356 17.1768C103.8 15.8325 104.264 7.0432 107.44 3.61122C108.667 2.284 110.262 1.34986 111.997 0.817262Z" fill="#2D1F30"/>
<path d="M130.139 25.3166C131.059 24.3938 132.528 24.1689 133.776 24.542C135.023 24.9151 136.06 25.8094 136.846 26.849C137.345 27.5097 137.763 28.2417 137.977 29.042C138.566 31.2521 137.333 33.8012 135.234 34.7097C133.135 35.6183 130.432 34.7696 129.228 32.8243" fill="#FF7A5C"/>
<path d="M122.125 34.3171C121.267 36.3193 118.829 37.4899 116.733 36.9088C114.637 36.3278 113.15 34.0664 113.449 31.9104" fill="white"/>
<path d="M119.604 44.1597C120.606 44.2593 121.706 44.3163 122.697 44.0515C120.775 46.0964 118.875 48.2866 118.123 50.9582C118.123 50.9268 118.12 50.8927 118.12 50.8613C118.26 50.2519 117.072 45.5639 115.947 44.2936C115.944 44.2765 115.938 44.2594 115.936 44.2423L115.825 44.1569C115.619 43.9404 115.403 43.7439 115.169 43.5645C115.3 43.5787 115.431 43.573 115.562 43.5844C116.844 44.0144 118.251 44.023 119.604 44.1597Z" fill="#2D1F30"/>
<path d="M132.469 27.9771C133.263 28.1195 133.99 28.6976 134.215 29.4723C134.44 30.247 134.092 31.1754 133.372 31.54C133.084 31.6852 132.759 31.7394 132.443 31.7906C132.435 31.6967 132.429 31.5998 132.42 31.5058" fill="#2D1F30"/>
<path d="M115.896 49.5547C115.312 49.0904 114.494 48.8198 113.366 48.8255C109.621 48.8426 105.813 51.4259 103.127 53.8097C97.3857 58.905 93.9394 66.0168 90.2454 72.6016C84.2302 83.3191 80.7641 95.3723 75.4267 106.426C59.5343 139.336 45.7067 173.242 34.0608 207.881C33.2633 210.256 32.6653 213.338 34.6418 214.879C35.388 215.46 36.3563 215.662 37.2848 215.847C56.5153 219.647 75.8967 222.651 95.3664 224.933C92.3018 224.54 100.707 151.443 101.595 144.682C103.546 129.82 105.363 114.93 107.958 100.16C109.251 92.8004 110.735 85.4751 112.529 78.2209C114.255 71.243 116.263 64.3791 116.989 57.1933C117.251 54.5788 117.792 51.0585 115.896 49.5547Z" fill="#C7402C"/>
<path d="M194.971 183.162C195.29 166.492 196.417 149.788 195.486 133.144C194.036 107.177 186.537 79.8383 166.848 62.8465C162.616 59.1924 157.632 56.632 152.539 54.4019C147.461 52.1804 142.449 49.8193 137.319 47.7202C136.906 47.5493 136.465 47.3814 136.023 47.4497C133.83 47.7886 133.198 53.4734 132.799 55.0684C131.925 58.5772 131.079 62.0918 130.264 65.6149C128.618 72.7238 127.086 79.8611 125.665 87.0184C122.791 101.495 120.364 116.063 118.354 130.686C116.161 146.646 114.457 162.673 113.255 178.739C112.654 186.771 112.179 194.814 111.831 202.863C111.623 207.636 108.881 219.319 113.059 222.426C125.528 230.082 139.825 229.327 153.878 231.401C163.627 232.836 173.539 234.274 183.296 232.899C196.133 231.087 196.677 222.233 195.685 211.125C194.865 201.823 194.791 192.498 194.971 183.162Z" fill="#C7402C"/>
<path d="M143.061 22.7449C141.939 20.9848 140.364 20.0107 138.72 19.6689C138.575 15.1803 136.977 11.005 134.363 7.12587C132.369 4.16953 130.831 1.71445 126.983 1.61192C125.941 1.58344 124.545 1.27014 123.756 1.9309C124.56 3.43755 126.505 3.72812 127.701 4.86167C128.854 5.95535 129.797 7.26262 130.711 8.55566C132.557 11.1674 134.109 13.7791 134.773 16.9262C134.969 17.8633 135.132 18.749 135.308 19.6149C131.255 21.1158 129.199 28.4839 130.509 32.1039C132.047 36.3475 137.592 37.4127 141.096 34.9775C144.938 32.3117 145.467 26.5215 143.061 22.7449Z" fill="#C7402C"/>
<path d="M194.925 223.583C192.735 225.48 191.166 227.878 188.591 229.359C184.746 231.572 180.049 231.734 175.735 231.503C168.002 231.09 160.246 229.874 152.554 229.003C147.327 228.41 142.098 227.815 136.869 227.225C136.792 227.157 136.73 227.075 136.604 227.055C129.006 225.827 120.49 223.85 115.295 217.764C115.05 217.476 114.728 217.328 114.389 217.26C115.192 190.046 117.377 162.889 121.096 135.915C124.816 108.952 129.974 81.8778 137.806 55.8603C138.344 54.0689 138.891 52.2262 138.729 50.3635C138.569 48.5008 137.536 46.5869 135.781 45.9461C135.747 45.9347 135.716 45.9233 135.681 45.9119C135.465 45.8436 135.231 45.8122 135.032 45.9091C134.819 46.0144 134.696 46.2395 134.591 46.4531C131.617 52.4455 132.064 58.2385 130.452 64.5329C128.353 72.7269 126.491 80.975 124.847 89.2744C121.683 105.252 119.268 121.37 117.092 137.507C115.033 152.776 113.449 168.107 112.327 183.473C111.766 191.154 111.322 198.844 110.988 206.54C110.795 211.051 108.249 222.498 112.23 225.693C113.842 226.986 115.916 227.513 117.924 228.009C125.101 229.78 131.757 230.732 139.085 231.589C148.259 232.66 157.433 233.736 166.609 234.801C175.43 235.827 196.338 238.031 197.312 224.469C197.409 223.136 195.714 222.899 194.925 223.583Z" fill="#FFD6D6"/>
<path d="M117.886 46.6436C117.348 44.9091 114.566 45.3307 114.697 47.1962C115.759 62.4734 109.749 78.2634 106.77 93.179C103.808 108.015 101.296 122.942 99.2484 137.931C97.3801 151.602 95.7652 165.31 94.6088 179.061C94.0164 186.107 93.5379 193.168 93.219 200.231C92.9598 205.936 93.2987 212.637 91.0971 217.977C90.7952 218.712 90.425 219.461 89.787 219.937C88.8728 220.62 87.6282 220.598 86.4861 220.546C81.0348 220.296 75.5835 220.045 70.1322 219.792C58.7027 219.265 47.0653 217.573 36.2966 213.509C36.1229 213.358 35.9263 213.23 35.69 213.161C35.2286 213.03 34.7643 212.896 34.3029 212.765C31.9248 212.085 30.4495 215.836 32.7536 216.864C42.4087 221.176 52.827 222.796 63.2739 223.873C68.4575 224.409 73.6553 224.827 78.836 225.391C83.1709 225.864 88.2405 227.359 92.5838 226.878C99.4677 226.112 97.0924 214.252 97.363 209.219C97.8301 200.59 98.337 191.963 98.9493 183.344C100.154 166.395 101.763 149.466 104.21 132.648C106.389 117.678 109.029 102.774 112.122 87.964C113.668 80.5646 115.414 73.2165 117.083 65.8456C118.527 59.4886 119.869 53.0177 117.886 46.6436Z" fill="#FFD6D6"/>
<path d="M54.5871 114.016C52.978 113.623 50.7764 113.663 49.4833 112.469C48.8738 111.908 48.4466 110.285 49.4833 109.94C51.027 109.425 50.2893 107.072 48.72 107.525C46.2678 108.234 45.6925 111.211 46.7349 113.295C48.1818 116.186 51.9185 116.357 54.6384 115.431C55.3248 115.201 55.302 114.19 54.5871 114.016Z" fill="#2D1F30"/>
<path d="M196.782 174.074C197.867 174.917 198.622 176.113 199.038 177.469C199.653 179.483 198.927 180.508 197.796 182.208C193.982 187.944 188.887 192.054 185.236 197.898C181.775 203.435 178.884 209.559 173.752 213.799C172.425 214.896 170.693 215.887 169.056 215.352C166.874 214.64 166.336 211.786 166.609 209.507C166.957 206.594 168.315 204.05 169.429 201.396C169.389 201.49 165.122 202.561 164.726 202.578C162.787 202.661 162.385 201.308 163.795 199.895C167.164 196.514 171.066 194.099 174.091 190.28C177.09 186.489 179.594 182.322 182.704 178.62C184.279 176.746 186.053 174.977 188.232 173.86C190.411 172.744 193.051 172.34 195.329 173.24C195.862 173.456 196.346 173.738 196.782 174.074Z" fill="#4872A8"/>
<path d="M153.562 61.0121C155.271 59.4114 157.635 58.4687 160.836 58.5456C164.624 58.6368 168.218 60.1462 171.704 61.6301C174.14 62.6668 176.578 63.7035 179.013 64.7402C190.921 69.8099 202.86 73.6605 212.068 83.4836C233.058 105.875 228.14 137.635 215.699 162.989C209.046 176.546 200.439 189.972 188.622 199.564C188.132 199.96 187.603 200.367 186.976 200.436C186.301 200.507 185.654 200.171 185.059 199.84C179.557 196.781 174.228 193.409 169.107 189.749C173.433 181.581 175.885 172.573 178.301 163.649C180.639 155.017 182.476 145.871 181.422 136.897C180.377 128.005 177.045 122.836 170.195 117.803C159.782 110.151 154.035 97.0492 150.999 84.8564C149.293 78.0209 148.088 66.1387 153.562 61.0121Z" fill="#DB5334"/>
<path d="M214.23 125.413C213.999 121.813 213.031 117.37 214.044 113.864C214.307 112.959 215.807 112.845 216.141 113.765C217.388 117.225 216.725 121.645 216.727 125.279C216.73 126.692 214.324 126.846 214.23 125.413Z" fill="#2D1F30"/>
<path d="M162.052 185.494C161.739 185.754 161.548 186.135 161.625 186.602C156.985 195.873 156.114 208.741 163.243 217.094C169.038 223.89 182.037 221.546 186.72 214.508C176.691 206.616 167.35 197.135 162.052 185.494Z" fill="#2D1F30"/>
</svg>
