<svg width="226" height="527" viewBox="0 0 226 527" fill="none" xmlns="http://www.w3.org/2000/svg">
<path d="M129 527C177.601 527 217 519.165 217 509.5C217 499.835 177.601 492 129 492C80.3989 492 41 499.835 41 509.5C41 519.165 80.3989 527 129 527Z" fill="#D6D8E5"/>
<path d="M189.723 243.965C191.951 294.395 181.527 324.74 178.802 344.516C177.722 352.354 181.94 370.249 181.455 387.909C180.435 425.039 177.388 439.867 175.296 456.089C173.373 471.008 171.281 480.252 174.427 485.151C179.854 493.597 211.022 509.68 199.667 511.977C188.03 512.284 180.373 509.103 169.051 506.4C163.31 505.031 152.878 506.786 151.688 501.006C150.826 496.828 152.089 493.013 153.076 488.861C154.752 481.799 154.185 467.753 153.51 460.527C149.952 422.588 143.707 412.179 149.259 358.396C150.673 344.695 139.922 288.947 139.152 257.132C137.605 235.87 148.002 227.669 158.975 225.33C166.323 223.763 184.552 238.517 189.723 243.965Z" fill="#F38E5C"/>
<path d="M157.958 482.115C157.725 484.187 157.889 486.279 157.681 488.356C157.458 490.566 156.215 492.92 156.295 495.114C156.371 497.198 157.827 498.881 159.904 497.97C160.453 497.73 160.25 496.901 159.745 496.755C157.233 496.034 159.354 490.237 159.493 488.356C159.649 486.219 159.607 484.053 159.203 481.947C159.057 481.189 158.032 481.464 157.958 482.115Z" fill="#E28054"/>
<path d="M159.928 343.552C162.892 347.592 169.459 349.234 173.645 346.139C174.271 345.676 173.937 344.466 173.068 344.77C168.598 346.33 164.565 346.043 160.956 342.76C160.438 342.287 159.468 342.921 159.928 343.552Z" fill="#E28054"/>
<path d="M82.983 245.395C82.983 276.698 87.8993 306.866 93.0904 344.516C94.1697 352.353 89.9515 370.248 90.4367 387.908C91.4566 425.038 94.5039 439.866 96.5957 456.088C98.5191 471.008 100.611 480.251 97.4646 485.15C92.0383 493.596 60.8696 509.68 72.2246 511.977C83.8618 512.284 91.0952 509.449 102.42 506.746C108.161 505.377 119.016 506.783 120.204 501.005C121.066 496.827 119.803 493.012 118.816 488.861C117.14 481.798 117.704 467.752 118.382 460.526C121.937 422.587 128.185 412.178 122.633 358.396C121.219 344.694 132.829 288.936 133.599 257.124C140.001 236.471 124.343 232.149 112.919 225.329C106.468 221.477 88.1568 239.947 82.983 245.395Z" fill="#F38E5C"/>
<path d="M112.691 481.947C112.288 484.049 112.243 486.222 112.402 488.356C112.54 490.22 114.677 496.033 112.149 496.755C111.649 496.899 111.441 497.731 111.991 497.971C114.053 498.874 115.523 497.201 115.6 495.114C115.669 493.178 114.612 491.171 114.34 489.257C114.001 486.883 114.201 484.492 113.937 482.115C113.862 481.469 112.838 481.185 112.691 481.947Z" fill="#E28054"/>
<path d="M110.937 342.759C107.327 346.041 103.295 346.329 98.824 344.769C97.9601 344.467 97.616 345.673 98.2473 346.138C102.433 349.232 109.001 347.591 111.964 343.551C112.422 342.93 111.461 342.284 110.937 342.759Z" fill="#E28054"/>
<path d="M220.188 276.151C219.307 280.911 217.807 285.597 217.839 290.454C217.908 300.559 224.528 309.337 225.652 319.367C225.894 321.531 225.818 323.917 224.577 325.623C222.075 329.059 216.876 327.574 213.393 329.759C211.326 331.057 209.972 333.601 207.702 334.398C204.895 335.384 201.947 333.245 200.112 330.725C197.107 326.593 195.716 321.103 196.352 315.872C196.835 311.904 198.414 308.168 198.882 304.2C199.922 295.4 195.429 286.58 196.765 277.826C197.483 273.121 199.823 268.932 201.452 264.503C204.09 257.329 204.86 249.346 203.65 241.729C203.377 240.014 203.006 238.291 203.13 236.555C203.548 230.703 208.868 230.958 211.871 234.446C214.141 237.083 215.572 241.382 216.903 244.638C220.914 254.438 222.139 265.612 220.188 276.151Z" fill="#D9CCAE"/>
<path d="M200.741 151.198C208.376 173.943 208.821 203.74 210.688 221.108C210.953 223.581 213.933 233.686 213.344 236.102C212.636 239.001 211.829 241.35 209.995 243.704C208.393 245.761 205.21 245.915 201.204 245.355C198.647 244.999 196.81 245.635 193.931 243.64C192.082 242.358 192.129 241.172 192.773 239.016C193.535 236.461 197.575 237.471 194.798 233.307C193.644 231.577 197.739 223.133 197.268 221.108C193.912 206.641 191.253 196.777 187.322 183.647C184.292 173.527 184.079 167.989 182.071 160.689C176.348 139.87 163.493 126.884 158.458 105.89C156.636 98.2948 151.935 70.2922 163.934 73.5871C176.566 77.0552 180.022 94.9281 183.044 102.035C187.21 111.821 197.063 140.234 200.741 151.198Z" fill="#FA9664"/>
<path d="M92.9022 133.089C95.645 142.54 102.064 161.198 99.9474 168.832C93.9988 190.299 91.4218 190.995 88.5503 202.1C119.018 215.881 169.731 216.292 182.074 207.477C179.957 192.554 175.873 185.002 169.538 167.203C164.421 152.828 170.087 133.668 168.414 130.049C159.96 111.757 162.399 93.8177 163.933 73.5906C160.713 72.0954 156.626 71.2686 151.935 70.2957C148.457 69.5753 148.244 84.5173 146.679 87.7057C141.741 97.7636 136.436 100.462 125.635 97.4739C116.986 95.0826 110.872 77.3929 104.99 71.2116C104.99 71.2116 96.353 72.1523 90.0727 73.8752C90.0727 73.8752 100.626 94.0578 100.626 107.938C100.633 118.236 92.9022 133.089 92.9022 133.089Z" fill="#FE9CA5"/>
<path d="M107.597 132.148C106.111 136.287 113.268 137.859 116.095 138.277C121.704 139.107 128.173 137.805 132.351 133.809C132.963 133.225 132.181 132.237 131.455 132.648C127.856 134.698 124.487 136.46 120.266 136.701C117.427 136.861 108.5 136.339 108.404 132.257C108.394 131.779 107.75 131.717 107.597 132.148Z" fill="#ED8894"/>
<path d="M138.575 133.348C144.981 138.982 155.774 140.098 163.409 136.544C164.114 136.214 163.612 135.11 162.889 135.308C153.928 137.776 147.318 136.833 139.023 132.769C138.669 132.595 138.24 133.053 138.575 133.348Z" fill="#ED8894"/>
<path d="M120.444 159.074C130.084 168.179 143.36 177.093 156.675 179.323C157.148 179.402 157.554 178.704 157.034 178.474C151.011 175.828 144.756 173.979 138.914 170.847C132.492 167.404 126.611 163.158 121.026 158.492C120.628 158.158 120.053 158.705 120.444 159.074Z" fill="#ED8894"/>
<path d="M118.316 173.033C125.259 178.637 133.711 182.318 142.224 184.853C142.971 185.076 143.224 183.992 142.538 183.714C134.307 180.367 126.024 177.795 118.88 172.305C118.464 171.985 117.905 172.701 118.316 173.033Z" fill="#ED8894"/>
<path d="M82.9829 245.396C92.9022 246.874 118.642 248.245 131.829 256.303C139.659 261.088 147.373 251.129 155.98 247.941C165.79 244.307 179.264 244.114 189.723 243.965C189.711 230.07 185.547 210.578 180.202 197.753C149.378 206.618 119.073 206.214 88.5528 202.097C85.9461 213.165 82.9706 227.03 82.9829 245.396Z" fill="#F9C15A"/>
<path d="M71.4792 190.532C72.3382 176.07 74.5612 159.222 79.3042 145.649C84.1289 131.838 88.9585 116.723 89.7655 102.036C89.8745 100.051 87.2109 100.041 86.5697 101.603C83.1932 109.836 81.9777 118.792 79.9107 127.434C78.0169 135.353 74.7543 142.762 72.6848 150.61C69.3924 163.094 68.1472 177.642 68.0309 190.532C68.0086 192.765 71.348 192.732 71.4792 190.532Z" fill="#5CA8B2"/>
<path d="M53.1509 146.879C45.2641 140.634 32.6713 132.455 24.7845 126.209C23.2645 125.006 20.5737 122.172 20.3732 120.243C20.2073 118.662 21.5119 117.684 22.2199 116.26C23.876 112.933 24.2622 112.005 24.4552 108.294C24.5543 106.391 22.4922 106.851 21.2495 108.294C20.0588 111.955 18.6255 114.495 17.5585 113.386C17.009 108.232 17.1377 104.376 15.0534 102.484C11.2164 98.9964 0.943161 97.1224 2.5943 100.036C3.0795 101.494 10.1396 101.526 10.6594 104.603C7.25812 102.227 -1.11396 102.883 0.123776 105.388C0.92583 106.48 4.86927 104.942 6.67637 105.962C8.5602 107.027 8.50821 106.92 8.03539 108.403C5.51041 107.527 3.07705 107.25 0.554536 108.131C-0.658447 110.171 6.77292 109.685 6.48082 112.082C3.86672 112.552 1.6883 111.993 1.58928 114.089C1.97793 115.644 6.57489 113.144 6.67391 116.26C6.66896 120.006 3.74046 121.56 7.62696 126.224C8.25325 126.974 13.0978 130.712 15.0286 132.933C30.7801 151.026 54.7352 179.313 64.9936 168.223C75.1728 157.22 83.1488 132.876 89.1567 119.751C89.1567 119.751 92.313 129.729 92.8997 133.086C93.6522 137.389 101.695 114.228 102.485 105.735C103.354 96.4144 96.702 71.2091 90.0751 73.8728C83.0077 76.7146 76.0565 82.2126 71.0313 96.808C65.2734 113.55 59.6243 143.05 53.1509 146.879Z" fill="#FA9664"/>
<path d="M92.4738 105.774C92.0332 108.014 91.5381 110.25 90.9811 112.465C90.4934 114.409 89.7062 116.339 89.6023 118.349C89.5849 118.696 90.0627 118.793 90.231 118.52C92.3426 115.097 92.7956 109.925 93.3278 106.012C93.4046 105.46 92.5877 105.202 92.4738 105.774Z" fill="#E28054"/>
<path d="M51.5639 223.832C50.6925 229.642 49.8534 235.779 52.0392 241.232C53.73 245.451 57.0595 248.783 60.5227 251.724C68.8972 258.831 79.1432 264.539 90.1269 264.574C101.111 264.608 112.589 257.556 114.832 246.805C115.545 243.389 115.322 239.856 115.097 236.376C114.708 230.368 114.317 224.342 113.231 218.421C112.112 212.316 110.257 206.348 109.455 200.194C108.646 193.993 108.455 187.735 107.762 181.522C107.074 175.335 102.821 163.619 100.348 162.312C98.6846 161.364 98.9421 162.161 98.2019 164.275C91.7285 173.719 86.5795 184.069 82.9554 194.929C82.4777 196.36 81.7226 198.06 80.22 198.199C78.9303 198.32 77.9005 197.179 77.1529 196.122C73.5783 191.065 73.5338 181.064 72.1252 175.033C71.385 171.867 64.6196 185.433 64.2607 186.136C62.456 189.673 61.6366 197.595 60.3271 201.402C57.2402 210.403 52.97 214.455 51.5639 223.832Z" fill="#5CA8B2"/>
<path d="M100.413 172.854C105.816 154.682 105.903 140.804 107.762 121.959C109.374 105.623 111.686 87.3613 103.73 71.3623C102.759 69.4091 95.9913 69.2878 97.5756 72.558C110.248 98.6965 99.1946 142.889 97.5385 172.466C97.4444 174.114 99.9372 174.451 100.413 172.854Z" fill="#5CA8B2"/>
<path d="M70.0759 182.67C65.0581 194.465 52.8119 238.717 77.8093 237.224C87.6839 236.635 93.6003 227.169 95.296 218.339C96.4669 212.234 96.4348 205.58 95.6154 199.436C94.5881 191.755 90.959 184.813 95.8084 177.627C96.1501 177.122 95.3975 176.575 94.9792 176.988C90.459 181.457 91.6571 187.757 92.8503 193.401C95.1252 204.149 96.3333 218.195 89.9267 227.827C86.2457 233.362 79.3169 237.363 72.6207 234.939C64.8749 232.135 64.3922 223.614 64.7413 216.707C65.3279 205.075 68.4074 194.314 71.0586 183.088C71.1923 182.521 70.3235 182.085 70.0759 182.67Z" fill="#4B969B"/>
<path d="M56.1934 228.934C59.711 241.156 71.0487 249.206 83.842 247.486C84.3717 247.414 84.2455 246.523 83.7157 246.552C71.3185 247.238 60.7285 240.777 56.9682 228.722C56.8147 228.231 56.0498 228.437 56.1934 228.934Z" fill="#4B969B"/>
<path d="M61.0178 244.141C67.5431 253.325 78.9402 257.6 89.7234 253.563C90.2235 253.375 90.0328 252.6 89.4981 252.748C78.6754 255.754 68.3303 253.068 61.5649 243.822C61.3272 243.497 60.7801 243.807 61.0178 244.141Z" fill="#4B969B"/>
<path d="M68.5382 223.973C68.6447 227.478 71.1202 230.936 74.6428 231.739C77.1257 232.303 81.9974 229.627 81.7251 226.783C81.6756 226.265 81.1335 226.038 80.7349 226.372C78.7149 228.06 77.138 231.132 73.9472 229.642C71.5905 228.54 70.3651 226.255 69.9889 223.777C69.8626 222.948 68.511 223.151 68.5382 223.973Z" fill="#4B969B"/>
<path d="M71.546 223.367C70.1424 226.652 74.5166 229.778 77.2495 227.639C77.7496 227.248 77.1951 226.533 76.6752 226.652C75.6603 226.882 74.6305 227.035 73.7195 226.387C72.759 225.703 72.6402 224.718 72.5288 223.634C72.4842 223.181 71.7762 222.829 71.546 223.367Z" fill="#4B969B"/>
<path d="M100.423 183.452C102.834 194.908 104.903 206.395 106.253 218.029C107.421 228.095 112.186 248.302 98.8311 251.985C97.9499 252.228 98.3212 253.54 99.2074 253.349C110.609 250.891 109.619 237.392 108.753 228.409C107.282 213.21 104.772 198.094 101.034 183.286C100.933 182.887 100.339 183.056 100.423 183.452Z" fill="#4B969B"/>
<path d="M91.8427 247.485C96.5659 246.297 100.499 243.41 102.75 239.068C103.024 238.536 102.272 238.095 101.948 238.6C99.5117 242.373 95.895 245.222 91.5456 246.408C90.8524 246.596 91.1446 247.661 91.8427 247.485Z" fill="#4B969B"/>
<path d="M137.307 248.247C137 240.266 137.258 232.278 136.948 224.304C136.923 223.661 136.008 223.673 135.956 224.304C135.324 232.241 135.777 240.308 136.188 248.247C136.225 248.962 137.337 248.97 137.307 248.247Z" fill="#E2A849"/>
<path d="M142.308 252.037C145.981 248.047 149.969 244.438 154.084 240.913C154.443 240.606 153.955 239.957 153.571 240.249C149.242 243.556 145.328 247.369 141.667 251.396C141.273 251.824 141.912 252.468 142.308 252.037Z" fill="#E2A849"/>
<path d="M186.349 237.541C182.871 240.4 179.91 244.225 179.291 248.683C178.875 251.676 179.539 254.731 179.224 257.736C178.529 264.358 177.019 269.705 177.147 276.362C177.254 281.776 166.882 303.763 175.296 332.028C178.509 342.823 184.715 348.871 192.609 343.222C198.263 339.174 206.115 344.583 209.537 340.543C211.232 338.855 209.15 314.209 208.43 311.927C204.546 299.658 199.796 273.064 196.84 265.366C195.342 261.464 196.238 257.397 196.201 253.218C196.184 251.337 199.489 239.465 199.214 234.061C198.892 227.669 189 235.363 186.349 237.541Z" fill="#F7EBD5"/>
<path d="M187.326 252.413C177.504 275.616 190.346 300.44 190.012 324.256C189.997 325.373 191.629 325.336 191.72 324.256C193.812 300.21 179.152 276.663 188.656 252.975C188.963 252.215 187.648 251.653 187.326 252.413Z" fill="#D9CCAE"/>
<path d="M192.97 280.771C196.24 295.878 199.934 310.152 198.075 325.688C198.023 326.121 198.674 326.158 198.8 325.787C203.548 311.721 196.896 294.346 193.762 280.553C193.646 280.035 192.859 280.253 192.97 280.771Z" fill="#D9CCAE"/>
<path d="M180.494 295.088C179.403 306.186 178.786 319.674 185.232 329.388C185.571 329.901 186.554 329.584 186.292 328.94C181.665 317.593 181.554 307.151 181.675 295.086C181.685 294.313 180.569 294.345 180.494 295.088Z" fill="#D9CCAE"/>
<path d="M183.586 341.273C191.045 336.98 198.998 335.161 207.111 338.523C207.504 338.686 207.856 338.065 207.531 337.8C200.746 332.277 189.614 336.537 183.193 340.6C182.767 340.864 183.148 341.523 183.586 341.273Z" fill="#D9CCAE"/>
<path d="M99.0015 42.013C100.155 50.3925 91.4216 54.2246 92.9019 62.0545C94.459 70.2904 161.052 69.2284 158.383 58.3165C156.202 49.3974 155.91 49.5954 155.856 40.4139C155.801 31.2299 155.742 27.4003 153.351 18.5356C149.944 5.90328 138.461 3.71249 138.461 3.71249C115.706 -8.52379 94.7041 10.8369 99.0015 42.013Z" fill="#C24504"/>
<path d="M151.94 70.293C146.251 68.8498 142.377 69.4563 140.832 67.2482C139.696 65.6267 139.847 49.5758 139.236 42.0107C139.255 42.1716 112.951 35.9285 113.825 41.4785C114.832 47.885 118.845 60.0223 117.058 65.9585C116.29 68.5057 110.929 70.0826 104.997 71.2089C106.453 77.9769 107.022 85.5865 113.119 93.1144C115.149 95.6196 130.896 110.76 145.31 98.5258C153.259 91.7801 152.492 80.7049 151.94 70.293Z" fill="#F38E5C"/>
<path d="M108.074 34.379C109.582 40.2806 109.047 47.91 117.176 56.3811C121.395 60.775 127.356 62.4113 132.787 59.6586C137.827 57.1014 140.76 51.7296 142.8 46.4593C144.936 40.9415 144.246 41.3524 145.077 35.493C145.422 33.0744 145.283 27.8685 145.283 27.8685C140.552 19.8034 143.298 17.9914 141.486 14.8945C138.055 9.03015 135.485 8.29988 128.816 6.99531C123.556 5.96551 119.268 7.97312 114.84 10.9957C107.341 16.11 112.203 23.8038 107.02 27.8685C107.02 27.8685 107.277 31.2649 108.074 34.379Z" fill="#F99370"/>
<path d="M103.341 15.9465C100.939 28.3908 101.138 29.7176 104.207 42.0133C107.277 54.309 108.804 68.4019 111.47 66.8349C114.136 65.2704 120.241 66.9537 114.587 37.7951C113.574 32.5694 115.703 20.895 122.058 19.2389C126.021 18.2067 132.301 19.7612 135.703 14.2979C137.96 20.489 140.173 21.8357 141.819 25.1207C145.09 31.6435 144.971 35.176 143.664 43.8798C141.111 60.8814 145.812 58.2995 153.132 58.3168C147.018 52.0514 153.944 52.4623 153.818 43.709C153.642 31.448 153.826 28.2274 150.523 16.4169C148.555 9.37911 141.582 3.89345 135.7 6.72292C129.982 -2.6418 105.366 5.46043 103.341 15.9465Z" fill="#C24504"/>
<path d="M146.328 26.3934C146.877 25.9552 147.719 25.8141 148.276 26.2448C148.796 26.6459 148.907 27.3761 148.947 28.0321C149.142 31.2156 148.625 34.4436 147.449 37.4068C147.263 37.8722 147.011 38.3796 146.536 38.5331C145.79 38.7707 144.991 38.4885 144.369 38.0157C142.939 36.924 142.939 33.8668 143.236 32.3296C143.535 30.77 144.954 27.49 146.328 26.3934Z" fill="#F99370"/>
<path d="M128.301 30.2697C128.272 32.2129 128.655 34.0473 129.19 35.9088C129.688 37.6441 132.099 42.4416 128.648 42.9416C127.915 43.0481 128.138 44.1546 128.816 44.1843C130.685 44.266 131.925 42.6941 131.95 40.8647C131.97 39.4487 131.173 37.7308 130.764 36.4064C130.148 34.3914 129.539 32.3936 129.482 30.2697C129.462 29.5122 128.311 29.5072 128.301 30.2697Z" fill="#D3744F"/>
<path d="M146.337 28.8639C146.184 30.2527 146.362 31.6662 146.223 33.0623C146.117 34.1441 145.585 35.3076 146.072 36.3201C146.142 36.4661 146.374 36.5255 146.506 36.4339C147.471 35.7556 147.464 34.4288 147.592 33.3223C147.768 31.8295 147.889 30.1611 147.394 28.7179C147.191 28.1262 146.404 28.2673 146.337 28.8639Z" fill="#EF8467"/>
<path d="M113.08 78.0808C118.194 77.1772 122.422 78.4694 126.648 81.3484C127.348 81.8261 128.182 80.7419 127.556 80.1725C123.635 76.6054 117.793 75.5112 112.745 76.8603C111.943 77.0732 112.29 78.2194 113.08 78.0808Z" fill="#E28054"/>
<path d="M133.681 81.4845C134.483 79.0907 138.622 78.3258 140.701 78.1921C142.904 78.0485 144.773 78.6798 146.88 79.155C147.575 79.311 148.026 78.3579 147.375 77.9792C143.719 75.8503 134.243 76.2959 132.824 81.2493C132.668 81.7988 133.5 82.0216 133.681 81.4845Z" fill="#E28054"/>
<path d="M110.223 33.2967C112.657 27.2441 112.56 20.1865 118.689 16.2134C122.848 13.5176 127.977 15.191 132.129 12.7156C132.597 12.4383 132.188 11.8021 131.713 12.0051C126.269 14.3519 120.736 12.5967 116.142 17.0773C111.595 21.5134 111.597 27.5115 109.389 33.064C109.183 33.5838 110.02 33.8066 110.223 33.2967Z" fill="#D65218"/>
<path d="M107.213 28.7569C108.086 23.5906 109.064 18.1247 112.812 14.1738C116.414 10.3765 121.241 8.65354 126.407 8.78474C127.172 8.80454 127.162 7.64602 126.407 7.60394C121.417 7.31431 116.483 9.04961 112.832 12.5004C108.383 16.7038 107.269 22.7192 106.359 28.5217C106.272 29.0762 107.118 29.3213 107.213 28.7569Z" fill="#D65218"/>
<path d="M104.381 23.9323C105.378 15.5726 112.971 7.28473 120.91 4.81915C121.496 4.63597 121.239 3.84381 120.662 3.92303C115.976 4.56913 112.057 8.45315 109.079 11.8619C106.015 15.3672 103.901 19.2289 103.621 23.9298C103.594 24.4299 104.326 24.4051 104.381 23.9323Z" fill="#D65218"/>
<path d="M102.141 35.9653C101.398 39.7974 102.606 43.4462 102.279 47.2807C101.933 51.3331 99.8978 54.7294 98.41 58.4228C98.1922 58.9625 99.0289 59.2595 99.3161 58.8041C101.165 55.8855 102.73 52.4149 103.324 48.9937C104.076 44.674 102.418 40.5251 103.034 36.2104C103.118 35.6361 102.257 35.3687 102.141 35.9653Z" fill="#D65218"/>
<path d="M103.336 60.035C106.76 54.4156 107.896 48.2715 107.302 41.7115C107.245 41.0778 106.359 41.0703 106.309 41.7115C106.084 44.6325 106.23 47.5412 105.824 50.4573C105.356 53.8314 104.099 56.5742 102.698 59.6636C102.507 60.0869 103.084 60.4484 103.336 60.035Z" fill="#D65218"/>
<path d="M108.312 61.7202C111.01 56.5787 113.122 49.9073 112.008 44.0552C111.904 43.5082 111.097 43.6691 111.074 44.1815C110.795 50.4246 110.599 55.6504 107.765 61.3984C107.584 61.7648 108.121 62.0841 108.312 61.7202Z" fill="#D65218"/>
<path d="M139.79 14.5873C141.973 16.6617 142.817 19.0307 143.8 21.7785C143.936 22.1573 144.575 22.1325 144.545 21.677C144.367 18.7708 142.302 16.0255 140.131 14.2432C139.896 14.0501 139.559 14.3694 139.79 14.5873Z" fill="#D65218"/>
<path d="M141.793 12.5894C144.813 15.3347 146.018 18.5231 147.464 22.2091C147.568 22.474 148.023 22.4715 148.004 22.1373C147.768 18.283 144.988 14.649 142.122 12.2626C141.894 12.0745 141.567 12.3864 141.793 12.5894Z" fill="#D65218"/>
<path d="M142.763 9.5371C147.065 10.8343 147.419 15.0624 148.773 18.6345C148.932 19.0504 149.682 19.0429 149.622 18.5206C149.192 14.6094 147.013 10.0743 142.879 9.11132C142.602 9.04448 142.488 9.45541 142.763 9.5371Z" fill="#D65218"/>
<path d="M143.728 51.1626C143.614 53.7767 143.399 56.574 143.899 59.156C143.993 59.6387 144.671 59.4802 144.708 59.047C144.919 56.4453 144.637 53.7767 144.701 51.1626C144.713 50.5363 143.755 50.5388 143.728 51.1626Z" fill="#D65218"/>
<path d="M148.67 42.2578C147.452 47.3573 147.219 53.0707 149.048 58.0637C149.293 58.7321 150.222 58.4672 150.108 57.7716C149.241 52.536 148.647 47.7632 149.402 42.4583C149.467 41.9904 148.786 41.7701 148.67 42.2578Z" fill="#D65218"/>
<path d="M151.932 33.1588C151.194 41.7017 149.501 51.5145 154.167 59.2578C154.491 59.7974 155.284 59.3246 155.006 58.7676C150.952 50.6827 152.368 41.8453 152.821 33.1564C152.848 32.5845 151.981 32.5969 151.932 33.1588Z" fill="#D65218"/>
</svg>
