<svg width="237" height="529" viewBox="0 0 237 529" fill="none" xmlns="http://www.w3.org/2000/svg">
<path d="M115.04 529C178.553 529 230.04 520.717 230.04 510.5C230.04 500.283 178.553 492 115.04 492C51.5275 492 0.0402832 500.283 0.0402832 510.5C0.0402832 520.717 51.5275 529 115.04 529Z" fill="#D6D8E5"/>
<path d="M96.004 200.961L95.2689 199.199L94.5832 197.507C94.133 196.381 93.6964 195.255 93.2672 194.124C92.4113 191.863 91.5924 189.583 90.8154 187.269C90.0384 184.955 89.3033 182.608 88.6226 180.207C87.943 177.804 87.3189 175.346 86.7874 172.779C86.2607 170.206 85.8143 167.538 85.5947 164.573C85.4862 163.091 85.443 161.517 85.5244 159.798C85.5627 159.314 85.5404 159.094 85.6884 158.095L85.7353 157.785L85.76 157.631L85.7822 157.51L85.8722 157.048L85.9684 156.586L86.0153 156.379L86.0609 156.192L86.2484 155.444L86.4297 154.802L86.5222 154.481L86.6122 154.19L86.7923 153.615C87.2708 152.133 87.742 150.881 88.218 149.656C88.6941 148.439 89.1751 147.273 89.6585 146.13C90.6279 143.853 91.6133 141.652 92.6123 139.484C94.6103 135.149 96.6588 130.923 98.7345 126.726C100.81 122.532 102.914 118.374 105.038 114.236C107.162 110.097 109.307 105.978 111.467 101.87L114.725 95.7144L118.031 89.5441C121.637 82.8139 130.017 80.2831 136.747 83.8893C143.477 87.4955 146.008 95.8747 142.402 102.605C142.26 102.87 142.109 103.129 141.953 103.382L141.874 103.507L138.263 109.271L134.662 115.086C132.271 118.969 129.898 122.861 127.552 126.76C125.207 130.658 122.885 134.564 120.61 138.472C118.337 142.38 116.102 146.294 113.981 150.182C112.92 152.124 111.893 154.059 110.93 155.954C110.452 156.898 109.991 157.831 109.567 158.73C109.145 159.62 108.75 160.501 108.47 161.189L108.373 161.431L108.325 161.549L108.29 161.64L108.218 161.822C108.206 161.85 108.195 161.878 108.181 161.907L108.169 161.928L108.163 161.938C108.163 161.938 108.165 161.933 108.165 161.93C108.167 161.917 108.168 161.903 108.168 161.89C108.168 161.876 108.168 161.862 108.166 161.849C108.166 161.843 108.163 161.846 108.166 161.834L108.174 161.786L108.189 161.69C108.235 161.257 108.177 161.61 108.156 161.698C108.055 162.271 107.977 163 107.951 163.815C107.892 165.446 107.993 167.353 108.198 169.32C108.401 171.292 108.705 173.341 109.075 175.415C109.445 177.49 109.879 179.593 110.362 181.7C110.846 183.809 111.375 185.927 111.943 188.038C112.227 189.094 112.521 190.147 112.823 191.194L113.282 192.756L113.73 194.233L113.828 194.554C115.35 199.565 112.521 204.862 107.51 206.384C102.822 207.807 97.8651 205.38 96.004 200.961Z" fill="#FA9761"/>
<path d="M107.849 161.625C107.767 161.625 107.683 161.604 107.607 161.562C107.567 161.54 103.669 159.373 99.8703 159.355C99.5977 159.354 99.3782 159.132 99.3794 158.86C99.3806 158.588 99.6014 158.369 99.8727 158.369H99.8752C103.934 158.387 107.924 160.607 108.092 160.701C108.328 160.834 108.413 161.135 108.279 161.373C108.189 161.533 108.021 161.625 107.849 161.625Z" fill="#EB7133"/>
<path d="M107.133 161.258C106.951 161.258 106.774 161.156 106.689 160.981C105.857 159.27 103.885 157.759 103.865 157.743C103.648 157.578 103.606 157.269 103.771 157.053C103.935 156.837 104.246 156.794 104.462 156.959C104.551 157.026 106.642 158.63 107.576 160.549C107.696 160.795 107.593 161.089 107.348 161.209C107.28 161.242 107.206 161.258 107.133 161.258Z" fill="#EB7133"/>
<path d="M158.304 12.4318C158.304 12.4318 157.497 -2.6813 172.597 0.419275C187.695 3.51985 189.114 23.9215 173.188 26.9641C157.262 30.0079 158.304 12.4318 158.304 12.4318Z" fill="#D36C17"/>
<path d="M157.137 10.294C157.137 10.294 171.78 6.53979 178.262 17.5435C183.762 26.8834 180.51 33.0032 182.97 38.1289C185.431 43.2546 191.229 43.5505 189.818 51.7706C188.407 59.9907 197.3 57.9077 197.505 66.346C197.71 74.7844 189.865 76.6578 195.888 80.0421C201.912 83.4275 208.292 91.7673 205.957 99.0205C203.622 106.274 170.886 93.1659 155.243 102.247C139.599 111.328 121.676 107.019 122.575 99.0821C123.474 91.1469 133.654 86.8969 129.727 80.9251C125.8 74.9534 122.936 66.8616 127.207 59.6429C131.478 52.4243 129.465 53.2358 128.528 45.3228C127.952 40.4562 130.792 34.8347 131.651 29.2712C132.68 22.5939 133.256 19.6204 136.758 15.4777C145.033 5.68386 157.137 10.294 157.137 10.294Z" fill="#D36C17"/>
<path d="M180.257 22.196C180.051 22.196 179.859 22.0665 179.79 21.8605C177.613 15.43 173.459 11.5068 167.443 10.1995C162.918 9.21652 158.975 10.1575 158.937 10.1674C158.673 10.2328 158.405 10.07 158.34 9.80605C158.274 9.54088 158.436 9.27449 158.701 9.20912C158.869 9.16719 162.876 8.20643 167.615 9.22762C172.013 10.1748 177.859 13.0805 180.724 21.5448C180.812 21.8026 180.674 22.0825 180.415 22.1701C180.363 22.1874 180.309 22.196 180.257 22.196Z" fill="white"/>
<path d="M69.1001 469.415H87.4655C87.4655 469.415 98.2435 436.323 107.201 404.15C116.155 371.976 112.786 333.625 112.786 333.625C117.411 318.479 122.278 306.125 126.594 293.778C133.259 274.747 138.62 255.728 139.8 226.528L101.107 213.673L90.2047 282.47L83.5238 324.63L69.1001 469.415Z" fill="#371C0E"/>
<path d="M69.1001 469.415H87.4655C87.4655 469.415 98.2435 436.324 107.201 404.15C107.248 403.981 107.296 403.812 107.343 403.636C110.256 392.997 111.836 381.705 112.644 371.371C112.925 367.809 113.111 364.358 113.228 361.091C113.807 345.259 112.786 333.626 112.786 333.626C117.411 318.481 122.278 306.127 126.594 293.78C119.443 293.025 102.749 290.475 90.2047 282.472L83.5238 324.632L83.4695 325.187L83.1822 328.069L80.5231 354.742L79.7757 362.242L69.1001 469.415Z" fill="#FA9761"/>
<path d="M83.1831 328.069C87.834 330.258 94.0622 330.39 95.4694 330.39C95.6113 330.39 95.7062 330.386 95.7432 330.386C96.4882 330.373 97.0826 329.757 97.0691 329.01C97.0592 328.272 96.4536 327.68 95.7198 327.68H95.6964C93.1323 327.717 87.0903 327.284 83.4705 325.187L83.1831 328.069Z" fill="#EB7133"/>
<path d="M123.099 292.44C123.005 292.44 122.909 292.424 122.815 292.391C122.375 292.234 122.145 291.75 122.302 291.311C131.406 265.776 134.295 237.883 134.323 237.604C134.37 237.139 134.781 236.8 135.249 236.847C135.714 236.894 136.053 237.308 136.005 237.773C135.977 238.055 133.07 266.143 123.895 291.878C123.772 292.225 123.445 292.44 123.099 292.44Z" fill="#714C38"/>
<path d="M90.1272 275.319C90.1272 275.319 112.46 283.781 130.056 286.765L127.184 295.616C127.184 295.616 106.417 292.359 87.7827 284.721L90.1272 275.319Z" fill="#714C38"/>
<path d="M26.7689 511.998H88.3523C88.8099 511.166 89.0603 509.985 89.1626 508.578C89.5474 503.368 87.8874 495.056 87.0734 489.813C86.9747 489.201 86.8896 488.629 86.8243 488.112C86.7108 487.237 86.6577 486.506 86.6405 485.971C86.4518 480.214 87.0734 473.533 88.1637 467.254C79.1012 466.852 73.6709 461.894 69.5503 464.9C69.5503 464.9 63.6711 483.651 58.781 488.051C53.8946 492.449 45.577 495.352 38.499 498.314C29.3601 502.134 26.7689 505.95 26.2632 508.578C25.8636 510.66 26.7689 511.998 26.7689 511.998Z" fill="#D36C17"/>
<path d="M26.7689 511.998H88.3523C88.8099 511.166 89.0603 509.985 89.1626 508.578H26.2632C25.8636 510.66 26.7689 511.998 26.7689 511.998Z" fill="#A74500"/>
<path d="M70.9144 470.656C70.9144 470.656 69.8143 467.968 67.3711 468.824C64.9279 469.679 65.1721 473.711 65.1721 473.711C65.1721 473.711 66.6373 477.377 70.9144 470.656Z" fill="white"/>
<path d="M71.6676 482.76C72.2275 482.76 72.6826 482.307 72.6826 481.745C72.6826 475.629 68.8581 472.318 68.6953 472.18C68.2673 471.817 67.6272 471.87 67.2646 472.298C66.9033 472.725 66.9551 473.364 67.3806 473.726C67.5199 473.846 70.6538 476.607 70.6538 481.745C70.6526 482.307 71.1077 482.76 71.6676 482.76Z" fill="white"/>
<path d="M58.8698 474.789C59.1091 474.789 59.3496 474.705 59.5433 474.533C60.8321 473.39 64.6159 473.177 66.6977 473.311C67.2564 473.346 67.7399 472.923 67.7757 472.364C67.8114 471.805 67.3872 471.322 66.8285 471.286C66.1908 471.245 60.5324 470.946 58.1964 473.016C57.7771 473.389 57.7389 474.03 58.1101 474.45C58.3111 474.674 58.5899 474.789 58.8698 474.789Z" fill="white"/>
<path d="M67.8172 474.058L68.2525 471.902C68.2525 471.902 68.2735 471.905 68.3105 471.912L67.2646 470.855C67.8418 470.284 72.9922 465.305 77.2447 465.305C77.2718 465.305 77.2989 465.305 77.3261 465.305C78.5989 465.324 79.6694 465.781 80.5081 466.664C81.3862 467.589 81.6563 468.788 81.2468 469.952C80.5623 471.902 78.1339 473.387 74.91 473.826C72.7579 474.119 71.1422 474.203 70.0014 474.203C68.5522 474.202 67.8665 474.067 67.8172 474.058ZM69.2626 471.989C70.248 472.03 71.9871 472.004 74.614 471.646C77.3039 471.28 78.8418 470.165 79.1724 469.223C79.3068 468.838 79.2254 468.506 78.9134 468.178C78.4867 467.729 77.9723 467.515 77.294 467.504C77.2767 467.504 77.2595 467.504 77.2422 467.504C74.6658 467.504 70.9621 470.424 69.2626 471.989Z" fill="white"/>
<path d="M66.1365 473.086L67.0775 471.098C65.0537 470.141 63.1174 467.615 63.2419 466.094C63.2715 465.725 63.4294 465.267 64.384 464.993C65.0487 464.803 65.3744 464.966 65.5865 465.128C66.6471 465.95 66.9801 468.727 66.9407 470.285L69.1397 470.343C69.1545 469.817 69.2124 465.158 66.9345 463.392C66.3252 462.92 65.2843 462.447 63.7784 462.879C61.5683 463.512 61.1206 465.053 61.0503 465.915C60.8283 468.619 63.5527 471.865 66.1365 473.086Z" fill="white"/>
<path d="M82.0686 512.002H83.8976C82.0723 509.916 80.3642 506.716 80.5874 502.141C80.8846 496.056 84.5352 491.954 87.0722 489.818C86.9735 489.206 86.8884 488.634 86.8231 488.117C84.0888 490.206 79.4811 494.781 79.121 502.069C78.9088 506.437 80.3432 509.697 82.0686 512.002Z" fill="#A74500"/>
<path d="M59.8257 491.685C60.2808 491.685 60.6951 491.376 60.8098 490.914C60.9455 490.37 60.6138 489.819 60.0699 489.684L56.2231 488.73C55.6792 488.594 55.1292 488.926 54.9935 489.47C54.8578 490.013 55.1896 490.564 55.7335 490.699L59.5803 491.654C59.6617 491.675 59.7443 491.685 59.8257 491.685Z" fill="white"/>
<path d="M62.5241 487.969C62.9792 487.969 63.3936 487.66 63.5083 487.198C63.6428 486.654 63.3122 486.103 62.7683 485.968L58.9216 485.014C58.3777 484.878 57.8276 485.21 57.692 485.754C57.5563 486.298 57.8881 486.848 58.432 486.983L62.2787 487.938C62.3613 487.959 62.444 487.969 62.5241 487.969Z" fill="white"/>
<path d="M65.1745 484.257C65.6296 484.257 66.044 483.949 66.1587 483.486C66.2944 482.942 65.9626 482.392 65.4187 482.256L61.572 481.302C61.0281 481.166 60.478 481.498 60.3424 482.042C60.2067 482.586 60.5385 483.137 61.0824 483.271L64.9291 484.226C65.0117 484.247 65.0931 484.257 65.1745 484.257Z" fill="white"/>
<path d="M67.6795 480.339C68.1346 480.339 68.549 480.031 68.6637 479.568C68.7994 479.025 68.4676 478.473 67.9237 478.339L64.077 477.384C63.5331 477.247 62.983 477.58 62.8473 478.124C62.7129 478.668 63.0435 479.218 63.5886 479.354L67.4353 480.31C67.5167 480.329 67.5981 480.339 67.6795 480.339Z" fill="white"/>
<path d="M55.9775 493.92C56.4326 493.92 56.847 493.612 56.9617 493.15C57.0974 492.606 56.7656 492.056 56.2217 491.921L52.375 490.965C51.8311 490.828 51.281 491.161 51.1454 491.705C51.0097 492.249 51.3415 492.799 51.8854 492.935L55.7321 493.89C55.8147 493.911 55.8973 493.92 55.9775 493.92Z" fill="white"/>
<path d="M52.1313 496.072C52.5864 496.072 53.0008 495.764 53.1155 495.301C53.2512 494.758 52.9194 494.206 52.3755 494.072L48.5288 493.117C47.9849 492.982 47.4348 493.313 47.2992 493.857C47.1635 494.401 47.4953 494.952 48.0392 495.087L51.8859 496.043C51.9685 496.062 52.0511 496.072 52.1313 496.072Z" fill="white"/>
<path d="M47.9367 498.055C48.3918 498.055 48.8062 497.746 48.9209 497.284C49.0566 496.74 48.7248 496.189 48.1809 496.054L44.3342 495.1C43.7903 494.964 43.2402 495.296 43.1046 495.84C42.9689 496.384 43.3007 496.935 43.8446 497.069L47.6913 498.024C47.7739 498.044 47.8566 498.055 47.9367 498.055Z" fill="white"/>
<path d="M43.3879 499.753C43.843 499.753 44.2574 499.445 44.3721 498.983C44.5077 498.439 44.176 497.889 43.6321 497.753L39.7854 496.798C39.2415 496.661 38.6902 496.994 38.5558 497.538C38.4201 498.082 38.7518 498.632 39.2957 498.768L43.1425 499.723C43.2239 499.744 43.3065 499.753 43.3879 499.753Z" fill="white"/>
<path d="M148.519 295.52C149.977 309.332 151.08 319.291 151.08 319.291C151.08 319.291 146.304 333.736 152.095 366.313C158.289 401.143 165.647 464.415 165.647 464.415H182.561L185.568 323.351C185.987 311.261 186.323 300.324 186.589 290.493C187.874 243.002 187.56 221.453 187.56 221.453L141.549 218.344C141.977 231.814 145.844 270.159 148.519 295.52Z" fill="#371C0E"/>
<path d="M151.08 319.291C151.08 319.291 146.426 333.367 151.878 365.065C151.949 365.478 152.02 365.894 152.094 366.313C158.288 401.143 165.646 464.415 165.646 464.415H182.56L184.809 358.894L185.506 326.166L185.567 323.351C185.57 323.264 185.574 323.172 185.578 323.084C185.99 311.098 186.325 300.25 186.589 290.493C177.783 292.783 160.883 296.562 148.519 295.52C149.978 309.332 151.08 319.291 151.08 319.291Z" fill="#FA9761"/>
<path d="M171.682 327.078C171.668 327.825 172.264 328.441 173.011 328.454H173.285C174.683 328.454 180.863 328.326 185.507 326.164L185.568 323.35C185.572 323.262 185.575 323.171 185.579 323.082C182 325.335 175.694 325.795 173.058 325.748H173.035C172.297 325.748 171.695 326.337 171.682 327.078Z" fill="#EB7133"/>
<path d="M152.451 293.309C152.028 293.309 151.663 292.992 151.612 292.561L145.191 237.788C145.137 237.325 145.469 236.904 145.932 236.85C146.397 236.799 146.817 237.127 146.871 237.591L153.29 292.364C153.345 292.828 153.013 293.248 152.549 293.303C152.517 293.306 152.484 293.309 152.451 293.309Z" fill="#714C38"/>
<path d="M145.85 286.732C145.85 286.732 169.733 286.66 187.234 283.163L187.713 292.456C187.713 292.456 167.152 296.83 147.02 296.351L145.85 286.732Z" fill="#714C38"/>
<path d="M160.812 508.164C160.812 508.306 160.816 508.445 160.82 508.58C160.833 509.213 160.861 509.781 160.888 510.268C160.952 511.341 161.03 512 161.03 512H196.621C196.621 512 196.797 510.624 196.661 508.58C196.428 504.943 195.221 499.199 190.305 495.403C183.576 490.2 186.175 491.286 184.794 488.915C184.639 488.651 183.428 484.623 183.3 484.345L183.317 462.709L164.276 463.754L163.27 491.659C163.243 491.773 163.216 491.889 163.189 492.008C162.976 492.908 162.762 493.869 162.553 494.846C162.032 497.297 161.545 499.859 161.213 501.903C160.859 504.092 160.785 506.345 160.812 508.164Z" fill="#D36C17"/>
<path d="M160.811 508.16C160.811 508.302 160.815 508.441 160.818 508.576C160.831 509.209 160.858 509.777 160.885 510.264C162.621 509.047 163.859 507.44 164.583 505.47C166.786 499.473 163.399 492.274 163.257 491.969L163.186 492.003C162.972 492.903 162.759 493.864 162.55 494.84C163.352 497.29 164.276 501.407 162.993 504.891C162.527 506.161 161.796 507.254 160.811 508.16Z" fill="#A74500"/>
<path d="M160.819 508.579C160.867 510.605 161.028 511.999 161.028 511.999H196.62C196.62 511.999 196.796 510.621 196.66 508.579H160.819Z" fill="#A74500"/>
<path d="M181.223 464.5C181.223 464.5 180.776 459.036 175.223 458.808C169.669 458.58 167.59 464.952 167.59 464.952C167.59 464.952 178.062 468.981 181.223 464.5Z" fill="#D36C17"/>
<path d="M178.878 462.204L179.124 464.741H171.624V462.204H178.878Z" fill="#A74500"/>
<path d="M175.939 473.097C175.639 472.83 175.526 472.412 175.648 472.029C176.157 470.445 178.879 462.49 182.471 461.54C183.182 461.351 184.26 461.339 185.357 462.348C186.512 463.41 186.609 464.548 186.485 465.316C185.866 469.169 177.935 472.857 177.032 473.265C176.897 473.326 176.755 473.355 176.614 473.355C176.371 473.356 176.129 473.268 175.939 473.097ZM182.991 463.503C181.522 463.892 179.701 467.19 178.446 470.284C181.2 468.767 184.221 466.625 184.483 464.994C184.529 464.713 184.513 464.327 183.986 463.843C183.67 463.551 183.424 463.47 183.222 463.47C183.137 463.471 183.061 463.485 182.991 463.503Z" fill="white"/>
<path d="M174.47 473.268C173.568 472.859 165.636 469.172 165.017 465.319C164.894 464.551 164.989 463.412 166.144 462.35C167.241 461.343 168.32 461.355 169.03 461.543C172.622 462.492 175.345 470.447 175.853 472.032C175.976 472.414 175.861 472.832 175.563 473.1C175.373 473.27 175.131 473.358 174.887 473.358C174.747 473.359 174.604 473.329 174.47 473.268ZM167.518 463.846C166.991 464.33 166.975 464.716 167.021 464.997C167.283 466.625 170.303 468.767 173.057 470.286C171.801 467.191 169.981 463.893 168.512 463.506C168.442 463.488 168.367 463.473 168.283 463.473C168.08 463.474 167.835 463.554 167.518 463.846Z" fill="white"/>
<path d="M175.783 470.397C175.783 470.397 177.44 469.615 177.568 471.887C177.673 473.728 176.361 474.126 175.826 473.815C175.826 473.815 174.698 474.153 174.135 473.251C173.57 472.35 173.942 469.488 175.783 470.397Z" fill="white"/>
<path d="M183.063 476.602C183.274 476.602 183.486 476.537 183.668 476.401C184.119 476.067 184.211 475.431 183.876 474.982C180.673 470.683 175.742 471.62 175.534 471.661C174.985 471.772 174.628 472.307 174.739 472.856C174.85 473.404 175.384 473.758 175.931 473.651C176.097 473.618 179.83 472.949 182.248 476.194C182.448 476.461 182.753 476.602 183.063 476.602Z" fill="white"/>
<path d="M167.512 477.625C167.898 477.625 168.267 477.405 168.437 477.03C170.081 473.412 175.823 472.537 175.88 472.528C176.435 472.447 176.819 471.931 176.738 471.377C176.657 470.822 176.141 470.439 175.588 470.519C175.306 470.56 168.686 471.576 166.589 476.19C166.357 476.7 166.583 477.301 167.094 477.533C167.229 477.596 167.371 477.625 167.512 477.625Z" fill="white"/>
<path d="M174.057 491.43C174.141 491.43 174.227 491.42 174.312 491.397C178.839 490.224 182.526 491.217 182.563 491.227C183.105 491.376 183.662 491.059 183.813 490.519C183.962 489.979 183.645 489.42 183.105 489.271C182.933 489.223 178.851 488.125 173.804 489.432C173.262 489.573 172.936 490.127 173.077 490.669C173.194 491.127 173.606 491.43 174.057 491.43Z" fill="white"/>
<path d="M173.524 487.838C173.608 487.838 173.694 487.828 173.779 487.804C178.306 486.632 181.995 487.624 182.03 487.634C182.571 487.783 183.129 487.466 183.278 486.926C183.428 486.386 183.111 485.826 182.571 485.678C182.399 485.631 178.317 484.532 173.27 485.84C172.727 485.98 172.402 486.534 172.542 487.077C172.661 487.534 173.073 487.838 173.524 487.838Z" fill="white"/>
<path d="M172.639 484.011C172.723 484.011 172.809 484 172.894 483.979C177.42 482.806 181.108 483.799 181.145 483.809C181.685 483.959 182.244 483.641 182.394 483.101C182.544 482.56 182.227 482 181.686 481.852C181.515 481.806 177.433 480.707 172.386 482.014C171.843 482.155 171.518 482.708 171.658 483.251C171.775 483.707 172.187 484.011 172.639 484.011Z" fill="white"/>
<path d="M172.36 480.263C172.444 480.263 172.53 480.254 172.616 480.231C177.142 479.059 180.83 480.051 180.867 480.061C181.407 480.21 181.965 479.893 182.115 479.353C182.264 478.813 181.947 478.254 181.407 478.104C181.235 478.057 177.153 476.958 172.106 478.266C171.564 478.406 171.238 478.96 171.379 479.503C171.497 479.96 171.909 480.263 172.36 480.263Z" fill="white"/>
<path d="M175.151 495.028C175.235 495.028 175.321 495.017 175.406 494.996C179.904 493.831 183.623 494.816 183.66 494.825C184.2 494.973 184.757 494.655 184.907 494.115C185.055 493.575 184.739 493.017 184.2 492.868C184.028 492.821 179.945 491.722 174.899 493.03C174.357 493.17 174.031 493.724 174.172 494.267C174.288 494.723 174.7 495.028 175.151 495.028Z" fill="white"/>
<path d="M176.835 498.684C176.918 498.684 177.005 498.674 177.09 498.652C181.587 497.488 185.306 498.472 185.343 498.483C185.883 498.631 186.441 498.313 186.589 497.773C186.737 497.232 186.421 496.675 185.882 496.526C185.711 496.479 181.629 495.381 176.581 496.687C176.038 496.828 175.712 497.382 175.853 497.924C175.971 498.381 176.383 498.684 176.835 498.684Z" fill="white"/>
<path d="M184.733 173.772C184.733 173.772 184.487 178.297 178.347 178.34L116.537 167.947C116.537 167.947 112.812 165.022 114.601 160.031C114.601 160.031 143.472 150.724 184.733 173.772Z" fill="#2D3D0C"/>
<path d="M111.602 190.034C148.634 202.882 179.11 197.317 179.11 197.317C178.349 192.327 178.149 186.834 178.2 181.884C178.26 176.127 178.656 171.11 178.907 168.482C165.5 164.99 132.558 156.844 118.912 157.294L117.751 162.49L111.602 190.034Z" fill="#FA9761"/>
<path d="M138.38 176.756C138.282 178.446 138.771 179.849 139.47 179.889C140.169 179.93 140.815 178.592 140.913 176.901C141.01 175.21 140.522 173.807 139.823 173.766C139.123 173.727 138.477 175.065 138.38 176.756Z" fill="#EB7133"/>
<path d="M117.752 162.49C131.49 164.416 158.251 169.54 178.2 181.884C178.26 176.127 178.656 171.11 178.907 168.482C165.5 164.99 132.558 156.844 118.912 157.294L117.752 162.49Z" fill="#EB7133"/>
<path d="M202.245 98.0652C202.124 100.934 201.576 103.949 200.713 106.978C200.37 108.172 199.98 109.369 199.549 110.562C199.159 111.633 198.735 112.708 198.278 113.767C197.997 114.423 197.716 115.086 197.44 115.752C197.343 115.982 197.25 116.211 197.156 116.44C197.018 116.776 196.88 117.114 196.744 117.452C195.962 119.388 195.207 121.35 194.487 123.319C194.329 123.755 194.169 124.185 194.006 124.626C193.774 125.292 193.535 125.956 193.301 126.629C193.202 126.915 193.103 127.199 193.005 127.482C192.881 127.838 192.76 128.193 192.64 128.548C191.744 131.192 190.913 133.813 190.156 136.356C190.032 136.773 189.911 137.19 189.793 137.604C188.14 143.296 186.892 148.557 186.184 152.786C186.115 153.211 186.049 153.62 185.987 154.022C185.745 155.653 185.531 157.357 185.353 159.139C185.319 159.47 185.286 159.803 185.257 160.138C184.981 163.15 184.803 166.375 184.746 169.826C184.739 170.369 184.731 170.919 184.731 171.474C184.722 172.229 184.724 172.991 184.734 173.77C181.249 172.431 176.499 170.68 171.022 168.855C170.706 168.749 170.388 168.646 170.067 168.54C162.183 165.942 152.899 163.238 143.749 161.398C143.421 161.331 143.093 161.267 142.768 161.203C140.173 160.699 137.594 160.265 135.066 159.927C134.72 159.881 134.375 159.836 134.032 159.792C129.582 159.239 125.304 158.993 121.394 159.175C121.044 159.19 120.696 159.207 120.353 159.232C118.318 159.368 116.392 159.626 114.602 160.026C114.8 158.983 114.985 157.976 115.162 157.017C115.394 155.719 115.611 154.513 115.786 153.403C116.018 152.034 116.188 150.828 116.317 149.807C116.351 149.538 116.383 149.284 116.403 149.045C116.408 149.01 116.413 148.98 116.415 148.953C116.415 148.953 116.188 148.734 115.816 148.329C115.549 148.043 115.207 147.671 114.812 147.212C114.583 146.945 114.333 146.649 114.07 146.326C112.015 143.82 109.165 139.776 107.958 135.42C107.556 133.97 107.561 132.26 107.852 130.33C107.936 129.76 108.047 129.173 108.178 128.569C109.285 123.469 111.912 117.103 114.139 110.131C114.694 108.402 115.224 106.628 115.695 104.831C115.934 103.933 116.156 103.038 116.359 102.135C116.521 101.415 116.669 100.687 116.815 99.9596C116.822 99.9078 116.835 99.8486 116.847 99.7968C116.874 99.6217 116.906 99.4589 116.936 99.2961C118.734 89.6379 118.781 84.5653 125.731 81.4845C127.324 80.779 129.27 80.1821 131.689 79.6517C133.635 79.2225 135.882 78.8476 138.491 78.4973C139.554 78.3543 140.678 78.2137 141.872 78.0805L144.665 77.8486L173.989 75.4165C173.989 75.4165 174.137 75.451 174.416 75.5201C174.904 75.6385 175.805 75.8605 177.016 76.1762C177.265 76.2404 177.526 76.3094 177.8 76.3834C178.434 76.5512 179.137 76.7362 179.894 76.9458C182.191 77.5748 185.006 78.3888 188.063 79.3557C189.032 79.6591 190.036 79.9847 191.052 80.3276C194.153 81.3562 196.522 82.9151 198.261 84.8588C201.342 88.2961 202.469 92.9519 202.245 98.0652Z" fill="#5A6C31"/>
<path d="M146.645 132.133C143.478 132.133 140.177 131.15 137.473 129.685C132.546 127.014 129.761 123.077 130.205 119.41C130.888 113.773 135.822 111.151 139.123 111.426C141.322 111.608 142.63 112.998 142.536 115.052C142.395 118.147 144.756 118.875 148.621 119.805C150.382 120.229 152.203 120.667 153.859 121.496C155.269 122.201 156.083 123.172 156.279 124.381C156.694 126.945 154.097 129.577 153.987 129.686L153.955 129.716C151.913 131.429 149.327 132.133 146.645 132.133ZM138.652 112.393C135.823 112.393 131.758 114.794 131.184 119.529C130.796 122.735 133.449 126.381 137.943 128.818C142.637 131.362 149.202 132.396 153.303 128.975C153.495 128.775 155.628 126.517 155.304 124.536C155.161 123.658 154.526 122.933 153.417 122.378C151.861 121.599 150.096 121.175 148.39 120.763C144.778 119.894 141.367 119.072 141.55 115.006C141.648 112.859 139.829 112.474 139.042 112.409C138.915 112.399 138.785 112.393 138.652 112.393Z" fill="#2D3D0C"/>
<path d="M154.819 146.816C150.889 146.816 148.307 144.66 147.147 142.469C146.154 140.591 146.117 138.617 147.054 137.554C147.478 137.073 148.477 136.375 150.407 137.101C154.535 138.656 156.597 137.508 159.451 135.918C160.55 135.307 161.795 134.612 163.283 134.023C164.818 133.413 166.245 133.555 167.524 134.445C168.674 135.244 169.317 136.513 169.288 137.926C169.257 139.407 168.486 140.77 167.226 141.572C166.782 141.854 166.343 142.21 165.833 142.62C164.038 144.071 161.577 146.059 156.247 146.726C155.752 146.788 155.276 146.816 154.819 146.816ZM148.863 137.773C148.46 137.773 148.075 137.887 147.794 138.206C147.147 138.94 147.241 140.538 148.018 142.007C148.572 143.053 150.791 146.413 156.123 145.745C161.175 145.113 163.414 143.305 165.213 141.851C165.722 141.439 166.203 141.05 166.695 140.738C167.677 140.114 168.277 139.055 168.301 137.905C168.323 136.829 167.835 135.862 166.961 135.254C165.957 134.556 164.873 134.452 163.647 134.938C162.218 135.504 161.055 136.151 159.931 136.778C157.078 138.367 154.615 139.739 150.058 138.022C149.697 137.889 149.27 137.773 148.863 137.773Z" fill="#2D3D0C"/>
<path d="M190.159 111.208C187.463 110.107 184.986 110.174 182.992 111.395C182.795 111.506 180.785 112.688 180.4 115.004C180.089 116.873 180.923 118.901 182.879 121.036C184.648 122.967 186.689 124.243 188.489 125.367C190.157 126.411 191.627 127.328 192.64 128.549C192.76 128.194 192.881 127.839 193.005 127.484C191.919 126.349 190.506 125.463 189.014 124.531C187.181 123.387 185.285 122.2 183.605 120.37C181.871 118.475 181.119 116.729 181.373 115.176C181.684 113.267 183.462 112.263 183.48 112.253L183.502 112.241C185.219 111.185 187.393 111.143 189.788 112.12C192.228 113.114 194.636 115.009 196.745 117.454C196.881 117.116 197.019 116.778 197.157 116.443C195.02 114.056 192.604 112.204 190.159 111.208Z" fill="#2D3D0C"/>
<path d="M189.723 135.853C188.739 134.849 187.458 134.403 185.919 134.521C182.562 134.778 182.125 137.432 181.738 139.774C181.299 142.443 180.919 144.748 176.873 144.389C173.323 144.076 170.51 145.832 169.156 149.207C167.604 153.076 168.564 157.847 171.339 160.067C172.72 161.172 174.321 161.539 176.022 161.539C177.729 161.539 179.532 161.169 181.304 160.804C182.624 160.533 183.963 160.257 185.256 160.141C185.285 159.805 185.317 159.472 185.352 159.142C183.956 159.255 182.52 159.549 181.107 159.837C177.639 160.55 174.364 161.221 171.957 159.297C169.502 157.334 168.676 153.063 170.075 149.575C171.165 146.854 173.336 145.342 176.095 145.342C176.321 145.342 176.551 145.352 176.785 145.372C181.742 145.808 182.282 142.552 182.714 139.934C183.089 137.665 183.412 135.703 185.994 135.503C187.25 135.407 188.239 135.747 189.019 136.544C189.319 136.852 189.576 137.212 189.793 137.607C189.911 137.192 190.032 136.776 190.156 136.359C190.024 136.181 189.878 136.011 189.723 135.853Z" fill="#2D3D0C"/>
<path d="M171.021 168.859C170.705 168.753 170.387 168.65 170.066 168.544C170.226 167.757 170.241 166.97 170.046 166.252C169.56 164.466 167.841 163.418 164.939 163.134C158.271 162.483 156.201 160.645 154.201 158.866C153.096 157.886 152.055 156.959 150.239 156.189C148.298 155.366 146.774 155.341 145.712 156.115C144.192 157.22 143.817 159.717 143.748 161.403C143.42 161.336 143.092 161.272 142.766 161.208C142.863 159.338 143.334 156.63 145.13 155.316C146.491 154.325 148.339 154.312 150.624 155.282C152.587 156.115 153.739 157.139 154.854 158.128C156.825 159.88 158.686 161.532 165.033 162.151C169.21 162.558 170.582 164.465 170.998 165.993C171.25 166.918 171.225 167.897 171.021 168.859Z" fill="#2D3D0C"/>
<path d="M202.245 98.0653C202.124 100.934 201.576 103.949 200.713 106.979C200.37 108.172 199.98 109.369 199.549 110.563C199.159 111.633 198.735 112.709 198.278 113.767C197.997 114.423 197.716 115.086 197.44 115.752C189.856 116.764 178.708 114.852 175.595 107.379C170.66 95.5382 174.608 80.7359 177.016 76.1738C177.265 76.238 177.526 76.307 177.8 76.381C178.434 76.5488 179.137 76.7338 179.894 76.9434C182.191 77.5724 185.006 78.3864 188.063 79.3533C189.032 79.6567 190.036 79.9823 191.052 80.3252C194.153 81.3538 196.522 82.9127 198.261 84.8564C201.342 88.2962 202.469 92.9519 202.245 98.0653Z" fill="#FA9761"/>
<path d="M120.35 159.157C120.347 159.183 120.347 159.208 120.35 159.234C120.692 159.211 121.04 159.192 121.391 159.178C121.447 158.762 121.827 156.617 123.65 155.226C125.213 154.035 127.425 153.681 130.225 154.174C134.232 154.881 134.146 156.984 134.047 159.417C134.042 159.541 134.036 159.668 134.031 159.796C134.374 159.84 134.719 159.883 135.064 159.93C135.069 159.777 135.074 159.618 135.083 159.458C135.182 157.033 135.306 154.015 130.406 153.15C127.301 152.603 124.811 153.026 123.006 154.41C120.63 156.232 120.359 159.037 120.35 159.157Z" fill="#2D3D0C"/>
<path d="M162.113 122.606C160.71 120.116 159.26 117.54 157.379 116.749C155.511 115.963 154.512 114.273 154.638 112.114C154.837 108.693 157.903 104.397 163.381 102.796C163.818 102.62 168.028 101.031 170.461 104.274C171.638 105.845 170.643 107.537 169.681 109.175C168.378 111.394 167.251 113.309 170.329 115.315C173.871 117.626 175.928 121.285 175.446 124.42C175.084 126.769 173.401 128.48 170.704 129.235C170.193 129.378 169.711 129.444 169.254 129.444C165.966 129.443 164.012 125.974 162.113 122.606ZM163.76 103.763C163.74 103.772 163.718 103.779 163.697 103.785C158.719 105.231 155.848 109.186 155.674 112.174C155.574 113.892 156.323 115.177 157.781 115.792C159.988 116.721 161.529 119.453 163.017 122.096C165.072 125.743 167.013 129.188 170.422 128.235C172.703 127.596 174.122 126.185 174.417 124.262C174.838 121.523 172.965 118.277 169.759 116.186C165.852 113.638 167.477 110.872 168.783 108.649C169.783 106.947 170.338 105.846 169.627 104.898C168.669 103.619 167.362 103.271 166.225 103.271C164.924 103.27 163.843 103.726 163.76 103.763Z" fill="#2D3D0C"/>
<path d="M117.979 114.695C117.332 114.525 116.827 114.1 116.481 113.434C114.144 108.931 119.972 93.1307 120.221 92.4598C120.271 92.3254 120.374 92.2181 120.506 92.1626L127.257 89.3062C127.435 89.231 127.64 89.2606 127.789 89.3827C128.1 89.638 135.388 95.6936 132.83 99.6723C131.902 101.115 130.381 101.845 129.04 102.489C126.663 103.63 124.946 104.454 126.138 108.328C126.963 111.011 126.815 112.963 125.697 114.128C124.931 114.926 123.736 115.326 122.127 115.326C120.961 115.326 119.576 115.115 117.979 114.695ZM121.117 93.0308C119.423 97.6422 115.664 109.605 117.402 112.954C117.61 113.355 117.885 113.596 118.243 113.69C121.604 114.575 123.921 114.477 124.947 113.408C125.785 112.535 125.851 110.929 125.145 108.632C123.689 103.904 126.293 102.654 128.591 101.552C129.867 100.939 131.188 100.306 131.956 99.1099C133.599 96.5544 129.406 92.1305 127.368 90.3854L121.117 93.0308Z" fill="#2D3D0C"/>
<path d="M107.85 130.33C109.123 128.907 110.499 128.113 111.956 127.962C114.978 127.648 117.393 130.203 117.417 130.229C117.506 130.323 117.628 130.382 117.757 130.393C117.892 130.403 131.369 131.533 132.392 137.224C132.672 138.788 132.444 139.996 131.696 140.919C130.052 142.942 126.27 143.22 122.852 143.321C121.001 143.375 119.24 144.199 117.541 144.993C116.313 145.569 115.162 146.107 114.069 146.328C114.332 146.649 114.581 146.945 114.812 147.213C115.871 146.922 116.933 146.426 117.98 145.935C119.585 145.184 121.244 144.409 122.883 144.359C126.529 144.251 130.582 143.939 132.5 141.573C133.438 140.417 133.745 138.893 133.412 137.039C132.31 130.901 119.823 129.538 118.032 129.374C117.417 128.771 114.962 126.603 111.849 126.929C110.551 127.063 109.322 127.612 108.178 128.57C108.045 129.176 107.935 129.762 107.85 130.33Z" fill="#2D3D0C"/>
<path d="M116.356 102.134C131.62 99.1234 136.993 84.1003 138.486 78.4961C135.881 78.8464 133.634 79.2262 131.685 79.6517C129.269 80.1833 127.318 80.7802 125.727 81.4869C118.778 84.5702 118.733 89.6367 116.937 99.2961C116.904 99.4613 116.874 99.6266 116.845 99.798C116.835 99.8511 116.821 99.9066 116.811 99.9633C116.669 100.688 116.521 101.415 116.356 102.134Z" fill="#FA9761"/>
<path d="M144.663 77.8508C145.725 80.5703 148.378 83.9471 154.957 84.7895C164.033 85.9537 171.647 78.613 174.415 75.5211C174.137 75.4532 173.992 75.4199 173.992 75.4199L144.663 77.8508Z" fill="#2D3D0C"/>
<path d="M150.968 95.6124C150.693 95.6124 150.422 95.5976 150.153 95.5643C147.639 95.2621 145.781 94.1386 144.631 92.2257C141.283 86.6548 145.219 76.2998 145.388 75.862C145.523 75.5129 145.916 75.3403 146.263 75.4747C146.611 75.6091 146.786 76.0013 146.65 76.3491C146.611 76.4503 142.781 86.5265 145.792 91.5301C146.729 93.0878 148.208 93.9671 150.314 94.2212C159.125 95.2806 173.296 75.233 173.438 75.0307C173.652 74.7248 174.074 74.6508 174.38 74.8654C174.686 75.08 174.76 75.5018 174.545 75.8077C173.962 76.639 160.531 95.6124 150.968 95.6124Z" fill="white"/>
<path d="M158.948 153.011C158.823 153.228 158.596 153.349 158.358 153.349C158.243 153.349 158.129 153.322 158.024 153.262C157.912 153.198 146.901 146.993 133.457 149.619C126.627 150.952 120.822 150.816 116.313 149.808C116.346 149.541 116.377 149.287 116.401 149.047C116.404 149.013 116.408 148.983 116.412 148.953C116.412 148.953 116.188 148.735 115.812 148.333C120.22 149.453 126.12 149.67 133.197 148.29C147.151 145.567 158.234 151.821 158.697 152.089C159.022 152.274 159.134 152.687 158.948 153.011Z" fill="#2D3D0C"/>
<path d="M145.245 102.378C136.668 102.378 134.789 93.1273 134.771 93.0348C134.7 92.6673 134.941 92.3134 135.307 92.2431C135.676 92.1728 136.029 92.4132 136.099 92.7795C136.167 93.1286 137.799 101.027 145.245 101.027C153.06 101.027 170.056 89.0931 170.226 88.9723C170.532 88.7564 170.954 88.8292 171.17 89.1351C171.384 89.4409 171.313 89.8627 171.007 90.0786C170.295 90.5793 153.484 102.378 145.245 102.378Z" fill="#2D3D0C"/>
<path d="M187.287 238.935C188.201 226.544 187.507 216.503 186.161 208.605C186.062 208.023 185.961 207.458 185.856 206.9C184.276 198.544 181.99 192.763 180.268 189.272C179.971 188.662 179.497 188.186 179.429 187.655C179.133 185.341 178.355 184.042 178.355 184.042C178.355 184.042 174.146 185.355 168.401 185.442C167.857 185.448 167.291 185.456 166.709 185.463C160.748 185.524 153.019 185.44 145.102 184.912C144.541 184.875 143.976 184.838 143.412 184.794C141.669 184.665 139.92 184.512 138.185 184.333C137.62 184.276 137.055 184.215 136.496 184.151C131.308 183.563 126.291 182.734 121.899 181.57C121.341 181.424 120.792 181.272 120.255 181.116C117.985 180.446 115.915 179.678 114.112 178.798C114.112 178.798 112.657 179.627 111.815 182.374C111.662 182.874 111.267 183.317 110.969 183.849C108.828 187.681 105.993 193.544 103.815 200.898C103.636 201.5 103.459 202.116 103.29 202.738C102.374 206.115 101.606 209.774 101.109 213.672C99.3733 227.268 186.424 250.647 187.287 238.935Z" fill="#371C0E"/>
<path d="M110.97 183.85C113.01 184.898 115.293 185.832 117.816 186.647C118.358 186.824 118.909 186.993 119.474 187.158C124.285 188.558 129.897 189.566 136.29 190.176C136.848 190.232 137.41 190.281 137.977 190.327C139.666 190.469 141.407 190.582 143.204 190.669C143.763 190.696 144.328 190.72 144.895 190.743C147.296 190.834 149.79 190.882 152.372 190.882C152.987 190.882 153.6 190.879 154.225 190.875C158.853 190.834 163.288 190.648 167.276 190.398C167.851 190.361 168.416 190.324 168.975 190.287C173.569 189.972 177.476 189.583 180.267 189.272C179.97 188.662 179.685 188.125 179.428 187.655C176.688 187.952 173.001 188.305 168.712 188.592C168.161 188.629 167.596 188.666 167.023 188.701C160.508 189.1 152.792 189.33 144.961 189.023C144.396 188.999 143.831 188.976 143.266 188.947C141.521 188.86 139.772 188.745 138.037 188.6C137.472 188.553 136.911 188.501 136.348 188.447C130.685 187.899 125.172 186.993 120.225 185.585C119.668 185.43 119.115 185.263 118.571 185.091C116.145 184.324 113.876 183.423 111.816 182.375C111.549 182.824 111.267 183.318 110.97 183.85Z" fill="#714C38"/>
<path d="M135.671 230.144C135.675 230.608 136.053 230.983 136.517 230.983C136.521 230.983 136.521 230.983 136.525 230.983C136.992 230.979 137.367 230.597 137.363 230.131C137.34 226.957 137.343 223.706 137.363 220.459C137.367 219.888 137.371 219.316 137.377 218.743C137.464 208.128 137.742 197.695 137.979 190.328C137.998 189.732 138.016 189.153 138.037 188.598C138.091 186.982 138.141 185.547 138.186 184.332C137.621 184.274 137.056 184.214 136.497 184.15C136.454 185.365 136.402 186.813 136.348 188.446C136.327 189.001 136.311 189.579 136.29 190.175C136.057 197.478 135.78 207.82 135.688 218.371C135.682 218.953 135.678 219.538 135.671 220.12C135.65 223.487 135.648 226.859 135.671 230.144Z" fill="#714C38"/>
<path d="M132.657 219.122C132.927 219.236 134.142 219.737 135.671 220.12C136.205 220.255 136.777 220.372 137.362 220.457C137.897 220.531 138.438 220.58 138.973 220.58C139.998 220.58 140.979 220.411 141.78 219.954C142.778 219.386 143.393 218.421 143.556 217.171C143.992 213.873 144.547 200.323 144.895 190.744C144.919 190.156 144.94 189.58 144.959 189.023C145.014 187.49 145.06 186.096 145.101 184.912C144.54 184.875 143.975 184.838 143.41 184.793C143.37 185.984 143.323 187.395 143.265 188.947C143.245 189.502 143.224 190.077 143.204 190.669C142.853 200.225 142.3 213.753 141.878 216.95C141.784 217.687 141.486 218.175 140.941 218.485C140.072 218.979 138.725 218.965 137.376 218.742C136.801 218.647 136.225 218.515 135.687 218.369C134.703 218.102 133.841 217.784 133.319 217.564C132.89 217.382 132.393 217.581 132.209 218.011C132.028 218.442 132.228 218.939 132.657 219.122Z" fill="#714C38"/>
<path d="M166.709 185.463C166.713 185.476 166.713 185.49 166.713 185.504C166.784 186.606 166.889 187.672 167.025 188.7C167.099 189.279 167.184 189.844 167.279 190.399C168.453 197.161 171.112 202.13 175.221 205.206C178.976 208.017 183.096 208.609 185.895 208.609C185.986 208.609 186.073 208.609 186.162 208.605C186.063 208.023 185.962 207.458 185.858 206.899C183.313 206.886 179.563 206.348 176.22 203.838C172.513 201.053 170.087 196.507 168.978 190.286C168.88 189.735 168.792 189.17 168.714 188.592C168.579 187.583 168.474 186.531 168.404 185.442C167.856 185.449 167.29 185.455 166.709 185.463Z" fill="#714C38"/>
<path d="M103.29 202.738C108.087 201.944 112.609 198.408 116.585 192.272C117.698 190.554 118.662 188.802 119.474 187.158C119.742 186.62 119.992 186.092 120.225 185.585C120.929 184.05 121.49 182.666 121.9 181.57C121.342 181.424 120.794 181.272 120.256 181.116C119.837 182.208 119.275 183.579 118.571 185.091C118.334 185.595 118.084 186.116 117.816 186.647C114.93 192.394 110.219 199.349 103.814 200.899C103.636 201.501 103.46 202.117 103.29 202.738Z" fill="#714C38"/>
<path d="M177.29 233.553C175.318 233.553 173.276 233.024 171.253 231.965C156.723 224.362 160.264 187.492 160.422 185.926C160.487 185.276 161.067 184.802 161.718 184.866C162.368 184.932 162.843 185.512 162.777 186.162C162.74 186.53 159.231 223.002 172.351 229.866C175.762 231.652 179.194 231.603 182.015 229.731C185.695 227.288 187.775 222.143 187.314 216.624C187.26 215.973 187.745 215.401 188.396 215.346C189.046 215.295 189.619 215.776 189.675 216.427C190.206 222.793 187.714 228.79 183.326 231.704C181.467 232.935 179.418 233.553 177.29 233.553Z" fill="white"/>
<path d="M146.353 78.4463C154.725 88.7446 170.875 79.7426 171.373 75.7959C168.365 66.2796 169.109 54.4619 169.109 54.4619L146.109 62.5463C146.161 63.2173 146.214 63.8894 146.265 64.5665C146.511 67.6856 146.744 70.875 146.652 74.2444C146.606 75.8465 146.58 76.7493 146.353 78.4463Z" fill="#FA9761"/>
<path d="M146.652 74.2447C158.717 71.6313 166.619 59.2549 166.619 59.2549L146.266 64.5656C146.511 67.6859 146.744 70.8752 146.652 74.2447Z" fill="#371C0E"/>
<path d="M141.179 45.482C141.179 45.482 139.456 39.8199 134.847 41.0532C130.24 42.2865 129.892 57.5674 138.639 57.19L141.179 45.482Z" fill="#EB7133"/>
<path d="M136.686 68.042C132.516 67.4586 129.598 63.5934 130.182 59.4235C130.764 55.2537 134.63 52.3356 138.8 52.919C142.97 53.5011 145.888 57.3676 145.305 61.5374C144.723 65.7061 140.856 68.6241 136.686 68.042ZM138.642 54.0475C135.095 53.5517 131.806 56.0343 131.31 59.5814C130.814 63.1284 133.297 66.4177 136.844 66.9135C140.391 67.4093 143.68 64.9266 144.176 61.3796C144.672 57.8325 142.189 54.542 138.642 54.0475Z" fill="white"/>
<path d="M169.403 56.2983C166.896 62.3551 150.879 69.1285 144.428 65.9601C140.513 64.0361 137.097 60.2733 135.337 52.0828C135.327 52.0396 135.32 51.9952 135.309 51.9521C135.206 51.4686 135.111 50.9925 135.026 50.5202C134.866 49.6692 134.734 48.8391 134.629 48.0437C134.604 47.8562 134.58 47.67 134.56 47.4887C134.502 46.9953 134.456 46.5168 134.424 46.0568C134.382 45.4894 134.358 44.9517 134.355 44.4473C134.307 36.2728 134.084 27.0858 141.666 22.1661C149.249 17.2464 160.901 16.1499 167.401 23.6337C167.401 23.6337 172.197 30.1358 171.69 41.935C171.183 53.7342 171.216 51.9237 169.403 56.2983Z" fill="#FA9761"/>
<path d="M143.039 43.0834C143.081 44.133 142.643 45.0025 142.061 45.0259C141.479 45.0493 140.972 44.2181 140.929 43.1685C140.887 42.119 141.325 41.2507 141.907 41.226C142.49 41.2038 142.996 42.0351 143.039 43.0834Z" fill="#371C0E"/>
<path d="M154.529 41.5463C154.571 42.5959 154.133 43.4642 153.551 43.4888C152.967 43.5123 152.462 42.681 152.419 41.6314C152.377 40.5819 152.814 39.7124 153.397 39.689C153.98 39.6655 154.486 40.4968 154.529 41.5463Z" fill="#371C0E"/>
<path d="M161.174 22.0267C161.174 22.0267 164.615 34.8964 168.241 37.5665C171.867 40.2367 175.209 34.1181 175.209 34.1181C175.209 34.1181 168.334 14.3529 161.174 22.0267Z" fill="#D36C17"/>
<path d="M145.281 21.9094C145.281 21.9094 152.125 32.6677 161.371 30.5353C170.617 28.4016 164.734 20.5626 164.734 20.5626C164.734 20.5626 147.959 12.974 145.281 21.9094Z" fill="#D36C17"/>
<path d="M147.76 21.1265C147.76 21.1265 143.405 34.1726 134.641 31.1756C129.01 29.2492 138.081 16.2722 144.047 17.0331C150.014 17.7941 147.76 21.1265 147.76 21.1265Z" fill="#D36C17"/>
<path d="M135.309 51.9534C135.206 51.47 135.111 50.9939 135.026 50.5215C134.866 49.6705 134.734 48.8405 134.629 48.045C134.604 47.8576 134.58 47.6713 134.56 47.49C134.697 47.4839 134.833 47.4802 134.971 47.4789C138.042 47.4358 140.55 48.4064 140.566 49.6422C140.585 50.8397 138.254 51.856 135.309 51.9534Z" fill="#EB7133"/>
<path d="M164.373 47.6169C164.392 48.8552 161.914 49.8936 158.842 49.938C155.768 49.9824 153.263 49.0143 153.245 47.7773C153.228 46.5402 155.704 45.5005 158.778 45.4561C161.85 45.4105 164.356 46.3787 164.373 47.6169Z" fill="#EB7133"/>
<path d="M151.502 32.524C151.502 32.524 154.74 31.5842 157.209 33.9176C158.588 35.2212 157.464 36.6975 155.593 35.6307C154.287 34.8858 153.547 34.5725 151.938 34.4936C150.327 34.4146 150.704 32.6572 151.502 32.524Z" fill="#D36C17"/>
<path d="M141.758 33.3215C141.758 33.3215 138.57 32.2263 135.991 34.4376C134.55 35.6734 135.602 37.2015 137.522 36.2272C138.863 35.5464 139.617 35.2677 141.229 35.2677C142.841 35.2677 142.549 33.4942 141.758 33.3215Z" fill="#D36C17"/>
<path d="M168.741 40.4219C168.741 40.4219 171.5 35.6909 176.307 37.8258C181.113 39.9607 178.867 56.6611 169.407 54.7482L168.741 40.4219Z" fill="#FA9761"/>
<path d="M166.113 32.9629C166.113 32.9629 167.686 35.2902 167.19 43.4203C166.695 51.5504 161.289 57.2631 161.289 57.2631C161.289 57.2631 172.465 52.3964 170.284 35.7934C168.105 19.1904 166.113 32.9629 166.113 32.9629Z" fill="#D36C17"/>
<path d="M176.398 51.7858C176.122 52.0966 175.956 52.4209 175.676 52.728C178.739 53.6025 180.775 56.6278 180.322 59.8702C179.827 63.4172 176.537 65.8999 172.99 65.4041C169.443 64.9083 166.961 61.6191 167.456 58.072C167.793 55.6646 169.416 53.7505 171.532 52.9217C172.943 52.5307 173.164 51.9572 173.22 51.3677C169.758 51.6723 166.83 54.3301 166.328 57.9154C165.746 62.0853 168.664 65.9517 172.834 66.5338C177.004 67.116 180.869 64.1979 181.452 60.0281C181.958 56.4046 179.704 52.9944 176.398 51.7858Z" fill="white"/>
<path d="M170.701 48.2399C170.638 48.4816 170.783 48.7295 171.024 48.7924C171.058 48.801 171.09 48.806 171.122 48.8084C171.329 48.8171 171.523 48.6777 171.577 48.4705C171.584 48.4434 172.012 46.8635 173.157 45.4341C174.083 46.269 174.818 47.0411 174.829 47.0509C174.913 47.1422 175.025 47.1878 175.139 47.1915C175.256 47.1965 175.374 47.1545 175.469 47.0694C175.648 46.8968 175.655 46.6106 175.484 46.4281C175.451 46.3923 174.714 45.6203 173.766 44.7631C174.49 44.0638 175.422 43.478 176.606 43.2548C176.852 43.2079 177.011 42.9711 176.964 42.7269C176.917 42.479 176.682 42.3187 176.437 42.3656C172.07 43.1906 170.756 48.0339 170.701 48.2399Z" fill="#371C0E"/>
<path d="M146.312 49.165C146.598 49.2057 146.904 49.2205 147.23 49.1995C147.544 49.1785 147.782 48.9084 147.763 48.5939C147.743 48.2794 147.47 48.0414 147.157 48.0611C145.916 48.1413 145.046 47.5222 144.613 47.1177C146.49 44.762 147.699 38.7483 147.753 38.477C147.814 38.1674 147.613 37.8677 147.304 37.8073C146.987 37.7481 146.695 37.9467 146.633 38.255C146.262 40.126 144.968 45.2899 143.453 46.7008C143.243 46.8969 143.212 47.2213 143.381 47.4544C143.43 47.5222 144.456 48.8998 146.312 49.165Z" fill="#371C0E"/>
<path d="M191.821 184.128C191.821 184.128 186.535 183.418 183.678 184.039C180.822 184.661 179.301 187.624 179.301 187.624L180.887 191.857C180.887 191.857 177.567 191.761 174.189 192.922C170.811 194.082 168.475 196.999 166.965 198.172C165.456 199.345 168.237 200.87 171.022 199.699C173.808 198.527 176.193 198.062 177.365 197.961C177.365 197.961 173.894 199.141 171.984 200.7C170.075 202.259 165.838 204.996 166.316 206.701C166.793 208.407 170.805 206.19 173.675 205.164C176.545 204.137 177.732 203.246 180.251 202.93C180.251 202.93 177.524 204.299 176.302 205.679C175.08 207.06 172.639 209.492 172.084 210.807C171.529 212.121 174.902 212.348 177.504 210.577C180.107 208.805 181.128 206.672 183.086 206.74C183.086 206.74 181.425 208.596 180.467 210.02C179.508 211.445 178.569 215.67 180.073 216.065C181.578 216.46 184.893 211.372 187.326 210.477C189.76 209.581 194.085 207.802 199.974 204.831C205.863 201.858 206.283 192.31 206.283 192.31L191.821 184.128Z" fill="#FA9761"/>
<path d="M199.598 86.8199C200.018 87.3367 200.398 87.8066 200.789 88.2999L201.95 89.7614C202.719 90.7357 203.474 91.7186 204.233 92.6991C205.753 94.6552 207.23 96.6445 208.713 98.6289C210.202 100.611 211.645 102.629 213.097 104.644L215.264 107.68L217.401 110.748C220.239 114.855 223.01 119.032 225.715 123.353C227.059 125.522 228.396 127.721 229.701 130.01C230.352 131.157 231 132.322 231.642 133.532C232.283 134.742 232.923 135.985 233.551 137.332C233.866 138.005 234.18 138.703 234.495 139.449C234.809 140.197 235.125 140.986 235.442 141.895C235.756 142.807 236.082 143.809 236.382 145.208C236.527 145.912 236.675 146.743 236.747 147.871L236.759 148.079L236.768 148.317L236.776 148.793C236.779 148.979 236.774 149.041 236.77 149.146L236.758 149.438L236.726 150.023L236.706 150.315L236.679 150.576C236.641 150.921 236.598 151.265 236.551 151.608C236.5 151.921 236.445 152.223 236.387 152.53C236.33 152.848 236.265 153.112 236.199 153.39L236.099 153.803L236.049 154.009L235.996 154.198L235.78 154.951C235.706 155.208 235.629 155.421 235.553 155.658C235.4 156.133 235.241 156.556 235.081 156.985C234.437 158.679 233.745 160.108 233.036 161.462C231.62 164.15 230.137 166.491 228.611 168.727C227.091 170.96 225.519 173.066 223.929 175.115C220.736 179.202 217.421 183.04 214.008 186.758C212.302 188.617 210.556 190.429 208.802 192.227C207.915 193.119 207.025 194.005 206.126 194.889C205.677 195.33 205.218 195.764 204.761 196.203L204.069 196.861L203.346 197.536C199.948 200.71 194.623 200.528 191.449 197.131C188.703 194.19 188.47 189.805 190.659 186.622L190.772 186.46L194.79 180.612C196.15 178.654 197.478 176.677 198.801 174.71C201.442 170.776 204.024 166.833 206.411 162.913C207.612 160.96 208.739 159.001 209.791 157.087C210.315 156.129 210.806 155.178 211.261 154.252C211.719 153.328 212.137 152.422 212.486 151.572C212.831 150.727 213.125 149.919 213.287 149.311C213.324 149.163 213.368 149.011 213.385 148.899C213.395 148.844 213.419 148.768 213.419 148.729C213.422 148.685 213.428 148.641 213.436 148.597L213.441 148.565L213.438 148.548L213.436 148.514C213.435 148.493 213.441 148.461 213.426 148.477C213.417 148.484 213.412 148.486 213.409 148.497C213.393 148.537 213.381 148.577 213.375 148.618L213.37 148.651L213.359 148.714C213.353 148.756 213.348 148.799 213.345 148.841L213.341 148.905L213.338 149.03C213.337 149.113 213.337 149.195 213.341 149.278L213.349 149.495C213.377 150.013 213.425 150.241 213.435 150.351C213.463 150.56 213.409 150.4 213.296 150.169C213.188 149.935 213.026 149.602 212.838 149.238C212.65 148.873 212.434 148.472 212.201 148.056C211.734 147.222 211.21 146.322 210.648 145.408C210.09 144.492 209.495 143.559 208.884 142.618C207.66 140.735 206.371 138.818 205.042 136.906C203.718 134.989 202.359 133.066 200.979 131.143C199.608 129.215 198.203 127.296 196.801 125.367L192.559 119.587L188.271 113.81L183.972 108.029L179.714 102.282L179.703 102.266C175.562 96.6754 176.736 88.7858 182.326 84.6443C187.754 80.6261 195.37 81.6399 199.598 86.8199Z" fill="#FA9761"/>
<path d="M192.609 183.785C192.609 183.785 202.496 189.372 205.682 195.642C205.682 195.642 207.957 195.348 208.206 192.823C208.206 192.823 203.215 184.862 194.44 181.117C194.44 181.117 192.794 181.28 192.609 183.785Z" fill="#371C0E"/>
<path d="M213.484 149.814C213.335 149.814 213.188 149.748 213.092 149.62C212.927 149.403 212.968 149.094 213.184 148.929C213.334 148.814 216.893 146.128 220.926 145.625C221.195 145.589 221.443 145.783 221.477 146.053C221.51 146.323 221.319 146.57 221.049 146.604C217.285 147.075 213.818 149.687 213.784 149.715C213.692 149.781 213.588 149.814 213.484 149.814Z" fill="#EB7133"/>
<path d="M214.007 149.365C213.954 149.365 213.898 149.357 213.845 149.338C213.587 149.25 213.451 148.968 213.541 148.711C214.239 146.693 216.123 144.85 216.203 144.773C216.399 144.583 216.711 144.588 216.9 144.784C217.09 144.979 217.085 145.292 216.89 145.482C216.873 145.499 215.093 147.242 214.473 149.034C214.403 149.237 214.212 149.365 214.007 149.365Z" fill="#EB7133"/>
<path d="M111.097 184.213L112.696 180.893C112.696 180.893 107.251 182.239 106.048 186.779C104.846 191.319 102.592 196.653 101.605 199.251C100.617 201.848 97.5234 206.794 98.2141 208.901C98.906 211.009 101.436 212.281 104.936 213.129C108.436 213.978 109.751 212.59 108.347 211.023C106.942 209.454 102.306 205.129 102.306 205.129C102.306 205.129 104.794 205.624 108.665 207.772C112.537 209.919 113.441 208.428 111.872 205.528C110.304 202.629 104.864 198.878 104.864 198.878C104.864 198.878 109.891 200.904 112.841 202.119C115.791 203.334 116.361 199.384 111.945 196.704C107.528 194.024 106.882 193.255 106.882 193.255C106.882 193.255 109.643 192.662 113.163 194.296C116.684 195.93 119.484 195.7 118.796 193.275C118.108 190.85 109.827 187.55 109.827 187.55L111.097 184.213Z" fill="#FA9761"/>
</svg>
