<svg width="233" height="526" viewBox="0 0 233 526" fill="none" xmlns="http://www.w3.org/2000/svg">
<path d="M104 526C152.601 526 192 518.165 192 508.5C192 498.835 152.601 491 104 491C55.3989 491 16 498.835 16 508.5C16 518.165 55.3989 526 104 526Z" fill="#D6D8E5"/>
<path d="M54.9998 378.334C63.9881 419.009 69.1401 431.313 76.5492 457.231C77.7378 461.387 81.3482 473.226 78.6415 476.598C75.862 480.061 70.0886 489.336 65.9487 490.939C59.1986 493.551 50.1703 504.227 56.4261 506.79C63.548 510.459 75.2242 511.999 83.4829 503.095C90.6519 495.366 101.177 490.016 102.519 485.711C103.321 483.137 102.876 477.408 101.831 474.92C98.9459 468.053 96.2487 452.528 95.1614 443.844C92.5983 423.337 97.5808 411.592 93.0313 385.703C90.1129 369.096 83.7559 361.461 83.4829 353.989C82.878 337.49 96.3005 331.623 98.1692 283.777C83.4287 284.593 72.4163 272.896 58.1325 270.385C56.0025 282.772 51.4106 336.462 50.4456 349.282C48.984 368.677 53.7171 372.53 54.9998 378.334Z" fill="#F38E5C"/>
<path d="M148.044 376.056C147.853 411.755 141.138 438.807 139.663 473.746C139.481 478.065 139.762 482.539 142.466 485.912C145.245 489.374 149.192 493.219 153.335 494.822C160.085 497.435 179.426 505.893 169.932 509.88C158.538 515.407 150.381 508.661 138.333 506.216C133.915 505.319 119.356 507.291 118.014 502.987C117.212 500.412 118.589 494.89 118.702 492.196C119.052 483.822 118.471 469.373 117.826 460.643C115.788 433.111 113.686 417.469 114.625 392.606C115.277 375.307 117.784 350.51 116.36 342.249C113.554 325.979 110.544 299.896 108.548 279.957C123.289 280.773 135.28 277.999 149.564 275.487C151.694 287.874 147.914 333.101 149.296 345.883C151.572 366.962 148.074 370.111 148.044 376.056Z" fill="#F38E5C"/>
<path d="M95.5711 469.362C95.2863 471.125 95.5334 472.669 96.0324 474.377C96.4819 475.928 98.8825 480.793 96.8467 481.904C96.3642 482.168 96.5502 483.067 97.1433 482.998C98.9367 482.791 99.0567 481.111 98.8708 479.546C98.4542 476.044 96.3924 473.097 96.4607 469.482C96.4725 468.985 95.6534 468.846 95.5711 469.362Z" fill="#D3744F"/>
<path d="M122.1 486.575C121.844 488.844 121.886 491.141 121.853 493.422C121.827 495.203 121.535 497.201 121.823 498.971C122.081 500.551 123.468 501.833 124.856 500.527C125.311 500.101 124.835 499.374 124.268 499.515C122.938 499.844 123.308 493.607 123.308 492.894C123.305 490.786 123.359 488.674 123.152 486.575C123.082 485.897 122.176 485.902 122.1 486.575Z" fill="#D3744F"/>
<path d="M132.955 371.791C135.101 374.361 139.644 376.084 142.703 374.041C143.238 373.685 142.901 372.885 142.27 373.017C138.996 373.69 136.118 373.777 133.659 371.087C133.221 370.607 132.55 371.306 132.955 371.791Z" fill="#D3744F"/>
<path d="M56.9979 371.938C60.0882 373.472 65.4332 374.732 67.0807 370.554C67.2902 370.022 66.4758 369.558 66.1134 369.991C63.6962 372.886 60.5189 371.959 57.3133 371.189C56.8802 371.083 56.5672 371.721 56.9979 371.938Z" fill="#D3744F"/>
<path d="M48.1629 291.27C48.0194 295.217 43.3146 328.334 45.0021 331.907C48.163 338.605 75.2691 340.945 93.7448 337.259C97.7247 336.466 102.63 290.145 102.801 281.832C105.164 292.981 105.901 334.244 108.546 336.179C117.248 342.54 145.877 338.513 158.052 332.14C153.952 302.732 153.759 254.015 149.16 224.682C148.927 223.19 148.59 221.531 147.345 220.674C146.333 219.978 145.003 220.022 143.777 220.088C114.694 221.646 85.4414 220.046 56.7018 215.325C55.026 215.047 48.4242 284.101 48.1629 291.27Z" fill="#F6C9B4"/>
<path d="M76.3898 267.682C81.9395 272.502 89.2874 277.071 96.7976 277.621C97.299 277.659 97.3225 276.953 96.9083 276.8C89.6639 274.107 83.1939 271.968 77.0958 266.978C76.6063 266.578 75.9002 267.259 76.3898 267.682Z" fill="#E2AF9A"/>
<path d="M78.1595 278.731C83.7281 281.402 89.8051 283.878 95.9903 284.53C96.7222 284.607 96.814 283.49 96.1573 283.289C90.2663 281.48 84.566 280.044 78.9598 277.363C78.0442 276.923 77.2392 278.288 78.1595 278.731Z" fill="#E2AF9A"/>
<path d="M76.2676 287.892C81.9821 288.561 88.551 289.775 94.2655 288.869C94.8091 288.782 94.7903 287.89 94.2655 287.786C88.4827 286.666 82.1563 287.104 76.2676 286.485C75.3638 286.391 75.3803 287.789 76.2676 287.892Z" fill="#E2AF9A"/>
<path d="M76.9286 306.286C81.4992 304.043 86.1358 301.897 90.6005 299.449C91.1936 299.124 90.6735 298.289 90.0804 298.557C85.4438 300.661 80.9438 303.081 76.4084 305.392C75.813 305.698 76.3355 306.578 76.9286 306.286Z" fill="#E2AF9A"/>
<path d="M97.0093 265.169C96.7151 268.836 98.0826 272.889 101.373 274.828C101.912 275.146 102.413 274.433 102.02 273.99C99.7418 271.418 98.1061 268.716 98.2215 265.172C98.245 264.383 97.0705 264.402 97.0093 265.169Z" fill="#E2AF9A"/>
<path d="M104.105 264.78C103.811 267.857 103.105 271.192 103.359 274.275C103.411 274.891 104.326 275.099 104.496 274.428C105.261 271.375 105.106 267.913 105.315 264.78C105.369 263.997 104.181 264.016 104.105 264.78Z" fill="#E2AF9A"/>
<path d="M106.911 278.587C111.58 277.059 116.309 275.271 120.526 272.722C121.124 272.359 120.602 271.517 119.987 271.799C115.563 273.842 111.237 275.925 106.607 277.488C105.918 277.723 106.212 278.817 106.911 278.587Z" fill="#E2AF9A"/>
<path d="M106.36 283.115C113.706 287.667 123.085 289.693 131.447 286.845C132.115 286.617 131.842 285.676 131.157 285.798C122.449 287.354 114.605 286.885 106.81 282.348C106.313 282.058 105.875 282.814 106.36 283.115Z" fill="#E2AF9A"/>
<path d="M109.377 291.155C114.844 299.172 122.555 306.964 131.816 310.401C132.412 310.622 132.739 309.723 132.235 309.407C123.734 304.086 116.205 298.913 110.269 290.633C109.885 290.103 108.998 290.602 109.377 291.155Z" fill="#E2AF9A"/>
<path d="M211.798 302.145C211.367 285.874 208.647 247.669 188.495 242.453C184.233 241.349 182.416 247.942 186.678 249.046C195.507 251.331 198.773 265.283 200.753 272.767C203.288 282.351 204.7 292.239 204.961 302.147C205.079 306.534 211.916 306.553 211.798 302.145Z" fill="#5D5A6E"/>
<path d="M166.833 112.846C170.594 130.032 171.062 154.504 174.388 166.802C178.798 183.112 181.889 198.697 186.876 221.49C188.841 230.473 190.675 234.022 191.814 242.187C192.303 245.691 192.55 247.861 189.82 252.658C188.523 254.934 185.807 254.995 183.602 255.718C181.745 256.325 180.498 257.716 178.332 258.139C173.597 259.062 168.301 254.939 169.426 250.629C171.168 248.203 173.357 251.587 175.2 250.876C178.316 249.674 174.67 247.828 174.388 245.75C172.11 241.952 174.569 252.39 169.429 250.632C165.92 249.492 167.868 242.949 171.307 235.924C172.232 234.036 172.361 228.972 171.877 227.371C166.426 209.451 157.011 193.079 151.56 175.162C143.812 149.691 144.166 137.886 142.445 111.318C142.134 106.566 164.797 103.547 166.833 112.846Z" fill="#F38E5C"/>
<path d="M165.75 362.947C164.413 368.521 162.331 373.99 162.161 379.719C161.919 387.909 165.586 395.648 169.17 403.017C178.135 403.775 187.02 399.607 195.959 400.619C201.012 401.191 207.171 403.024 210.412 399.103C213.048 395.916 211.633 391.207 210.642 387.191C206.484 370.33 212.419 352.742 212.443 335.375C212.445 333.994 212.401 332.577 211.88 331.299C210.525 327.978 206.545 326.709 203.017 326.06C193.612 324.327 183.922 324.153 174.461 325.549C171.893 325.928 169.231 326.471 167.202 328.091C162.596 331.769 163.331 338.851 164.531 343.942C166.129 350.711 167.44 355.905 165.75 362.947Z" fill="#E8D585"/>
<path d="M153.523 324.372C153.074 332.854 153.493 348.286 159.445 354.695C165.562 361.281 178.323 361.817 187.295 361.328C196.269 360.838 205.297 359.951 210.798 352.843C216.46 345.528 216.277 340.155 215.924 330.912C215.491 319.535 214.641 305.421 211.793 290.751C210.838 285.825 207.696 280.026 203.532 277.222C198.072 273.544 188.653 274.909 182.068 274.831C150.144 274.459 154.844 299.457 153.523 324.372Z" fill="#5D5A6E"/>
<path d="M166.727 281.706C178.86 291.779 169.709 309.377 173.837 322.225C175.666 327.919 184.795 330.585 190.176 329.568C190.71 329.467 190.712 328.587 190.176 328.486C186.405 327.784 181.957 327.65 178.61 325.52C172.917 321.896 174.696 312.187 174.692 306.282C174.682 297.317 175.461 286.921 167.633 280.797C166.995 280.303 166.084 281.174 166.727 281.706Z" fill="#44425B"/>
<path d="M171.114 279.601C176.174 285.361 178.575 291.635 178.54 299.284C178.516 304.559 177.045 309.925 177.558 315.173C178.283 322.561 183.028 325.174 190.027 325.416C190.771 325.442 190.771 324.284 190.027 324.258C175.077 323.74 179.467 310.532 179.636 300.03C179.766 291.908 177.492 284.874 171.594 279.121C171.276 278.815 170.827 279.277 171.114 279.601Z" fill="#44425B"/>
<path d="M163.356 295.726C162.22 279.173 163.107 261.14 176.802 249.815C180.196 247.009 175.336 242.196 171.968 244.981C156.91 257.433 155.265 277.434 156.519 295.726C156.818 300.092 163.658 300.125 163.356 295.726Z" fill="#5D5A6E"/>
<path d="M187.752 291.584C191.202 297.877 193.388 305.063 192.708 312.206C192.197 317.584 190.107 322.663 188.333 327.765C184.019 340.166 181.463 353.175 180.761 366.284C180.625 368.824 180.573 371.45 181.517 373.811C182.861 377.174 186.104 379.516 189.578 380.537C193.054 381.559 196.761 381.425 200.362 381.022C205.022 380.502 209.633 379.544 214.116 378.172C217.138 377.247 220.245 376.033 222.276 373.611C226.689 368.351 224.11 360.504 224.15 353.638C224.192 346.446 227.365 339.708 229.676 332.896C231.987 326.085 233.392 318.306 230.085 311.919C228.925 309.676 227.247 307.748 225.858 305.637C219.257 295.59 219.16 281.372 209.861 273.748C202.523 267.733 192.042 268.046 182.574 268.665C179.116 268.891 175.572 269.138 172.409 270.55C169.49 271.851 165.698 274.683 165.731 278.07C169.787 276.366 174.223 275.801 177.968 278.201C182.028 280.804 185.52 287.444 187.752 291.584Z" fill="#FFF0B0"/>
<path d="M180.992 255.796C181.87 254.068 183.002 252.526 184 250.874C184.205 250.535 183.734 250.175 183.454 250.453C182.051 251.844 181.105 253.597 180.27 255.374C180.044 255.854 180.747 256.28 180.992 255.796Z" fill="#D3744F"/>
<path d="M187.048 253.561C187.5 252.62 188.211 251.865 188.674 250.947C188.867 250.565 188.458 250.064 188.053 250.325C187.064 250.963 186.544 252.109 186.104 253.164C185.881 253.7 186.796 254.086 187.048 253.561Z" fill="#D3744F"/>
<path d="M199.804 312.015C195.509 324.471 192.058 337.18 189.658 350.139C188.116 358.468 188.213 363.314 196.754 366.673C197.213 366.854 197.526 366.101 197.09 365.875C195.824 365.225 194.461 364.592 193.308 363.742C189.258 360.756 189.811 357.086 190.329 352.591C190.867 347.912 192.042 343.181 193.066 338.592C195.057 329.662 197.512 320.863 200.369 312.173C200.489 311.811 199.926 311.662 199.804 312.015Z" fill="#E8D585"/>
<path d="M199.526 346.066C200.023 347.688 200.597 349.427 201.635 350.783C202.049 351.327 203.132 351.051 202.854 350.267C202.301 348.705 201.532 347.241 201.037 345.65C200.739 344.692 199.23 345.099 199.526 346.066Z" fill="#E8D585"/>
<path d="M204.507 342.127C204.93 343.137 205.286 344.088 206.022 344.914C206.371 345.304 207.15 345.01 207.1 344.467C207.001 343.36 206.561 342.45 206.116 341.447C205.716 340.545 204.118 341.204 204.507 342.127Z" fill="#E8D585"/>
<path d="M210.696 341.411C211.045 341.764 211.266 341.898 211.734 342.054C212.283 342.235 212.869 341.649 212.688 341.101C212.532 340.632 212.398 340.411 212.045 340.063C211.169 339.204 209.835 340.538 210.696 341.411Z" fill="#E8D585"/>
<path d="M218.468 338.841C218.718 338.742 218.918 338.662 219.139 338.512C219.603 338.196 219.603 337.582 219.139 337.267C218.918 337.114 218.718 337.036 218.468 336.937C216.889 336.309 216.88 339.477 218.468 338.841Z" fill="#E8D585"/>
<path d="M204.627 319.018C205.189 320.705 205.679 322.407 206.528 323.979C206.895 324.659 207.849 324.17 207.717 323.478C207.392 321.785 206.712 320.213 206.105 318.61C205.761 317.707 204.311 318.071 204.627 319.018Z" fill="#E8D585"/>
<path d="M208.802 314.468C209.35 315.383 209.812 316.285 210.664 316.941C211.266 317.405 211.944 316.642 211.826 316.047C211.636 315.082 211.014 314.293 210.492 313.479C209.816 312.422 208.15 313.378 208.802 314.468Z" fill="#E8D585"/>
<path d="M215.95 313.216C216.107 313.275 216.493 313.684 216.684 313.797C217.124 314.061 217.729 313.814 217.861 313.319C218.134 312.286 217.413 311.618 216.465 311.345C215.246 310.992 214.803 312.78 215.95 313.216Z" fill="#E8D585"/>
<path d="M219.909 310.766C220.127 311.112 220.302 311.307 220.655 311.517C221.215 311.848 221.787 311.408 221.848 310.832C221.883 310.483 221.857 310.326 221.733 309.996C221.205 308.61 219.153 309.573 219.909 310.766Z" fill="#E8D585"/>
<path d="M194.581 292.241C195.469 293.519 196.288 294.908 197.57 295.823C198.081 296.188 198.818 295.583 198.629 295.009C198.138 293.51 197.029 292.312 196.076 291.085C195.417 290.24 193.965 291.354 194.581 292.241Z" fill="#E8D585"/>
<path d="M202.541 289.967C203.106 290.779 203.586 291.6 204.391 292.191C204.996 292.634 205.841 291.902 205.634 291.236C205.361 290.36 204.784 289.699 204.248 288.967C203.509 287.964 201.81 288.91 202.541 289.967Z" fill="#E8D585"/>
<path d="M208.526 288.691C209.023 288.677 209.487 288.915 209.988 288.962C210.449 289.005 210.708 288.503 210.63 288.117C210.428 287.112 209.458 286.79 208.526 286.877C207.383 286.98 207.338 288.724 208.526 288.691Z" fill="#E8D585"/>
<path d="M187.618 278.468C188.1 279.506 188.688 280.577 189.715 281.151C190.265 281.459 190.835 280.85 190.555 280.311C190.082 279.4 189.352 278.649 188.863 277.738C188.418 276.912 187.232 277.639 187.618 278.468Z" fill="#E8D585"/>
<path d="M196.78 277.288C197.194 277.657 197.441 278.142 197.79 278.568C198.103 278.952 198.893 278.766 198.964 278.258C199.093 277.33 198.724 276.645 198.037 276.026C197.187 275.266 195.923 276.521 196.78 277.288Z" fill="#E8D585"/>
<path d="M203.396 278.441C204.598 278.441 204.601 276.572 203.396 276.572C202.193 276.57 202.191 278.441 203.396 278.441Z" fill="#E8D585"/>
<path d="M185.257 362.853C183.729 368.334 187.114 373.26 192.315 375.127C200.04 377.897 209.047 374.051 216.712 372.825C217.369 372.719 217.211 371.646 216.557 371.672C212.083 371.836 207.891 373.328 203.513 374.129C196.191 375.47 183.812 373.571 186.184 363.109C186.321 362.507 185.424 362.255 185.257 362.853Z" fill="#E8D585"/>
<path d="M203.471 362.027C204.231 362.919 204.932 363.985 206.003 364.517C206.366 364.696 206.909 364.392 206.749 363.945C206.326 362.763 205.328 361.909 204.49 361.008C203.852 360.318 202.875 361.328 203.471 362.027Z" fill="#E8D585"/>
<path d="M210.315 360.017C211.047 360.718 211.689 361.488 212.643 361.866C213.219 362.095 213.671 361.344 213.407 360.873C212.944 360.05 212.104 359.539 211.374 358.96C210.637 358.376 209.604 359.332 210.315 360.017Z" fill="#E8D585"/>
<path d="M216.983 355.918C217.332 356.286 217.647 356.568 218.092 356.803C218.8 357.175 219.549 356.429 219.174 355.718C218.941 355.271 218.657 354.958 218.292 354.61C217.428 353.788 216.16 355.052 216.983 355.918Z" fill="#E8D585"/>
<path d="M157.924 295.594C158.416 296.835 159.016 298.19 160.466 298.466C161.707 298.701 162.973 298.122 163.794 297.214C165.11 295.761 166.075 292.65 165.039 290.831C164.731 290.289 163.966 290.565 163.928 291.132C163.837 292.514 163.975 293.827 163.429 295.15C163.13 295.874 162.664 296.557 161.963 296.938C160.358 297.811 159.489 296.493 158.885 295.19C158.637 294.655 157.705 295.039 157.924 295.594Z" fill="#44425B"/>
<path d="M161.255 289.708C159.153 289.684 158.786 292.398 160.095 293.659C160.372 293.925 160.93 293.996 161.196 293.659C161.961 292.694 162.62 291.132 161.801 290.002C161.521 289.618 160.742 289.559 160.645 290.152C160.49 291.108 160.613 291.887 159.972 292.713C160.379 292.661 160.789 292.607 161.196 292.555C160.629 292.024 160.655 291.153 161.417 290.913C162.072 290.708 161.961 289.715 161.255 289.708Z" fill="#44425B"/>
<path d="M160.54 302.533C159.438 313.816 156.263 326.276 157.614 337.595C158.483 344.86 162.959 352.69 170.926 353.371C171.722 353.439 171.87 352.18 171.112 351.989C160.13 349.219 158.269 338.522 159.132 328.635C159.895 319.924 161.041 311.253 161.766 302.536C161.834 301.743 160.615 301.757 160.54 302.533Z" fill="#44425B"/>
<path d="M77.3006 70.3378C75.8884 71.4323 74.3045 72.0654 72.744 72.5408C64.683 74.9909 70.2516 93.9678 77.9384 100.607C89.0167 110.175 97.4096 113.274 111.705 110.13C117.714 108.807 136.599 75.591 130.621 74.1388C125.29 72.842 123.873 72.9903 117.41 71.4322C114.831 70.8109 113.268 69.6835 111.395 66.3061C109.533 62.9476 108.864 53.7545 109.243 49.9323C108.989 52.5024 81.1063 50.2806 79.2093 49.8311C79.2564 57.6285 80.8545 67.5865 77.3006 70.3378Z" fill="#EA8457"/>
<path d="M46.308 77.246C41.109 78.6864 53.4606 107.362 48.2568 124.482C46.9953 128.636 49.9867 153.624 50.4433 157.362C55.866 201.654 51.839 228.402 50.1656 254.151C65.5839 261.268 138.166 260.183 153.389 252.442C154.938 251.653 148.952 222.754 146.992 186.196C145.657 161.325 144.535 142.993 144.535 135.064C144.535 130.682 151.675 80.1645 146.283 76.1352C144.248 74.6124 128.808 72.8496 117.407 71.4351C121.397 76.9589 117.407 95.7876 106.59 100.968C96.7665 105.673 90.0282 104.903 81.9577 98.1058C73.8779 91.2993 72.7388 80.228 72.7388 72.5459C69.1425 72.4424 50.4409 76.1022 46.308 77.246Z" fill="#E2522B"/>
<path d="M26.051 112.845C22.2899 130.031 21.8216 154.504 18.496 166.801C14.0854 183.111 10.9951 198.697 6.00788 221.489C4.04264 230.473 2.20915 234.022 1.07002 242.186C0.580473 245.691 0.333383 247.861 3.06354 252.657C5.45007 256.849 9.24871 259.113 13.9841 260.036C18.7195 260.961 26.1451 257.32 25.0201 253.01C23.2785 250.584 18.8655 254.672 17.0226 253.959C13.9065 252.756 13.1462 248.221 13.9841 242.756C16.2624 238.957 18.3171 252.384 23.4573 250.626C26.9665 249.487 25.0177 242.944 21.5792 235.919C20.6542 234.031 20.5248 228.966 21.0096 227.366C26.4605 209.446 35.8748 193.074 41.3257 175.156C49.0737 149.686 48.7207 137.88 50.4411 111.313C50.7494 106.566 28.0844 103.546 26.051 112.845Z" fill="#F38E5C"/>
<path d="M21.0094 126.545C33.4669 135.002 39.0449 136.685 54.0489 137.939C56.1625 124.827 55.567 124.277 59.0833 109.522C62.1217 96.768 57.0874 75.7246 46.308 77.2451C29.913 79.561 20.108 113.271 21.0094 126.545Z" fill="#E2522B"/>
<path d="M171.871 126.546C159.414 135.003 153.836 136.685 138.832 137.94C136.718 124.828 137.312 124.277 133.798 109.523C130.759 96.7686 135.506 74.6121 146.286 76.1325C162.681 78.446 172.775 113.272 171.871 126.546Z" fill="#E2522B"/>
<path d="M77.2107 83.3197C82.7957 83.6986 88.9291 84.0493 93.3091 87.7585C93.7846 88.161 94.4553 87.7774 94.3353 87.1607C93.8622 84.713 91.118 83.8704 88.9597 83.322C85.1281 82.3476 81.1553 81.9452 77.2107 81.9146C76.2998 81.9052 76.3163 83.2585 77.2107 83.3197Z" fill="#D3744F"/>
<path d="M100.671 87.4456C104.475 83.4775 109.507 83.8752 114.564 83.7575C115.649 83.7316 115.607 82.2065 114.564 82.1029C109.311 81.5828 103.192 82.0394 99.5391 86.3135C98.8754 87.0855 99.9486 88.1988 100.671 87.4456Z" fill="#D3744F"/>
<path d="M48.5579 133.762C49.4241 123.166 50.9586 112.818 52.4861 102.309C52.5779 101.671 51.6506 101.372 51.4905 102.034C49.0145 112.258 47.9507 123.261 47.7201 133.76C47.7083 134.306 48.5132 134.292 48.5579 133.762Z" fill="#C14327"/>
<path d="M50.8155 135.163C53.8351 126.727 56.3958 118.061 59.1542 109.537C59.3237 109.014 58.514 108.664 58.2598 109.16C54.1999 117.094 52.6348 126.466 50.0788 134.96C49.9328 135.438 50.6507 135.621 50.8155 135.163Z" fill="#C14327"/>
<path d="M142.25 127.685C142.638 119.673 143.309 110.656 140.93 102.864C140.732 102.214 139.776 102.482 139.917 103.144C141.662 111.271 141.899 119.393 141.68 127.685C141.671 128.054 142.231 128.049 142.25 127.685Z" fill="#C14327"/>
<path d="M136.735 110.983C137.008 116.357 137.837 122.464 139.727 127.501C140.03 128.308 141.113 127.983 140.998 127.15C140.235 121.721 138.915 116.223 137.907 110.823C137.783 110.167 136.7 110.315 136.735 110.983Z" fill="#C14327"/>
<path d="M82.137 134.061C91.1677 150.131 109.61 158.621 126.679 163.415C127.279 163.584 127.476 162.728 126.93 162.507C110.013 155.651 92.7752 150.251 82.7983 133.675C82.5442 133.254 81.8946 133.63 82.137 134.061Z" fill="#C14327"/>
<path d="M75.4241 159.609C85.5939 173.413 104.592 184.656 122.333 181.928C122.877 181.843 122.698 181.055 122.211 181.019C112.799 180.337 104.35 179.645 95.6932 175.432C87.884 171.631 81.1881 166.114 75.8855 159.256C75.6854 158.992 75.2264 159.341 75.4241 159.609Z" fill="#C14327"/>
<path d="M75.0033 220.646C88.4634 206.101 105.515 200.088 124.878 198.913C125.633 198.869 125.633 197.784 124.878 197.739C106.059 196.588 86.8889 206.492 74.5514 220.192C74.276 220.498 74.7232 220.95 75.0033 220.646Z" fill="#C14327"/>
<path d="M113.811 28.7992C113.766 25.796 111.288 14.5647 109.005 12.2229C103.133 6.20008 94.768 6.14825 86.4551 7.43801C67.8712 10.3235 70.8461 37.9687 74.9461 50.7463C77.7374 59.4427 85.5772 68.9442 94.7044 68.6264C102.695 68.3487 109.414 60.2312 112.474 52.8433C115.534 45.4554 113.931 36.7943 113.811 28.7992Z" fill="#F38E5C"/>
<path d="M69.2786 36.389C69.4716 42.2871 71.3591 42.5649 73.3808 43.1627C74.7647 43.5699 78.1563 42.8426 78.1633 41.9459C78.2151 33.859 74.753 28.3233 77.1419 22.2299C81.1147 18.4854 87.5023 18.6784 93.3463 17.7487C96.0458 17.3204 108.209 20.7566 108.381 24.1316C108.553 27.509 108.369 37.82 108.251 42.2754C108.228 43.1768 111.337 42.666 116.138 41.0962C115.536 32.2373 117.741 28.7046 116.84 22.1593C115.55 12.8038 102.674 8.96751 94.7066 8.35558C90.1242 8.00489 92.1483 9.89718 87.5612 9.54415C74.3576 8.53211 70.2836 13.211 69.3304 22.9713C69.0103 26.2287 69.168 33.0187 69.2786 36.389Z" fill="#4B1B28"/>
<path d="M75.4477 40.6921C75.0217 37.27 73.3694 32.6712 70.2204 34.1163C67.1183 35.5402 66.5723 40.4144 67.7938 43.4929C69.0153 46.5737 70.6063 50.3724 73.8802 49.7628C77.154 49.1556 75.4477 40.6921 75.4477 40.6921Z" fill="#F38E5C"/>
<path d="M116.254 34.1163C113.105 32.6712 111.453 37.27 111.027 40.6921C111.027 40.6921 109.32 49.158 112.594 49.7652C115.868 50.3724 117.459 46.5738 118.681 43.4953C119.902 40.4144 119.356 35.5402 116.254 34.1163Z" fill="#F38E5C"/>
<path d="M93.9958 33.8426C93.5628 37.34 95.8246 41.7742 96.879 45.0151C97.1614 45.8859 97.578 46.8085 97.7263 47.7123C97.9005 48.7761 98.1264 48.4631 97.4933 48.9597C96.2412 49.9458 93.9135 48.7808 92.572 49.8211C92.1648 50.1364 92.3625 50.7743 92.7249 51.0096C93.9488 51.8028 97.0885 51.0685 98.3217 50.4966C99.6821 49.8658 99.8233 49.2397 99.5244 47.8747C99.009 45.5281 97.9946 43.2098 97.2203 40.9433C96.5001 38.8369 95.1068 36.1185 95.2998 33.8426C95.368 32.9977 94.097 33.0306 93.9958 33.8426Z" fill="#D3744F"/>
<path d="M72.3313 36.1911C66.6333 34.9414 69.6764 46.4739 72.4678 48.2015C73.0632 48.571 73.6093 47.6319 73.0162 47.2647C71.0815 46.0667 70.6273 43.2166 70.3943 41.1337C70.2484 39.8369 69.667 36.6265 72.0936 37.0478C72.6514 37.1467 72.8985 36.3159 72.3313 36.1911Z" fill="#E28054"/>
<path d="M114.385 37.5989C117.226 36.5939 117.028 40.8468 116.489 42.539C115.894 44.4125 114.795 45.6152 113.526 47.0297C113.037 47.5734 113.844 48.383 114.331 47.8346C116.153 45.787 117.796 43.6852 117.942 40.8068C118.059 38.5003 116.803 35.756 114.183 36.8598C113.743 37.0458 113.91 37.766 114.385 37.5989Z" fill="#E28054"/>
<path d="M84.8007 0.845476C99.8189 -2.06826 114.011 2.25763 117.061 18.3867C117.803 22.3054 103.959 25.5793 92.8005 26.283C80.8372 27.0362 69.5306 23.1339 68.4927 19.9189C68.4927 19.9189 68.4927 4.01104 84.8007 0.845476Z" fill="#F6C9B4"/>
<path d="M132.489 30.3078C132.487 29.3428 117.85 18.9423 117.061 18.3869C113.328 15.7556 98.1126 17.1748 93.5466 17.0712C73.2352 16.6123 68.4904 19.9191 68.4904 19.9191C64.0092 26.6809 54.9973 27.161 54.9973 30.3101C54.9997 37.2155 132.503 36.8013 132.489 30.3078Z" fill="#F6C9B4"/>
<path d="M75.8288 22.2841C89.1807 26.1205 101.003 24.2564 114.456 21.804C115.228 21.6628 114.891 20.5213 114.133 20.6366C107.557 21.6369 100.956 23.202 94.3115 23.6445C88.1004 24.0564 82.0893 22.7572 76.05 21.4792C75.5275 21.3662 75.3087 22.1335 75.8288 22.2841Z" fill="#E2AF9A"/>
<path d="M73.2187 24.9153C72.2655 25.6143 71.3242 26.3204 70.3945 27.05C69.5025 27.7538 68.3539 28.401 67.815 29.4272C67.6008 29.8367 67.9586 30.3827 68.4387 30.2368C69.4837 29.9191 70.2485 29.0482 71.0582 28.3468C72.0208 27.5113 72.9646 26.6617 73.8989 25.7932C74.3555 25.3719 73.7412 24.534 73.2187 24.9153Z" fill="#E2AF9A"/>
<path d="M81.522 26.4004C80.8607 27.9467 80.0651 29.4813 79.7427 31.1429C79.6603 31.5713 80.1922 31.8019 80.4417 31.4371C81.3949 30.0415 81.9268 28.3963 82.5623 26.8406C82.8047 26.2475 81.7762 25.8073 81.522 26.4004Z" fill="#E2AF9A"/>
<path d="M94.7026 26.6662C94.5237 28.1937 94.1542 29.7988 94.4648 31.3239C94.5496 31.7452 95.0909 31.644 95.2204 31.3239C95.8088 29.8836 95.731 28.2007 95.8417 26.6662C95.8934 25.9248 94.7849 25.9554 94.7026 26.6662Z" fill="#E2AF9A"/>
<path d="M108.066 26.7983C108.565 28.1917 108.939 29.785 109.69 31.063C109.953 31.5125 110.565 31.1948 110.488 30.7265C110.247 29.3096 109.525 27.881 109.028 26.5324C108.807 25.9369 107.847 26.1911 108.066 26.7983Z" fill="#E2AF9A"/>
<path d="M114.567 25.5866C115.878 26.8058 116.626 28.3145 117.749 29.6583C118.107 30.0867 118.733 29.6183 118.627 29.1476C118.234 27.4224 116.701 25.8643 115.409 24.744C114.835 24.2451 114 25.0594 114.567 25.5866Z" fill="#E2AF9A"/>
<path d="M78.3145 17.6967C79.4113 13.2931 81.8684 9.72036 85.2341 6.72896C85.6883 6.3265 85.074 5.5051 84.5751 5.87696C80.774 8.69891 78.3381 12.8247 77.3001 17.4189C77.1519 18.0732 78.1498 18.3533 78.3145 17.6967Z" fill="#E2AF9A"/>
<path d="M89.4395 9.61725C87.9944 11.5095 86.9188 14.0843 87.9685 16.4238C88.8158 18.3137 90.7551 19.3705 92.7816 18.9516C93.6806 18.7656 93.297 17.403 92.4026 17.5795C90.5927 17.9349 89.1406 16.3697 88.8911 14.6963C88.6416 13.0276 89.4018 11.4719 90.315 10.1304C90.6892 9.57728 89.8255 9.11123 89.4395 9.61725Z" fill="#E2AF9A"/>
<path d="M97.4725 16.094C98.4328 16.9648 99.7813 17.7085 101.106 17.3696C101.671 17.2237 101.641 16.414 101.106 16.254C100.087 15.948 99.2447 15.9151 98.3786 15.1878C97.7549 14.663 96.8535 15.5338 97.4725 16.094Z" fill="#E2AF9A"/>
</svg>
