<svg width="235" height="529" viewBox="0 0 235 529" fill="none" xmlns="http://www.w3.org/2000/svg">
<path d="M158.872 364.31H72.0183V251.042H153.725L158.872 364.31Z" fill="#28382D"/>
<path d="M111.696 67.908L128.755 70.5661L122.595 89.4692L107.906 87.5729L111.696 67.908Z" fill="#263629"/>
<path d="M222.235 224C220.042 224 217.82 223.416 215.811 222.191C180.326 200.578 161.292 176.876 160.497 175.879C160.305 175.637 160.121 175.388 159.949 175.131C138.705 143.824 121.858 97.7533 121.151 95.8076C118.816 89.3842 122.132 82.2867 128.555 79.9546C134.978 77.6171 142.076 80.9356 144.411 87.3563C144.573 87.803 160.765 132.044 180.123 160.785C182.327 163.429 199.243 183.124 228.683 201.054C234.52 204.609 236.37 212.221 232.815 218.058C230.486 221.887 226.408 224 222.235 224Z" fill="#FFB096"/>
<path d="M209.555 220.955C171.223 192.439 161.026 179.636 158.559 175.843C137.261 144.384 120.402 98.2879 119.693 96.3367L145.86 86.8276C146.022 87.2743 162.322 131.805 181.702 160.366C181.965 160.752 181.877 160.56 181.981 160.76C183.335 162.53 192.351 173.459 226.173 198.618L209.555 220.955Z" fill="#263629"/>
<path d="M105.917 94.3827C100.365 94.3827 95.8625 89.8802 95.8625 84.3282V56.8066C95.8625 51.2546 100.365 46.7522 105.917 46.7522C111.469 46.7522 115.971 51.2546 115.971 56.8066V84.3282C115.971 89.8802 111.469 94.3827 105.917 94.3827Z" fill="#FFA182"/>
<path d="M111.307 65.0832C100.798 65.0832 91.8286 57.4869 90.0994 47.1228L88.6114 38.2084C86.4218 25.1011 96.5311 13.1641 109.819 13.1641C120.328 13.1641 129.298 20.7604 131.027 31.1245L132.515 40.0389C134.704 53.1461 124.598 65.0832 111.307 65.0832Z" fill="#FFB096"/>
<path d="M51.7204 447.466L81.7795 452.996L74.4052 493.074C74.4052 493.074 88.2605 499.879 97.9614 513.997C97.9614 513.997 72.9747 514.589 43.3047 499.068L51.7204 447.466Z" fill="#263629"/>
<path d="M79.5573 481.973L42.9294 472.62C78.6255 303.292 69.0205 212.534 68.9466 211.632L115.196 207.834C115.519 211.786 116.582 306.189 79.5573 481.973Z" fill="#632C29"/>
<path d="M122.902 453.75L151.16 455.208L151.366 495.113C151.366 495.113 162.404 498.55 172.927 507.831C172.927 507.831 148.283 511.651 122.159 501.83L122.902 453.75Z" fill="#263629"/>
<path d="M120.677 479.17C120.677 479.17 116.67 324.659 87.1562 213.981L131.994 202.025C163.21 319.094 152.018 444.345 154.065 479.589L120.677 479.17Z" fill="#632C29"/>
<path d="M153.503 253.117L145.252 91.555C144.775 83.945 138.407 78.0149 130.712 78.0149H88.7977C77.4416 78.0149 67.9955 86.6717 67.1104 97.888L57.2615 252.519L153.503 253.117Z" fill="#808E70"/>
<path d="M140.792 104.645L84.0884 107.501L84.3743 113.177L141.078 110.321L140.792 104.645Z" fill="#FDE3DD"/>
<path d="M141.697 122.599L84.9932 125.455L85.279 131.131L141.983 128.275L141.697 122.599Z" fill="#FDE3DD"/>
<path d="M142.602 140.556L85.8979 143.412L86.1838 149.088L142.888 146.232L142.602 140.556Z" fill="#FDE3DD"/>
<path d="M107.906 77.2751L110.565 220.591L93.4263 368.854H33.1545L61.5037 199.833L65.3567 103.651L107.906 77.2751Z" fill="#263629"/>
<path d="M118.989 76.406H129.958C139.095 76.406 146.675 83.4789 147.305 92.5961L167.468 368.856H158.159L118.989 76.406Z" fill="#263629"/>
<path d="M88.3128 42.1351C88.3128 42.1351 95.5748 39.94 94.824 19.2557C94.824 19.2557 105.859 31.6669 131.027 31.1243C131.027 31.1243 133.792 5.65249 107.654 6.55955C81.5167 7.46662 77.7048 22.7141 82.2429 40.5019L88.3128 42.1351Z" fill="#632C29"/>
<path d="M84.7309 42.1349C84.7309 42.1349 81.5192 24.6349 94.5825 15.2518C107.646 5.86878 125.132 12.3279 125.132 12.3279C125.132 12.3279 125.184 5.93183 115.538 4.55342C110.447 1.85142 103.201 -0.406671 93.4946 0.0619326C80.6066 0.683997 72.9172 13.2185 72.1389 22.2918C71.536 29.3291 73.235 35.8375 75.2684 40.8387C72.8733 49.5531 80.6066 50.6629 80.6066 50.6629L84.7309 42.1349Z" fill="#435046"/>
<path d="M87.6166 54.7957L85.6655 55.119C81.755 55.7657 78.0582 53.1186 77.4142 49.208L76.7867 45.4126C76.14 41.5021 78.7872 37.8053 82.6977 37.1613L84.6488 36.838C88.5593 36.1912 92.2561 38.8384 92.9001 42.7489L93.5276 46.5444C94.1744 50.4549 91.5272 54.1489 87.6166 54.7957Z" fill="#FFB096"/>
<path d="M87.1837 210.052C82.1085 209.641 36.9636 205.453 14.3281 185.728L32.6201 164.737C45.9931 176.392 78.1788 181.368 89.4527 182.303L87.1837 210.052Z" fill="#FFB096"/>
<path d="M23.4727 190.707C21.7518 190.707 20.0007 190.417 18.2852 189.808C10.2367 186.945 6.03575 178.096 8.89944 170.047C29.5564 112.001 76.4935 81.5662 78.4803 80.3002C85.682 75.7101 95.2458 77.8257 99.8387 85.0301C104.423 92.2209 102.319 101.763 95.1472 106.364C94.7471 106.622 55.0364 132.68 38.046 180.42C35.7907 186.753 29.8331 190.704 23.4727 190.707Z" fill="#263629"/>
<path d="M76.0851 210.251C74.5751 210.081 38.7968 205.891 14.2485 187.649L32.6995 162.818C50.4653 176.021 79.2694 179.48 79.5599 179.512L76.0851 210.251Z" fill="#263629"/>
<path d="M89.5809 174.622L85.2275 215.694L88.3041 216.02L92.6574 174.949L89.5809 174.622Z" fill="#69755C"/>
<path opacity="0.2" d="M214 498.5C214 515.342 166.094 529 107 529C47.9061 529 0 515.342 0 498.5C0 481.655 47.9061 468 107 468C166.094 468 214 481.655 214 498.5Z" fill="#569B94"/>
<path d="M105.917 89.4691L110.565 73.3584L85.2572 65.0825L85.1558 82.5962L105.917 89.4691Z" fill="#263629"/>
</svg>
