<svg width="250" height="525" viewBox="0 0 250 525" fill="none" xmlns="http://www.w3.org/2000/svg">
<path d="M132.404 73.2643C135.181 71.278 137.48 68.636 138.893 65.5541C140.63 61.7668 141.171 57.559 141.689 53.4244C142.107 50.0977 142.508 46.612 141.305 43.4817C139.951 39.96 136.711 37.43 133.198 36.0551C129.684 34.6801 125.872 34.3053 122.115 33.9429C112.715 33.0368 105.165 32.792 99.3084 41.6185C94.3218 49.1322 96.4284 58.7513 100.952 65.9303C105.31 72.8479 113.298 77.5966 121.462 77.1802C125.327 76.9852 129.186 75.566 132.404 73.2643Z" fill="#171616"/>
<path d="M90.9992 290.387C111.814 242.429 117.476 188.025 106.981 136.809C105.887 131.468 104.544 125.989 101.264 121.632C87.2838 103.059 82.9252 127.105 81.7024 137.514C79.6704 154.798 78.6883 172.203 78.7506 189.606C78.8128 206.714 79.8834 223.816 81.9625 240.798C83.0013 249.289 84.2905 257.748 85.8328 266.161C86.7346 271.087 92.7586 286.332 90.9992 290.387Z" fill="#F09F92"/>
<path d="M176.084 348.386C174.76 344.661 173.392 340.906 172.949 336.978C172.371 331.848 173.4 326.694 174.132 321.584C176.725 303.506 175.593 284.889 170.863 267.25C167.443 254.491 164.897 237.917 152.54 230.363C146.481 226.659 138.501 226.328 132.156 229.517C120.461 235.394 117.534 249.51 119.675 261.154C121.735 272.356 126.597 267.909 126.582 279.298C126.533 315.029 130.34 352.326 143.797 385.606C151.817 405.44 158.944 424.649 168.537 443.815C173.906 454.544 181.654 475.598 188.208 485.646C191.757 491.086 194.629 486.625 201.059 485.712C201.786 485.61 202.553 485.383 202.999 484.802C203.493 484.16 203.461 483.272 203.403 482.465C202.989 476.727 202.368 471.006 201.746 465.288C197.682 427.894 193.151 382.521 176.084 348.386Z" fill="#F09F92"/>
<path d="M68.5491 361.396C69.3956 343.97 71.7568 326.564 74.7626 309.391C77.3216 294.775 78.572 269.564 93.4253 261.568C101.133 257.42 109.955 258.491 116.672 263.678C118.311 264.944 120.083 266.123 121.845 267.327C126.814 270.719 131.708 274.293 133.355 280.484C134.963 286.528 132.921 292.874 130.901 298.792C129.034 304.264 127.167 309.734 125.299 315.205C123.97 319.102 122.621 323.036 120.444 326.53C118.582 329.516 116.106 332.202 115.059 335.561C114.405 337.662 114.356 339.895 114.179 342.088C113.412 351.617 107.85 359.999 106.858 369.208C106.422 373.261 107.873 377.243 108.753 381.224C111.54 393.835 108.608 406.978 109.402 419.869C110.082 430.909 113.493 441.972 111.515 452.854C110.571 458.054 108.42 462.981 107.532 468.19C105.952 477.461 105.863 487.441 96.3895 492.523C94.8624 493.342 93.1113 493.953 91.4113 493.611C87.6184 492.849 86.3016 488.193 85.7289 484.369C81.6566 457.174 78.4669 429.742 74.1608 402.71C72.0583 389.507 67.8989 374.773 68.5491 361.396Z" fill="#F09F92"/>
<path d="M92.5248 184.825C94.3452 190.772 96.3772 196.582 97.0315 202.925C105.464 200.531 114.269 197.763 122.302 194.234C130.542 190.613 139.188 186.452 146.377 180.977C150.498 177.839 158.472 176.551 160.583 172.097C162.856 167.304 159.698 160.175 159.315 155.221C158.718 147.525 159.005 138.476 156.016 131.222C153.811 125.872 148.884 123.047 144.68 119.459C143.911 118.803 142.512 117.953 142.07 117.023C141.497 115.818 142.081 113.855 142.309 112.615C142.933 109.23 144.098 105.974 145.217 102.729C145.373 102.275 145.531 101.806 145.506 101.326C145.459 100.408 144.733 99.6357 143.896 99.2581C143.057 98.8804 142.115 98.8224 141.198 98.7684C138.096 98.5886 134.993 98.4088 131.891 98.2289C130.771 98.1639 129.596 98.0809 128.656 97.4709C126.908 96.3353 126.012 94.9963 123.951 94.277C121.854 93.5453 119.634 93.3101 117.427 93.5273C113.016 93.9616 108.927 96.0061 105.006 97.9343C103.744 98.554 102.472 99.182 101.366 100.053C90.7584 108.425 91.0642 125.151 90.0198 137.339C89.0142 149.076 88.1081 160.999 89.6643 172.729C90.2245 176.946 91.3283 180.915 92.5248 184.825Z" fill="#4E8A84"/>
<path d="M174.46 318.921C178.414 317.385 182.485 315.723 186.094 313.501C184.257 308.481 185.667 301.324 184.954 295.837C184.079 289.092 182.397 282.451 179.937 276.109C178.957 273.579 177.839 271.028 177.733 268.316C177.575 264.294 179.65 260.549 180.384 256.593C181.413 251.051 179.618 245.059 175.71 240.997C173.775 238.984 171.377 237.436 169.577 235.3C164.794 229.621 165.283 221.377 165.26 213.951C165.238 206.525 163.614 197.827 156.947 194.556C147.202 189.775 132.257 194.023 121.837 193.156C115.245 192.607 108.951 187.447 102.183 189.435C96.7535 191.03 93.8334 196.773 91.6548 201.996C84.1563 219.967 75.9647 239.695 74.2108 259.226C72.4817 278.463 65.4134 297.542 60.2027 316.257C96.3952 327.589 138.321 332.96 174.46 318.921Z" fill="#4E8A84"/>
<path d="M103.257 506.915C103.314 506.877 103.36 506.837 103.396 506.797C104.982 505.017 104.511 497.958 104.739 495.557C104.964 493.2 106.599 487.217 105.67 485.12C104.541 482.574 101.238 483.376 98.0329 482.99C94.8017 482.601 91.3851 481.983 88.1455 482.614C84.8451 483.256 82.69 485.564 79.8101 487.109C72.4111 491.076 64.7895 494.627 56.9935 497.742C55.0418 498.522 53.0568 499.287 51.3513 500.514C50.3263 501.252 49.3567 502.277 49.2903 503.537C49.2225 504.84 50.1783 506.024 51.3388 506.621C56.1719 509.114 64.2224 507.363 69.3113 506.509C71.0929 506.211 86.8646 502.664 86.5105 500.595C86.8771 502.73 86.8439 505.003 86.8259 507.188C86.8134 508.449 101.272 508.26 103.257 506.915Z" fill="#1A2732"/>
<path d="M95.1668 102.113C91.4196 104.375 88.5287 107.745 85.9351 112.126C84.6971 114.219 73.046 138.447 73.9659 138.737C86.2352 142.614 101.712 148.616 114.567 149.057C115.499 149.089 117.012 149.486 117.917 149.158C119.029 148.756 118.725 148.2 118.849 147.168C119.281 143.563 120.49 139.888 121.289 136.343C121.605 134.943 121.921 133.536 122.028 132.104C122.097 131.168 122.076 130.227 122.054 129.288C121.996 126.761 121.939 124.234 121.883 121.707C121.851 120.282 121.812 118.827 121.321 117.488C120.672 115.72 119.302 114.33 117.968 112.999C114.731 109.766 111.493 106.532 108.255 103.3C107.168 102.214 105.988 100.84 106.317 99.3381C106.386 99.0131 101.048 99.6743 100.676 99.7766C98.7453 100.306 96.882 101.077 95.1668 102.113Z" fill="#4E8A84"/>
<path d="M157.731 226.168C156.738 223.099 155.274 220.201 153.06 217.881C150.628 215.333 147.171 213.622 143.706 213.542C148.462 217.66 152.675 222.493 157.731 226.168Z" fill="#E0D3A6"/>
<path d="M118.894 227.125C117.812 231.222 119.8 235.748 123.146 238.348C126.492 240.949 130.949 241.81 135.172 241.459" fill="#E0D3A6"/>
<path d="M108.814 63.6621C108.875 63.4713 108.518 63.6262 108.498 63.824C108.341 65.441 109.879 66.7675 111.481 66.9875C113.083 67.2074 114.7 66.6223 116.236 66.0468" fill="white"/>
<path d="M130.056 84.943C129.687 82.3896 129.431 79.8195 129.289 77.2425C129.026 72.4814 129.821 67.6013 129.428 62.9108C128.748 54.8105 124.664 46.8651 118.394 41.6904C115.658 39.4316 113.287 38.3886 109.797 38.0511C106.034 37.6873 102.201 38.0387 98.5682 39.0913C97.7812 39.3196 96.9443 39.6239 96.4879 40.3044C96.1061 40.8743 96.066 41.5978 96.0411 42.2825C95.7893 49.5058 95.2526 57.624 97.3206 64.6149C98.1062 67.279 99.235 69.8823 101.065 71.9489C101.809 72.7899 102.671 73.5437 103.227 74.5217C103.697 75.3489 103.926 76.2964 104.119 77.2356C105.227 82.5763 105.165 87.7718 104.793 93.1664C104.567 96.4364 103.356 99.2305 99.9791 100.189C101.891 103.721 104.071 107.288 107.425 109.494C111.416 112.121 116.638 112.428 121.217 111.07C125.797 109.711 129.802 106.844 133.246 103.534C134.379 102.445 137.83 98.5597 139.552 98.864C136.971 98.4075 134.105 97.774 132.646 95.5954C132.033 94.6797 131.748 93.5883 131.495 92.5163C130.904 90.014 130.424 87.4868 130.056 84.943Z" fill="#F09F92"/>
<path d="M93.2386 36.7263C94.1003 35.7926 95.1765 34.9668 96.4712 34.3125C99.2667 32.9002 102.458 32.4673 105.59 32.4078C110.782 32.3109 117.135 31.8462 121.818 34.466C130.522 39.3364 142.817 46.6275 139.371 58.2274C135.993 69.6004 124.396 62.7091 122.581 54.364C122.234 52.7622 121.833 50.9252 120.392 50.1465C119.889 49.8753 119.318 49.773 118.757 49.6734C116.033 49.192 113.279 48.7093 110.519 48.8822C106.923 49.1077 103.468 50.4397 99.874 50.6845C90.5371 51.3195 88.1925 42.1942 93.2386 36.7263Z" fill="#171616"/>
<path d="M127.434 53.4414C130.574 53.4414 133.546 56.0516 133.348 59.3271C133.155 62.5279 130.611 65.4189 127.246 65.4189C124.106 65.4189 121.133 62.8087 121.331 59.5332C121.526 56.3324 124.068 53.4414 127.434 53.4414Z" fill="#F09F92"/>
<path d="M126.344 57.3903C127.059 56.9505 128.016 57.2271 128.6 57.7928C129.273 58.4457 129.578 59.4569 129.383 60.3947C129.188 61.3326 128.497 62.1694 127.609 62.5484" fill="#171616"/>
<path d="M102.848 74.2816C102.569 73.8625 102.206 73.5112 101.934 73.0713C102.995 73.8431 104.072 74.6261 105.291 75.1309C106.44 75.6068 107.511 75.8308 108.768 75.8737C110.966 75.9498 113.17 75.5335 115.319 74.9857C111.785 77.4133 108.005 79.4646 104.075 81.148C103.945 79.6873 103.746 78.2377 103.559 76.7853C103.47 76.0937 103.367 75.391 103.098 74.7436C103.029 74.5776 102.943 74.4255 102.848 74.2816Z" fill="#171616"/>
<path d="M167.645 196.271C165.293 191.719 162.847 188.062 161.71 182.924C161.149 180.393 160.656 177.845 160.232 175.287C158.55 165.151 156.154 157.625 151.14 148.442C145.821 138.702 139.808 129.116 137.202 118.2C134.225 105.735 144.564 94.8326 156.096 103.468C160.644 106.874 164.835 111.884 168.603 116.119C173.125 121.203 177.392 126.525 181.099 132.237C190.375 146.533 195.982 164.328 194.759 181.466C194.496 185.161 193.858 188.993 191.678 191.987C189.363 195.167 185.533 197.004 181.642 197.592C177.752 198.179 173.778 197.635 169.93 196.812C169.163 196.647 168.404 196.458 167.645 196.271Z" fill="#F09F92"/>
<path d="M95.3882 194.415C100.599 191.535 106.763 190.416 112.652 191.282" stroke="black" stroke-miterlimit="10"/>
<path d="M165.311 108.502C172.334 115.057 181.217 122.879 185.827 131.179C171.988 135.335 158.189 144.935 145.293 151.514C143.026 152.67 133.979 118.971 133.788 115.493C133.391 108.28 136.125 99.7042 144.301 98.1066C151.896 96.6224 160.253 103.779 165.311 108.502Z" fill="#4E8A84"/>
<path d="M186.426 179.03L189.049 218.282C190.359 237.895 175.001 254.62 155.346 254.979L143.567 255.195C124.619 255.542 108.956 240.504 108.535 221.558L107.622 180.535L186.426 179.03Z" fill="#E86B6F"/>
<path d="M136.036 104.847C134.147 106.924 132.625 109.354 131.462 111.917C129.654 115.902 128.668 120.214 128.011 124.541C126.811 132.443 127.239 140.233 127.071 148.151C126.836 159.236 127.171 170.351 127.308 181.437C127.348 184.658 127.441 187.879 127.561 191.098C125.594 191.044 123.602 191.145 121.664 191.351C121.014 172.424 121.7 153.304 122.108 134.471C122.383 121.716 124.007 107.998 134.508 99.4417C136.872 97.5148 141.028 96.7554 144.009 96.9366C146.73 97.1012 149.423 97.7071 151.952 98.7238C147.644 97.9519 143.107 99.2384 139.526 101.753C138.248 102.651 137.085 103.695 136.036 104.847Z" fill="#E86B6F"/>
<path d="M121.751 136.38C122.121 136.49 122.381 136.813 122.603 137.127C123.323 138.144 123.912 139.251 124.353 140.415C124.511 140.83 124.666 141.276 125.016 141.548C126.627 142.801 127.474 140.263 127.316 139.104C129.935 141.786 131.528 145.445 131.711 149.188C131.743 149.846 131.736 150.521 131.951 151.142C132.264 152.041 133.001 152.719 133.737 153.322C138.107 156.897 143.319 159.18 148.408 161.518C153.281 163.757 159.273 166.22 163.066 170.124C163.74 169.057 165.061 168.631 166.275 168.29C171.63 166.788 177.513 165.456 182.606 167.691C187.56 169.866 190.606 174.989 192.192 180.163C194.872 188.919 190.897 196.193 181.64 197.589C177.751 198.175 173.776 197.632 169.928 196.809C161.143 194.93 152.696 191.54 145.002 186.906C137.739 182.532 132.087 176.144 127.001 169.396C124.291 165.799 121.465 162.2 119.205 158.295C117.434 155.235 117.221 150.929 117.047 147.345C116.875 143.812 117.939 140.231 120.013 137.365C120.432 136.79 121.068 136.18 121.751 136.38Z" fill="#F09F92"/>
<path d="M157.732 165.916C162.474 167.789 166.882 170.501 170.693 173.888" stroke="black" stroke-miterlimit="10"/>
<path d="M127.637 65.4872C127.251 65.6213 126.857 65.7417 126.454 65.8454C125.777 66.0211 125.24 66.5205 124.68 66.941C123.966 67.4749 123.172 67.8995 122.331 68.1942C119.923 69.0407 118.289 66.4748 118.326 64.3308C118.346 63.2726 118.788 62.2504 119.284 61.3361C120.725 58.6761 122.529 55.7422 125.091 53.9966C124.778 54.2096 124.149 54.2428 123.779 54.3949C123.352 54.5706 122.944 54.7906 122.556 55.0437C121.796 55.5417 121.133 56.1697 120.502 56.8184C119.183 58.1767 117.66 59.4908 115.632 59.4549C113.005 59.4092 111.03 57.113 108.478 57.0037C105.639 56.882 103.054 56.6413 100.353 57.8309C98.9694 58.4395 97.6802 59.3124 96.2015 59.625C95.9844 59.6706 95.7423 59.7177 95.6123 59.8989C95.5307 60.0123 95.5127 60.1589 95.4989 60.2986C95.272 62.7138 96.0812 65.4152 96.9014 67.6713C97.8835 70.37 99.5352 73.0729 101.961 74.6982C104.112 76.1395 106.667 76.6292 109.223 76.4881C113.51 76.2515 117.679 74.7286 121.363 72.5735C123.252 71.4683 125.035 70.1777 126.674 68.7267C126.674 68.4916 127.853 67.6824 128.053 67.4998C128.55 67.0489 129.041 66.591 129.513 66.1138C130.399 65.2133 131.07 64.1938 131.871 63.2214C130.536 64.2021 129.146 64.9615 127.637 65.4872Z" fill="white"/>
<path d="M187.134 184.702C189.469 186.955 188.55 191.552 185.529 192.735L187.134 184.702Z" fill="#171616"/>
<path d="M146.698 45.2707C159.199 45.2707 169.334 35.1365 169.334 22.6354C169.334 10.1342 159.199 0 146.698 0C134.197 0 124.063 10.1342 124.063 22.6354C124.063 35.1365 134.197 45.2707 146.698 45.2707Z" fill="#171616"/>
<path d="M199.92 496.591C200.892 499.514 201.865 502.436 202.838 505.357C205.482 504.367 208.091 503.272 210.679 502.12C210.917 498.344 210.983 494.568 210.486 490.814C210.096 487.866 209.302 485.023 208.329 482.231C206.49 478.647 204.653 475.063 202.815 471.48C197.705 474.771 192.055 477.22 186.159 478.699C185.719 478.81 185.256 478.926 184.93 479.24C184.553 479.602 184.434 480.147 184.317 480.656C181.369 493.385 170.43 496.135 160.561 502.034C158.721 503.134 156.869 504.564 156.294 506.628C155.947 507.873 156.027 508.85 156.418 509.609C158.479 513.593 169.169 511.554 172.025 510.847C182.321 508.3 192.878 504.524 199.92 496.591Z" fill="#1A2732"/>
<path d="M134.634 81.4511C139.71 78.9905 141.831 72.8806 139.37 67.8043C136.91 62.728 130.8 60.6076 125.723 63.0682C120.647 65.5287 118.527 71.6386 120.987 76.7149C123.448 81.7912 129.558 83.9116 134.634 81.4511Z" stroke="#1A2732" stroke-miterlimit="10"/>
<path d="M89.9701 145.256C91.1057 137.184 92.2427 129.112 93.3784 121.041" stroke="black" stroke-miterlimit="10"/>
<path d="M95.1363 260.101C92.2924 262.64 91.3975 267.119 93.0463 270.556C94.6951 273.995 98.7466 276.101 102.508 275.473" stroke="black" stroke-miterlimit="10"/>
<path d="M155.458 280.793C159.806 280.717 163.65 284.496 164.382 288.782C165.113 293.069 163.146 297.52 160.001 300.523" stroke="black" stroke-miterlimit="10"/>
<path d="M115.146 303.759C114.402 306.988 115.749 310.599 118.427 312.55C121.105 314.5 124.956 314.676 127.802 312.977" stroke="black" stroke-miterlimit="10"/>
<path d="M128.555 265.925C127.833 268.307 128.644 271.079 130.535 272.698C132.426 274.316 135.289 274.688 137.531 273.608" stroke="black" stroke-miterlimit="10"/>
<path d="M93.9634 231.425C95.7935 231.165 97.7189 230.915 99.4425 231.584C101.165 232.254 102.545 234.189 101.934 235.933" stroke="black" stroke-miterlimit="10"/>
<path d="M83.8353 295.073C85.3514 294.829 86.9767 295.435 87.9629 296.612C88.9492 297.789 89.2618 299.496 88.7555 300.946" stroke="black" stroke-miterlimit="10"/>
<path d="M100.155 153.664C99.1588 154.684 99.524 156.504 100.564 157.478C101.603 158.453 103.082 158.779 104.494 158.978" stroke="black" stroke-miterlimit="10"/>
<path d="M105.664 132.922C108.432 132.842 111.14 134.757 111.987 137.394" stroke="black" stroke-miterlimit="10"/>
<path d="M150.779 147.427C149.802 147.916 148.938 148.629 148.276 149.498C149.063 148.345 148.132 146.826 147.236 145.755C143.269 141.011 139.302 136.267 135.335 131.523" stroke="black" stroke-miterlimit="10"/>
<path d="M149.38 117.583C147.878 119.418 148.521 122.399 150.333 123.93C152.144 125.461 154.747 125.743 157.075 125.294" stroke="black" stroke-miterlimit="10"/>
<path d="M171.028 124.258C172.869 125.826 173.447 128.697 172.355 130.855" stroke="black" stroke-miterlimit="10"/>
<path d="M148.678 227.007C143.38 226.923 138.592 225.032 134.806 221.756C134.595 222.759 134.48 223.797 134.48 224.862C134.48 233.143 141.193 239.856 149.474 239.856C157.756 239.856 164.469 233.143 164.469 224.862C164.469 224.13 164.398 223.418 164.297 222.714C159.546 225.44 154.15 227.094 148.678 227.007Z" fill="#171616"/>
<path opacity="0.13" d="M25.1131 489.763C19.1372 490.227 12.9159 490.767 7.78516 493.822C2.65438 496.878 -0.968862 503.272 1.18214 508.791C2.88331 513.153 7.48525 515.646 11.8827 517.389C29.9086 524.528 49.8401 525.096 69.2645 524.989C102.884 524.989 136.502 523.808 170.029 521.345C186.201 520.158 202.332 518.598 218.458 516.898C219.325 516.806 254.038 513.32 249.063 506.77C228.256 479.394 167.87 488.295 136.818 488.694C99.9102 489.165 61.8737 486.903 25.1131 489.763Z" fill="black"/>
</svg>
