<svg width="343" height="509" viewBox="0 0 343 509" fill="none" xmlns="http://www.w3.org/2000/svg">
<path opacity="0.2" d="M342.508 485.502C342.508 498.482 265.942 509 171.506 509C77.0664 509 0.508179 498.48 0.508179 485.502C0.508179 472.52 77.0664 462 171.506 462C265.942 461.998 342.508 472.52 342.508 485.502Z" fill="#569B94"/>
<path d="M77.8535 464.611C77.8535 464.611 35.3777 476.951 33.5911 480.935C31.8126 484.925 89.4275 491.056 94.6584 487.034C99.8866 483.009 98.0436 467.271 98.0436 467.271C98.0436 467.271 83.0387 463.069 77.8535 464.611Z" fill="#2B2E4F"/>
<path opacity="0.2" d="M98.0465 467.274C98.0465 467.274 98.5678 471.841 98.2454 476.68C86.4161 475.084 76.0242 465.151 76.0242 465.151C77.1902 464.805 77.8564 464.614 77.8564 464.614C83.0389 463.069 98.0465 467.274 98.0465 467.274Z" fill="#18214A"/>
<path d="M281.689 452.272C281.689 452.272 276.657 465.004 274.18 476.688C260.935 483.082 261.867 485.336 263.076 487.034C264.274 488.713 275.169 489.205 288.645 485.968C297.981 473.477 309.966 452.581 309.531 449.128C308.714 442.586 294.209 436.206 294.209 436.206C294.209 436.206 282.989 447.017 281.689 452.272Z" fill="#2B2E4F"/>
<path opacity="0.2" d="M294.212 436.206C294.212 436.206 300.84 439.867 304.843 442.592C296.106 450.633 281.23 454.117 281.23 454.117C281.52 452.938 281.692 452.269 281.692 452.269C282.99 447.017 294.212 436.206 294.212 436.206Z" fill="#18214A"/>
<path d="M106.093 236.984C106.093 236.984 54.7729 365.789 49.0906 376.205C47.1965 379.051 70.9975 396.801 107.192 397.986C107.192 397.986 151.548 397.986 156.597 389.464C161.639 380.939 151.53 233.214 151.53 233.214L106.093 236.984Z" fill="#18214A"/>
<path opacity="0.2" d="M156.596 389.466C161.639 380.942 151.529 233.217 151.529 233.217L106.093 236.983C106.093 236.983 104.739 240.39 102.452 246.113C110.888 255.5 123.231 259.358 139.902 251.206C139.453 274.048 132.113 369.757 131.753 396.753C142.924 395.638 154.197 393.515 156.596 389.466Z" fill="#18214A"/>
<path d="M117.549 249.454C117.549 249.454 91.4885 318.442 88.3317 334.777C85.1749 351.112 74.5196 454.093 70.9706 461.906C88.0146 468.297 117.135 471.849 131.339 471.137C134.891 441.307 143.416 391.594 143.416 391.594V236.98C143.416 236.98 125.786 247.23 117.549 249.454Z" fill="#D35C48"/>
<path opacity="0.2" d="M143.416 236.983C143.416 236.983 125.786 247.23 117.549 249.457C117.549 249.457 116.823 251.392 115.606 254.643C122.366 256.572 130.429 255.841 139.899 251.212C139.386 277.251 129.918 397.991 132.049 403.671C132.75 404.606 135.904 405.605 140.939 406.395C142.403 397.473 143.416 391.6 143.416 391.6V236.983Z" fill="#18214A"/>
<path d="M185.314 393.252L263.909 467.115C263.909 467.115 290.429 451.965 306.524 424.503C284.744 403.668 245.919 370.525 245.919 370.525C245.919 370.525 195.792 384.756 185.314 393.252Z" fill="#D35C48"/>
<path opacity="0.2" d="M245.922 370.525C245.922 370.525 195.792 384.756 185.314 393.252L197.815 405C217.94 401.9 240.583 395.804 262.649 384.982C252.931 376.506 245.922 370.525 245.922 370.525Z" fill="#18214A"/>
<path d="M143.486 34.6982V43.2229C143.486 43.2229 147.269 38.4837 155.32 41.3262C163.37 44.1686 163.842 58.843 149.399 59.7914C152.951 70.2075 154.369 73.5229 154.369 73.5229L143.486 90.0941L134.961 71.1532C134.961 71.1532 125.491 78.2567 114.126 71.1532C102.764 64.0524 106.074 37.0625 108.444 27.5948C113.178 25.2278 143.486 26.1735 143.486 34.6982Z" fill="#FDD2AF"/>
<path d="M134.961 71.1526C134.961 71.1526 142.228 65.8385 144.832 62.0503C142.701 69.3902 136.616 74.8333 136.616 74.8333L134.961 71.1526Z" fill="#FB8C70"/>
<path d="M106.332 41.6699C106.332 41.6699 99.14 55.9172 100.634 58.2868C103.863 61.1051 107.219 59.4394 107.219 59.4394C107.219 59.4394 106.063 44.6816 106.332 41.6699Z" fill="#FB8C70"/>
<path d="M155.79 47.771C154.815 46.0193 151.529 43.6282 147.862 46.5889C146.914 47.8892 145.253 51.6102 147.862 54.1894C147.505 51.3254 148.826 50.4953 151.126 51.2046C153.421 51.9165 153.19 55.3473 148.929 55.8229C152.714 56.5322 158.791 53.1443 155.79 47.771Z" fill="#FB8C70"/>
<path d="M164.012 16.8346C163.103 15.0265 162.034 13.3957 160.828 11.9073C163.477 12.6918 164.619 9.83054 163.829 7.54152C162.056 2.37511 158.348 4.4277 155.807 7.14658C155.807 7.14658 161.612 3.31272 156.596 0.722803C152.894 -1.1874 149.955 0.972663 150.097 3.89035C142.725 0.679819 133.757 0.00548162 124.709 1.44821C108.374 4.05425 104.682 14.0728 103.925 22.0816C103.17 30.0932 109.325 36.2482 113.113 27.7289C114.532 33.4085 133.072 43.8272 133.51 34.1177C137.261 43.5881 141.9 48.0614 143.488 43.2255C143.488 43.2255 150.105 35.7297 158.48 43.4458C158.48 43.4458 170.879 30.5687 164.012 16.8346Z" fill="#2B2E4F"/>
<path d="M166.87 73.2407C166.87 73.2407 158.598 60.9466 157.628 60.8579C156.664 60.772 136.132 71.7146 125.442 88.8017C127.129 95.4968 141.339 104.451 141.339 104.451C141.339 104.451 154.227 80.0835 166.87 73.2407Z" fill="#E8A861"/>
<path d="M188.866 74.8335C188.866 74.8335 178.1 68.4473 163.716 74.3633C149.329 80.2793 127.79 130.468 127.79 130.468H110.977C110.977 130.468 95.8301 153.668 89.6696 182.549C83.5145 211.433 98.2749 265.886 139.899 245.524C139.386 271.565 129.918 392.303 132.049 397.985C136.31 403.665 230.769 412.189 298.951 356.082C295.399 342.589 208.752 90.0936 188.866 74.8335Z" fill="#2B2E4F"/>
<path d="M168.512 326.967C173.713 328.861 245.215 311.344 248.052 308.028C250.897 304.713 238.582 254.578 234.461 254.578C234.461 254.578 232.645 255.002 229.59 255.73C229.345 206.259 220.305 152.397 215.391 126.761C213.513 122.25 211.675 117.925 209.899 113.852C212.331 125.184 226.549 194.411 226.75 256.413C212.312 259.873 181.241 267.458 165.744 272.213L154.772 237.827C154.528 237.085 153.026 242.354 153.268 243.1L163.028 273.067C160.17 274.002 158.085 274.787 157.145 275.351C155.726 281.514 163.297 325.075 168.512 326.967Z" fill="#18214A"/>
<path d="M110.977 130.469C110.977 130.469 120.574 112.783 127.79 113.898C135.004 115.013 135.004 115.013 135.004 115.013L127.79 130.469H110.977Z" fill="#FDD2AF"/>
<path d="M127.787 130.469C127.787 130.469 111.925 165.981 107.192 184.922C102.45 203.862 106.093 211.909 106.093 211.909C106.093 211.909 97.0657 204.73 102.834 181.332C108.613 157.932 127.787 130.469 127.787 130.469Z" fill="#18214A"/>
<path d="M231.618 248.896C231.618 248.896 229.805 249.32 226.753 250.051C226.419 182.474 209.652 106.625 209.461 105.856C209.279 105.093 208.516 104.645 207.745 104.809C206.987 104.991 206.514 105.76 206.697 106.523C206.882 107.294 223.69 183.315 223.907 250.731C209.469 254.194 178.396 261.778 162.899 266.534L153.128 236.545C152.883 235.798 152.091 235.387 151.336 235.632C150.594 235.879 150.181 236.68 150.425 237.424L160.186 267.388C157.327 268.323 155.242 269.11 154.299 269.677C152.881 275.832 160.454 319.396 165.661 321.285C170.868 323.179 242.367 305.662 245.207 302.346C248.052 299.031 235.742 248.896 231.618 248.896Z" fill="white"/>
<path d="M173.952 291.415C161.524 291.372 154.302 269.677 154.302 269.677C153.982 271.08 154.127 274.427 154.595 278.771C158.222 284.609 165.892 291.181 172.886 292.876C184.605 295.716 222.951 283.121 227.416 280.311C235.385 275.298 233.84 251.744 233.84 251.744L231.618 248.896C231.618 248.896 233.254 274.763 227.752 278.669C222.532 282.374 186.381 291.452 173.952 291.415Z" fill="#D4D4D4"/>
<path d="M171.026 264.172C171.026 264.172 181.886 309.002 186.496 307.79C190.287 306.799 177.461 262.41 177.461 262.41C177.461 262.41 176.41 261.647 174.067 262.41C171.026 263.404 171.026 264.172 171.026 264.172Z" fill="#2B2E4F"/>
<path d="M205.826 255.414C205.826 255.414 216.919 300.24 221.538 299.031C225.326 298.037 212.258 253.649 212.258 253.649C212.258 253.649 211.21 252.886 208.87 253.649C205.826 254.645 205.826 255.414 205.826 255.414Z" fill="#2B2E4F"/>
<path d="M184.478 297.801C183.645 295.432 181.735 295.899 182.802 298.594C183.866 301.291 185.274 300.066 184.478 297.801Z" fill="white"/>
<path d="M219.582 288.258C218.961 286.036 217.097 286.659 217.983 289.322C218.875 291.984 220.471 291.452 219.582 288.258Z" fill="white"/>
<path d="M139.899 245.524C139.899 245.524 169.334 225.402 184.25 166.809C184.25 166.809 173.119 237.596 139.899 251.207C139.861 248.012 139.899 245.524 139.899 245.524Z" fill="#18214A"/>
</svg>
