<svg width="216" height="515" viewBox="0 0 216 515" fill="none" xmlns="http://www.w3.org/2000/svg">
<path d="M107.837 514.012C156.255 514.012 195.505 504.01 195.505 491.673C195.505 479.336 156.255 469.334 107.837 469.334C59.4195 469.334 20.1692 479.336 20.1692 491.673C20.1692 504.01 59.4195 514.012 107.837 514.012Z" fill="#D6D8E5"/>
<path d="M148.882 43.9397C143.598 36.5911 137.382 43.9397 137.382 43.9397C135.753 23.7024 113.426 18.4829 110.887 19.8694C108.35 18.4844 80.6363 22.0016 78.0467 43.9397C78.0467 43.9397 71.8305 36.5911 66.5464 43.9397C61.2624 51.2883 65.3026 67.9037 80.5329 62.4715C81.1533 65.3478 81.7752 70.1406 81.7752 70.1406H107.232H108.194H133.651C133.651 70.1406 134.273 65.3478 134.894 62.4715C150.125 67.9037 154.165 51.2883 148.882 43.9397Z" fill="#F9BC9B"/>
<path d="M55.3564 462.191V475.292C55.3564 475.292 42.6138 488.709 41.6802 490.629C40.7481 492.545 76.1794 487.114 77.4247 484.876C78.6671 482.641 77.113 461.231 77.113 461.231L55.3564 462.191Z" fill="#D69D4E"/>
<path d="M154.971 462.191V475.292C154.971 475.292 167.715 488.709 168.647 490.629C169.58 492.545 134.148 487.114 132.903 484.876C131.661 482.641 133.215 461.231 133.215 461.231L154.971 462.191Z" fill="#D69D4E"/>
<path d="M136.727 195.816L104.746 202.08L72.761 195.816C72.761 195.816 30.4916 196.672 40.4378 336.408C40.4378 336.408 43.7542 427.577 47.0691 460.804C55.3563 465.916 81.8785 463.365 86.0221 459.952C86.0221 443.349 100.184 272.653 104.746 260.37C109.306 272.653 123.468 443.348 123.468 459.952C127.613 463.365 154.133 465.916 162.419 460.804C165.734 427.577 169.052 336.408 169.052 336.408C178.998 196.672 136.727 195.816 136.727 195.816Z" fill="#29282D"/>
<path d="M134.924 81.6425C134.924 81.6425 138.653 68.8617 137.411 65.6665C136.167 62.4713 92.033 59.2761 78.9787 66.3059C77.7349 69.5011 80.2211 81.6425 80.2211 81.6425L75.2488 199.225C75.2488 199.225 106.743 206.897 133.266 197.523C132.438 158.329 134.924 81.6425 134.924 81.6425Z" fill="#D69D4E"/>
<path d="M107.262 62.1522C107.262 68.011 107.262 73.8668 107.262 79.7257C107.262 81.3726 109.748 81.3726 109.748 79.7257C109.748 73.8668 109.748 68.0095 109.748 62.1522C109.748 60.5053 107.262 60.5053 107.262 62.1522Z" fill="#C97F3D"/>
<path d="M117.52 63.1101C117.833 68.55 118.065 73.9575 117.83 79.4065C117.76 81.0534 120.246 81.0488 120.316 79.4065C120.551 73.9575 120.319 68.55 120.006 63.1101C119.911 61.4725 117.425 61.4632 117.52 63.1101Z" fill="#C97F3D"/>
<path d="M131.151 64.0486C130.937 62.4201 128.542 63.1165 128.752 64.728C129.378 69.4792 128.943 74.3705 128.13 79.0663C127.852 80.6762 130.247 81.3679 130.53 79.7441C131.425 74.5554 131.84 69.2912 131.151 64.0486Z" fill="#C97F3D"/>
<path d="M96.4284 62.4505C95.4394 68.123 95.6672 74.0035 96.0733 79.7252C96.1902 81.3598 98.6763 81.369 98.5609 79.7252C98.1713 74.253 97.8836 68.5544 98.8277 63.1299C99.1065 61.52 96.7117 60.8298 96.4284 62.4505Z" fill="#C97F3D"/>
<path d="M85.8604 64.0488C84.9942 69.4717 85.4617 74.9023 85.5067 80.3637C85.5187 82.0106 88.0048 82.0137 87.9929 80.3637C87.9509 75.1488 87.4294 69.9046 88.2597 64.7282C88.5159 63.1152 86.1197 62.4265 85.8604 64.0488Z" fill="#C97F3D"/>
<path d="M127.926 141.798C121.822 160.716 101.903 170.869 85.8124 179.376C84.3857 180.129 85.6431 182.337 87.0653 181.584C103.802 172.736 123.98 162.135 130.324 142.477C130.83 140.909 128.428 140.239 127.926 141.798Z" fill="#C97F3D"/>
<path d="M151.707 34.3538C151.707 34.3538 164.762 30.4114 147.357 23.1706C154.4 19.336 153.778 12.7346 138.033 14.8622C146.318 8.47177 132.335 -1.32642 126.532 9.75046C124.873 -4.31055 106.123 -1.64532 106.952 8.15287C97.8326 0.910531 90.479 2.18768 85.5066 6.87417C80.5343 11.5622 89.5454 13.9039 89.5454 13.9039C89.5454 13.9039 70.14 14.5802 66.3411 21.8919C63.1296 28.0666 70.4862 30.0925 75.5605 28.2823C60.6405 32.5436 65.4075 43.5126 65.4075 43.5126C65.4075 43.5126 66.5479 47.7739 71.3643 49.6904C78.4033 52.4912 87.6301 45.3767 102.394 34.0349C88.2416 44.9084 92.658 56.1886 114.206 38.2961C103.638 54.2721 123.739 47.0298 128.915 33.8223C129.33 41.915 138.654 45.5369 138.654 45.5369C138.654 45.5369 148.912 34.3538 151.087 51.288C157.718 53.4171 161.032 42.3417 151.707 34.3538Z" fill="#29282D"/>
<path d="M79.5616 78.2344C79.5616 78.2344 92.8272 101.24 90.3366 154.919C87.8489 208.598 89.5063 327.033 87.0201 332.146C84.534 337.258 35.6317 341.516 20.7132 332.146C19.8845 321.069 21.5449 288.69 21.5449 288.69C21.5449 288.69 2.47823 286.136 0.822276 277.615C-0.00644881 266.538 24.8583 100.39 79.5616 78.2344Z" fill="#D63D36"/>
<path d="M135.894 78.2344C135.894 78.2344 122.629 101.24 125.118 154.919C127.607 208.598 125.949 327.033 128.436 332.146C130.922 337.258 179.823 341.516 194.741 332.146C195.57 321.069 193.911 288.69 193.911 288.69C193.911 288.69 212.978 286.136 214.634 277.615C215.459 266.538 190.596 100.39 135.894 78.2344Z" fill="#D63D36"/>
<path d="M59.4416 151.918C53.7724 180.872 48.5872 209.919 42.2541 238.733C39.3813 251.804 36.4561 264.996 32.1656 277.669C31.728 278.954 31.2634 280.349 30.7329 281.728C30.6505 281.707 30.5846 281.668 30.4932 281.662C20.2098 280.952 11.2737 277.82 1.90293 273.529C0.453781 272.867 -0.814031 275.067 0.6501 275.738C10.1197 280.074 19.3181 283.287 29.6539 284.133C29.1144 285.19 28.5225 286.197 27.7687 287.028C26.2611 288.692 21.0909 286.649 19.1128 286.261C13.2517 285.111 7.25586 283.021 2.77955 278.844C1.59416 277.736 -0.169711 279.539 1.02018 280.65C7.64548 286.831 16.8814 288.82 25.5223 289.83C28.4806 290.174 29.7259 289.028 31.196 286.458C37.0076 276.327 39.1415 263.112 41.818 251.858C49.6272 219.026 55.3549 185.718 61.8423 152.599C62.157 150.986 59.7593 150.302 59.4416 151.918Z" fill="#29282D"/>
<path d="M80.8386 83.0946C70.1565 90.6358 61.4902 100.716 54.0271 111.532C52.7383 110.354 51.3191 109.363 49.7666 108.656C48.313 107.994 47.0497 110.195 48.5123 110.862C50.1398 111.602 51.6084 112.697 52.9197 114.022C53.0336 114.284 53.2419 114.5 53.5072 114.637C58.1288 119.761 60.4157 127.949 59.1284 134.343C58.8062 135.951 61.2024 136.636 61.5291 135.022C62.9363 128.029 60.6764 119.148 55.794 113.369C63.0832 102.722 71.5982 92.708 82.0914 85.3008C83.4042 84.3764 82.1648 82.1595 80.8386 83.0946Z" fill="#29282D"/>
<path d="M156.235 151.918C161.904 180.872 167.089 209.919 173.422 238.733C176.295 251.804 179.22 264.996 183.511 277.669C183.947 278.954 184.411 280.349 184.943 281.728C185.026 281.707 185.092 281.668 185.183 281.662C195.467 280.952 204.401 277.82 213.772 273.529C215.223 272.867 216.489 275.067 215.025 275.738C205.557 280.074 196.358 283.287 186.024 284.133C186.562 285.19 187.155 286.197 187.909 287.028C189.417 288.692 194.585 286.649 196.565 286.261C202.426 285.111 208.42 283.021 212.898 278.844C214.084 277.736 215.846 279.539 214.656 280.65C208.032 286.831 198.795 288.82 190.156 289.83C187.197 290.174 185.952 289.028 184.48 286.458C178.67 276.327 176.535 263.112 173.86 251.858C166.051 219.026 160.323 185.718 153.836 152.599C153.519 150.986 155.917 150.302 156.235 151.918Z" fill="#29282D"/>
<path d="M134.838 83.0946C145.52 90.6358 154.184 100.716 161.647 111.532C162.936 110.354 164.356 109.363 165.91 108.656C167.362 107.994 168.627 110.195 167.162 110.862C165.536 111.602 164.068 112.697 162.757 114.022C162.643 114.284 162.433 114.5 162.168 114.637C157.547 119.761 155.26 127.949 156.546 134.343C156.87 135.951 154.472 136.636 154.147 135.022C152.74 128.029 154.998 119.148 159.882 113.369C152.593 102.722 144.076 92.708 133.585 85.3008C132.271 84.3764 133.511 82.1595 134.838 83.0946Z" fill="#29282D"/>
<path d="M149.843 83.5603C150.215 80.2897 145.236 80.3251 144.871 83.5603C141.908 109.701 140.116 135.924 134.833 161.73C131.843 176.324 127.5 192.308 119.782 205.668C116.174 202.622 111.738 202.947 107.173 205.087C95.8109 210.408 86.4941 218.258 74.0887 221.499C68.7222 222.903 61.8811 222.537 57.6491 226.263C54.9831 223.26 52.9375 219.627 51.5378 215.8C51.2201 214.925 50.5877 214.443 49.8878 214.224L48.5061 221.263C50.18 224.697 52.2811 227.842 54.8422 230.513C53.0409 236.658 59.1702 244.702 62.2648 248.863C73.0877 263.394 92.8197 267.416 107.398 255.518C116.685 247.939 120.655 237.928 122.402 226.104C123.082 221.516 124.995 214.209 123.36 209.282C130.523 197.096 134.951 182.827 138.248 169.282C145.073 141.226 146.598 112.185 149.843 83.5603Z" fill="white"/>
<path d="M124.188 210.511C116.761 196.635 97.6812 217.573 90.951 221.89C83.5914 226.61 75.2067 225.358 67.0738 226.695C61.5005 227.609 55.8673 229.581 54.7808 235.953C54.5051 237.563 56.9029 238.254 57.1801 236.632C58.34 229.826 66.0189 229.233 71.4977 228.763C76.9856 228.294 82.1152 228.219 87.4038 226.418C94.657 223.95 115.838 200.212 122.042 211.801C122.814 213.244 124.965 211.953 124.188 210.511Z" fill="#D6D8E5"/>
<path d="M109.346 223.631C106.824 221.821 103.566 223.937 101.299 225.259C95.7676 228.482 91.0065 232.466 84.7408 234.147C80.4534 235.293 75.3042 234.715 72.0297 238.29C69.6904 240.844 71.0931 245.794 72.9258 248.18C78.4407 255.353 89.4465 255.896 97.1148 252.517C106.435 248.41 112.314 234.195 110.018 224.449C109.911 224.008 109.654 223.753 109.346 223.631ZM76.2168 248.154C74.8276 246.983 74.0693 245.35 73.5568 243.626C72.0852 238.692 76.9271 238.117 79.6951 237.603C82.959 236.989 86.145 236.598 89.2756 235.403C92.5246 234.159 103.911 224.292 107.725 225.684C111.206 242.72 90.8042 260.422 76.2168 248.154Z" fill="#D6D8E5"/>
</svg>
