<svg width="263" height="532" viewBox="0 0 263 532" fill="none" xmlns="http://www.w3.org/2000/svg">
<path d="M40.5337 76.4606C40.5337 76.4606 41.5273 72.27 36.9694 68.5869C32.4115 64.9038 29.7788 61.9039 33.4618 56.9167C33.4618 56.9167 24.5081 45.4409 36.1729 42.8109C36.1729 42.8109 39.7749 31.8887 47.4893 37.6995C55.2038 43.5103 52.5738 50.8764 49.9438 53.1553C49.9438 53.1553 43.3878 58.4342 43.8063 65.5573C44.1573 71.5193 40.5337 76.4606 40.5337 76.4606Z" fill="#C5DDE1"/>
<path d="M36.5105 126.068L20.4012 124.85L15.5247 93.9766H41.387L36.5105 126.068Z" fill="#6E7A61"/>
<path d="M40.4609 114.417L16.4481 113.2L15.2303 101.33H41.6813L40.4609 114.417Z" fill="#4B3425"/>
<path d="M41.6813 82.9328L38.2224 82.1875L32.8922 85.2927L17.6686 86.5888L15.2303 95.6155H40.4609L41.6813 82.9328Z" fill="#4B3425"/>
<path d="M44.0143 90.0989H12.8973V95.6154H44.0143V90.0989Z" fill="#4B3425"/>
<path d="M51.2858 188.016C51.2588 188.016 51.2318 188.016 51.2048 188.016C46.3472 187.987 41.9189 185.232 39.7426 180.888L9.03067 119.807C5.83635 113.432 8.41502 105.677 14.7902 102.482C21.1626 99.2855 28.9202 101.867 32.1145 108.242L51.4614 146.641L78.9141 93.5179C82.1895 87.1832 89.9769 84.7044 96.3088 87.9744C102.643 91.247 105.125 99.037 101.852 105.369L62.7536 181.028C60.5394 185.324 56.1138 188.016 51.2858 188.016Z" fill="#FFB096"/>
<path d="M152.91 76.4609C152.91 76.4609 172.929 89.6324 188.415 141.352C203.9 193.071 196.907 200.591 158.443 209.569L152.91 76.4609Z" fill="#40392C"/>
<path d="M229.204 425.562L207.859 444.209L232.72 472.669C232.72 472.669 223.544 489.648 222.494 505.498C222.494 505.498 245.937 491.303 262.243 464.879L229.204 425.562Z" fill="#632C29"/>
<path d="M207.262 277.411L202.337 205.751L156.896 205.189L153.129 288.239L207.262 277.411Z" fill="#D64857"/>
<path d="M205.226 461.029L245.931 426.051L225.58 443.54L245.975 426.1C245.275 425.279 176.005 342.575 174.771 228.025L121.104 228.603C122.554 363.29 201.851 457.1 205.226 461.029Z" fill="#FB8C17"/>
<path d="M105.816 457.284L77.475 457.076L77.1969 494.865C77.1969 494.865 59.0679 501.481 47.7649 512.646C47.7649 512.646 74.7208 517.577 104.455 508.62L105.816 457.284Z" fill="#632C29"/>
<path d="M132.926 228.476L150.08 231.638C149.951 232.35 142.385 274.02 137.049 330.335C127.925 300.276 121.502 266.024 121.099 228.605L132.926 228.476Z" fill="#F85F2B"/>
<path d="M66.4176 467.801L120.03 465.339C114.986 355.536 137.262 232.864 137.487 231.638L84.706 221.912C83.7394 227.158 61.0848 351.718 66.4176 467.801Z" fill="#FB8C17"/>
<path d="M188.296 229.999L199.964 227.21L166.009 85.1014C164.47 78.6588 157.997 74.6814 151.555 76.2232L188.296 229.999Z" fill="#D64857"/>
<path d="M72.423 107.875L120.678 64.1855C146.53 64.1855 167.834 84.4639 169.109 110.283L176.429 258.572H73.9297L72.423 107.875Z" fill="#534C38"/>
<path d="M139.382 111.436C145.19 104.243 151.455 81.8124 144.883 70.7119C137.741 66.5833 129.489 64.1855 120.678 64.1855C92.958 64.1855 70.8813 87.3801 72.2475 115.065L73.333 198.676C73.7894 197.81 76.8919 189.817 77.2186 188.869L102.976 114.179C122.371 137.636 134.09 117.989 139.382 111.436Z" fill="#40392C"/>
<path d="M87.3171 74.6541L51.8232 133.51L40.5175 110.942L6.34131 128.066L34.1991 183.669C37.4366 190.13 43.9387 194.172 51.1914 194.218H51.2859C58.463 194.218 64.9677 190.257 68.2646 183.879L108.465 106.087L87.3171 74.6541Z" fill="#534C38"/>
<path d="M102.063 49.1426H123.837L132.445 77.9185L110.828 78.3694L102.063 49.1426Z" fill="#FFB096"/>
<path d="M92.064 64.2399C82.6377 61.7693 76.376 52.8479 77.2616 43.1434L78.0204 34.7971C79.1383 22.5248 91.011 14.192 102.932 17.3161C112.359 19.7868 118.62 28.7082 117.735 38.4127L116.976 46.7589C115.858 59.0313 103.985 67.3641 92.064 64.2399Z" fill="#FFB096"/>
<path d="M101.62 51.3489C101.62 51.3489 91.3324 45.0548 94.8102 30.517C94.8102 30.517 85.5081 28.5513 85.3029 22.619C85.3029 22.619 59.2759 24.3498 71.7642 8.05147C78.1313 -0.257004 96.8894 -5.32796 101.185 9.19905C101.185 9.19905 125.255 7.82465 129.429 20.7153C133.604 33.606 125.519 53.7413 125.519 53.7413L101.62 51.3489Z" fill="#6E324C"/>
<path d="M103.767 55.329C108.6 55.329 112.518 51.4109 112.518 46.5777C112.518 41.7445 108.6 37.8264 103.767 37.8264C98.9335 37.8264 95.0154 41.7445 95.0154 46.5777C95.0154 51.4109 98.9335 55.329 103.767 55.329Z" fill="#FFB096"/>
<path d="M95.0154 90.2855C95.0154 90.2855 72.3851 83.0787 90.4089 69.0269C100.972 60.7913 137.451 55.58 147.836 64.901C158.221 74.2221 151.195 100.797 144.782 108.739C138.367 116.677 122.536 143.911 95.0154 90.2855Z" fill="#6E7A61"/>
<path opacity="0.2" d="M246.602 505.5C246.602 520.133 191.532 532 123.602 532C55.6712 532 0.601562 520.133 0.601562 505.5C0.601562 490.864 55.6712 479 123.602 479C191.532 479 246.602 490.864 246.602 505.5Z" fill="#569B94"/>
</svg>
