<svg width="219" height="535" viewBox="0 0 219 535" fill="none" xmlns="http://www.w3.org/2000/svg">
<path d="M49.6117 285.543C57.3446 285.543 63.6919 279.357 63.8589 271.589L64.757 229.132C64.924 221.259 58.6781 214.745 50.8083 214.578C42.985 214.43 36.4214 220.657 36.2543 228.527L35.3562 270.983C35.1891 278.856 41.4352 285.37 49.305 285.537C49.4063 285.543 49.5104 285.543 49.6117 285.543Z" fill="#E97D54"/>
<path d="M77.9884 76.0493C77.9884 76.0493 46.4874 147.896 39.6472 189.195C32.807 230.493 33.2752 264.467 33.2752 264.467H66.5973L77.9884 76.0493Z" fill="#69755C"/>
<path d="M176.514 291.392L188.294 289.848C176.06 196.522 156.467 80.9585 156.273 79.803L144.561 81.7937C144.756 82.9465 164.31 198.296 176.514 291.392Z" fill="#40392C"/>
<path d="M130.325 82.8259L139.934 63.9701L116.699 60.0955L91.7839 62.7899L98.134 85.5203L130.325 82.8259Z" fill="#6E7A61"/>
<path d="M67.7336 476.874C67.0819 476.874 66.4192 476.825 65.7538 476.721C58.7767 475.637 53.9984 469.1 55.0828 462.123C71.1427 358.778 83.7415 212.79 83.8675 211.328C84.4699 204.293 90.6694 199.079 97.6986 199.682C104.733 200.284 109.947 206.478 109.344 213.513C109.218 214.986 96.5429 361.848 80.3488 466.05C79.3685 472.364 73.9275 476.874 67.7336 476.874Z" fill="#E97D54"/>
<path d="M91.9947 438.928L49.8828 432.383C65.8798 329.446 75.2721 211.919 75.3652 210.745L117.849 214.107C117.754 215.293 108.241 334.369 91.9947 438.928Z" fill="#E29D4C"/>
<path d="M139.838 481.675C139.748 481.675 139.657 481.675 139.564 481.672C132.505 481.524 126.902 475.681 127.05 468.622C129.737 340.383 110.812 224.891 110.621 223.741C109.462 216.774 114.169 210.189 121.136 209.033C128.099 207.864 134.687 212.582 135.843 219.548C136.037 220.723 155.348 338.567 152.612 469.158C152.47 476.127 146.774 481.675 139.838 481.675Z" fill="#E97D54"/>
<path d="M164.252 436.101L121.645 435.206C124.279 309.371 98.301 209.06 98.0847 208.255L143.803 216.087C144.753 219.597 167.026 303.657 164.252 436.101Z" fill="#E29D4C"/>
<path d="M126.302 443.076H154.373V480.5C154.373 480.5 172.278 487.184 183.39 498.324C183.39 498.324 156.659 503.011 127.28 493.926L126.302 443.076Z" fill="#632C29"/>
<path d="M54.2066 439.848L85.8391 444.705L82.1589 490.152C82.1589 490.152 66.8985 511.108 40.8849 514C40.8849 514 42.1856 502.078 51.545 486.179L54.2066 439.848Z" fill="#632C29"/>
<path d="M99.2401 51.7688C104.027 51.7688 107.907 47.8886 107.907 43.1022C107.907 38.3157 104.027 34.4355 99.2401 34.4355C94.4537 34.4355 90.5735 38.3157 90.5735 43.1022C90.5735 47.8886 94.4537 51.7688 99.2401 51.7688Z" fill="#E97D54"/>
<path d="M95.538 29.6961L94.9465 41.7226L100.089 44.0775L101.324 28.2612L95.538 29.6961Z" fill="#6A3934"/>
<path d="M115.662 87.4841C120.76 87.4841 124.895 83.3493 124.895 78.2507V52.9737C124.895 47.875 120.76 43.7402 115.662 43.7402C110.563 43.7402 106.428 47.875 106.428 52.9737V78.2507C106.428 83.3493 110.563 87.4841 115.662 87.4841Z" fill="#E97D54"/>
<path d="M110.281 64.9594C100.946 62.5141 94.7467 53.6777 95.6202 44.0664L96.3732 35.7995C97.4795 23.6444 109.238 15.3939 121.045 18.4882C130.38 20.9335 136.579 29.7699 135.706 39.3812L134.953 47.6481C133.844 59.8032 122.086 68.0536 110.281 64.9594Z" fill="#E97D54"/>
<path d="M131.448 78.4154L124.895 74.7817L124.139 75.6224C119.301 81.0168 110.733 80.6088 106.428 74.7817L94.1333 76.0496L83.8647 213.941L135.205 217.169L131.448 78.4154Z" fill="#FDE3DD"/>
<path d="M86.2934 95.6516L141.015 98.4077L141.291 92.9301L86.5693 90.174L86.2934 95.6516Z" fill="#D64857"/>
<path d="M85.4227 112.982L140.144 115.739L140.42 110.261L85.6986 107.505L85.4227 112.982Z" fill="#D64857"/>
<path d="M84.5496 130.314L139.271 133.07L139.547 127.592L84.8255 124.836L84.5496 130.314Z" fill="#D64857"/>
<path d="M83.679 147.642L138.401 150.398L138.676 144.921L83.9549 142.165L83.679 147.642Z" fill="#D64857"/>
<path d="M82.8061 164.973L137.528 167.729L137.804 162.252L83.082 159.496L82.8061 164.973Z" fill="#D64857"/>
<path d="M81.9356 182.301L136.657 185.057L136.933 179.58L82.2115 176.824L81.9356 182.301Z" fill="#D64857"/>
<path d="M81.0626 199.632L135.784 202.388L136.06 196.911L81.3384 194.155L81.0626 199.632Z" fill="#D64857"/>
<path d="M39.6471 389.855L77.9883 76.0493L101.521 71.8789L77.7748 388.42L39.6471 389.855Z" fill="#6E7A61"/>
<path d="M127.806 72.2896L156.475 84.9185C170.583 231.43 178.592 384.625 178.592 384.625L122.236 386.747L127.806 72.2896Z" fill="#6E7A61"/>
<path d="M131.448 30.52L132.609 46.3034L141.508 47.9327L143.291 36.2759L131.448 30.52Z" fill="#6A3934"/>
<path d="M130.558 212.218L126.539 214.751L151.572 254.457L155.59 251.924L130.558 212.218Z" fill="#808E70"/>
<path d="M84.8336 214.279L63.7213 247.067L67.7159 249.639L88.8282 216.851L84.8336 214.279Z" fill="#808E70"/>
<path d="M143.291 36.2756C143.291 36.2756 118.446 26.667 95.5381 29.6955C95.5381 29.6955 98.4297 -1.94794 122.277 0.0948115C141.79 1.76516 144.619 18.5754 143.291 36.2756Z" fill="#D64857"/>
<path d="M137.228 57.3464C142.015 57.3464 145.895 53.4663 145.895 48.6798C145.895 43.8934 142.015 40.0132 137.228 40.0132C132.442 40.0132 128.562 43.8934 128.562 48.6798C128.562 53.4663 132.442 57.3464 137.228 57.3464Z" fill="#E97D54"/>
<path d="M131.735 34.4355L130.325 46.6482H132.609C132.609 46.6482 133.014 39.4575 136.47 37.6393L131.735 34.4355Z" fill="#6A3934"/>
<path d="M95.6146 32.7819C93.9963 33.346 91.5044 29.2796 95.6146 26.0786C95.6146 26.0786 91.0444 22.004 99.2401 20.1119C107.436 18.2197 127.751 17.7296 143.556 27.6805C147.026 29.8629 148.044 33.7704 145.279 34.4385C142.513 35.1067 148.658 39.6139 142.455 41.7251C142.455 41.7251 121.489 23.7647 95.6146 32.7819Z" fill="#D64857"/>
<path d="M152.757 291.393L164.537 289.848C152.382 197.144 156.311 79.8063 156.355 78.6316L144.482 78.2126C144.438 79.3983 140.473 197.697 152.757 291.393Z" fill="#534C38"/>
<path d="M155.399 237.207H177.796C185.668 237.207 192.051 230.824 192.051 222.952C192.051 215.079 185.668 208.696 177.796 208.696H155.399C147.527 208.696 141.144 215.079 141.144 222.952C141.144 230.824 147.527 237.207 155.399 237.207Z" fill="#E97D54"/>
<path d="M156.478 84.9185C156.478 84.9185 211.457 148.197 218.35 213.702C222.892 256.874 164.493 246.016 164.493 246.016L161.243 203.048L156.478 84.9185Z" fill="#6E7A61"/>
<path d="M166.596 254.483H143.816L147.042 334.695H178.595L166.596 254.483Z" fill="#534C38"/>
<path d="M178.595 334.695L193.396 314.541L187.538 254.483H166.596L178.595 334.695Z" fill="#40392C"/>
<path opacity="0.2" d="M214 504.5C214 521.342 166.094 535 107 535C47.9061 535 0 521.342 0 504.5C0 487.655 47.9061 474 107 474C166.094 474 214 487.655 214 504.5Z" fill="#569B94"/>
</svg>
