<svg width="349" height="510" viewBox="0 0 349 510" fill="none" xmlns="http://www.w3.org/2000/svg">
<path opacity="0.2" d="M349 487C349 499.701 273.335 510 180 510C86.6647 510 11 499.701 11 487C11 474.297 86.6647 464 180 464C273.335 464 349 474.297 349 487Z" fill="#569B94"/>
<path d="M215.298 114.01C215.298 114.01 227.076 140.598 237.648 193.593C246.77 239.315 285.342 277.503 254.16 329.028C222.977 380.553 189.854 418.092 140.54 362.151C91.2233 306.21 170.701 262.047 181.382 225.981C192.062 189.912 213.653 118.407 213.653 118.407" fill="#2B5B66"/>
<path d="M299.81 459.563C299.81 459.563 345.654 459.309 348.597 462.745C351.541 466.181 296.092 489.247 289.713 486.791C283.334 484.338 280.531 468.158 280.531 468.158C280.531 468.158 294.205 459.563 299.81 459.563Z" fill="#D05B47"/>
<path opacity="0.2" d="M280.528 468.155C280.528 468.155 281.349 472.844 283.095 477.555C294.388 472.491 301.784 459.56 301.784 459.56C300.525 459.56 299.81 459.563 299.81 459.563C294.205 459.563 280.528 468.155 280.528 468.155Z" fill="#18214A"/>
<path d="M75.614 460.454C75.614 460.454 80.8291 473.649 83.3935 485.764C97.1233 492.385 96.1543 494.724 94.9014 496.483C93.6595 498.227 82.3716 498.733 68.4024 495.381C58.7295 482.436 46.3084 460.779 46.7567 457.204C47.6031 450.422 62.636 443.809 62.636 443.809C62.636 443.809 74.2719 455.01 75.614 460.454Z" fill="#C14D3E"/>
<path opacity="0.2" d="M62.6387 443.806C62.6387 443.806 55.7697 447.598 51.6182 450.427C60.6757 458.758 76.0956 462.37 76.0956 462.37C75.7921 461.147 75.614 460.454 75.614 460.454C74.2719 455.011 62.6387 443.806 62.6387 443.806Z" fill="#18214A"/>
<path d="M204.823 314.062C204.823 314.062 169.623 382.379 159.677 394.539C139.802 418.829 88.5254 470.65 88.5254 470.65C88.5254 470.65 53.1944 449.497 46.3225 441.645C64.9695 416.129 109.133 362.151 109.133 362.151L177.742 292.472C177.742 292.472 206.296 276.768 204.823 314.062Z" fill="#18214A"/>
<path opacity="0.2" d="M70.7331 459.562C87.2054 442.636 136.077 391.515 150.748 365.934C168.111 335.652 170.241 327.875 170.322 327.557L164.631 326.051C164.544 326.357 162.325 333.909 145.638 363.005C131.254 388.09 81.1021 440.447 65.7017 456.279C67.3862 457.393 69.0736 458.493 70.7331 459.562Z" fill="#18214A"/>
<path opacity="0.2" d="M176.823 291.458L113.303 359.33C113.303 359.33 101.2 371.835 90.0928 385.643C113.228 390.73 135.086 389.24 151.396 375.123C167.473 361.21 186.911 333.363 201.961 297.23C195.688 281.084 176.823 291.458 176.823 291.458Z" fill="#18214A"/>
<path d="M233.617 243.893C233.617 243.893 268.614 312.099 279.654 343.752C290.697 375.402 307.626 453.426 307.626 453.426C307.626 453.426 288.486 473.301 255.366 470.358C247.269 448.275 228.769 369.619 223.501 361.419C208.257 337.701 191.328 306.951 187.644 297.381C183.966 287.814 191.325 248.431 191.325 248.431L233.617 243.893Z" fill="#2B2E4F"/>
<path opacity="0.2" d="M280.528 468.155C282.499 467.618 284.401 467.033 286.169 466.384C282.224 447.974 264.894 367.903 259.517 356.05C253.793 343.429 212.676 250.055 211.027 246.31L210.398 246.376L205.562 248.506C205.99 249.475 248.327 345.637 254.154 358.481C258.576 368.229 272.96 432.729 280.528 468.155Z" fill="#18214A"/>
<path opacity="0.2" d="M191.328 248.429C191.328 248.429 183.966 287.808 187.647 297.378C188.855 300.516 191.506 305.96 195.034 312.656C204.642 293.085 213.163 270.314 219.018 245.458L191.328 248.429Z" fill="#18214A"/>
<path d="M217.364 124.602C217.364 124.602 225.923 143.299 226.903 177.157C227.886 211.015 228.867 226.719 235.736 232.605C242.607 238.494 230.551 252.725 206.154 251.252C206.786 224.266 221.569 141.238 217.364 124.602Z" fill="white"/>
<path opacity="0.2" d="M226.903 177.157C225.923 143.299 217.364 124.602 217.364 124.602C221.569 141.241 206.786 224.266 206.154 251.252C210.4 251.508 214.251 251.263 217.715 250.695C223.106 229.433 226.558 206.565 227.073 182.812C227.018 180.982 226.959 179.106 226.903 177.157Z" fill="#18214A"/>
<path d="M213.163 50.5541V59.3861C213.163 59.3861 209.237 54.4772 200.895 57.4231C192.553 60.369 192.06 75.58 207.029 76.5629C203.35 87.358 201.878 90.7939 201.878 90.7939L213.163 107.968L221.995 88.3381C221.995 88.3381 231.81 95.7 243.585 88.3381C255.363 80.9762 251.927 53.0099 249.474 43.1949C244.57 40.7391 213.163 41.722 213.163 50.5541Z" fill="#FDD2AF"/>
<path d="M221.995 52.7594C225.183 58.6483 241.552 56.0171 241.956 47.5192C237.454 48.0983 239.662 45.8151 239.662 45.8151C239.662 45.8151 245.139 47.8199 250.095 46.0295C249.886 44.9854 249.68 44.0081 249.474 43.1922C246.433 41.672 233.21 41.4743 223.593 43.6461L213.16 59.3862C213.16 59.3862 220.277 61.5942 221.995 52.7594Z" fill="#FB8C70"/>
<path d="M213.162 59.386C213.162 59.386 218.071 60.8589 220.032 49.081C227.391 57.9158 250.456 49.5711 238.679 44.1749C260.761 48.1009 273.519 34.85 271.064 23.565C268.611 12.2799 250.456 15.2229 238.679 17.1859C255.363 3.93786 254.382 -4.89419 238.679 2.95497C222.975 10.8069 205.801 20.1318 200.895 23.0749C195.988 26.0208 190.759 51.1637 195.092 59.4473C200.895 57.423 207.764 54.4799 213.162 59.386Z" fill="#2B2E4F"/>
<path d="M206.154 20.0759C206.154 20.0759 200.001 39.1294 201.262 57.42C198.319 59.6308 193.435 62.8746 196.796 71.5591C188.382 66.6252 169.245 55.716 172.188 42.0335C175.134 28.3483 195.22 21.7382 206.154 20.0759Z" fill="#E8A861"/>
<path d="M177.709 35.7079C177.709 35.7079 178.812 25.7704 168.139 27.6109C157.467 29.4514 158.074 38.1025 160.282 42.886C162.49 47.6696 172.923 48.9281 175.501 45.8152C178.077 42.7023 177.709 35.7079 177.709 35.7079Z" fill="#E8A861"/>
<path d="M221.995 88.3354C221.995 88.3354 216.354 84.1644 213.653 80.2412C215.861 87.8481 220.277 92.15 220.277 92.15L221.995 88.3354Z" fill="#FB8C70"/>
<path d="M251.665 57.7793C251.665 57.7793 255.179 71.5035 257.574 74.9979C254.16 76.2147 250.749 76.1896 250.749 76.1896C250.749 76.1896 251.941 60.9034 251.665 57.7793Z" fill="#FB8C70"/>
<path d="M200.405 64.1025C201.418 62.287 204.823 59.8089 208.624 62.8773C209.604 64.225 211.325 68.0841 208.624 70.7543C208.994 67.7834 207.619 66.9258 205.238 67.6609C202.858 68.396 203.105 71.9544 207.519 72.4445C203.596 73.1795 197.297 69.674 200.405 64.1025Z" fill="#FB8C70"/>
<path d="M213.653 106.873C213.653 106.873 206.784 82.9389 180.285 80.2409C153.786 77.54 112.076 99.6229 114.039 115.817C116.002 132.008 125.327 134.954 134.159 137.897C115.512 157.037 95.4418 176.31 94.9016 197.764C94.445 215.918 114.039 229.659 114.039 229.659C114.039 229.659 80.1806 266.46 47.7927 281.184C15.4076 295.905 -11.8264 313.569 6.57273 336.387C24.9747 359.205 106.627 401.742 146.424 367.299C184.701 334.179 242.117 222.3 213.653 106.873Z" fill="#31686F"/>
<g opacity="0.6">
<path opacity="0.6" d="M181.023 235.364C180.288 230.948 177.712 229.662 177.712 229.662C177.712 229.662 176.543 232.282 173.967 236.136C170.581 231.01 158.848 212.293 159.68 200.22C160.652 186.128 183.726 160.473 183.726 160.473C183.726 160.473 156.244 184.026 155.264 199.73C154.359 214.225 169.256 236.194 171.564 239.502C167.744 244.517 161.972 250.651 153.811 256.052C139.513 249.966 114.044 229.665 114.044 229.665C114.044 229.665 114.044 229.665 110.965 232.892C110.965 232.892 128.387 243.918 134.532 248.189C140.407 252.271 148.468 256.275 151.291 257.639C147.451 259.962 143.175 262.117 138.335 263.893C139.611 267.076 141.646 267.204 141.646 267.204C141.646 267.204 164.094 261.496 181.023 235.364Z" fill="#2B2E4F"/>
<path opacity="0.6" d="M167.474 274.56C179.182 280.817 197.384 272.233 195.092 258.121C195.092 258.121 190.361 277.874 167.474 274.56Z" fill="#2B2E4F"/>
</g>
<path d="M151.583 120.464C151.583 120.464 128.025 110.418 102.999 134.709C77.9725 158.997 81.6535 169.302 85.3345 171.51C72.8215 183.288 55.8924 211.767 68.4054 229.659C78.883 244.642 98.4322 253.508 118.012 232.75C118.012 232.75 92.0392 216.01 95.1271 194.679C98.215 173.351 135.765 137.505 151.583 120.464Z" fill="#E8A861"/>
<path d="M201.053 113.261C199.647 109.076 197.169 105.094 192.912 102.716C192.327 102.343 191.962 102.176 191.962 102.176V102.24C189.693 101.165 187.017 100.48 183.72 100.478C157.834 100.45 132.215 134.274 132.101 137.195C134.158 137.891 133.944 138.966 133.944 138.966C133.944 138.966 161.883 104.156 183.23 105.629C186.867 105.882 189.81 106.809 192.216 108.14C192.475 108.296 192.873 108.561 193.385 108.989C196.771 111.816 204.3 121.202 197.581 145.746C189.117 176.661 162.25 199.479 159.675 200.217C159.975 205.379 160.535 208.085 160.535 208.085C160.535 208.085 189.364 188.806 200.282 149.797C205.283 131.938 203.954 120.469 201.053 113.261Z" fill="#E8A861"/>
<path d="M105.365 172.955C105.365 172.955 107.142 170.416 112.997 162.725C95.2719 175.929 85.3345 171.51 85.3345 171.51C96.007 177.766 105.365 172.955 105.365 172.955Z" fill="#D35C48"/>
<g opacity="0.5">
<path d="M95.1299 194.682C95.4334 192.582 96.0821 190.335 96.9982 187.985L96.9954 187.979C96.9954 187.979 87.5063 206.833 98.6633 220.373C108.89 232.789 115.158 235.553 115.158 235.553C116.107 234.682 117.06 233.766 118.015 232.752C118.015 232.752 92.042 216.013 95.1299 194.682Z" fill="#D35C48"/>
</g>
</svg>
