<svg width="200" height="492" viewBox="0 0 284 492" fill="none" xmlns="http://www.w3.org/2000/svg">
<path d="M149.305 492C223.311 492 283.305 485.956 283.305 478.5C283.305 471.044 223.311 465 149.305 465C75.2988 465 15.3049 471.044 15.3049 478.5C15.3049 485.956 75.2988 492 149.305 492Z" fill="#E8CCCD"/>
<path d="M28.5646 183.034C28.5646 183.034 20.3047 182.077 17.4317 179.923C14.5587 177.768 12.0448 176.331 12.0448 176.331C12.0448 176.331 1.27101 172.74 0.552758 171.663C-0.165495 170.585 4.86228 166.276 7.01704 166.635C9.1718 166.994 14.1996 170.585 14.1996 170.585L28.5646 183.034Z" fill="#E88F71"/>
<path d="M114.755 131.32C114.755 131.32 97.5173 163.403 92.251 169.626C86.9848 175.851 66.3939 172.499 61.6046 172.499C56.8153 172.499 35.2677 174.892 26.6486 173.935L18.5094 168.189C18.5094 168.189 8.45384 161.963 8.93363 164.836C9.41342 167.709 14.1999 170.582 14.1999 170.582C14.1999 170.582 17.0729 175.372 19.9459 177.285C22.8189 179.201 25.2121 182.074 28.5649 183.031C31.9177 183.988 44.8463 182.551 59.2114 183.988C73.5764 185.424 90.3347 185.904 97.5173 184.945C104.7 183.985 127.684 148.552 127.684 148.552L114.755 131.32Z" fill="#E88F71"/>
<path d="M132.47 97.8032C132.47 97.8032 121.935 99.7195 116.189 108.816C110.443 117.911 101.347 143.292 101.347 143.292L130.557 151.431L143.005 112.168L132.47 97.8032Z" fill="#B77CBD"/>
<path d="M202.859 104.026C202.859 104.026 222.49 113.602 223.45 120.307C224.406 127.01 220.097 211.764 215.787 221.342C211.478 230.918 177.958 223.259 177.958 223.259L171.256 133.716L202.859 104.026Z" fill="#322E47"/>
<path d="M125.828 8.7806C125.828 8.7806 113.578 42.619 117.077 65.9564C118.827 71.7915 138.662 72.3748 138.662 72.3748C138.662 72.3748 171.917 74.7076 176.586 73.5412C181.254 72.3747 186.699 73.1533 187.477 70.8175C188.256 68.4846 181.254 29.9777 181.254 29.9777C181.254 29.9777 183.199 16.3654 182.033 12.0874C180.866 7.80952 173.477 1.19583 165.309 0.42012C157.138 -0.358467 136.915 -1.13704 125.828 8.7806Z" fill="#322E47"/>
<path d="M202.6 400.048L231.459 412.114L234.597 401.935L207.429 385.855L202.6 400.048Z" fill="#E38271"/>
<path d="M234.597 401.936C234.597 401.936 214.486 438.558 218.66 444.002C223.432 448.154 242.348 406.872 242.236 404.139C242.127 401.41 234.597 401.936 234.597 401.936Z" fill="#724564"/>
<path d="M229.842 415.907C229.842 415.907 222.628 406.501 230.207 398.278C235.353 395.675 239.746 402.958 239.746 402.958L229.842 415.907Z" fill="#724564"/>
<path d="M121.938 192.133C121.938 192.133 112.362 228.525 110.445 234.271C108.529 240.017 112.362 312.8 131.513 349.192C150.668 385.584 211.958 409.525 211.958 409.525L221.533 388.458C221.533 388.458 181.311 339.616 179.395 330.041C177.481 320.462 160.243 208.414 160.243 208.414L146.835 188.303L121.938 192.133Z" fill="#E8CCCD"/>
<path d="M118.252 443.663L113.98 474.651L124.624 475.077L133.206 444.697L118.252 443.663Z" fill="#E38271"/>
<path d="M124.624 475.077C124.624 475.077 83.9938 461.553 79.7992 466.986C77.0067 472.661 121.84 483.834 124.452 483.026C127.06 482.219 124.624 475.077 124.624 475.077Z" fill="#724564"/>
<path d="M109.903 474.059C109.903 474.059 117.148 464.676 127.037 469.896C130.87 474.203 124.957 480.314 124.957 480.314L109.903 474.059Z" fill="#724564"/>
<path d="M188.017 184.471C188.017 184.471 189.933 211.284 194.72 219.904C199.509 228.523 204.296 251.507 202.382 263.955C200.466 276.404 136.082 455.629 136.082 455.629L111.181 447.009C111.181 447.009 140.133 262.039 141.089 235.225C142.046 208.411 160.244 188.3 160.244 188.3L188.017 184.471Z" fill="#F2DDDC"/>
<path d="M139.411 56.096C139.411 56.096 147.226 75.2389 139.931 85.8144C143.057 83.8004 170.664 76.7473 170.664 76.7473C170.664 76.7473 169.621 71.2052 170.144 61.1324C170.667 51.0596 139.411 56.096 139.411 56.096Z" fill="#E38271"/>
<path d="M159.338 3.41048C159.338 3.41048 176.08 1.6723 178.306 25.1678C180.533 48.6633 179.599 56.6962 177.559 64.9533C175.519 73.2103 158.606 76.7499 144.649 68.5589C130.692 60.3708 129.18 49.0511 127.577 36.1082C125.974 23.1681 127.945 -0.560027 159.338 3.41048Z" fill="#E88F71"/>
<path d="M117.367 203.625H189.933C188.488 195.244 188.669 184.712 189.157 176.234C189.939 162.633 209.473 123.344 207.91 111.255C206.347 99.1651 200.876 91.6091 194.628 88.5867C188.376 85.5643 179.783 90.0979 175.876 86.3199C171.968 82.5419 177.438 76.497 171.187 74.9858C165.717 74.9858 138.371 80.2751 136.027 84.8087C133.682 89.3423 130.557 97.6539 130.557 97.6539C130.557 97.6539 126.129 102.188 125.348 104.454C124.566 106.721 122.742 110.499 121.179 115.788C119.616 121.078 107.377 132.412 108.156 140.723C108.937 149.035 120.398 169.436 121.179 178.503C121.728 184.827 119.481 192.639 117.367 203.625Z" fill="#B77CBD"/>
<path d="M116.832 206.499H190.525C188.456 197.765 188.612 185.719 189.157 176.235C189.465 170.865 192.706 161.476 196.409 151.352L199.836 140.725C199.836 140.725 173.793 149.286 169.624 150.8C165.458 152.312 147.746 145.764 144.62 146.267C141.494 146.769 134.722 155.837 125.348 154.325C119.467 153.377 113.178 148.864 109.305 145.629C112.388 155.36 120.524 170.903 121.179 178.505C121.774 185.368 119.079 193.976 116.832 206.499Z" fill="#AC61A9"/>
<path d="M140.802 10.921C140.802 10.921 148.97 12.4754 154.414 17.144C159.859 21.8127 166.082 32.3135 173.474 32.3135C180.866 32.3135 180.863 32.3135 180.863 32.3135C180.863 32.3135 180.863 16.7561 176.973 11.3089C173.083 5.86455 164.915 3.14088 164.915 3.14088L147.413 2.3623L136.912 4.30734L131.855 9.36387L124.466 27.6449L124.854 37.3672C124.854 37.3672 128.353 35.81 130.689 33.4771C133.022 31.1442 140.414 24.5305 140.802 20.2526C141.193 15.9776 140.802 10.921 140.802 10.921Z" fill="#322E47"/>
<path d="M175.875 86.3208C175.875 86.3208 152.584 124.618 154.02 148.562C156.893 167.236 193.286 193.093 193.286 193.093L196.639 188.784C196.639 188.784 165.515 165.8 160.246 149.998C160.726 142.816 167.429 108.819 181.794 87.2718C182.748 86.7891 175.875 86.3208 175.875 86.3208Z" fill="#322E47"/>
<path d="M213.874 143.773C213.874 143.773 215.31 177.292 214.354 184.952C213.397 192.614 171.258 163.884 160.246 155.265C160.246 155.265 158.33 156.221 155.457 155.265C152.584 154.308 152.584 150.955 152.584 150.955L147.794 151.435C147.794 151.435 148.751 144.732 150.667 142.816C152.584 140.9 155.934 141.859 159.766 142.336C163.596 142.816 165.992 148.562 165.992 148.562L195.202 164.364L190.893 144.252L213.874 143.773Z" fill="#E88F71"/>
<path d="M194.627 88.5879C194.627 88.5879 213.874 93.0152 216.028 107.38C218.183 121.745 220.099 146.166 220.099 146.166C220.099 146.166 198.072 149.996 188.496 149.039L182.75 148.559C182.75 148.559 182.27 127.011 183.707 115.04C185.144 103.071 185.913 94.693 194.627 88.5879Z" fill="#B77CBD"/>
</svg>
