<svg width="200" height="529" viewBox="0 0 255 529" fill="none" xmlns="http://www.w3.org/2000/svg">
<path d="M143.148 11.5919C143.148 11.5919 156.061 -3.02145 172.068 17.5059C188.072 38.0333 174.255 55.382 219.387 52.1625C249.38 50.022 260.882 79.1202 251.048 98.5745C234.796 130.726 187.725 122.581 177.635 86.3963C167.545 50.2116 138.735 54.4081 138.178 23.0848L143.148 11.5919Z" fill="#6A3934"/>
<path d="M120.27 58.1408C120.27 58.1408 142.509 62.0631 150.899 41.3286C159.289 20.5942 138.869 -2.37415 120.27 0.197975C101.67 2.7701 120.27 58.1408 120.27 58.1408Z" fill="#6A3934"/>
<path opacity="0.2" d="M224.377 498.5C224.377 515.342 176.471 529 117.377 529C58.2835 529 10.3774 515.342 10.3774 498.5C10.3774 481.655 58.2835 468 117.377 468C176.471 468 224.377 481.655 224.377 498.5Z" fill="#569B94"/>
<path d="M66.5788 191.961C73.5777 191.961 80.0839 187.505 82.3702 180.491L109.8 96.2817C112.641 87.5592 107.873 78.1836 99.1502 75.3431C90.4219 72.5056 81.0521 77.2708 78.2117 85.9933L50.7815 170.203C47.9411 178.925 52.7091 188.301 61.4316 191.141C63.1405 191.695 64.8757 191.961 66.5788 191.961Z" fill="#435046"/>
<path d="M14.2527 214.507C16.3058 214.507 18.388 214.06 20.3623 213.121L72.697 188.202C79.7981 184.822 82.8106 176.324 79.4307 169.226C76.0508 162.125 67.5528 159.11 60.4547 162.493L8.11991 187.412C1.01887 190.792 -1.99367 199.29 1.38625 206.388C3.82714 211.509 8.93061 214.507 14.2527 214.507Z" fill="#FFB096"/>
<path d="M78.9059 497.274C79.0079 497.274 79.1071 497.271 79.2092 497.271C87.0713 497.105 93.3092 490.601 93.1458 482.739C90.1567 339.931 111.229 211.316 111.442 210.033C112.731 202.276 107.491 194.942 99.7336 193.653C91.9764 192.355 84.6422 197.604 83.3532 205.361C83.1345 206.671 61.633 337.904 64.6776 483.334C64.8379 491.094 71.1808 497.274 78.9059 497.274Z" fill="#FFB096"/>
<path d="M184.065 483.57C185.655 483.57 187.267 483.302 188.848 482.739C196.252 480.097 200.116 471.952 197.477 464.548C197.034 463.306 153.147 338.803 153.147 220.68C153.147 212.818 146.772 206.443 138.91 206.443C131.048 206.443 124.673 212.818 124.673 220.68C124.673 343.848 168.781 468.855 170.659 474.119C172.736 479.937 178.218 483.57 184.065 483.57Z" fill="#FFB096"/>
<path d="M77.4214 210.292C77.4214 210.292 55.7013 377.244 59.2124 446.659L162.689 439.191L161.491 409.752L174.346 436.572L191.379 429.739C191.379 429.739 161.08 291.755 154.311 214.506L77.4214 210.292Z" fill="#632C29"/>
<path d="M116.767 90.0415C122.445 90.0415 127.05 85.4367 127.05 79.7588V51.6113C127.05 45.9334 122.445 41.3286 116.767 41.3286C111.089 41.3286 106.485 45.9334 106.485 51.6113V79.7588C106.485 85.4367 111.086 90.0415 116.767 90.0415Z" fill="#FEB793"/>
<path d="M111.253 60.074C121.999 60.074 131.173 52.3051 132.944 41.7046L134.466 32.5885C136.705 19.1825 126.367 6.9751 112.775 6.9751C102.029 6.9751 92.854 14.744 91.0838 25.3445L89.5617 34.4607C87.322 47.8666 97.66 60.074 111.253 60.074Z" fill="#FFB096"/>
<path d="M69.5242 212.413L81.2591 122.24C74.4701 115.681 72.0526 105.32 76.1032 96.0843L81.5478 83.6699C84.3124 77.3709 90.5387 73.2998 97.4181 73.2998H131.019C145.422 73.2998 156.145 86.6007 153.089 100.675L141.608 153.569L147.854 165.963C155.072 180.279 160.476 195.441 163.943 211.095C165.273 217.1 160.727 222.801 154.576 222.839L79.1594 223.314C73.3066 223.352 68.7689 218.216 69.5242 212.413Z" fill="#435046"/>
<path d="M134.772 36.6073C134.772 36.6073 127.344 34.3618 128.111 13.2074C128.111 13.2074 116.826 25.9018 91.0839 25.3448C91.0839 25.3448 88.2552 -0.705913 114.985 0.22145C141.719 1.14881 145.615 16.7419 140.975 34.9363L134.772 36.6073Z" fill="#6A3934"/>
<path d="M135.74 49.5966L137.222 49.8415C141.363 50.5268 145.276 47.7243 145.962 43.5803L146.519 40.2121C147.204 36.071 144.401 32.1574 140.257 31.4721L138.776 31.2271C134.635 30.5418 130.721 33.3443 130.036 37.4883L129.479 40.8566C128.794 44.9976 131.599 48.9112 135.74 49.5966Z" fill="#FFB096"/>
<path d="M192.05 446.026L164.509 454.915L174.821 494.404C174.821 494.404 164.818 500.709 156.865 512.654C156.865 512.654 182.225 509.936 205.453 493.345L192.05 446.026Z" fill="#435046"/>
<path d="M93.9797 454.291H62.7205V495.97C62.7205 495.97 47.5269 500.251 35.1533 512.654C35.1533 512.654 60.1775 517.874 92.8948 507.754L93.9797 454.291Z" fill="#435046"/>
<path d="M187.005 117.565C187.005 117.565 171.534 111.96 151.033 118.723C130.532 125.485 108.922 122.184 108.922 122.184C108.922 122.184 113.39 171.991 115.385 193.043C116.604 205.915 115.872 214.13 152.733 213.136C189.591 212.141 201.113 206.347 194.316 183.545C187.518 160.746 189.177 150.515 187.005 117.565Z" fill="#E09545"/>
<path d="M179.443 172.204C181.948 172.204 184.482 171.544 186.783 170.156C193.517 166.097 195.683 157.345 191.621 150.612L151.243 83.6694C147.184 76.9359 138.429 74.7691 131.698 78.8314C124.965 82.8908 122.798 91.6424 126.86 98.376L167.238 165.318C169.91 169.751 174.617 172.204 179.443 172.204Z" fill="#FFB096"/>
<path d="M122.372 192.978C123.991 192.978 125.635 192.701 127.242 192.115L184.299 171.343C191.688 168.651 195.497 160.483 192.805 153.093C190.113 145.703 181.939 141.898 174.555 144.586L117.499 165.359C110.109 168.05 106.301 176.219 108.993 183.608C111.098 189.388 116.56 192.978 122.372 192.978Z" fill="#FFB096"/>
<path d="M179.443 174.577C182.365 174.577 185.322 173.807 188.005 172.189C195.861 167.45 198.387 157.24 193.651 149.387L153.273 82.4445C148.534 74.5881 138.321 72.0627 130.471 76.8016C122.614 81.5405 120.086 91.7502 124.825 99.6066L165.203 166.549C168.323 171.713 173.815 174.577 179.443 174.577Z" fill="#435046"/>
<path d="M128.893 80.7737C132.987 75.0316 138.756 72.0834 145.574 72.2467C150.73 72.3837 155.095 74.3346 158.566 78.082C165.393 85.4513 166.842 98.137 167.099 105.13C164.547 100.773 160.324 93.8793 156.084 88.3851C155.238 86.4429 154.206 84.6844 152.92 83.2963C151.38 81.6399 149.595 80.6104 147.507 80.173C146.732 79.8551 146.02 79.753 145.39 79.9309C141.121 79.8259 137.77 81.564 135.151 85.2355C128.82 94.1126 128.388 112.517 134.154 128.049L126.948 130.723C120.267 112.727 121.086 91.7183 128.893 80.7737Z" fill="#E09545"/>
</svg>
