<svg width="305" height="512" viewBox="0 0 305 512" fill="none" xmlns="http://www.w3.org/2000/svg">
<path d="M150 512C232.843 512 300 504.837 300 496C300 487.163 232.843 480 150 480C67.1573 480 0 487.163 0 496C0 504.837 67.1573 512 150 512Z" fill="#E8CCCD"/>
<path d="M194.892 96.3698C194.892 96.3698 228.65 94.9333 242.297 113.608C255.944 132.282 257.38 220.628 240.861 232.12C224.341 243.612 182.682 253.667 169.753 227.092C156.825 200.517 174.063 120.072 194.892 96.3698Z" fill="#B37564"/>
<path d="M240.861 232.119C251.994 224.373 254.961 181.735 251.543 149.026C249.488 147.928 246.928 148.052 243.734 150.238C230.087 159.575 245.17 204.107 235.115 214.881C225.059 225.655 203.511 219.19 201.357 237.865C201.113 239.968 201.595 241.994 202.604 243.913C217.118 243.582 232.336 238.049 240.861 232.119Z" fill="#9C4A49"/>
<path d="M85.4792 163.405C85.4792 163.405 85.4792 196.925 107.984 206.98C127.615 213.683 137.193 180.643 137.193 180.643L121.392 171.544L85.4792 163.405Z" fill="#F2DDDC"/>
<path d="M143.178 104.989C143.178 104.989 132.404 102.835 123.785 116.481C115.166 130.128 113.73 183.279 110.138 189.743C106.547 196.208 120.194 209.854 134.559 191.898C148.924 173.942 156.825 107.862 143.178 104.989Z" fill="#F2DDDC"/>
<path d="M66.3397 460.71L53.5347 492.73L66.8338 498.64L80.1331 466.129L66.3397 460.71Z" fill="#E38271"/>
<path d="M67.8189 495.439C67.8189 495.439 22.3793 475.489 18.314 479.554C15.3576 483.987 64.4948 502.458 66.7099 502.09C68.9278 501.72 67.8189 495.439 67.8189 495.439Z" fill="black"/>
<path d="M55.9966 492.853C55.9966 492.853 63.0154 485.835 70.4047 491.377C72.9905 495.439 67.4484 499.872 67.4484 499.872L55.9966 492.853Z" fill="black"/>
<path d="M124.466 234.613C124.466 234.613 114.615 258.258 108.702 282.886C102.792 307.516 94.9089 320.321 85.0573 355.788C75.2057 391.256 54.5172 463.173 53.5317 472.039C54.5172 476.966 68.3076 480.905 80.1301 480.905C80.1301 480.905 87.0253 464.158 102.79 427.706C118.551 391.253 142.196 335.1 157.96 301.603C173.721 268.107 180.619 264.168 183.576 245.447C186.532 226.73 186.532 219.834 186.532 219.834L124.466 234.613Z" fill="#724564"/>
<path d="M173.422 236.639L138.041 245.485C138.041 245.485 145.781 273.126 147.993 289.712C149.473 300.796 147.493 317.767 146.019 327.834C150.286 318.25 154.34 309.315 157.965 301.61C167.912 280.476 174.321 271.107 178.444 262.37L173.422 236.639Z" fill="#703655"/>
<path d="M263.885 448.529L293.434 466.31L301.404 454.135L271.45 435.785L263.885 448.529Z" fill="#E38271"/>
<path d="M298.401 452.646C298.401 452.646 271.415 494.293 274.774 498.959C278.675 502.588 304.797 457.056 304.788 454.809C304.777 452.56 298.401 452.646 298.401 452.646Z" fill="black"/>
<path d="M293.949 463.901C293.949 463.901 288.148 455.845 294.805 449.441C299.232 447.542 302.717 453.721 302.717 453.721L293.949 463.901Z" fill="black"/>
<path d="M147.508 243.942C149.479 247.884 165.036 334.112 177.844 362.684C190.652 391.253 263.759 456.741 269.669 459.697C275.578 463.639 286.415 446.889 288.386 439.994C288.386 439.994 237.158 373.001 230.259 358.225C223.364 343.449 212.527 245.916 212.527 245.916L147.508 243.942Z" fill="#724564"/>
<path d="M208.803 379.267C198.834 379.267 191.301 377.655 185.584 375.42C208.462 407.161 264.523 457.12 269.671 459.694C275.581 463.636 286.418 446.886 288.389 439.991C288.389 439.991 242.461 379.928 231.742 361.018C227.349 371.366 220.25 379.267 208.803 379.267Z" fill="#703655"/>
<path d="M181.719 86.314C181.719 86.314 186.377 92.06 199.682 97.806C212.986 103.552 217.644 101.397 222.301 113.608C226.958 125.818 214.983 138.746 216.98 157.421C218.977 176.096 214.983 192.615 216.98 209.135C218.977 225.655 224.964 246.484 219.64 253.667C214.32 260.85 206.335 260.85 206.335 260.85C206.335 260.85 173.738 272.342 147.795 265.159C121.852 257.977 111.207 257.258 107.216 247.203C103.226 237.147 118.525 225.655 121.185 206.981C123.845 188.306 129.169 161.012 127.839 141.619C126.509 122.227 133.16 108.58 140.477 103.552C147.792 98.5243 181.719 86.314 181.719 86.314Z" fill="#322E47"/>
<path d="M169.72 56.7622L159.006 90.0116C159.006 90.0116 156.42 97.401 149.031 101.096C142.423 104.4 168.243 122.523 197.798 98.1394C198.536 94.4447 194.103 91.4883 191.888 81.1455C189.673 70.7998 192.626 51.5908 192.626 51.5908L169.72 56.7622Z" fill="#E38271"/>
<path d="M191.465 78.5426C190.126 67.8866 192.626 51.5879 192.626 51.5879L169.719 56.7594L159.006 90.0088C159.006 90.0088 157.483 94.2981 153.495 97.9756C157.627 97.3377 164.637 95.8352 172.317 92.3445C178.815 89.3939 186.087 83.4497 191.465 78.5426Z" fill="#E36E62"/>
<path d="M149.715 8.89258C149.715 8.89258 130.747 10.7112 133.807 38.1542C136.869 65.5972 138.136 80.7984 142.34 89.7995C146.546 98.8007 167.786 92.8018 181.332 80.2353C194.878 67.6687 193.887 54.3523 192.62 39.1483C191.353 23.9472 183.585 -2.80633 149.715 8.89258Z" fill="#E38271"/>
<path d="M154.432 101.159C154.432 101.159 160.416 106.425 177.416 100.202L180.289 108.341C180.289 108.341 161.614 116.481 151.079 106.905C151.797 102.834 154.432 101.159 154.432 101.159Z" fill="#724564"/>
<path d="M195.134 89.6665C195.134 89.6665 175.502 100.679 165.924 102.834L170.952 115.044C170.952 115.044 193.217 106.425 199.202 97.0875C199.443 94.6943 195.134 89.6665 195.134 89.6665Z" fill="#F2DDDC"/>
<path d="M155.15 96.1309C155.15 96.1309 155.15 100.202 157.543 102.115L152.754 112.651C152.754 112.651 148.683 107.861 147.246 102.115L155.15 96.1309Z" fill="#F2DDDC"/>
<path d="M150.122 4.91307C150.122 4.91307 128.575 7.7861 122.349 25.9809C117.56 40.346 126.179 53.7543 128.095 52.7948C130.011 51.838 128.575 45.6122 128.575 45.6122C128.575 45.6122 131.928 51.3582 136.237 50.8784C140.547 50.3986 136.717 41.3027 136.717 41.3027C136.717 41.3027 146.293 48.965 151.082 47.0487C153.955 44.6555 155.391 33.6403 155.391 33.6403C155.391 33.6403 159.221 40.8229 173.586 40.3431C173.586 40.3431 178.376 45.1324 178.376 53.2716C178.376 61.4109 180.769 60.9339 183.165 59.4974C185.558 58.0609 183.165 49.9217 184.122 46.5689C185.078 43.2161 186.995 42.7392 189.868 44.6526C192.741 46.566 192.261 54.7081 189.868 57.5812C187.474 60.4542 190.347 67.6367 190.347 67.6367C190.347 67.6367 196.093 58.5378 198.967 52.3149C198.967 52.3149 201.84 56.1446 203.276 53.7514C204.713 51.3582 209.022 32.6836 198.967 18.7955C188.911 4.90732 172.627 -7.05878 150.122 4.91307Z" fill="#B94C3B"/>
<path d="M84.9107 154.548C84.9107 154.548 89.9385 154.189 91.7341 157.78C93.5298 161.371 91.0159 166.399 89.5794 165.681C88.1429 164.963 87.4246 163.526 87.4246 163.526L88.8611 168.913C88.8611 168.913 84.1925 167.477 82.756 163.167C81.3195 158.858 83.4742 157.421 84.9107 154.548Z" fill="#E38271"/>
<path d="M205.666 99.7223C205.666 99.7223 185.075 173.464 218.115 206.024C218.115 206.024 218.115 210.813 213.325 210.813C208.536 210.813 191.298 183.519 190.341 158.142C189.385 132.765 195.131 103.555 200.877 97.3291L205.666 99.7223Z" fill="#B37564"/>
<path d="M144.856 99.7222C144.856 99.7222 122.352 141.861 126.661 175.377C126.181 179.207 122.831 175.377 122.831 175.377C122.831 175.377 117.085 133.239 138.633 103.072C141.983 99.7222 144.856 99.7222 144.856 99.7222Z" fill="#B37564"/>
<path d="M90.2687 177.294C96.9714 180.646 106.07 189.265 106.07 189.265C125.702 185.436 142.463 184.476 142.463 184.476L136.237 136.592C118.042 136.112 104.634 145.69 104.634 145.69C95.5349 132.762 81.6497 134.198 81.6497 134.198L90.2687 177.294Z" fill="#4690B7"/>
<path d="M155.029 167.118C155.029 167.118 147.488 162.09 146.051 160.654C144.615 159.217 143.896 155.626 141.023 154.548C138.15 153.471 130.25 153.112 128.095 152.394C125.94 151.675 119.835 153.83 120.553 154.907C121.272 155.985 124.863 158.14 124.863 158.14C124.863 158.14 127.377 165.322 130.609 167.477C133.841 169.632 143.537 169.632 143.537 169.632L150.72 176.096L155.029 167.118Z" fill="#E38271"/>
<path d="M202.793 135.873C202.793 135.873 203.511 110.734 217.158 107.861C230.805 104.988 237.987 124.381 234.396 138.028C230.805 151.675 215.722 204.107 199.202 206.98C182.682 209.853 147.488 180.405 145.333 174.659C145.333 174.659 148.206 167.476 154.67 164.603C154.67 164.603 184.837 179.687 192.019 178.25C192.019 178.25 199.202 161.012 202.793 135.873Z" fill="#F2DDDC"/>
</svg>
