<svg width="191" height="521" viewBox="0 0 191 521" fill="none" xmlns="http://www.w3.org/2000/svg">
<path d="M95.3049 521C147.772 521 190.305 515.627 190.305 509C190.305 502.373 147.772 497 95.3049 497C42.8379 497 0.304932 502.373 0.304932 509C0.304932 515.627 42.8379 521 95.3049 521Z" fill="#E8CCCD"/>
<path d="M73.3868 442.055L65.5254 448.662L74.6312 462.978L82.4914 456.37L73.3868 442.055Z" fill="#FA9761"/>
<path d="M73.8436 511.663L40.6927 459.542C41.151 458.706 42.0154 457.859 43.1518 457.015C47.3532 453.885 55.283 450.815 60.1575 448.681C60.7288 448.435 61.2579 448.199 61.7311 447.977C62.5334 447.602 63.1891 447.268 63.6412 446.98C67.2614 444.677 68.6797 448.276 68.6797 448.276C66.8627 456.84 78.4164 457.879 78.091 462.985C78.091 462.985 77.9693 465.17 76.8789 471.678C75.786 478.181 77.8066 486.784 79.1094 494.369C80.796 504.16 78.9616 508.407 77.0093 510.251C75.4631 511.709 73.8436 511.663 73.8436 511.663Z" fill="#371C0E"/>
<path d="M73.8436 511.667L40.6927 459.545C41.151 458.71 42.0154 457.863 43.1518 457.018L77.0106 510.253C75.4631 511.713 73.8436 511.667 73.8436 511.667Z" fill="#714C38"/>
<path d="M44.0748 464.867L43.09 463.32C45.8384 463.742 49.466 463.465 53.2179 460.813C58.208 457.286 59.7145 451.988 60.1578 448.691C60.7291 448.445 61.2582 448.209 61.7314 447.987C61.4358 451.426 60.0436 457.788 54.0699 462.016C50.4857 464.547 46.9561 465.088 44.0748 464.867Z" fill="#714C38"/>
<path d="M73.2419 472.751C72.9973 472.366 73.0358 471.849 73.3649 471.503C73.7524 471.096 74.3969 471.08 74.8043 471.468L77.6831 474.211C78.0904 474.597 78.1053 475.243 77.7179 475.65C77.3304 476.057 76.6858 476.074 76.2785 475.685L73.3997 472.943C73.3376 472.884 73.2854 472.82 73.2419 472.751Z" fill="white"/>
<path d="M73.902 467.988C73.6573 467.603 73.6958 467.085 74.0249 466.74C74.4124 466.333 75.057 466.317 75.4643 466.705L78.3431 469.447C78.7505 469.834 78.7654 470.48 78.3779 470.887C77.9904 471.294 77.3459 471.31 76.9385 470.922L74.0597 468.179C73.9988 468.121 73.9454 468.056 73.902 467.988Z" fill="white"/>
<path d="M73.4203 477.217C73.1756 476.832 73.2141 476.316 73.5432 475.969C73.9307 475.562 74.5753 475.546 74.9826 475.934L77.8614 478.676C78.2688 479.064 78.2849 479.709 77.8962 480.116C77.5087 480.523 76.8642 480.538 76.4568 480.151L73.578 477.408C73.5171 477.35 73.4637 477.286 73.4203 477.217Z" fill="white"/>
<path d="M73.6728 481.631C73.4282 481.245 73.4667 480.728 73.7958 480.383C74.1833 479.975 74.8278 479.96 75.2352 480.348L78.114 483.09C78.5226 483.478 78.5375 484.122 78.1488 484.529C77.7613 484.937 77.1167 484.953 76.7094 484.564L73.8306 481.822C73.7685 481.764 73.7163 481.699 73.6728 481.631Z" fill="white"/>
<path d="M74.2473 486.246C74.0026 485.861 74.0411 485.345 74.3703 484.998C74.7577 484.591 75.4023 484.576 75.8097 484.964L78.6885 487.706C79.0958 488.093 79.1107 488.738 78.7232 489.145C78.3357 489.553 77.6912 489.569 77.2838 489.18L74.405 486.438C74.3429 486.381 74.2908 486.316 74.2473 486.246Z" fill="white"/>
<path d="M75.2606 491.009C75.016 490.624 75.0545 490.107 75.3836 489.761C75.771 489.353 76.4156 489.337 76.823 489.726L79.7018 492.468C80.1104 492.855 80.1253 493.5 79.7378 493.907C79.3503 494.315 78.7057 494.331 78.2984 493.942L75.4196 491.2C75.3575 491.142 75.3041 491.078 75.2606 491.009Z" fill="white"/>
<path d="M168.543 349.261C168.543 349.373 168.519 349.485 168.506 349.609C168.506 349.609 168.196 350.18 167.624 351.261C163.538 358.799 145.779 390.99 123.722 421.331C122.977 422.349 122.232 423.368 121.499 424.373C119.015 427.714 116.494 431.018 113.948 434.259C112.483 436.11 111.005 437.935 109.514 439.736C109.303 439.985 109.105 440.233 108.893 440.481C102.721 447.858 97.4553 452.478 91.4816 456.39C90.8358 456.813 90.1651 457.235 89.4945 457.657C88.2153 458.44 86.8864 459.197 85.5203 459.967C84.8621 460.327 84.2038 460.688 83.5208 461.06C83.5208 461.06 73.5853 450.603 68.9653 440.469C68.9653 440.469 70.2569 438.358 72.331 434.93C72.7408 434.259 73.1755 433.539 73.6474 432.769C75.0508 430.459 76.6902 427.727 78.4661 424.758C86.4766 411.383 97.269 393.027 101.293 384.495C104.236 378.273 107.738 371.355 111.663 364.55C112.321 363.407 112.992 362.252 113.687 361.122C113.774 360.973 113.861 360.836 113.948 360.687C114.023 360.551 114.085 360.439 114.159 360.315C114.172 360.29 114.196 360.265 114.209 360.24C119.537 351.435 125.498 343.089 131.745 336.917L117.537 253.049L116.643 247.783L148.076 236.693L149.865 236.059L157.354 233.414C157.354 233.414 157.95 236.171 158.881 240.915C158.993 241.487 159.105 242.083 159.229 242.716C163.389 264.239 172.716 318.039 168.543 349.261Z" fill="#D36C17"/>
<path d="M121.499 424.372C119.015 427.713 116.494 431.016 113.948 434.258C112.483 436.108 111.005 437.934 109.514 439.735C109.303 439.983 109.105 440.232 108.893 440.48L106.534 441.536L113.687 361.121L113.936 358.326L114.159 360.313L121.499 424.372Z" fill="#A74500"/>
<path d="M91.4841 456.388C90.8296 456.817 90.1701 457.233 89.4945 457.65L77.3248 441.537L76.2009 440.049L72.3335 434.93C72.7421 434.258 73.178 433.539 73.645 432.771L77.4329 437.788L78.5531 439.272L91.4841 456.388Z" fill="#A74500"/>
<path d="M168.549 349.251C168.537 349.369 168.519 349.483 168.505 349.601C168.505 349.601 168.2 350.177 167.622 351.25C160.492 349.918 155.018 346.388 154.692 346.177C154.206 345.858 154.068 345.203 154.387 344.715C154.707 344.227 155.361 344.091 155.849 344.411C155.924 344.461 161.51 348.054 168.549 349.251Z" fill="#A74500"/>
<path d="M139.961 339.854C139.806 340.005 124.048 355.679 78.554 439.275C78.1492 440.023 77.7381 440.78 77.3245 441.54L76.2006 440.052C76.6141 439.292 77.0252 438.538 77.4326 437.79C119.645 360.282 135.833 341.726 138.426 338.997C134.72 325.288 123.367 255.075 122.88 252.057C122.807 251.594 123.121 251.159 123.584 251.083C124.045 251.008 124.482 251.324 124.555 251.788C124.676 252.533 136.66 326.646 140.19 339.01C140.278 339.311 140.191 339.637 139.961 339.854Z" fill="#A74500"/>
<path d="M64.8706 212.846C64.8706 212.846 62.5047 235.284 67.6103 247.777C72.7147 260.27 138.8 253.84 155.642 242.597C162.55 237.986 147.838 195.432 147.838 195.432L64.8706 212.846Z" fill="#D36C17"/>
<path d="M159.225 242.712C158.224 242.535 157.25 242.284 156.3 241.958C154.784 241.446 153.335 240.743 151.954 239.854C150.522 238.931 149.229 237.859 148.071 236.688C140.786 229.338 138.641 218.229 138.541 217.687C138.455 217.225 138.762 216.784 139.219 216.696C139.68 216.614 140.124 216.917 140.21 217.375C140.233 217.507 142.466 229.06 149.863 236.054C150.786 236.929 151.791 237.733 152.88 238.432C154.193 239.276 155.578 239.935 157.029 240.41C157.633 240.606 158.248 240.773 158.875 240.906C158.987 241.479 159.106 242.081 159.225 242.712Z" fill="#A74500"/>
<path d="M118.45 248.987C118.472 249.435 118.113 249.819 117.649 249.845C117.645 249.845 117.645 249.845 117.643 249.845C117.175 249.868 116.778 249.52 116.756 249.069C116.607 246.001 116.426 242.859 116.228 239.721C116.193 239.168 116.159 238.617 116.121 238.064C115.454 227.81 114.607 217.743 113.968 210.635C113.914 210.061 113.866 209.502 113.816 208.967C113.674 207.407 113.544 206.024 113.434 204.853C113.996 204.766 114.559 204.674 115.114 204.581C115.225 205.752 115.354 207.149 115.498 208.725C115.549 209.26 115.597 209.818 115.649 210.392C116.282 217.437 117.124 227.416 117.791 237.61C117.829 238.171 117.865 238.737 117.904 239.299C118.107 242.551 118.295 245.81 118.45 248.987Z" fill="#A74500"/>
<path d="M120.868 238.165C120.603 238.292 119.414 238.844 117.904 239.3C117.376 239.462 116.809 239.608 116.228 239.723C115.697 239.824 115.158 239.901 114.622 239.931C113.595 239.988 112.604 239.881 111.776 239.485C110.745 238.992 110.076 238.096 109.845 236.895C109.227 233.731 107.933 220.669 107.061 211.429C107.006 210.861 106.955 210.306 106.904 209.768C106.766 208.29 106.642 206.945 106.537 205.804C107.097 205.736 107.661 205.669 108.225 205.594C108.331 206.743 108.455 208.103 108.598 209.601C108.647 210.136 108.7 210.69 108.753 211.261C109.627 220.478 110.916 233.522 111.515 236.587C111.65 237.295 111.975 237.748 112.537 238.017C113.435 238.446 114.783 238.356 116.121 238.065C116.693 237.94 117.261 237.78 117.792 237.61C118.763 237.296 119.61 236.939 120.119 236.697C120.539 236.496 121.048 236.661 121.254 237.066C121.46 237.472 121.288 237.964 120.868 238.165Z" fill="#A74500"/>
<path d="M92.5244 471.906L94.1998 485.207H111.165L112.152 471.207L92.5244 471.906Z" fill="#FA9761"/>
<path d="M113.942 241.375V469.702L113.695 473.32H88.5084C88.2389 471.67 87.634 469.01 86.833 465.584C86.6604 464.835 86.4753 464.052 86.284 463.236C83.0004 449.274 77.3794 425.467 76.3883 404.771C74.9713 375.216 75.37 336.918 75.37 336.918C72.4949 314.952 67.983 267.375 65.7388 243.022C65.6829 242.441 65.6332 241.881 65.5835 241.327C64.8297 233.147 64.3665 227.996 64.3665 227.996C68.4214 226.306 75.7761 227.468 83.6002 229.689C84.1666 229.846 84.7329 230.009 85.3017 230.182C99.2051 234.346 113.942 241.375 113.942 241.375Z" fill="#D36C17"/>
<path d="M113.941 463.24V465.587H86.8325C86.6599 464.838 86.4748 464.056 86.2836 463.24H113.941Z" fill="#A74500"/>
<path d="M113.941 342.049V344.229C110.99 344.974 107.619 345.217 104.46 345.217C98.6263 345.217 93.5232 344.385 93.1668 344.328C92.5943 344.231 92.2055 343.69 92.3024 343.114C92.3955 342.537 92.9383 342.146 93.5145 342.246C93.6474 342.267 105.977 344.275 113.941 342.049Z" fill="#A74500"/>
<path d="M91.0517 465.582H89.3266C89.1888 464.854 89.0422 464.07 88.8833 463.235C86.6565 451.409 82.5842 429.299 80.4692 414.947C77.5146 394.912 78.8994 339.358 78.9553 337.187C76.7136 318.083 72.1545 252.634 72.1073 251.975C72.075 251.505 72.4277 251.1 72.8959 251.068C73.3653 251.039 73.7677 251.387 73.8 251.857C73.8472 252.517 78.4113 318.062 80.648 337.048C80.6505 337.089 80.6542 337.13 80.6542 337.171C80.6368 337.74 79.1726 394.51 82.1483 414.7C84.2782 429.155 88.4002 451.498 90.612 463.233C90.7673 464.074 90.9176 464.86 91.0517 465.582Z" fill="#A74500"/>
<path d="M117.622 507.886C117.622 508.038 117.618 508.187 117.615 508.333C117.6 509.012 117.571 509.622 117.543 510.146C117.473 511.297 117.39 512.006 117.39 512.006H79.167C79.167 512.006 78.9783 510.527 79.1236 508.334C79.3744 504.428 80.671 498.259 85.9492 494.183C93.1748 488.596 90.3854 489.762 91.867 487.215C92.0347 486.932 93.335 482.605 93.4729 482.307C94.7148 479.661 95.8599 478.412 102.708 478.412C111.79 478.412 112.59 482.818 113.56 485.141C113.96 486.103 114.507 488.128 115.071 490.536C115.3 491.502 115.53 492.534 115.754 493.584C116.313 496.218 116.837 498.967 117.193 501.162C117.571 503.51 117.651 505.931 117.622 507.886Z" fill="#371C0E"/>
<path d="M117.621 507.877C117.621 508.03 117.618 508.179 117.614 508.324C117.599 509.004 117.571 509.614 117.542 510.138C115.678 508.83 114.349 507.104 113.572 504.989C111.206 498.548 114.843 490.817 114.996 490.49L115.072 490.526C115.3 491.492 115.53 492.525 115.755 493.574C114.894 496.204 113.902 500.626 115.279 504.368C115.78 505.73 116.565 506.904 117.621 507.877Z" fill="#714C38"/>
<path d="M117.615 508.324C117.564 510.5 117.39 511.997 117.39 511.997H79.167C79.167 511.997 78.9783 510.517 79.1236 508.324H117.615Z" fill="#714C38"/>
<path d="M103.969 489.984C103.879 489.984 103.787 489.973 103.695 489.949C98.8339 488.69 94.8734 489.756 94.8336 489.767C94.2524 489.927 93.6526 489.587 93.4924 489.007C93.3322 488.427 93.6724 487.826 94.2524 487.666C94.4362 487.615 98.8215 486.435 104.241 487.838C104.824 487.988 105.174 488.583 105.024 489.167C104.896 489.658 104.454 489.984 103.969 489.984Z" fill="white"/>
<path d="M104.826 485.618C104.735 485.618 104.644 485.607 104.552 485.583C99.6907 484.324 95.7302 485.39 95.6904 485.401C95.1105 485.561 94.5094 485.221 94.3492 484.641C94.189 484.061 94.5293 483.46 95.1092 483.299C95.293 483.248 99.6783 482.069 105.098 483.472C105.681 483.622 106.031 484.218 105.881 484.801C105.754 485.291 105.312 485.618 104.826 485.618Z" fill="white"/>
<path d="M102.335 493.773C102.244 493.773 102.152 493.762 102.062 493.739C97.2317 492.488 93.2377 493.546 93.1979 493.556C92.6179 493.715 92.0181 493.374 91.8591 492.794C91.7002 492.215 92.0392 491.615 92.6192 491.455C92.803 491.404 97.1882 490.225 102.608 491.629C103.191 491.78 103.541 492.374 103.39 492.956C103.261 493.448 102.819 493.773 102.335 493.773Z" fill="white"/>
<path d="M100.414 497.7C100.323 497.7 100.231 497.688 100.139 497.665C95.3092 496.414 91.3152 497.472 91.2754 497.482C90.6955 497.641 90.0968 497.3 89.9366 496.72C89.7777 496.14 90.1167 495.541 90.6955 495.381C90.8793 495.33 95.2645 494.151 100.684 495.553C101.267 495.704 101.617 496.3 101.466 496.882C101.341 497.374 100.898 497.7 100.414 497.7Z" fill="white"/>
<path d="M89.9887 217.688C89.9142 218.082 88.753 224.101 85.3029 230.182C83.2698 233.765 80.4407 237.369 76.5758 239.855C73.3282 241.945 69.698 243.003 65.7387 243.025C65.6841 242.445 65.6332 241.881 65.5835 241.328C69.2782 241.332 72.6513 240.362 75.658 238.431C79.1119 236.209 81.6976 232.965 83.6014 229.69C87.1161 223.643 88.3046 217.474 88.3208 217.38C88.4052 216.919 88.8499 216.614 89.3081 216.698C89.7676 216.785 90.0731 217.226 89.9887 217.688Z" fill="#A74500"/>
<path d="M63.7481 232.493L61.6517 243.022C61.6517 243.022 86.0532 249.017 101.309 245.105C116.565 241.193 154.012 235.317 160.301 235.064L155.431 221.922C155.431 221.922 108.215 236.798 63.7481 232.493Z" fill="white"/>
<path d="M115.476 72.1373C115.476 72.1373 124.466 53.866 105.371 43.7281C92.0119 36.6367 66.2232 35.3376 58.3506 51.5734C51.0306 66.6716 67.4949 79.3728 67.4949 79.3728C67.4949 79.3728 102.753 86.9101 115.476 72.1373Z" fill="#2D3D0C"/>
<path d="M84.3927 50.9873C84.3927 50.9873 67.885 53.2364 73.8673 62.038C77.0343 66.6965 94.9193 69.2387 94.9193 69.2387C94.9193 69.2387 98.4241 53.1023 84.3927 50.9873Z" fill="#010000"/>
<path d="M153.519 217.431C153.519 217.431 92.3758 237.965 66.027 227.714C66.027 227.714 57.7681 225.145 54.4534 208.965C54.3441 208.437 54.2423 207.894 54.1454 207.334C52.7495 199.331 52.5346 188.255 54.8583 172.976C57.6452 154.645 53.7902 145.283 52.1385 127.032C52.0801 126.39 52.0217 125.735 51.9658 125.07C51.7895 123.095 51.6255 121.019 51.4616 118.809C49.6869 94.7132 42.018 84.4126 54.0225 77.2578C66.0282 70.1055 81.7734 64.6187 81.7734 64.6187C81.7734 64.6187 95.1726 68.8698 104.61 64.6187C104.61 64.6187 118.974 71.6567 130.016 75.6818C141.056 79.7069 137.429 108.887 140.909 125.642C144.392 142.4 150.288 155.728 155.616 183.526C160.487 208.946 153.519 217.431 153.519 217.431Z" fill="#5A6C31"/>
<path d="M103.925 155.015C89.3355 155.015 77.4677 143.146 77.4677 128.558C77.4677 113.969 89.3368 102.102 103.925 102.102C118.513 102.102 130.381 113.971 130.381 128.558C130.381 143.147 118.512 155.015 103.925 155.015ZM103.925 104.337C90.5688 104.337 79.7031 115.203 79.7031 128.558C79.7031 141.914 90.5688 152.78 103.925 152.78C117.28 152.78 128.146 141.914 128.146 128.558C128.146 115.203 117.28 104.337 103.925 104.337Z" fill="#2D3D0C"/>
<path d="M101.069 123.073C101.15 126.091 100.382 128.559 99.3529 128.586C98.3246 128.613 97.4242 126.19 97.3435 123.172C97.2627 120.156 98.0302 117.687 99.0598 117.659C100.088 117.632 100.987 120.055 101.069 123.073Z" fill="#2D3D0C"/>
<path d="M112.493 122.766C112.573 125.784 111.806 128.251 110.776 128.279C109.748 128.306 108.848 125.883 108.767 122.865C108.686 119.849 109.454 117.38 110.483 117.352C111.511 117.325 112.411 119.748 112.493 122.766Z" fill="#2D3D0C"/>
<path d="M104.745 141.235C93.8176 141.235 91.9087 130.342 91.8901 130.23C91.7907 129.62 92.2043 129.046 92.8129 128.946C93.4227 128.846 93.9964 129.259 94.0958 129.867C94.1616 130.26 95.7935 139.235 105.124 138.994C109.727 138.874 113.072 137.232 115.07 134.112C116.561 131.782 116.718 129.507 116.719 129.484C116.757 128.868 117.29 128.398 117.904 128.438C118.52 128.476 118.988 129.007 118.949 129.623C118.942 129.736 118.1 140.893 105.181 141.23C105.036 141.232 104.889 141.235 104.745 141.235Z" fill="#2D3D0C"/>
<path d="M154.953 181.04C154.496 181.04 154.11 180.687 154.076 180.224C153.565 173.213 148.234 155.421 145.049 144.792C144.429 142.724 143.895 140.939 143.509 139.609C141.199 131.645 138.576 112.925 138.465 112.131C138.398 111.65 138.735 111.205 139.215 111.138C139.698 111.071 140.142 111.406 140.209 111.888C140.235 112.081 142.925 131.276 145.199 139.119C145.583 140.441 146.117 142.222 146.735 144.286C149.941 154.986 155.306 172.893 155.832 180.096C155.867 180.581 155.503 181.003 155.019 181.038C154.997 181.04 154.974 181.04 154.953 181.04Z" fill="#2D3D0C"/>
<path d="M156.604 208.947C156.604 208.947 159.21 216.947 155.527 222.324C155.527 222.324 100.597 241.39 63.7481 232.493C63.7481 232.493 60.4309 228.497 59.5056 220.294C59.5056 220.294 103.821 231.312 156.604 208.947Z" fill="#2D3D0C"/>
<path d="M99.779 90.3071C109.962 90.3071 113.151 81.1814 113.182 81.0857C113.3 80.7368 113.111 80.358 112.762 80.2412C112.412 80.1232 112.036 80.312 111.918 80.6597C111.793 81.0236 108.773 89.5669 98.7556 88.941C88.347 88.2902 74.9751 81.4148 74.841 81.3453C74.5131 81.1752 74.1107 81.3031 73.9418 81.6309C73.7729 81.9576 73.8996 82.36 74.2275 82.5301C74.7838 82.8182 87.9806 89.6054 98.6724 90.2735C99.0499 90.2959 99.4188 90.3071 99.779 90.3071Z" fill="#2D3D0C"/>
<path d="M136.396 169.407C136.396 169.407 143.459 191.026 140.87 203.031C140.87 203.031 117.626 216.885 82.9782 209.924C82.9782 209.924 81.0383 188.547 79.6759 174.806C79.6759 174.806 115.054 169.07 136.396 169.407Z" fill="#2D3D0C"/>
<path d="M94.5554 186.026C94.8212 186.026 95.0423 185.818 95.0547 185.549C97.1883 139.374 84.2722 70.1143 84.1418 69.4201C84.0909 69.1481 83.8276 68.9705 83.5581 69.0214C83.2861 69.0723 83.1085 69.3344 83.1595 69.6051C83.2899 70.2981 96.1836 139.445 94.0562 185.503C94.0438 185.779 94.2561 186.014 94.5331 186.026C94.5405 186.026 94.548 186.026 94.5554 186.026Z" fill="white"/>
<path d="M126.649 182.914C126.654 182.914 126.659 182.914 126.664 182.914C126.94 182.906 127.157 182.676 127.149 182.399C125.471 126.639 106.536 69.7445 106.345 69.1757C106.257 68.9136 105.975 68.7733 105.712 68.8602C105.45 68.9484 105.309 69.2315 105.397 69.4936C105.587 70.0599 124.476 126.819 126.15 182.427C126.158 182.699 126.38 182.914 126.649 182.914Z" fill="white"/>
<path d="M115.841 33.7309C115.841 33.7309 119.947 29.6711 119.715 24.7952C119.482 19.9194 115.99 18.8538 115.99 18.8538C115.99 18.8538 126.709 13.5322 124.675 8.73706C122.641 3.94072 115.678 9.22265 115.678 9.22265C115.678 9.22265 121.325 0.686858 115.314 0.0534725C109.303 -0.578671 103.804 4.60267 103.804 4.60267C103.804 4.60267 100.411 0.475729 92.4678 3.58925C84.5256 6.70277 83.4601 9.30711 83.4601 9.30711C83.4601 9.30711 76.4605 6.27182 73.7904 9.75668C71.1215 13.2415 78.1024 14.7666 78.1024 14.7666C78.1024 14.7666 67.6118 17.4765 69.9305 20.4075C72.2504 23.3384 76.9486 21.4718 76.9486 21.4718C76.9486 21.4718 70.4869 30.5864 75.6434 42.1574C80.7986 53.7285 84.0761 53.0902 84.0761 53.0902C84.0761 53.0902 98.1832 29.3693 115.841 33.7309Z" fill="#371C0E"/>
<path d="M108.532 36.7105C108.532 36.7105 111.025 30.5095 116.088 32.3488C121.15 34.1881 120.044 51.41 110.242 50.1283L108.532 36.7105Z" fill="#EB7133"/>
<path d="M79.035 65.0524C79.035 65.0524 78.8885 65.8721 88.2278 69.4302C93.3483 71.3813 98.2689 72.2991 101.529 70.8821C102.854 70.3083 103.629 69.8376 103.629 69.8376C102.966 62.3922 104.803 57.8393 105.302 56.7601C105.379 56.5949 105.424 56.5117 105.424 56.5117L82.0418 41.0596L79.035 65.0524Z" fill="#FA9761"/>
<path d="M84.3717 51.2686C84.3717 51.2686 88.3347 68.4606 101.528 70.8824C102.853 70.3086 103.628 69.8379 103.628 69.8379C102.965 62.3925 104.801 57.8396 105.301 56.7604L84.3717 51.2686Z" fill="#371C0E"/>
<path d="M92.9758 61.047C103.012 64.2064 111.689 60.7203 113.666 52.0318C114.145 49.9379 114.607 46.879 115.008 43.6823C115.011 43.6488 115.016 43.6189 115.02 43.5854C115.105 42.9061 115.187 42.218 115.27 41.5337C115.329 41.037 115.385 40.5402 115.439 40.0484C116.079 34.338 116.499 29.1467 116.499 29.1467C116.623 14.8012 103.182 7.93577 91.3303 12.049C79.4823 16.1648 81.8593 33.9083 80.9428 42.3398C80.0238 50.7687 84.3692 58.3396 92.9758 61.047Z" fill="#FA9761"/>
<path d="M97.3051 33.2926C97.2157 34.2638 97.6454 35.0971 98.2663 35.1555C98.8873 35.2126 99.4623 34.4724 99.553 33.5012C99.6424 32.5301 99.2127 31.6967 98.5917 31.6384C97.9708 31.5812 97.3945 32.3214 97.3051 33.2926Z" fill="#371C0E"/>
<path d="M108.047 34.825C107.957 35.7961 108.387 36.6295 109.008 36.6866C109.629 36.7437 110.204 36.0036 110.294 35.0324C110.384 34.0612 109.953 33.2278 109.333 33.1707C108.712 33.1123 108.136 33.8538 108.047 34.825Z" fill="#371C0E"/>
<path d="M116.161 32.9709C116.161 32.9709 115.4 28.3062 115.376 23.2155C115.369 21.529 113.228 20.1529 111.618 19.6499C110.965 19.445 110.286 19.3457 109.685 19.4835C107.719 19.9343 107.129 22.0792 104.656 20.9142C102.183 19.7493 99.5121 15.5553 95.2336 16.6879C90.9564 17.8193 91.9425 20.4311 90.0485 23.0268C88.1533 25.6224 89.4872 31.0794 87.0666 34.4972C84.6461 37.915 81.2109 26.832 81.2109 26.832C81.2109 26.832 83.475 9.9132 95.1318 8.2515C106.79 6.58855 119.672 15.8968 116.161 32.9709Z" fill="#371C0E"/>
<path d="M87.1424 38.4527C87.094 39.5009 89.1631 40.4498 91.7649 40.5715C94.3668 40.6932 96.5165 39.9418 96.565 38.8949C96.6134 37.8467 94.5443 36.8978 91.9425 36.7761C89.3406 36.6544 87.1909 37.4045 87.1424 38.4527Z" fill="#EB7133"/>
<path d="M113.829 43.6891C114.234 43.7078 114.631 43.7053 115.009 43.6829C115.013 43.6494 115.017 43.6196 115.021 43.5861C115.106 42.9067 115.188 42.2187 115.271 41.5344C115.33 41.0376 115.386 40.5409 115.44 40.049C114.989 39.972 114.506 39.9174 114.005 39.8938C111.402 39.7721 109.256 40.5222 109.206 41.5692C109.156 42.6161 111.226 43.5662 113.829 43.6891Z" fill="#EB7133"/>
<path d="M104.685 43.6673C104.764 43.671 104.845 43.6549 104.919 43.6151C107.431 42.3061 107.976 41.52 108.06 41.3759C108.139 41.2406 108.144 41.0754 108.074 40.9363L105.343 35.4792C105.334 35.4631 105.326 35.4469 105.316 35.432C104.701 34.4981 104.782 32.7296 104.941 30.6854C104.96 30.4308 104.769 30.2072 104.515 30.1874C104.256 30.1725 104.036 30.3587 104.017 30.6133C103.846 32.8153 103.767 34.7353 104.526 35.9164L107.108 41.0766C106.832 41.3486 106.119 41.9447 104.491 42.7942C104.264 42.9122 104.177 43.1916 104.295 43.4189C104.374 43.5704 104.526 43.6598 104.685 43.6673Z" fill="#371C0E"/>
<path d="M84.317 30.9982C84.317 30.9982 81.9225 25.9262 76.8281 27.6773C71.7337 29.4284 72.5422 46.6664 82.3634 45.5561L84.317 30.9982Z" fill="#FA9761"/>
<path d="M81.1438 39.3432C81.1761 39.3445 81.2097 39.3432 81.2444 39.337C81.4966 39.2936 81.6655 39.0551 81.6232 38.803C81.5872 38.5882 80.6744 33.5285 76.2941 32.2978C76.0482 32.2282 75.7924 32.3723 75.7228 32.6182C75.6533 32.8641 75.7973 33.1199 76.0432 33.1895C79.8659 34.2637 80.7017 38.9123 80.7092 38.9583C80.7464 39.1768 80.9302 39.3333 81.1438 39.3432Z" fill="#371C0E"/>
<path d="M77.1883 37.3376C77.305 37.3425 77.423 37.3053 77.5161 37.2221C77.5261 37.2134 78.5084 36.3465 79.6585 35.5008C79.8646 35.3492 79.9081 35.0599 79.7566 34.8537C79.6051 34.6476 79.3157 34.6041 79.1095 34.7544C77.9247 35.6262 76.9436 36.4918 76.9026 36.5278C76.7114 36.698 76.6927 36.9898 76.8629 37.1811C76.9498 37.2792 77.0678 37.3326 77.1883 37.3376Z" fill="#371C0E"/>
<path d="M99.5691 23.5881C99.5691 23.5881 95.8545 22.8082 93.9308 25.0325C92.1598 27.0792 94.4511 27.9497 95.4 27.2915C96.622 26.4433 97.8205 26.0943 99.5654 26.0347C101.312 25.9738 100.985 23.8079 99.5691 23.5881Z" fill="#371C0E"/>
<path d="M109.401 24.6081C109.401 24.6081 113.196 24.6938 114.563 27.2981C115.821 29.6938 113.392 30.0204 112.618 29.1635C111.622 28.0594 110.533 27.4471 108.848 26.9913C107.161 26.5355 107.972 24.5013 109.401 24.6081Z" fill="#371C0E"/>
<path d="M75.0299 63.1597C75.0299 63.1597 92.3871 71.416 95.785 71.38C95.785 71.38 91.3178 74.8562 84.3319 75.5417C75.1677 76.4421 59.7206 74.4501 59.7206 74.4501C59.7206 74.4501 64.2661 65.0362 75.0299 63.1597Z" fill="#2D3D0C"/>
<path d="M103.879 61.8384C103.879 61.8384 103.931 69.598 95.785 71.3814C95.785 71.3814 97.2691 76.0337 104.219 75.0513C111.169 74.0702 115.647 69.0453 115.647 69.0453C115.647 69.0453 109.366 61.8384 103.879 61.8384Z" fill="#2D3D0C"/>
<path d="M82.4616 208.089C82.4616 208.089 54.3877 212.877 35.0719 201.471C24.1057 194.993 15.9611 183.295 17.3806 162.539C17.4017 162.225 17.3843 161.902 17.4514 161.591C29.2734 106.325 48.8984 82.4767 48.8984 82.4767C59.7305 79.6625 73.7954 80.2809 57.0901 151.608C52.1882 180.543 80.0944 182.914 80.0944 182.914L82.4616 208.089Z" fill="#5A6C31"/>
<path d="M56.5213 158.218C56.4306 158.218 56.3399 158.204 56.2493 158.175C55.7873 158.024 55.5339 157.528 55.6842 157.066C55.7972 156.719 66.9386 122.213 67.1311 103.98C67.136 103.495 67.526 103.116 68.0203 103.11C68.5059 103.115 68.8971 103.513 68.8909 103.999C68.6959 122.5 57.4713 157.261 57.3583 157.608C57.2378 157.982 56.8926 158.218 56.5213 158.218Z" fill="#2D3D0C"/>
<path d="M66.5847 118.487C66.4269 118.487 66.268 118.445 66.1239 118.356C65.7104 118.101 65.5812 117.558 65.837 117.145L70.9786 108.809C71.2345 108.395 71.7759 108.266 72.1895 108.522C72.6031 108.777 72.731 109.319 72.4764 109.733L67.3348 118.069C67.1684 118.338 66.879 118.487 66.5847 118.487Z" fill="#2D3D0C"/>
<path d="M76.5103 209.967C76.1688 209.967 75.8434 209.767 75.7006 209.432C72.474 201.869 73.2093 180.51 73.2416 179.605C73.259 179.119 73.67 178.739 74.1531 178.756C74.6387 178.774 75.0188 179.182 75.0014 179.668C74.9927 179.885 74.2463 201.537 77.3201 208.74C77.5101 209.187 77.3027 209.705 76.8556 209.895C76.7426 209.945 76.6246 209.967 76.5103 209.967Z" fill="#2D3D0C"/>
<path d="M82.7211 208.931C82.3572 209.043 76.499 210.811 68.3457 210.811C64.1741 210.811 59.4001 210.348 54.4547 208.963C54.3454 208.436 54.2436 207.893 54.1467 207.333C54.3467 207.212 54.5926 207.174 54.8335 207.242C68.9692 211.229 82.074 207.289 82.2032 207.248C82.6664 207.108 83.1632 207.365 83.3036 207.832C83.4451 208.295 83.1868 208.787 82.7211 208.931Z" fill="#2D3D0C"/>
<path d="M74.5218 180.522C74.1629 180.522 73.7928 180.511 73.4127 180.486C69.641 180.244 64.1604 178.591 59.4671 172.093C59.1827 171.7 59.2709 171.15 59.6658 170.864C60.0595 170.58 60.6097 170.668 60.8941 171.063C69.0796 182.395 79.7727 177.849 79.8795 177.801C80.3241 177.605 80.8432 177.806 81.0394 178.251C81.2357 178.696 81.0345 179.216 80.5899 179.411C80.4781 179.463 78.0315 180.522 74.5218 180.522Z" fill="#2D3D0C"/>
<path d="M61.5685 174.185C61.3462 174.185 61.1239 174.101 60.9538 173.931C60.6098 173.587 52.5707 165.389 56.2816 155.335C56.448 154.885 56.9485 154.655 57.3981 154.821C57.8489 154.988 58.0787 155.487 57.9123 155.938C54.5827 164.958 62.1063 172.626 62.1833 172.701C62.5223 173.04 62.5223 173.592 62.1833 173.931C62.0131 174.101 61.7908 174.185 61.5685 174.185Z" fill="#2D3D0C"/>
<path d="M56.4543 164.373C56.1923 164.373 55.934 164.255 55.7626 164.033C53.3656 160.902 46.9734 159.608 46.9088 159.596C46.4382 159.502 46.1314 159.045 46.2246 158.575C46.3177 158.104 46.7735 157.796 47.2454 157.889C47.5335 157.946 54.3455 159.321 57.1449 162.976C57.4367 163.357 57.3647 163.903 56.9834 164.196C56.8244 164.315 56.6381 164.373 56.4543 164.373Z" fill="#2D3D0C"/>
<path d="M35.0719 201.471C24.1057 194.993 15.9611 183.295 17.3806 162.539C25.0992 171.076 37.516 187.35 35.0719 201.471Z" fill="#2D3D0C"/>
<path d="M175.264 187.438C162.268 201.101 141.274 202.495 141.274 202.495C141.646 192.127 138.392 177.015 136.326 169.447C136.326 169.447 147.607 166.083 144.445 147.415C126.684 97.759 128.778 77.0299 133.188 77.8459C133.188 77.8459 165.408 108.313 182.297 156.312C182.924 158.095 183.081 160.039 183.434 161.959C185.379 172.534 181.462 180.924 175.264 187.438Z" fill="#5A6C31"/>
<path d="M175.264 187.438C173.201 175.985 179.25 162.275 182.298 156.312C182.703 158.158 183.083 160.04 183.435 161.96C185.379 172.535 181.462 180.924 175.264 187.438Z" fill="#2D3D0C"/>
<path d="M146.631 155.059C146.189 155.059 145.812 154.721 145.773 154.273C143.83 132.666 133.617 103.171 133.514 102.876C133.357 102.425 133.594 101.933 134.045 101.777C134.495 101.62 134.988 101.857 135.144 102.308C135.247 102.606 145.532 132.302 147.493 154.119C147.535 154.594 147.185 155.013 146.71 155.057C146.683 155.058 146.657 155.059 146.631 155.059Z" fill="#2D3D0C"/>
<path d="M138.322 115.852C138.065 115.896 137.791 115.826 137.586 115.633L130.719 109.251C130.37 108.927 130.35 108.38 130.675 108.031C131 107.682 131.545 107.662 131.894 107.987L138.761 114.369C139.11 114.693 139.13 115.239 138.806 115.588C138.673 115.732 138.501 115.821 138.322 115.852Z" fill="#2D3D0C"/>
<path d="M157.172 199.13C157.172 198.482 156.532 198.031 155.921 198.249C149.106 200.68 141.231 202.604 141.125 202.629C140.624 202.751 140.316 203.256 140.437 203.758C140.54 204.185 140.924 204.472 141.345 204.472C141.418 204.472 141.492 204.463 141.566 204.446C142.006 204.339 149.734 202.453 156.555 200.012C156.925 199.88 157.172 199.525 157.172 199.13Z" fill="#2D3D0C"/>
<path d="M136.31 164.696C136.057 164.696 135.807 164.586 135.637 164.374C135.339 164.002 135.398 163.458 135.77 163.16C137.078 162.11 148.694 152.935 153.766 154.277C154.227 154.398 154.501 154.872 154.379 155.332C154.258 155.793 153.786 156.068 153.324 155.946C149.734 154.996 140.216 161.804 136.851 164.506C136.69 164.634 136.5 164.696 136.31 164.696Z" fill="#2D3D0C"/>
</svg>
