<svg width="239" height="523" viewBox="0 0 239 523" fill="none" xmlns="http://www.w3.org/2000/svg">
<path d="M119.788 522.988C185.51 522.988 238.788 513.362 238.788 501.488C238.788 489.614 185.51 479.988 119.788 479.988C54.0661 479.988 0.787964 489.614 0.787964 501.488C0.787964 513.362 54.0661 522.988 119.788 522.988Z" fill="#E8CCCD"/>
<path d="M113.388 98.8999C113.388 98.8999 101.143 109.394 94.1463 133.009C87.1492 156.624 73.1549 159.248 66.1605 192.481C59.1634 225.716 62.6633 238.834 81.0284 240.584C99.3962 242.334 121.261 162.745 121.261 157.498C121.261 152.251 113.388 98.8999 113.388 98.8999Z" fill="#468CB1"/>
<path d="M209.595 180.237C209.595 180.237 220.089 224.841 219.215 237.961C218.342 251.079 212.218 253.703 212.218 253.703C212.218 253.703 216.592 270.321 210.468 277.318C204.348 284.315 169.362 288.688 153.62 288.688C137.879 288.688 125.635 231.841 125.635 231.841L157.994 175.866L209.595 180.237Z" fill="#322E47"/>
<path d="M73.1574 467.543L61.7867 495.967L73.5928 501.217L85.4017 472.355L73.1574 467.543Z" fill="#E38271"/>
<path d="M74.4694 498.374C74.4694 498.374 34.1285 480.663 30.5203 484.272C27.8968 488.207 71.5158 504.606 73.4849 504.278C75.454 503.948 74.4694 498.374 74.4694 498.374Z" fill="black"/>
<path d="M63.9724 496.078C63.9724 496.078 70.2041 489.846 76.7631 494.766C79.0594 498.374 74.1395 502.31 74.1395 502.31L63.9724 496.078Z" fill="black"/>
<path d="M185.22 444.949L211.45 460.735L218.525 449.924L191.934 433.636L185.22 444.949Z" fill="#E38271"/>
<path d="M215.86 448.604C215.86 448.604 191.901 485.579 194.882 489.719C198.346 492.942 221.537 452.52 221.529 450.524C221.52 448.529 215.86 448.604 215.86 448.604Z" fill="black"/>
<path d="M211.908 458.596C211.908 458.596 206.758 451.443 212.668 445.761C216.598 444.075 219.693 449.563 219.693 449.563L211.908 458.596Z" fill="black"/>
<path d="M81.9025 263.326C83.6524 266.823 89.7732 332.418 101.144 357.783C112.515 383.145 185.107 452.24 190.354 454.864C195.601 458.361 205.222 443.493 206.972 437.372C206.972 437.372 161.492 377.898 155.371 364.78C149.247 351.662 139.63 265.076 139.63 265.076L81.9025 263.326Z" fill="#B37564"/>
<path d="M190.354 454.861C195.601 458.358 205.222 443.49 206.972 437.37C206.972 437.37 161.492 377.895 155.371 364.777C149.855 352.955 141.499 281.494 139.901 267.483L135.475 265.511L119.076 268.792C119.076 268.792 103.335 317.988 102.023 327.828C100.711 337.668 126.95 377.682 126.95 377.682L124.57 389.579C150.132 418.727 186.685 453.028 190.354 454.861Z" fill="#AA595C"/>
<path d="M124.758 266.823C124.758 266.823 116.011 287.814 110.764 309.679C105.517 331.544 98.5197 342.915 89.7726 374.401C81.0255 405.887 62.6605 469.732 61.7869 477.602C62.6605 481.976 74.9048 485.473 85.4018 485.473C85.4018 485.473 91.5226 470.605 105.517 438.246C119.511 405.887 140.5 356.033 154.494 326.297C168.488 296.561 174.609 293.062 177.233 276.444C179.856 259.826 179.856 253.705 179.856 253.705L124.758 266.823Z" fill="#B37564"/>
<path d="M162.365 82.2819C162.365 82.2819 168.488 87.529 180.733 92.7762C192.977 98.0233 199.1 110.268 198.224 122.512C197.348 134.756 191.227 145.251 190.353 182.86C189.48 220.466 201.724 245.831 197.35 259.825C192.977 273.82 120.385 281.69 90.6489 272.943C81.0282 269.443 66.1603 253.702 74.9047 230.087C83.649 206.472 95.8961 174.986 101.143 140.003C106.39 105.02 112.514 94.5234 128.255 86.6526C144 78.7847 162.365 82.2819 162.365 82.2819Z" fill="#4690B7"/>
<path d="M141.377 52.982L131.864 82.5014C131.864 82.5014 129.568 89.0603 123.009 92.3412C117.143 95.2754 140.065 111.364 166.301 89.7176C166.955 86.4368 163.02 83.8132 161.053 74.6306C159.084 65.4481 161.711 48.3921 161.711 48.3921L141.377 52.982Z" fill="#E38271"/>
<path d="M185.98 95.3999C185.98 95.3999 210.468 110.268 220.089 147.877C229.71 185.484 212.218 253.705 175.486 254.578C138.753 255.452 118.638 238.837 132.629 209.975C146.623 181.113 155.368 202.104 168.488 173.242C181.606 144.38 144 118.141 185.98 95.3999Z" fill="#4690B7"/>
<path d="M128.256 110.051C128.256 110.051 128.913 102.835 146.623 92.3409C164.334 81.8466 161.053 74.6304 161.053 74.6304C161.053 74.6304 165.646 70.695 172.205 74.6304C178.764 78.5658 177.452 80.5349 179.421 80.5349C181.387 80.5349 190.572 77.254 195.162 87.0938C199.755 96.9336 196.474 102.835 194.508 102.181C192.539 101.523 176.14 98.8999 160.399 106.773C144.654 114.644 131.536 132.355 128.913 126.453C126.289 120.546 125.632 118.577 128.256 110.051Z" fill="#467A9C"/>
<path d="M131.428 84.1406C131.428 84.1406 126.07 90.4805 129.132 96.2768C132.604 102.85 133.941 100.212 132.629 107.647C131.317 115.08 130.879 128.639 128.255 127.327C125.632 126.015 120.385 119.892 120.82 112.897C121.258 105.9 116.447 98.4677 118.635 92.3442C120.823 86.2179 121.807 86.326 131.428 84.1406Z" fill="#467A9C"/>
<path d="M135.558 7.42943C135.558 7.42943 118.743 5.57683 116.436 29.9822C114.129 54.3876 112.478 67.8272 114.503 76.4135C116.528 84.997 136.074 83.6297 150.121 75.1599C164.168 66.6929 165.718 54.9367 167.368 41.4943C169.021 28.0492 167.113 3.39423 135.558 7.42943Z" fill="#E38271"/>
<path d="M168.683 20.1871C168.683 20.1871 168.683 12.8905 163.94 7.41867C159.198 1.94687 147.888 -0.607368 140.958 0.12202C134.027 0.851408 125.272 7.05258 122.351 5.95989C119.434 4.86442 119.068 0.851411 116.88 1.5808C114.691 2.31019 114.281 3.26699 114.142 4.49836C114.006 5.72972 115.374 6.14017 114.689 6.82518C114.004 7.51019 113.868 7.37153 112.911 7.23564C111.954 7.09975 111.954 6.41472 110.859 7.37152C109.763 8.32833 109.627 8.6029 109.491 9.97015C109.356 11.3374 109.902 12.297 110.587 12.4329C111.272 12.5688 112.229 13.1179 111.818 13.9388C111.408 14.7597 108.535 15.5806 110.312 18.0433C112.09 20.5061 113.186 18.4538 114.278 19.4106C115.374 20.3674 114.142 21.327 114.963 22.5556C115.784 23.7869 116.741 23.7869 117.562 23.7869C118.383 23.7869 119.34 23.1019 120.435 23.5124C121.531 23.9228 122.762 25.9751 125.496 27.3424C128.234 28.7096 131.517 29.3946 135.758 27.4782C139.998 25.5619 145.334 22.6915 148.618 22.9632C151.901 23.2378 152.037 26.5214 152.176 28.7096C152.312 30.8978 151.765 37.7396 151.08 39.7919C150.395 41.8441 148.207 45.2637 148.482 47.0414C148.756 48.8191 150.124 48.2727 151.491 48.5473C152.858 48.8218 153.269 46.2205 153.679 44.9891C154.09 43.7577 155.867 38.2859 158.469 38.15C161.067 38.0141 162.984 39.656 162.435 44.3069C161.888 48.9577 161.339 51.2846 158.058 53.4727C154.775 55.6609 154.045 62.7301 155.002 63.4152C155.959 64.1002 159.561 67.6112 159.561 67.6112C159.561 67.6112 165.033 61.227 167.404 57.0309C169.776 52.8349 170.505 48.2755 173.059 38.6076C175.613 28.9398 176.343 22.3781 168.683 20.1871Z" fill="#322E47"/>
<path d="M79.0594 246.489C79.0594 246.489 75.7786 212.379 87.5875 201.885C93.7886 196.372 152.525 198.604 152.525 209.756C152.525 220.907 159.084 242.553 170.236 248.458C170.893 256.328 100.708 260.918 79.0594 246.489Z" fill="#469DC9"/>
<path d="M185.98 138.256L187.949 145.473C187.949 145.473 200.457 137.355 218.858 143.631C217.784 140.04 216.595 136.659 215.291 133.508C207.961 132.022 197.373 131.847 185.98 138.256Z" fill="#469DC9"/>
<path d="M113.388 98.8999C113.388 98.8999 107.594 107.098 103.986 119.891C100.378 132.682 101.035 132.355 99.7234 143.506C98.4116 154.658 94.1462 163.513 94.4762 164.825C94.8035 166.137 94.8035 170.399 94.8035 170.399C94.8035 170.399 92.1799 169.088 92.1799 162.201C92.1799 155.312 95.4608 149.083 96.7726 139.244C98.0844 129.404 99.7234 116.286 102.347 110.382C104.971 104.474 106.391 98.8999 113.388 98.8999Z" fill="#322E47"/>
</svg>
