<svg width="308" height="524" viewBox="0 0 308 524" fill="none" xmlns="http://www.w3.org/2000/svg">
<path d="M154.288 524C239.064 524 307.788 514.374 307.788 502.5C307.788 490.626 239.064 481 154.288 481C69.5124 481 0.788086 490.626 0.788086 502.5C0.788086 514.374 69.5124 524 154.288 524Z" fill="#E8CCCD"/>
<path d="M222.785 195.203C222.785 195.203 232.371 276 222.785 286.955C213.199 297.911 163.899 299.28 147.466 288.325C131.033 277.369 165.268 219.853 165.268 219.853L222.785 195.203Z" fill="#231E3C"/>
<path d="M254.966 280.45C254.966 280.45 254.966 289.694 253.255 293.802C251.543 297.91 248.804 300.649 244.696 298.595C240.587 296.541 244.011 289.009 244.011 289.009C244.011 289.009 240.93 291.063 241.614 287.297C242.299 283.531 245.38 276 245.38 276L254.966 280.45Z" fill="#E38271"/>
<path d="M74.297 464.044L62.0872 494.566L74.7654 500.202L87.4436 469.209L74.297 464.044Z" fill="#E38271"/>
<path d="M75.7046 497.149C75.7046 497.149 32.3866 478.13 28.5111 482.005C25.6928 486.231 72.5357 503.842 74.6473 503.489C76.7617 503.136 75.7046 497.149 75.7046 497.149Z" fill="black"/>
<path d="M64.4343 494.683C64.4343 494.683 71.1254 487.992 78.1698 493.276C80.6348 497.151 75.3515 501.377 75.3515 501.377L64.4343 494.683Z" fill="black"/>
<path d="M129.707 248.504C129.707 248.504 120.316 271.045 114.679 294.522C109.045 318.003 101.53 330.21 92.1381 364.021C82.7465 397.833 63.0239 466.392 62.0845 474.844C63.0239 479.541 76.1733 483.296 87.441 483.296C87.441 483.296 94.0142 467.331 109.042 432.581C124.071 397.83 146.609 344.299 161.637 312.366C176.665 280.434 183.238 276.679 186.054 258.832C188.872 240.989 188.872 234.413 188.872 234.413L129.707 248.504Z" fill="#F2DDDC"/>
<path d="M262.619 452.432L290.785 469.383L298.383 457.773L269.828 440.282L262.619 452.432Z" fill="#E38271"/>
<path d="M295.521 456.356C295.521 456.356 269.795 496.058 272.996 500.506C276.716 503.966 301.617 460.56 301.609 458.418C301.601 456.274 295.521 456.356 295.521 456.356Z" fill="black"/>
<path d="M291.279 467.085C291.279 467.085 285.749 459.405 292.095 453.3C296.315 451.49 299.638 457.381 299.638 457.381L291.279 467.085Z" fill="black"/>
<path d="M151.673 257.395C153.552 261.152 168.383 343.354 180.593 370.592C192.802 397.827 262.496 460.257 268.129 463.075C273.763 466.833 284.094 450.865 285.973 444.292C285.973 444.292 237.136 380.43 230.563 366.341C223.99 352.252 213.659 259.276 213.659 259.276L151.673 257.395Z" fill="#F2DDDC"/>
<path d="M210.106 386.404C200.602 386.404 193.421 384.867 187.971 382.736C209.78 412.995 263.224 460.621 268.129 463.075C273.763 466.83 284.094 450.866 285.973 444.292C285.973 444.292 242.189 387.036 231.971 369.006C227.786 378.869 221.018 386.404 210.106 386.404Z" fill="#DEC9B8"/>
<path d="M180.217 57.4033L170.823 86.5529C170.823 86.5529 168.555 93.0304 162.078 96.2705C156.282 99.1682 178.922 115.056 204.831 93.6795C205.48 90.4395 201.591 87.8485 199.649 78.7801C197.705 69.7117 200.296 52.8677 200.296 52.8677L180.217 57.4033Z" fill="#E38271"/>
<path d="M174.471 12.4137C174.471 12.4137 157.865 10.5841 155.587 34.6862C153.308 58.7882 151.678 72.0608 153.678 80.5403C155.677 89.0171 174.981 87.6668 188.853 79.3023C202.725 70.9406 204.256 59.3305 205.886 46.0552C207.518 32.7799 205.631 8.42861 174.471 12.4137Z" fill="#E38271"/>
<path d="M202.927 11.0147C202.927 11.0147 202.927 4.85225 198.477 4.50989C195.396 4.16753 194.369 7.59111 192.999 6.9064C191.63 6.22168 191.287 1.42866 187.179 1.77102C183.071 2.11338 181.701 4.85225 181.701 4.85225C181.701 4.85225 179.989 -0.625485 176.566 0.0592315C173.142 0.743948 171.431 4.50989 171.431 4.50989C171.431 4.50989 167.322 2.45574 163.899 4.85225C160.475 7.24876 162.529 8.96055 160.475 10.33C158.421 11.6994 153.628 12.3841 153.97 15.8077C154.313 19.2313 157.051 20.2584 154.997 21.2854C152.943 22.3125 149.177 21.9702 148.15 27.7903C147.123 33.6104 151.916 34.6374 151.916 34.6374C151.916 34.6374 152.258 39.0881 156.024 40.7999C159.79 42.5117 166.295 37.3763 166.295 37.3763C166.295 37.3763 165.953 41.827 171.431 40.7999C176.908 39.7728 175.196 34.9798 177.935 34.6374C180.674 34.2951 177.935 37.7187 182.728 36.3492C187.521 34.9798 185.81 31.5562 189.233 31.2138C192.657 30.8715 193.684 31.8986 194.026 34.2951C194.369 36.6916 192.657 38.4034 193.341 40.7999C194.026 43.1964 194.026 42.1693 194.711 44.9082C195.396 47.647 193.684 50.7283 192.999 53.1248C192.314 55.5213 191.972 60.3143 191.972 60.3143C191.972 60.3143 195.396 60.6567 196.423 58.6025C197.45 56.5484 197.107 52.4401 198.477 50.7283C199.846 49.0165 201.558 49.0165 202.585 52.4401C203.612 55.8636 202.585 59.2872 200.531 60.999C198.477 62.7108 196.765 64.765 197.792 66.4768C198.819 68.1885 199.846 69.9003 200.873 69.2156C201.9 68.5309 203.955 65.792 206.351 60.999C208.748 56.206 213.198 59.6296 214.91 56.5484C216.622 53.4671 214.225 50.0435 214.225 50.0435C214.225 50.0435 217.307 48.6741 216.964 44.5658C216.622 40.4575 213.883 39.0881 215.937 37.0339C217.991 34.9798 220.73 34.6374 219.018 31.5562C217.307 28.475 215.595 28.475 215.595 28.475C215.595 28.475 220.045 26.0785 216.622 23.682C213.198 21.2854 211.486 21.9702 211.144 20.6007C210.802 19.2313 212.856 14.4383 209.775 13.0688C206.693 11.6994 205.666 13.4112 205.666 13.4112C205.666 13.4112 206.693 10.6723 202.927 11.0147Z" fill="#231E3C"/>
<path d="M164.583 93.8649C164.583 93.8649 161.844 99.3427 172.115 101.397C182.386 103.451 203.612 88.3872 203.612 88.3872C203.612 88.3872 215.937 88.3872 219.361 94.5497C222.784 99.3427 221.415 102.082 221.415 102.082C221.415 102.082 231.001 108.244 239.217 120.569C247.434 132.894 237.848 158.228 238.533 181.509C239.217 204.789 239.217 228.754 234.424 247.241C229.631 265.729 167.322 280.793 120.761 269.837C110.491 269.152 108.436 245.872 111.86 236.286C115.284 226.7 121.446 206.158 125.554 181.509C129.663 156.859 139.933 112.352 145.411 108.244C150.889 104.136 150.889 104.136 150.889 104.136C150.889 104.136 150.889 97.2885 164.583 93.8649Z" fill="#664756"/>
<path d="M239.217 120.569C239.217 120.569 247.434 128.785 250.857 160.967C254.281 193.149 257.02 194.518 258.389 215.744C259.759 236.971 259.759 273.261 257.705 278.738C255.65 284.216 244.695 285.586 240.587 282.847C236.478 280.108 234.424 260.251 228.947 244.503C223.469 228.754 220.73 197.257 217.306 172.607C213.883 147.958 217.991 120.569 239.217 120.569Z" fill="#664756"/>
<path d="M115.057 155.49C115.057 155.49 100.45 202.508 123.731 215.745C147.011 228.982 179.877 135.861 173.03 122.166C166.183 108.472 156.597 101.625 147.923 104.821C139.249 108.017 122.816 155.948 122.816 155.948L115.057 155.49Z" fill="#664756"/>
<path d="M150.889 104.136C150.889 104.136 130.575 128.101 126.012 150.924C123.273 165.988 126.469 189.268 126.012 192.007C125.555 195.661 122.816 202.051 122.816 202.051C122.816 202.051 114.142 180.14 119.62 151.839C125.097 123.536 137.422 100.255 150.889 104.136Z" fill="#231E3C"/>
<path d="M118.25 148.185C118.25 148.185 121.446 142.25 126.467 144.077C131.487 145.904 129.205 153.663 126.009 156.859C122.813 160.055 121.901 157.771 121.901 157.771C121.901 157.771 124.182 161.422 122.358 162.791C120.532 164.161 115.054 159.14 115.054 155.487C115.054 151.833 118.25 148.185 118.25 148.185Z" fill="#E38271"/>
</svg>
